  0
SECTION
  2
HEADER
  9
$ACADVER
  1
AC1021
  9
$ACADMAINTVER
 70
1
  9
$DWGCODEPAGE
  3
ANSI_1252
  9
$LASTSAVEDBY
  1
Administrator
  9
$INSBASE
 10
0.0
 20
0.0
 30
0.0
  9
$EXTMIN
 10
1e+20
 20
1e+20
 30
1e+20
  9
$EXTMAX
 10
-1e+20
 20
-1e+20
 30
-1e+20
  9
$LIMMIN
 10
0.0
 20
0.0
  9
$LIMMAX
 10
12.0
 20
9.0
  9
$ORTHOMODE
 70
0
  9
$REGENMODE
 70
1
  9
$FILLMODE
 70
1
  9
$QTEXTMODE
 70
0
  9
$MIRRTEXT
 70
0
  9
$LTSCALE
 40
1.0
  9
$ATTMODE
 70
1
  9
$TEXTSIZE
 40
2.5
  9
$TRACEWID
 40
0.05
  9
$TEXTSTYLE
  7
Standard
  9
$CLAYER
  8
0
  9
$CELTYPE
  6
ByLayer
  9
$CECOLOR
 62
256
  9
$CELTSCALE
 40
1.0
  9
$DISPSILH
 70
0
  9
$DIMSCALE
 40
1.0
  9
$DIMASZ
 40
0.18
  9
$DIMEXO
 40
0.0625
  9
$DIMDLI
 40
0.38
  9
$DIMRND
 40
0.0
  9
$DIMDLE
 40
0.0
  9
$DIMEXE
 40
0.18
  9
$DIMTP
 40
0.0
  9
$DIMTM
 40
0.0
  9
$DIMTXT
 40
0.18
  9
$DIMCEN
 40
0.09
  9
$DIMTSZ
 40
0.0
  9
$DIMTOL
 70
0
  9
$DIMLIM
 70
0
  9
$DIMTIH
 70
1
  9
$DIMTOH
 70
1
  9
$DIMSE1
 70
0
  9
$DIMSE2
 70
0
  9
$DIMTAD
 70
0
  9
$DIMZIN
 70
0
  9
$DIMBLK
  1

  9
$DIMASO
 70
1
  9
$DIMSHO
 70
1
  9
$DIMPOST
  1

  9
$DIMAPOST
  1

  9
$DIMALT
 70
0
  9
$DIMALTD
 70
2
  9
$DIMALTF
 40
25.4
  9
$DIMLFAC
 40
1.0
  9
$DIMTOFL
 70
0
  9
$DIMTVP
 40
0.0
  9
$DIMTIX
 70
0
  9
$DIMSOXD
 70
0
  9
$DIMSAH
 70
0
  9
$DIMBLK1
  1

  9
$DIMBLK2
  1

  9
$DIMSTYLE
  2
ISO-25
  9
$DIMCLRD
 70
0
  9
$DIMCLRE
 70
0
  9
$DIMCLRT
 70
0
  9
$DIMTFAC
 40
1.0
  9
$DIMGAP
 40
0.09
  9
$DIMJUST
 70
0
  9
$DIMSD1
 70
0
  9
$DIMSD2
 70
0
  9
$DIMTOLJ
 70
1
  9
$DIMTZIN
 70
0
  9
$DIMALTZ
 70
0
  9
$DIMALTTZ
 70
0
  9
$DIMUPT
 70
0
  9
$DIMDEC
 70
4
  9
$DIMTDEC
 70
4
  9
$DIMALTU
 70
2
  9
$DIMALTTD
 70
2
  9
$DIMTXSTY
  7
Standard
  9
$DIMAUNIT
 70
0
  9
$DIMADEC
 70
0
  9
$DIMALTRND
 40
0.0
  9
$DIMAZIN
 70
0
  9
$DIMDSEP
 70
46
  9
$DIMATFIT
 70
3
  9
$DIMFRAC
 70
0
  9
$DIMLDRBLK
  1

  9
$DIMLUNIT
 70
2
  9
$DIMLWD
 70
-2
  9
$DIMLWE
 70
-2
  9
$DIMTMOVE
 70
0
  9
$DIMFXL
 40
1.0
  9
$DIMFXLON
 70
0
  9
$DIMJOGANG
 40
0.7853981633974483
  9
$DIMTFILL
 70
0
  9
$DIMTFILLCLR
 70
0
  9
$DIMARCSYM
 70
0
  9
$DIMLTYPE
  6

  9
$DIMLTEX1
  6

  9
$DIMLTEX2
  6

  9
$LUNITS
 70
2
  9
$LUPREC
 70
4
  9
$SKETCHINC
 40
0.1
  9
$FILLETRAD
 40
0.0
  9
$AUNITS
 70
0
  9
$AUPREC
 70
0
  9
$MENU
  1
.
  9
$ELEVATION
 40
0.0
  9
$PELEVATION
 40
0.0
  9
$THICKNESS
 40
0.0
  9
$LIMCHECK
 70
0
  9
$CHAMFERA
 40
0.0
  9
$CHAMFERB
 40
0.0
  9
$CHAMFERC
 40
0.0
  9
$CHAMFERD
 40
0.0
  9
$SKPOLY
 70
0
  9
$TDCREATE
 40
2461134.735790231
  9
$TDUCREATE
 40
2461134.985790232
  9
$TDUPDATE
 40
2461134.736115266
  9
$TDUUPDATE
 40
2461134.986115266
  9
$TDINDWG
 40
0.000326331
  9
$TDUSRTIMER
 40
0.000326169
  9
$USRTIMER
 70
1
  9
$ANGBASE
 50
0.0
  9
$ANGDIR
 70
0
  9
$PDMODE
 70
0
  9
$PDSIZE
 40
0.0
  9
$PLINEWID
 40
0.0
  9
$SPLFRAME
 70
0
  9
$SPLINETYPE
 70
6
  9
$SPLINESEGS
 70
8
  9
$HANDSEED
  5
289
  9
$SURFTAB1
 70
6
  9
$SURFTAB2
 70
6
  9
$SURFTYPE
 70
6
  9
$SURFU
 70
6
  9
$SURFV
 70
6
  9
$UCSBASE
  2

  9
$UCSNAME
  2

  9
$UCSORG
 10
0.0
 20
0.0
 30
0.0
  9
$UCSXDIR
 10
1.0
 20
0.0
 30
0.0
  9
$UCSYDIR
 10
0.0
 20
1.0
 30
0.0
  9
$UCSORTHOREF
  2

  9
$UCSORTHOVIEW
 70
0
  9
$UCSORGTOP
 10
0.0
 20
0.0
 30
0.0
  9
$UCSORGBOTTOM
 10
0.0
 20
0.0
 30
0.0
  9
$UCSORGLEFT
 10
0.0
 20
0.0
 30
0.0
  9
$UCSORGRIGHT
 10
0.0
 20
0.0
 30
0.0
  9
$UCSORGFRONT
 10
0.0
 20
0.0
 30
0.0
  9
$UCSORGBACK
 10
0.0
 20
0.0
 30
0.0
  9
$PUCSBASE
  2

  9
$PUCSNAME
  2

  9
$PUCSORG
 10
0.0
 20
0.0
 30
0.0
  9
$PUCSXDIR
 10
1.0
 20
0.0
 30
0.0
  9
$PUCSYDIR
 10
0.0
 20
1.0
 30
0.0
  9
$PUCSORTHOREF
  2

  9
$PUCSORTHOVIEW
 70
0
  9
$PUCSORGTOP
 10
0.0
 20
0.0
 30
0.0
  9
$PUCSORGBOTTOM
 10
0.0
 20
0.0
 30
0.0
  9
$PUCSORGLEFT
 10
0.0
 20
0.0
 30
0.0
  9
$PUCSORGRIGHT
 10
0.0
 20
0.0
 30
0.0
  9
$PUCSORGFRONT
 10
0.0
 20
0.0
 30
0.0
  9
$PUCSORGBACK
 10
0.0
 20
0.0
 30
0.0
  9
$USERI1
 70
0
  9
$USERI2
 70
0
  9
$USERI3
 70
0
  9
$USERI4
 70
0
  9
$USERI5
 70
0
  9
$USERR1
 40
0.0
  9
$USERR2
 40
0.0
  9
$USERR3
 40
0.0
  9
$USERR4
 40
0.0
  9
$USERR5
 40
0.0
  9
$WORLDVIEW
 70
1
  9
$SHADEDGE
 70
3
  9
$SHADEDIF
 70
70
  9
$TILEMODE
 70
1
  9
$MAXACTVP
 70
64
  9
$PINSBASE
 10
0.0
 20
0.0
 30
0.0
  9
$PLIMCHECK
 70
0
  9
$PEXTMIN
 10
0.0
 20
0.0
 30
0.0
  9
$PEXTMAX
 10
0.0
 20
0.0
 30
0.0
  9
$PLIMMIN
 10
0.0
 20
0.0
  9
$PLIMMAX
 10
12.0
 20
9.0
  9
$UNITMODE
 70
0
  9
$VISRETAIN
 70
1
  9
$PLINEGEN
 70
0
  9
$PSLTSCALE
 70
1
  9
$TREEDEPTH
 70
3020
  9
$CMLSTYLE
  2
Standard
  9
$CMLJUST
 70
0
  9
$CMLSCALE
 40
1.0
  9
$PROXYGRAPHICS
 70
1
  9
$MEASUREMENT
 70
0
  9
$CELWEIGHT
370
-1
  9
$ENDCAPS
280
0
  9
$JOINSTYLE
280
0
  9
$LWDISPLAY
290
0
  9
$INSUNITS
 70
4
  9
$HYPERLINKBASE
  1

  9
$STYLESHEET
  1

  9
$XEDIT
290
1
  9
$CEPSNTYPE
380
0
  9
$PSTYLEMODE
290
1
  9
$FINGERPRINTGUID
  2
{F6527B4C-C152-47DC-8E14-96D8FEF1295F}
  9
$VERSIONGUID
  2
{FBC2AE19-5C5C-49EC-81BC-71B1A3362A02}
  9
$EXTNAMES
290
1
  9
$PSVPSCALE
 40
0.0
  9
$OLESTARTUP
290
0
  9
$SORTENTS
280
127
  9
$INDEXCTL
280
0
  9
$HIDETEXT
280
1
  9
$XCLIPFRAME
290
0
  9
$HALOGAP
280
0
  9
$OBSCOLOR
 70
257
  9
$OBSLTYPE
280
0
  9
$INTERSECTIONDISPLAY
280
0
  9
$INTERSECTIONCOLOR
 70
257
  9
$DIMASSOC
280
2
  9
$PROJECTNAME
  1

  9
$CAMERADISPLAY
290
0
  9
$LENSLENGTH
 40
50.0
  9
$CAMERAHEIGHT
 40
0.0
  9
$STEPSPERSEC
 40
2.0
  9
$STEPSIZE
 40
6.0
  9
$3DDWFPREC
 40
2.0
  9
$PSOLWIDTH
 40
0.25
  9
$PSOLHEIGHT
 40
4.0
  9
$LOFTANG1
 40
1.570796326794896
  9
$LOFTANG2
 40
1.570796326794896
  9
$LOFTMAG1
 40
0.0
  9
$LOFTMAG2
 40
0.0
  9
$LOFTPARAM
 70
7
  9
$LOFTNORMALS
280
1
  9
$LATITUDE
 40
37.795
  9
$LONGITUDE
 40
-122.394
  9
$NORTHDIRECTION
 40
0.0
  9
$TIMEZONE
 70
-8000
  9
$LIGHTGLYPHDISPLAY
280
1
  9
$TILEMODELIGHTSYNCH
280
1
  9
$CMATERIAL
347
96
  9
$SOLIDHIST
280
1
  9
$SHOWHIST
280
1
  9
$DWFFRAME
280
2
  9
$DGNFRAME
280
0
  9
$REALWORLDSCALE
290
1
  9
$INTERFERECOLOR
 62
1
  9
$INTERFEREOBJVS
345
A3
  9
$INTERFEREVPVS
346
A0
  9
$CSHADOW
280
0
  9
$SHADOWPLANELOCATION
 40
0.0
  0
ENDSEC
  0
SECTION
  2
CLASSES
  0
CLASS
  1
ACDBDICTIONARYWDFLT
  2
AcDbDictionaryWithDefault
  3
ObjectDBX Classes
 90
0
 91
1
280
0
281
0
  0
CLASS
  1
DICTIONARYVAR
  2
AcDbDictionaryVar
  3
ObjectDBX Classes
 90
0
 91
3
280
0
281
0
  0
CLASS
  1
TABLESTYLE
  2
AcDbTableStyle
  3
ObjectDBX Classes
 90
4095
 91
1
280
0
281
0
  0
CLASS
  1
MATERIAL
  2
AcDbMaterial
  3
ObjectDBX Classes
 90
1024
 91
3
280
0
281
0
  0
CLASS
  1
VISUALSTYLE
  2
AcDbVisualStyle
  3
ObjectDBX Classes
 90
4095
 91
16
280
0
281
0
  0
CLASS
  1
ACAD_TABLE
  2
AcDbTable
  3
ObjectDBX Classes
 90
1025
 91
7
280
0
281
1
  0
CLASS
  1
CELLSTYLEMAP
  2
AcDbCellStyleMap
  3
ObjectDBX Classes
 90
1152
 91
9
280
0
281
0
  0
CLASS
  1
TABLECONTENT
  2
AcDbTableContent
  3
ObjectDBX Classes
 90
1152
 91
3
280
0
281
0
  0
CLASS
  1
TABLEGEOMETRY
  2
AcDbTableGeometry
  3
ObjectDBX Classes
 90
1152
 91
3
280
0
281
0
  0
ENDSEC
  0
SECTION
  2
TABLES
  0
TABLE
  2
VPORT
  5
4
330
0
100
AcDbSymbolTable
 70
1
  0
VPORT
  5
5
330
4
100
AcDbSymbolTableRecord
100
AcDbViewportTableRecord
  2
*Active
 70
0
 10
0.0
 20
0.0
 11
1.0
 21
1.0
 12
112.930758656207
 22
-0.280905581411105
 13
0.0
 23
0.0
 14
10.0
 24
10.0
 15
10.0
 25
10.0
 16
0.0
 26
0.0
 36
1.0
 17
0.0
 27
0.0
 37
0.0
 40
119.970040767987
 41
1.57978723404255
 42
50.0
 43
0.0
 44
0.0
 50
0.0
 51
0.0
 71
0
 72
1000
 73
1
 74
3
 75
0
 76
0
 77
0
 78
0
281
0
 65
1
110
0.0
120
0.0
130
0.0
111
1.0
121
0.0
131
0.0
112
0.0
122
1.0
132
0.0
 79
0
146
0.0
  0
ENDTAB
  0
TABLE
  2
LTYPE
  5
6
330
0
100
AcDbSymbolTable
 70
1
  0
LTYPE
  5
A
330
A
100
AcDbSymbolTableRecord
100
AcDbLinetypeTableRecord
  2
Continuous
 70
0
  3
Solid line
 72
65
 73
0
 40
0.0
  0
LTYPE
  5
B
330
B
100
AcDbSymbolTableRecord
100
AcDbLinetypeTableRecord
  2
ByLayer
 70
0
  3

 72
65
 73
0
 40
0.0
  0
LTYPE
  5
C
330
C
100
AcDbSymbolTableRecord
100
AcDbLinetypeTableRecord
  2
ByBlock
 70
0
  3

 72
65
 73
0
 40
0.0
  0
ENDTAB
  0
TABLE
  2
LAYER
  5
D
330
0
100
AcDbSymbolTable
 70
1
  0
LAYER
  5
10
100
AcDbSymbolTableRecord
100
AcDbLayerTableRecord
  2
0
 70
0
 62
7
  6
Continuous
290
1
370
-3
390
F
  0
LAYER
  5
11
100
AcDbSymbolTableRecord
100
AcDbLayerTableRecord
  2
SYS_METRIC
 70
0
 62
-7
  6
Continuous
290
0
370
-3
390
F
  0
ENDTAB
  0
TABLE
  2
STYLE
  5
12
330
0
100
AcDbSymbolTable
 70
1
  0
STYLE
  5
14
330
12
100
AcDbSymbolTableRecord
100
AcDbTextStyleTableRecord
  2
Standard
 70
0
 40
0.0
 41
1.0
 50
0.0
 71
0
 42
2.5
  3
txt
  4

  0
STYLE
  5
15
330
12
100
AcDbSymbolTableRecord
100
AcDbTextStyleTableRecord
  2
Annotative
 70
0
 40
0.0
 41
1.0
 50
0.0
 71
0
 42
2.5
  3
txt.shx
  4

1001
ACAD
1000
AnnotativeData
  0
STYLE
  5
16
330
12
100
AcDbSymbolTableRecord
100
AcDbTextStyleTableRecord
  2
newtext
 70
0
 40
0.0
 41
1.0
 50
0.0
 71
0
 42
2.5
  3
times.ttf
  4

1001
ACAD
1000
Times New Roman
  0
STYLE
  5
200
330
12
100
AcDbSymbolTableRecord
100
AcDbTextStyleTableRecord
  2
newtext
 70
0
 40
0.0
 41
1.0
 50
0.0
 71
0
 42
0.2
  3
times.ttf
  4

1001
ACAD
1000
Times New Roman
1071
18
  0
ENDTAB
  0
TABLE
  2
VIEW
  5
17
330
0
100
AcDbSymbolTable
 70
0
  0
ENDTAB
  0
TABLE
  2
UCS
  5
18
330
0
100
AcDbSymbolTable
 70
0
  0
ENDTAB
  0
TABLE
  2
APPID
  5
19
330
0
100
AcDbSymbolTable
 70
1
  0
APPID
  5
1B
100
AcDbSymbolTableRecord
100
AcDbRegAppTableRecord
  2
ACAD
 70
0
  0
APPID
  5
1C
100
AcDbSymbolTableRecord
100
AcDbRegAppTableRecord
  2
ACAD_PSEXT
 70
0
  0
APPID
  5
1D
100
AcDbSymbolTableRecord
100
AcDbRegAppTableRecord
  2
AcAecLayerStandard
 70
0
  0
APPID
  5
1E
100
AcDbSymbolTableRecord
100
AcDbRegAppTableRecord
  2
DSTP_XDATA
 70
0
  0
APPID
  5
1F
100
AcDbSymbolTableRecord
100
AcDbRegAppTableRecord
  2
ACAD_DSTYLE_DIM_LINETYPE
 70
0
  0
APPID
  5
20
100
AcDbSymbolTableRecord
100
AcDbRegAppTableRecord
  2
ACAD_DSTYLE_DIM_EXT1_LINETYPE
 70
0
  0
APPID
  5
21
100
AcDbSymbolTableRecord
100
AcDbRegAppTableRecord
  2
ACAD_DSTYLE_DIM_EXT2_LINETYPE
 70
0
  0
ENDTAB
  0
TABLE
  2
DIMSTYLE
  5
22
330
0
100
AcDbSymbolTable
 70
1
100
AcDbDimStyleTable
 71
0
  0
DIMSTYLE
105
24
330
22
100
AcDbSymbolTableRecord
100
AcDbDimStyleTableRecord
  2
ISO-25
  3

 70
0
 40
0.0
 44
1.25
 42
0.625
 46
0.0
 41
2.5
173
0
140
2.5
141
2.5
 73
0
 74
0
147
0.625
 77
1
144
1.0
271
2
 45
0.0
277
2
278
44
279
0
340
14
  0
DIMSTYLE
105
25
330
22
100
AcDbSymbolTableRecord
100
AcDbDimStyleTableRecord
  2
Annotative
  3

 70
0
 40
0.0
 44
1.25
 42
0.625
 46
0.0
 41
2.5
173
0
140
2.5
141
2.5
 73
0
 74
0
147
0.625
 77
1
144
1.0
271
2
 45
0.0
277
2
278
44
279
0
340
14
  0
DIMSTYLE
105
26
330
22
100
AcDbSymbolTableRecord
100
AcDbDimStyleTableRecord
  2
Standard
  3

 70
0
 40
0.0
 44
0.18
 42
0.0625
 46
0.0
 41
0.18
173
0
140
0.18
141
0.09
 73
1
 74
1
147
0.625
 77
0
144
1.0
271
4
 45
0.0
277
2
278
46
279
0
340
14
  0
ENDTAB
  0
TABLE
  2
BLOCK_RECORD
  5
27
330
0
100
AcDbSymbolTable
 70
1
  0
BLOCK_RECORD
  5
28
330
27
100
AcDbSymbolTableRecord
100
AcDbBlockTableRecord
  2
*Model_Space
340
29
 70
0
280
1
281
0
  0
BLOCK_RECORD
  5
2A
330
27
100
AcDbSymbolTableRecord
100
AcDbBlockTableRecord
  2
*Paper_Space
340
2B
 70
0
280
1
281
0
  0
BLOCK_RECORD
  5
2C
330
27
100
AcDbSymbolTableRecord
100
AcDbBlockTableRecord
  2
*Paper_Space0
340
2D
 70
0
280
1
281
0
  0
BLOCK_RECORD
  5
2E
100
AcDbSymbolTableRecord
100
AcDbBlockTableRecord
  2
A$C4810726A
  0
BLOCK_RECORD
  5
201
330
27
100
AcDbSymbolTableRecord
100
AcDbBlockTableRecord
  2
*T1
340
0
102
{BLKREFS
331
274
102
}
 70
0
280
1
281
0
  0
ENDTAB
  0
ENDSEC
  0
SECTION
  2
BLOCKS
  0
BLOCK
  5
2F
330
28
100
AcDbEntity
  8
0
100
AcDbBlockBegin
  2
*Model_Space
 70
0
 10
0.0
 20
0.0
 30
0.0
  3
*Model_Space
  1

  0
ENDBLK
  5
30
330
28
100
AcDbEntity
  8
0
100
AcDbBlockEnd
  0
BLOCK
  5
31
330
2A
100
AcDbEntity
 67
1
  8
0
100
AcDbBlockBegin
  2
*Paper_Space
 70
0
 10
0.0
 20
0.0
 30
0.0
  3
*Paper_Space
  1

  0
ENDBLK
  5
32
330
2A
100
AcDbEntity
 67
1
  8
0
100
AcDbBlockEnd
  0
BLOCK
  5
33
330
2C
100
AcDbEntity
 67
1
  8
0
100
AcDbBlockBegin
  2
*Paper_Space0
 70
0
 10
0.0
 20
0.0
 30
0.0
  3
*Paper_Space0
  1

  0
ENDBLK
  5
34
330
2C
100
AcDbEntity
 67
1
  8
0
100
AcDbBlockEnd
  0
BLOCK
  5
35
100
AcDbEntity
  8
0
100
AcDbBlockBegin
  2
A$C4810726A
 70
2
 10
0.0
 20
0.0
 30
0.0
  3
A$C4810726A
  1

  0
LINE
  5
36
100
AcDbEntity
  8
0
100
AcDbLine
  6
ByLayer
 10
-5.4e-08
 20
2.03e-08
 30
0.0
 11
-5.4e-08
 21
21.1373774123
 31
0.0
1001
DSTP_XDATA
1002
{
1000
_OWNERHANDLE=0000000064
1002
}
  0
LINE
  5
37
100
AcDbEntity
  8
0
100
AcDbLine
  6
ByLayer
 10
-5.4e-08
 20
21.1373774123
 30
0.0
 11
41.2255448127
 21
21.1373774123
 31
0.0
1001
DSTP_XDATA
1002
{
1000
_OWNERHANDLE=0000000064
1002
}
  0
LINE
  5
38
100
AcDbEntity
  8
0
100
AcDbLine
  6
ByLayer
 10
41.2255448127
 20
21.1373774123
 30
0.0
 11
41.2255448127
 21
2.03e-08
 31
0.0
1001
DSTP_XDATA
1002
{
1000
_OWNERHANDLE=0000000064
1002
}
  0
LINE
  5
39
100
AcDbEntity
  8
0
100
AcDbLine
  6
ByLayer
 10
41.2255448127
 20
2.03e-08
 30
0.0
 11
-5.4e-08
 21
2.03e-08
 31
0.0
1001
DSTP_XDATA
1002
{
1000
_OWNERHANDLE=0000000064
1002
}
  0
ENDBLK
  5
3A
100
AcDbEntity
  8
0
100
AcDbBlockEnd
1001
DSTP_XDATA
1002
{
1002
}
  0
BLOCK
  5
202
330
201
100
AcDbEntity
  8
0
100
AcDbBlockBegin
  2
*T1
 70
1
 10
0.0
 20
0.0
 30
0.0
  3
*T1
  1

  0
MTEXT
  5
203
330
201
100
AcDbEntity
  8
0
 62
0
440
16777216
100
AcDbMText
 10
6.25
 20
-0.227988464311462
 30
0.0
 40
0.25
 41
12.38
 46
0.0
 71
5
 72
5
  1
Title-1
  7
newtext
 73
1
 44
1.0
  0
MTEXT
  5
204
330
201
100
AcDbEntity
  8
0
 62
0
440
16777216
100
AcDbMText
 10
1.25
 20
-0.6359769286229238
 30
0.0
 40
0.18
 41
2.379999999999999
 46
0.0
 71
5
 72
5
  1
Header-A
 73
1
 44
1.0
  0
MTEXT
  5
205
330
201
100
AcDbEntity
  8
0
 62
0
440
16777216
100
AcDbMText
 10
3.75
 20
-0.6359769286229238
 30
0.0
 40
0.18
 41
2.379999999999999
 46
0.0
 71
5
 72
5
  1
Header-B
 73
1
 44
1.0
  0
MTEXT
  5
206
330
201
100
AcDbEntity
  8
0
 62
0
440
16777216
100
AcDbMText
 10
6.25
 20
-0.6359769286229238
 30
0.0
 40
0.18
 41
2.379999999999999
 46
0.0
 71
5
 72
5
  1
Header-C
 73
1
 44
1.0
  0
MTEXT
  5
207
330
201
100
AcDbEntity
  8
0
 62
0
440
16777216
100
AcDbMText
 10
8.75
 20
-0.6359769286229238
 30
0.0
 40
0.18
 41
2.379999999999999
 46
0.0
 71
5
 72
5
  1
Header-D
 73
1
 44
1.0
  0
MTEXT
  5
208
330
201
100
AcDbEntity
  8
0
 62
0
440
16777216
100
AcDbMText
 10
11.25
 20
-0.6359769286229238
 30
0.0
 40
0.18
 41
2.379999999999999
 46
0.0
 71
5
 72
5
  1
Header-E
 73
1
 44
1.0
  0
MTEXT
  5
209
330
201
100
AcDbEntity
  8
0
 62
0
440
16777216
100
AcDbMText
 10
1.25
 20
-0.9959769286229231
 30
0.0
 40
0.18
 41
2.379999999999999
 46
0.0
 71
5
 72
5
  1
Header-1
 73
1
 44
1.0
  0
MTEXT
  5
20A
330
201
100
AcDbEntity
  8
0
 62
0
440
16777216
100
AcDbMText
 10
3.75
 20
-0.9959769286229231
 30
0.0
 40
0.18
 41
2.379999999999999
 46
0.0
 71
5
 72
5
  1
Header-2
 73
1
 44
1.0
  0
MTEXT
  5
20B
330
201
100
AcDbEntity
  8
0
 62
0
440
16777216
100
AcDbMText
 10
6.25
 20
-0.9959769286229231
 30
0.0
 40
0.18
 41
2.379999999999999
 46
0.0
 71
5
 72
5
  1
Header-3
 73
1
 44
1.0
  0
MTEXT
  5
20C
330
201
100
AcDbEntity
  8
0
 62
0
440
16777216
100
AcDbMText
 10
8.75
 20
-0.9959769286229231
 30
0.0
 40
0.18
 41
2.379999999999999
 46
0.0
 71
5
 72
5
  1
Header-4
 73
1
 44
1.0
  0
MTEXT
  5
20D
330
201
100
AcDbEntity
  8
0
 62
0
440
16777216
100
AcDbMText
 10
11.25
 20
-0.9959769286229231
 30
0.0
 40
0.18
 41
2.379999999999999
 46
0.0
 71
5
 72
5
  1
Header-5
 73
1
 44
1.0
  0
MTEXT
  5
20E
330
201
100
AcDbEntity
  8
0
 62
0
440
16777216
100
AcDbMText
 10
2.439999999999997
 20
-1.235976928622925
 30
0.0
 40
0.18
 41
2.379999999999999
 46
0.0
 71
3
 72
5
  1
6
  7
newtext
 73
1
 44
1.0
  0
MTEXT
  5
20F
330
201
100
AcDbEntity
  8
0
 62
0
440
16777216
100
AcDbMText
 10
4.939999999999997
 20
-1.235976928622925
 30
0.0
 40
0.18
 41
2.379999999999999
 46
0.0
 71
3
 72
5
  1
7
  7
newtext
 73
1
 44
1.0
  0
MTEXT
  5
210
330
201
100
AcDbEntity
  8
0
 62
0
440
16777216
100
AcDbMText
 10
7.439999999999997
 20
-1.235976928622925
 30
0.0
 40
0.18
 41
2.379999999999999
 46
0.0
 71
3
 72
5
  1
8
  7
newtext
 73
1
 44
1.0
  0
MTEXT
  5
211
330
201
100
AcDbEntity
  8
0
 62
0
440
16777216
100
AcDbMText
 10
9.939999999999998
 20
-1.235976928622925
 30
0.0
 40
0.18
 41
2.379999999999999
 46
0.0
 71
3
 72
5
  1
9
  7
newtext
 73
1
 44
1.0
  0
MTEXT
  5
212
330
201
100
AcDbEntity
  8
0
 62
0
440
16777216
100
AcDbMText
 10
12.43999999999999
 20
-1.235976928622925
 30
0.0
 40
0.18
 41
2.379999999999999
 46
0.0
 71
3
 72
5
  1
0
  7
newtext
 73
1
 44
1.0
  0
MTEXT
  5
213
330
201
100
AcDbEntity
  8
0
 62
0
440
16777216
100
AcDbMText
 10
1.25
 20
-1.595976928622924
 30
0.0
 40
0.18
 41
2.379999999999999
 46
0.0
 71
2
 72
5
  1
F
  7
newtext
 73
1
 44
1.0
  0
MTEXT
  5
214
330
201
100
AcDbEntity
  8
0
 62
0
440
16777216
100
AcDbMText
 10
3.75
 20
-1.595976928622924
 30
0.0
 40
0.18
 41
2.379999999999999
 46
0.0
 71
2
 72
5
  1
G
  7
newtext
 73
1
 44
1.0
  0
MTEXT
  5
215
330
201
100
AcDbEntity
  8
0
 62
0
440
16777216
100
AcDbMText
 10
6.25
 20
-1.595976928622924
 30
0.0
 40
0.18
 41
2.379999999999999
 46
0.0
 71
2
 72
5
  1
H
  7
newtext
 73
1
 44
1.0
  0
MTEXT
  5
216
330
201
100
AcDbEntity
  8
0
 62
0
440
16777216
100
AcDbMText
 10
8.75
 20
-1.595976928622924
 30
0.0
 40
0.18
 41
2.379999999999999
 46
0.0
 71
2
 72
5
  1
SS
  7
newtext
 73
1
 44
1.0
  0
MTEXT
  5
217
330
201
100
AcDbEntity
  8
0
 62
0
440
16777216
100
AcDbMText
 10
11.25
 20
-1.595976928622924
 30
0.0
 40
0.18
 41
2.379999999999999
 46
0.0
 71
2
 72
5
  1
FF
  7
newtext
 73
1
 44
1.0
  0
MTEXT
  5
218
330
201
100
AcDbEntity
  8
0
 62
0
440
16777216
100
AcDbMText
 10
2.439999999999997
 20
-1.955976928622924
 30
0.0
 40
0.18
 41
2.379999999999999
 46
0.0
 71
3
 72
5
  1
11
  7
newtext
 73
1
 44
1.0
  0
MTEXT
  5
219
330
201
100
AcDbEntity
  8
0
 62
0
440
16777216
100
AcDbMText
 10
4.939999999999997
 20
-1.955976928622924
 30
0.0
 40
0.18
 41
2.379999999999999
 46
0.0
 71
3
 72
5
  1
12
  7
newtext
 73
1
 44
1.0
  0
MTEXT
  5
21A
330
201
100
AcDbEntity
  8
0
 62
0
440
16777216
100
AcDbMText
 10
7.439999999999997
 20
-1.955976928622924
 30
0.0
 40
0.18
 41
2.379999999999999
 46
0.0
 71
3
 72
5
  1
13
  7
newtext
 73
1
 44
1.0
  0
MTEXT
  5
21B
330
201
100
AcDbEntity
  8
0
 62
0
440
16777216
100
AcDbMText
 10
9.939999999999998
 20
-1.955976928622924
 30
0.0
 40
0.18
 41
2.379999999999999
 46
0.0
 71
3
 72
5
  1
14
  7
newtext
 73
1
 44
1.0
  0
MTEXT
  5
21C
330
201
100
AcDbEntity
  8
0
 62
0
440
16777216
100
AcDbMText
 10
12.43999999999999
 20
-1.955976928622924
 30
0.0
 40
0.18
 41
2.379999999999999
 46
0.0
 71
3
 72
5
  1
15
  7
newtext
 73
1
 44
1.0
  0
MTEXT
  5
21D
330
201
100
AcDbEntity
  8
0
 62
0
440
16777216
100
AcDbMText
 10
6.25
 20
-2.482643595289587
 30
0.0
 40
0.25
 41
12.38
 46
0.0
 71
5
 72
5
  1
Title-2
  7
newtext
 73
1
 44
1.0
  0
MTEXT
  5
21E
330
201
100
AcDbEntity
  8
0
 62
0
440
16777216
100
AcDbMText
 10
1.25
 20
-2.889310261956254
 30
0.0
 40
0.18
 41
2.379999999999999
 46
0.0
 71
5
 72
5
  1
H1
 73
1
 44
1.0
  0
MTEXT
  5
21F
330
201
100
AcDbEntity
  8
0
 62
0
440
16777216
100
AcDbMText
 10
3.75
 20
-2.889310261956254
 30
0.0
 40
0.18
 41
2.379999999999999
 46
0.0
 71
5
 72
5
  1
H2
 73
1
 44
1.0
  0
MTEXT
  5
220
330
201
100
AcDbEntity
  8
0
 62
0
440
16777216
100
AcDbMText
 10
6.25
 20
-2.889310261956254
 30
0.0
 40
0.18
 41
2.379999999999999
 46
0.0
 71
5
 72
5
  1
H3
 73
1
 44
1.0
  0
MTEXT
  5
221
330
201
100
AcDbEntity
  8
0
 62
0
440
16777216
100
AcDbMText
 10
8.75
 20
-2.889310261956254
 30
0.0
 40
0.18
 41
2.379999999999999
 46
0.0
 71
5
 72
5
  1
H4
 73
1
 44
1.0
  0
MTEXT
  5
222
330
201
100
AcDbEntity
  8
0
 62
0
440
16777216
100
AcDbMText
 10
11.25
 20
-2.889310261956254
 30
0.0
 40
0.18
 41
2.379999999999999
 46
0.0
 71
5
 72
5
  1
H5
 73
1
 44
1.0
  0
MTEXT
  5
223
330
201
100
AcDbEntity
  8
0
 62
0
440
16777216
100
AcDbMText
 10
2.439999999999997
 20
-3.129310261956256
 30
0.0
 40
0.18
 41
2.379999999999999
 46
0.0
 71
3
 72
5
  1
q
  7
newtext
 73
1
 44
1.0
  0
MTEXT
  5
224
330
201
100
AcDbEntity
  8
0
 62
0
440
16777216
100
AcDbMText
 10
4.939999999999997
 20
-3.129310261956256
 30
0.0
 40
0.18
 41
2.379999999999999
 46
0.0
 71
3
 72
5
  1
w
  7
newtext
 73
1
 44
1.0
  0
MTEXT
  5
225
330
201
100
AcDbEntity
  8
0
 62
0
440
16777216
100
AcDbMText
 10
2.439999999999997
 20
-3.489310261956255
 30
0.0
 40
0.18
 41
2.379999999999999
 46
0.0
 71
3
 72
5
  1
r
  7
newtext
 73
1
 44
1.0
  0
MTEXT
  5
226
330
201
100
AcDbEntity
  8
0
 62
0
440
16777216
100
AcDbMText
 10
16.27899606084969
 20
-5.676375825380347
 30
0.0
 40
0.25
 41
12.38
 46
0.0
 71
5
 72
5
  1
Title-1
  7
newtext
 73
1
 44
1.0
  0
MTEXT
  5
227
330
201
100
AcDbEntity
  8
0
 62
0
440
16777216
100
AcDbMText
 10
11.27899606084969
 20
-6.084364289691809
 30
0.0
 40
0.18
 41
2.379999999999999
 46
0.0
 71
5
 72
5
  1
Header-A
 73
1
 44
1.0
  0
MTEXT
  5
228
330
201
100
AcDbEntity
  8
0
 62
0
440
16777216
100
AcDbMText
 10
13.77899606084969
 20
-6.084364289691809
 30
0.0
 40
0.18
 41
2.379999999999999
 46
0.0
 71
5
 72
5
  1
Header-B
 73
1
 44
1.0
  0
MTEXT
  5
229
330
201
100
AcDbEntity
  8
0
 62
0
440
16777216
100
AcDbMText
 10
16.27899606084969
 20
-6.084364289691809
 30
0.0
 40
0.18
 41
2.379999999999999
 46
0.0
 71
5
 72
5
  1
Header-C
 73
1
 44
1.0
  0
MTEXT
  5
22A
330
201
100
AcDbEntity
  8
0
 62
0
440
16777216
100
AcDbMText
 10
18.77899606084969
 20
-6.084364289691809
 30
0.0
 40
0.18
 41
2.379999999999999
 46
0.0
 71
5
 72
5
  1
Header-D
 73
1
 44
1.0
  0
MTEXT
  5
22B
330
201
100
AcDbEntity
  8
0
 62
0
440
16777216
100
AcDbMText
 10
21.27899606084969
 20
-6.084364289691809
 30
0.0
 40
0.18
 41
2.379999999999999
 46
0.0
 71
5
 72
5
  1
Header-E
 73
1
 44
1.0
  0
MTEXT
  5
22C
330
201
100
AcDbEntity
  8
0
 62
0
440
16777216
100
AcDbMText
 10
11.27899606084969
 20
-6.444364289691808
 30
0.0
 40
0.18
 41
2.379999999999999
 46
0.0
 71
5
 72
5
  1
Header-1
 73
1
 44
1.0
  0
MTEXT
  5
22D
330
201
100
AcDbEntity
  8
0
 62
0
440
16777216
100
AcDbMText
 10
13.77899606084969
 20
-6.444364289691808
 30
0.0
 40
0.18
 41
2.379999999999999
 46
0.0
 71
5
 72
5
  1
Header-2
 73
1
 44
1.0
  0
MTEXT
  5
22E
330
201
100
AcDbEntity
  8
0
 62
0
440
16777216
100
AcDbMText
 10
16.27899606084969
 20
-6.444364289691808
 30
0.0
 40
0.18
 41
2.379999999999999
 46
0.0
 71
5
 72
5
  1
Header-3
 73
1
 44
1.0
  0
MTEXT
  5
22F
330
201
100
AcDbEntity
  8
0
 62
0
440
16777216
100
AcDbMText
 10
18.77899606084969
 20
-6.444364289691808
 30
0.0
 40
0.18
 41
2.379999999999999
 46
0.0
 71
5
 72
5
  1
Header-4
 73
1
 44
1.0
  0
MTEXT
  5
230
330
201
100
AcDbEntity
  8
0
 62
0
440
16777216
100
AcDbMText
 10
21.27899606084969
 20
-6.444364289691808
 30
0.0
 40
0.18
 41
2.379999999999999
 46
0.0
 71
5
 72
5
  1
Header-5
 73
1
 44
1.0
  0
MTEXT
  5
231
330
201
100
AcDbEntity
  8
0
 62
0
440
16777216
100
AcDbMText
 10
12.46899606084969
 20
-6.68436428969181
 30
0.0
 40
0.18
 41
2.379999999999999
 46
0.0
 71
3
 72
5
  1
d
  7
newtext
 73
1
 44
1.0
  0
MTEXT
  5
232
330
201
100
AcDbEntity
  8
0
 62
0
440
16777216
100
AcDbMText
 10
12.46899606084969
 20
-7.046397454796352
 30
0.0
 40
0.18
 41
2.379999999999999
 46
0.0
 71
3
 72
5
  1
f
  7
newtext
 73
1
 44
1.0
  0
MTEXT
  5
233
330
201
100
AcDbEntity
  8
0
 62
0
440
16777216
100
AcDbMText
 10
12.46899606084969
 20
-7.408430619900894
 30
0.0
 40
0.18
 41
2.379999999999999
 46
0.0
 71
3
 72
5
  1
g
  7
newtext
 73
1
 44
1.0
  0
MTEXT
  5
234
330
201
100
AcDbEntity
  8
0
 62
0
440
16777216
100
AcDbMText
 10
29.05487883482493
 20
-9.617298896873505
 30
0.0
 40
0.25
 41
12.38
 46
0.0
 71
5
 72
5
  1
Title-1
  7
newtext
 73
1
 44
1.0
  0
MTEXT
  5
235
330
201
100
AcDbEntity
  8
0
 62
0
440
16777216
100
AcDbMText
 10
24.05487883482493
 20
-10.02528736118496
 30
0.0
 40
0.18
 41
2.379999999999999
 46
0.0
 71
5
 72
5
  1
Header-A
 73
1
 44
1.0
  0
MTEXT
  5
236
330
201
100
AcDbEntity
  8
0
 62
0
440
16777216
100
AcDbMText
 10
26.55487883482493
 20
-10.02528736118496
 30
0.0
 40
0.18
 41
2.379999999999999
 46
0.0
 71
5
 72
5
  1
Header-B
 73
1
 44
1.0
  0
MTEXT
  5
237
330
201
100
AcDbEntity
  8
0
 62
0
440
16777216
100
AcDbMText
 10
29.05487883482493
 20
-10.02528736118496
 30
0.0
 40
0.18
 41
2.379999999999999
 46
0.0
 71
5
 72
5
  1
Header-C
 73
1
 44
1.0
  0
MTEXT
  5
238
330
201
100
AcDbEntity
  8
0
 62
0
440
16777216
100
AcDbMText
 10
31.55487883482493
 20
-10.02528736118496
 30
0.0
 40
0.18
 41
2.379999999999999
 46
0.0
 71
5
 72
5
  1
Header-D
 73
1
 44
1.0
  0
MTEXT
  5
239
330
201
100
AcDbEntity
  8
0
 62
0
440
16777216
100
AcDbMText
 10
34.05487883482493
 20
-10.02528736118496
 30
0.0
 40
0.18
 41
2.379999999999999
 46
0.0
 71
5
 72
5
  1
Header-E
 73
1
 44
1.0
  0
MTEXT
  5
23A
330
201
100
AcDbEntity
  8
0
 62
0
440
16777216
100
AcDbMText
 10
24.05487883482493
 20
-10.38528736118496
 30
0.0
 40
0.18
 41
2.379999999999999
 46
0.0
 71
5
 72
5
  1
Header-1
 73
1
 44
1.0
  0
MTEXT
  5
23B
330
201
100
AcDbEntity
  8
0
 62
0
440
16777216
100
AcDbMText
 10
26.55487883482493
 20
-10.38528736118496
 30
0.0
 40
0.18
 41
2.379999999999999
 46
0.0
 71
5
 72
5
  1
Header-2
 73
1
 44
1.0
  0
MTEXT
  5
23C
330
201
100
AcDbEntity
  8
0
 62
0
440
16777216
100
AcDbMText
 10
29.05487883482493
 20
-10.38528736118496
 30
0.0
 40
0.18
 41
2.379999999999999
 46
0.0
 71
5
 72
5
  1
Header-3
 73
1
 44
1.0
  0
MTEXT
  5
23D
330
201
100
AcDbEntity
  8
0
 62
0
440
16777216
100
AcDbMText
 10
31.55487883482493
 20
-10.38528736118496
 30
0.0
 40
0.18
 41
2.379999999999999
 46
0.0
 71
5
 72
5
  1
Header-4
 73
1
 44
1.0
  0
MTEXT
  5
23E
330
201
100
AcDbEntity
  8
0
 62
0
440
16777216
100
AcDbMText
 10
34.05487883482493
 20
-10.38528736118496
 30
0.0
 40
0.18
 41
2.379999999999999
 46
0.0
 71
5
 72
5
  1
Header-5
 73
1
 44
1.0
  0
MTEXT
  5
23F
330
201
100
AcDbEntity
  8
0
 62
0
440
16777216
100
AcDbMText
 10
25.24487883482493
 20
-10.62528736118497
 30
0.0
 40
0.18
 41
2.379999999999999
 46
0.0
 71
3
 72
5
  1
h
  7
newtext
 73
1
 44
1.0
  0
MTEXT
  5
240
330
201
100
AcDbEntity
  8
0
 62
0
440
16777216
100
AcDbMText
 10
25.24487883482493
 20
-10.98732052628951
 30
0.0
 40
0.18
 41
2.379999999999999
 46
0.0
 71
3
 72
5
  1
f
  7
newtext
 73
1
 44
1.0
  0
MTEXT
  5
241
330
201
100
AcDbEntity
  8
0
 62
0
440
16777216
100
AcDbMText
 10
30.24487883482493
 20
-10.98732052628951
 30
0.0
 40
0.18
 41
2.379999999999999
 46
0.0
 71
3
 72
5
  1
j
  7
newtext
 73
1
 44
1.0
  0
LINE
  5
242
330
201
100
AcDbEntity
  8
0
  6
ByBlock
 62
0
440
16777216
370
-2
100
AcDbLine
 10
0.0
 20
0.0
 30
0.0
 11
12.5
 21
0.0
 31
0.0
  0
LINE
  5
243
330
201
100
AcDbEntity
  8
0
  6
ByBlock
 62
0
440
16777216
370
-2
100
AcDbLine
 10
0.0
 20
-0.4559769286229276
 30
0.0
 11
12.5
 21
-0.4559769286229276
 31
0.0
  0
LINE
  5
244
330
201
100
AcDbEntity
  8
0
  6
ByBlock
 62
0
440
16777216
370
-2
100
AcDbLine
 10
0.0
 20
-0.815976928622927
 30
0.0
 11
12.5
 21
-0.815976928622927
 31
0.0
  0
LINE
  5
245
330
201
100
AcDbEntity
  8
0
  6
ByBlock
 62
0
440
16777216
370
-2
100
AcDbLine
 10
0.0
 20
-1.175976928622926
 30
0.0
 11
12.5
 21
-1.175976928622926
 31
0.0
  0
LINE
  5
246
330
201
100
AcDbEntity
  8
0
  6
ByBlock
 62
0
440
16777216
370
-2
100
AcDbLine
 10
0.0
 20
-1.535976928622925
 30
0.0
 11
12.5
 21
-1.535976928622925
 31
0.0
  0
LINE
  5
247
330
201
100
AcDbEntity
  8
0
  6
ByBlock
 62
0
440
16777216
370
-2
100
AcDbLine
 10
0.0
 20
-1.895976928622925
 30
0.0
 11
12.5
 21
-1.895976928622925
 31
0.0
  0
LINE
  5
248
330
201
100
AcDbEntity
  8
0
  6
ByBlock
 62
0
440
16777216
370
-2
100
AcDbLine
 10
0.0
 20
-2.255976928622924
 30
0.0
 11
12.5
 21
-2.255976928622924
 31
0.0
  0
LINE
  5
249
330
201
100
AcDbEntity
  8
0
  6
ByBlock
 62
0
440
16777216
370
-2
100
AcDbLine
 10
0.0
 20
-2.709310261956257
 30
0.0
 11
12.5
 21
-2.709310261956257
 31
0.0
  0
LINE
  5
24A
330
201
100
AcDbEntity
  8
0
  6
ByBlock
 62
0
440
16777216
370
-2
100
AcDbLine
 10
0.0
 20
-3.069310261956257
 30
0.0
 11
12.5
 21
-3.069310261956257
 31
0.0
  0
LINE
  5
24B
330
201
100
AcDbEntity
  8
0
  6
ByBlock
 62
0
440
16777216
370
-2
100
AcDbLine
 10
0.0
 20
-3.429310261956256
 30
0.0
 11
12.5
 21
-3.429310261956256
 31
0.0
  0
LINE
  5
24C
330
201
100
AcDbEntity
  8
0
  6
ByBlock
 62
0
440
16777216
370
-2
100
AcDbLine
 10
0.0
 20
-3.791343427060798
 30
0.0
 11
12.5
 21
-3.791343427060798
 31
0.0
  0
LINE
  5
24D
330
201
100
AcDbEntity
  8
0
  6
ByBlock
 62
0
440
16777216
370
-2
100
AcDbLine
 10
0.0
 20
0.0
 30
0.0
 11
0.0
 21
-3.791343427060798
 31
0.0
  0
LINE
  5
24E
330
201
100
AcDbEntity
  8
0
  6
ByBlock
 62
0
440
16777216
370
-2
100
AcDbLine
 10
2.5
 20
-0.4559769286229276
 30
0.0
 11
2.5
 21
-2.255976928622924
 31
0.0
  0
LINE
  5
24F
330
201
100
AcDbEntity
  8
0
  6
ByBlock
 62
0
440
16777216
370
-2
100
AcDbLine
 10
2.5
 20
-2.709310261956257
 30
0.0
 11
2.5
 21
-3.791343427060798
 31
0.0
  0
LINE
  5
250
330
201
100
AcDbEntity
  8
0
  6
ByBlock
 62
0
440
16777216
370
-2
100
AcDbLine
 10
5.0
 20
-0.4559769286229276
 30
0.0
 11
5.0
 21
-2.255976928622924
 31
0.0
  0
LINE
  5
251
330
201
100
AcDbEntity
  8
0
  6
ByBlock
 62
0
440
16777216
370
-2
100
AcDbLine
 10
5.0
 20
-2.709310261956257
 30
0.0
 11
5.0
 21
-3.791343427060798
 31
0.0
  0
LINE
  5
252
330
201
100
AcDbEntity
  8
0
  6
ByBlock
 62
0
440
16777216
370
-2
100
AcDbLine
 10
7.5
 20
-0.4559769286229276
 30
0.0
 11
7.5
 21
-2.255976928622924
 31
0.0
  0
LINE
  5
253
330
201
100
AcDbEntity
  8
0
  6
ByBlock
 62
0
440
16777216
370
-2
100
AcDbLine
 10
7.5
 20
-2.709310261956257
 30
0.0
 11
7.5
 21
-3.791343427060798
 31
0.0
  0
LINE
  5
254
330
201
100
AcDbEntity
  8
0
  6
ByBlock
 62
0
440
16777216
370
-2
100
AcDbLine
 10
10.0
 20
-0.4559769286229276
 30
0.0
 11
10.0
 21
-2.255976928622924
 31
0.0
  0
LINE
  5
255
330
201
100
AcDbEntity
  8
0
  6
ByBlock
 62
0
440
16777216
370
-2
100
AcDbLine
 10
10.0
 20
-2.709310261956257
 30
0.0
 11
10.0
 21
-3.791343427060798
 31
0.0
  0
LINE
  5
256
330
201
100
AcDbEntity
  8
0
  6
ByBlock
 62
0
440
16777216
370
-2
100
AcDbLine
 10
12.5
 20
0.0
 30
0.0
 11
12.5
 21
-3.791343427060798
 31
0.0
  0
LINE
  5
257
330
201
100
AcDbEntity
  8
Defpoints
 62
8
440
16777216
 60
1
370
0
100
AcDbLine
 10
0.0
 20
0.0
 30
0.0
 11
0.0
 21
0.0
 31
0.0
  0
LINE
  5
258
330
201
100
AcDbEntity
  8
0
  6
ByBlock
 62
0
440
16777216
370
-2
100
AcDbLine
 10
10.02899606084969
 20
-5.448387361068885
 30
0.0
 11
22.52899606084969
 21
-5.448387361068885
 31
0.0
  0
LINE
  5
259
330
201
100
AcDbEntity
  8
0
  6
ByBlock
 62
0
440
16777216
370
-2
100
AcDbLine
 10
10.02899606084969
 20
-5.904364289691812
 30
0.0
 11
22.52899606084969
 21
-5.904364289691812
 31
0.0
  0
LINE
  5
25A
330
201
100
AcDbEntity
  8
0
  6
ByBlock
 62
0
440
16777216
370
-2
100
AcDbLine
 10
10.02899606084969
 20
-6.264364289691812
 30
0.0
 11
22.52899606084969
 21
-6.264364289691812
 31
0.0
  0
LINE
  5
25B
330
201
100
AcDbEntity
  8
0
  6
ByBlock
 62
0
440
16777216
370
-2
100
AcDbLine
 10
10.02899606084969
 20
-6.624364289691811
 30
0.0
 11
22.52899606084969
 21
-6.624364289691811
 31
0.0
  0
LINE
  5
25C
330
201
100
AcDbEntity
  8
0
  6
ByBlock
 62
0
440
16777216
370
-2
100
AcDbLine
 10
10.02899606084969
 20
-6.986397454796353
 30
0.0
 11
22.52899606084969
 21
-6.986397454796353
 31
0.0
  0
LINE
  5
25D
330
201
100
AcDbEntity
  8
0
  6
ByBlock
 62
0
440
16777216
370
-2
100
AcDbLine
 10
10.02899606084969
 20
-7.348430619900895
 30
0.0
 11
22.52899606084969
 21
-7.348430619900895
 31
0.0
  0
LINE
  5
25E
330
201
100
AcDbEntity
  8
0
  6
ByBlock
 62
0
440
16777216
370
-2
100
AcDbLine
 10
10.02899606084969
 20
-7.710463785005437
 30
0.0
 11
22.52899606084969
 21
-7.710463785005437
 31
0.0
  0
LINE
  5
25F
330
201
100
AcDbEntity
  8
0
  6
ByBlock
 62
0
440
16777216
370
-2
100
AcDbLine
 10
10.02899606084969
 20
-5.448387361068885
 30
0.0
 11
10.02899606084969
 21
-7.710463785005437
 31
0.0
  0
LINE
  5
260
330
201
100
AcDbEntity
  8
0
  6
ByBlock
 62
0
440
16777216
370
-2
100
AcDbLine
 10
12.52899606084969
 20
-5.904364289691812
 30
0.0
 11
12.52899606084969
 21
-7.710463785005437
 31
0.0
  0
LINE
  5
261
330
201
100
AcDbEntity
  8
0
  6
ByBlock
 62
0
440
16777216
370
-2
100
AcDbLine
 10
15.02899606084969
 20
-5.904364289691812
 30
0.0
 11
15.02899606084969
 21
-7.710463785005437
 31
0.0
  0
LINE
  5
262
330
201
100
AcDbEntity
  8
0
  6
ByBlock
 62
0
440
16777216
370
-2
100
AcDbLine
 10
17.52899606084969
 20
-5.904364289691812
 30
0.0
 11
17.52899606084969
 21
-7.710463785005437
 31
0.0
  0
LINE
  5
263
330
201
100
AcDbEntity
  8
0
  6
ByBlock
 62
0
440
16777216
370
-2
100
AcDbLine
 10
20.02899606084969
 20
-5.904364289691812
 30
0.0
 11
20.02899606084969
 21
-7.710463785005437
 31
0.0
  0
LINE
  5
264
330
201
100
AcDbEntity
  8
0
  6
ByBlock
 62
0
440
16777216
370
-2
100
AcDbLine
 10
22.52899606084969
 20
-5.448387361068885
 30
0.0
 11
22.52899606084969
 21
-7.710463785005437
 31
0.0
  0
LINE
  5
265
330
201
100
AcDbEntity
  8
Defpoints
 62
8
440
16777216
 60
1
370
0
100
AcDbLine
 10
0.0
 20
0.0
 30
0.0
 11
0.0
 21
0.0
 31
0.0
  0
LINE
  5
266
330
201
100
AcDbEntity
  8
0
  6
ByBlock
 62
0
440
16777216
370
-2
100
AcDbLine
 10
22.80487883482493
 20
-9.389310432562043
 30
0.0
 11
35.30487883482493
 21
-9.389310432562043
 31
0.0
  0
LINE
  5
267
330
201
100
AcDbEntity
  8
0
  6
ByBlock
 62
0
440
16777216
370
-2
100
AcDbLine
 10
22.80487883482493
 20
-9.84528736118497
 30
0.0
 11
35.30487883482493
 21
-9.84528736118497
 31
0.0
  0
LINE
  5
268
330
201
100
AcDbEntity
  8
0
  6
ByBlock
 62
0
440
16777216
370
-2
100
AcDbLine
 10
22.80487883482493
 20
-10.20528736118497
 30
0.0
 11
35.30487883482493
 21
-10.20528736118497
 31
0.0
  0
LINE
  5
269
330
201
100
AcDbEntity
  8
0
  6
ByBlock
 62
0
440
16777216
370
-2
100
AcDbLine
 10
22.80487883482493
 20
-10.56528736118497
 30
0.0
 11
35.30487883482493
 21
-10.56528736118497
 31
0.0
  0
LINE
  5
26A
330
201
100
AcDbEntity
  8
0
  6
ByBlock
 62
0
440
16777216
370
-2
100
AcDbLine
 10
22.80487883482493
 20
-10.92732052628951
 30
0.0
 11
35.30487883482493
 21
-10.92732052628951
 31
0.0
  0
LINE
  5
26B
330
201
100
AcDbEntity
  8
0
  6
ByBlock
 62
0
440
16777216
370
-2
100
AcDbLine
 10
22.80487883482493
 20
-11.28935369139405
 30
0.0
 11
35.30487883482493
 21
-11.28935369139405
 31
0.0
  0
LINE
  5
26C
330
201
100
AcDbEntity
  8
0
  6
ByBlock
 62
0
440
16777216
370
-2
100
AcDbLine
 10
22.80487883482493
 20
-9.389310432562043
 30
0.0
 11
22.80487883482493
 21
-11.28935369139405
 31
0.0
  0
LINE
  5
26D
330
201
100
AcDbEntity
  8
0
  6
ByBlock
 62
0
440
16777216
370
-2
100
AcDbLine
 10
25.30487883482493
 20
-9.84528736118497
 30
0.0
 11
25.30487883482493
 21
-11.28935369139405
 31
0.0
  0
LINE
  5
26E
330
201
100
AcDbEntity
  8
0
  6
ByBlock
 62
0
440
16777216
370
-2
100
AcDbLine
 10
27.80487883482493
 20
-9.84528736118497
 30
0.0
 11
27.80487883482493
 21
-11.28935369139405
 31
0.0
  0
LINE
  5
26F
330
201
100
AcDbEntity
  8
0
  6
ByBlock
 62
0
440
16777216
370
-2
100
AcDbLine
 10
30.30487883482493
 20
-9.84528736118497
 30
0.0
 11
30.30487883482493
 21
-11.28935369139405
 31
0.0
  0
LINE
  5
270
330
201
100
AcDbEntity
  8
0
  6
ByBlock
 62
0
440
16777216
370
-2
100
AcDbLine
 10
32.80487883482493
 20
-9.84528736118497
 30
0.0
 11
32.80487883482493
 21
-11.28935369139405
 31
0.0
  0
LINE
  5
271
330
201
100
AcDbEntity
  8
0
  6
ByBlock
 62
0
440
16777216
370
-2
100
AcDbLine
 10
35.30487883482493
 20
-9.389310432562043
 30
0.0
 11
35.30487883482493
 21
-11.28935369139405
 31
0.0
  0
LINE
  5
272
330
201
100
AcDbEntity
  8
Defpoints
 62
8
440
16777216
 60
1
370
0
100
AcDbLine
 10
0.0
 20
0.0
 30
0.0
 11
0.0
 21
0.0
 31
0.0
  0
ENDBLK
  5
273
330
201
100
AcDbEntity
  8
0
100
AcDbBlockEnd
  0
ENDSEC
  0
SECTION
  2
ENTITIES
  0
LINE
  5
3B
100
AcDbEntity
  8
0
100
AcDbLine
  6
ByLayer
 10
82.0193487534
 20
2.9441983208
 30
0.0
 11
82.0193487534
 21
24.0815757128
 31
0.0
1001
DSTP_XDATA
1002
{
1000
_OWNERHANDLE=0000000064
1002
}
  0
LINE
  5
3C
100
AcDbEntity
  8
0
100
AcDbLine
  6
ByLayer
 10
82.0193487534
 20
24.0815757128
 30
0.0
 11
123.2448936201
 21
24.0815757128
 31
0.0
1001
DSTP_XDATA
1002
{
1000
_OWNERHANDLE=0000000064
1002
}
  0
LINE
  5
3D
100
AcDbEntity
  8
0
100
AcDbLine
  6
ByLayer
 10
123.2448936201
 20
24.0815757128
 30
0.0
 11
123.2448936201
 21
2.9441983208
 31
0.0
1001
DSTP_XDATA
1002
{
1000
_OWNERHANDLE=0000000064
1002
}
  0
LINE
  5
3E
100
AcDbEntity
  8
0
100
AcDbLine
  6
ByLayer
 10
123.2448936201
 20
2.9441983208
 30
0.0
 11
82.0193487534
 21
2.9441983208
 31
0.0
1001
DSTP_XDATA
1002
{
1000
_OWNERHANDLE=0000000064
1002
}
  0
ACAD_TABLE
  5
274
102
{ACAD_XDICTIONARY
360
DA3
102
}
330
28
100
AcDbEntity
  8
0
 92
20916
310
B4510000C2010000880000001D000000000000000000F03F00000000000000000000000000000000640945F7902A55400000000000000000000000000000F03F0000000000000000E93CDD0FAB80344000000000000000000000000000000000000000000000F03F0000000000000000000000000000000000000000000000
310
000000000000000000000000000000F03F0C00000016000000070000C30C00000017000000FDFFFFFF0C0000001200000000000000D400000026000000F1B8C2E30A0F174066D01AF0B2A1D6BF000000000000000000000000000000000000000000000000000000000000F03F000000000000F03F00000000000000000000
310
0000000000005400690074006C0065002D00310000000700000001000000000000000000D03F000000000000F03F0000000000000000000000000000F03F000000000000000000000000000000000000000000000000000000000100000012000000540069006D006500730020004E0065007700200052006F006D0061006E
310
00000000000000000000000C00000016000000070000C30C00000017000000FDFFFFFF0C0000001200000000000000C800000026000000EA51B81E85EBE13F62C0C2F7333BE7BF000000000000000000000000000000000000000000000000000000000000F03F000000000000F03F00000000000000000000000000000000
310
4800650061006400650072002D0041000000000008000000010000000AD7A3703D0AC73F000000000000F03F0000000000000000000000000000F03F000000000000000000000000000000000000000000000000000000000100000000000000000000007400780074002E007300680078000000000000000C000000160000
310
00070000C30C00000017000000FDFFFFFF0C0000001200000000000000C8000000260000007A14AE47E17A084062C0C2F7333BE7BF000000000000000000000000000000000000000000000000000000000000F03F000000000000F03F000000000000000000000000000000004800650061006400650072002D0042000000
310
330008000000010000000AD7A3703D0AC73F000000000000F03F0000000000000000000000000000F03F000000000000000000000000000000000000000000000000000000000100000000000000000044007400780074002E007300680078000000000000000C00000016000000070000C30C00000017000000FDFFFFFF0C
310
0000001200000000000000C8000000260000003E0AD7A3703D164062C0C2F7333BE7BF000000000000000000000000000000000000000000000000000000000000F03F000000000000F03F000000000000000000000000000000004800650061006400650072002D0043000000000008000000010000000AD7A3703D0AC73F
310
000000000000F03F0000000000000000000000000000F03F000000000000000000000000000000000000000000000000000000000100000000000000000000007400780074002E007300680078000000000000000C00000016000000070000C30C00000017000000FDFFFFFF0C0000001200000000000000C8000000260000
310
001F85EB51B81E204062C0C2F7333BE7BF000000000000000000000000000000000000000000000000000000000000F03F000000000000F03F000000000000000000000000000000004800650061006400650072002D0044000000330008000000010000000AD7A3703D0AC73F000000000000F03F00000000000000000000
310
00000000F03F000000000000000000000000000000000000000000000000000000000100000000000000000044007400780074002E007300680078000000000000000C00000016000000070000C30C00000017000000FDFFFFFF0C0000001200000000000000C8000000260000001F85EB51B81E254062C0C2F7333BE7BF00
310
0000000000000000000000000000000000000000000000000000000000F03F000000000000F03F000000000000000000000000000000004800650061006400650072002D0045000000330008000000010000000AD7A3703D0AC73F000000000000F03F0000000000000000000000000000F03F000000000000000000000000
310
000000000000000000000000000000000100000000000000000044007400780074002E007300680078000000000000000C00000016000000070000C30C00000017000000FDFFFFFF0C0000001200000000000000C800000026000000E07A14AE47E1E23FF1550A582960F1BF00000000000000000000000000000000000000
310
0000000000000000000000F03F000000000000F03F000000000000000000000000000000004800650061006400650072002D0031000000330008000000010000000AD7A3703D0AC73F000000000000F03F0000000000000000000000000000F03F000000000000000000000000000000000000000000000000000000000100
310
000000000000000044007400780074002E007300680078000000000000000C00000016000000070000C30C00000017000000FDFFFFFF0C0000001200000000000000C8000000260000007A14AE47E17A0840F1550A582960F1BF000000000000000000000000000000000000000000000000000000000000F03F0000000000
310
00F03F000000000000000000000000000000004800650061006400650072002D0032000000330008000000010000000AD7A3703D0AC73F000000000000F03F0000000000000000000000000000F03F000000000000000000000000000000000000000000000000000000000100000000000000000044007400780074002E00
310
7300680078000000000000000C00000016000000070000C30C00000017000000FDFFFFFF0C0000001200000000000000C8000000260000003E0AD7A3703D1640F1550A582960F1BF000000000000000000000000000000000000000000000000000000000000F03F000000000000F03F000000000000000000000000000000
310
004800650061006400650072002D0033000000330008000000010000000AD7A3703D0AC73F000000000000F03F0000000000000000000000000000F03F000000000000000000000000000000000000000000000000000000000100000000000000000044007400780074002E007300680078000000000000000C0000001600
310
0000070000C30C00000017000000FDFFFFFF0C0000001200000000000000C8000000260000001F85EB51B81E2040F1550A582960F1BF000000000000000000000000000000000000000000000000000000000000F03F000000000000F03F000000000000000000000000000000004800650061006400650072002D00340000
310
00330008000000010000000AD7A3703D0AC73F000000000000F03F0000000000000000000000000000F03F000000000000000000000000000000000000000000000000000000000100000000000000000044007400780074002E007300680078000000000000000C00000016000000070000C30C00000017000000FDFFFFFF
310
0C0000001200000000000000C8000000260000001F85EB51B81E2540F1550A582960F1BF000000000000000000000000000000000000000000000000000000000000F03F000000000000F03F000000000000000000000000000000004800650061006400650072002D0035000000000008000000010000000AD7A3703D0AC7
310
3F000000000000F03F0000000000000000000000000000F03F000000000000000000000000000000000000000000000000000000000100000000000000000070117400780074002E007300680078000000000000000C00000016000000070000C30C00000017000000FDFFFFFF0C0000001200000000000000C80000002600
310
0000CD9BBAACF48902404137856CD7A7F6BF000000000000000000000000000000000000000000000000000000000000F03F000000000000F03F000000000000000000000000000000003600000001000000010000000AD7A3703D0AC73F000000000000F03F0000000000000000000000000000F03F000000000000000000
310
000000000000000000000000000000000000000100000012000000540069006D006500730020004E0065007700200052006F006D0061006E00000000000000000000000C00000016000000070000C30C00000017000000FDFFFFFF0C0000001200000000000000C80000002600000033013494924613404137856CD7A7F6BF
310
000000000000000000000000000000000000000000000000000000000000F03F000000000000F03F000000000000000000000000000000003700000001000000010000000AD7A3703D0AC73F000000000000F03F0000000000000000000000000000F03F000000000000000000000000000000000000000000000000000000
310
000100000012000000540069006D006500730020004E0065007700200052006F006D0061006E00000000000000000000000C00000016000000070000C30C00000017000000FDFFFFFF0C0000001200000000000000C800000026000000A014571F294A1D404137856CD7A7F6BF000000000000000000000000000000000000
310
000000000000000000000000F03F000000000000F03F000000000000000000000000000000003800000001000000010000000AD7A3703D0AC73F000000000000F03F0000000000000000000000000000F03F000000000000000000000000000000000000000000000000000000000100000012000000540069006D00650073
310
0020004E0065007700200052006F006D0061006E00000000000000000000000C00000016000000070000C30C00000017000000FDFFFFFF0C0000001200000000000000C800000026000000302A5F4216A323404137856CD7A7F6BF000000000000000000000000000000000000000000000000000000000000F03F00000000
310
0000F03F000000000000000000000000000000003900000001000000010000000AD7A3703D0AC73F000000000000F03F0000000000000000000000000000F03F000000000000000000000000000000000000000000000000000000000100000012000000540069006D006500730020004E0065007700200052006F006D0061
310
006E00000000003F6A000000000C00000016000000070000C30C00000017000000FDFFFFFF0C0000001200000000000000C80000002600000020FAB81B17A228404137856CD7A7F6BF000000000000000000000000000000000000000000000000000000000000F03F000000000000F03F0000000000000000000000000000
310
00003000000001000000010000000AD7A3703D0AC73F000000000000F03F0000000000000000000000000000F03F000000000000000000000000000000000000000000000000000000000100000012000000540069006D006500730020004E0065007700200052006F006D0061006E00000000000000000000000C00000016
310
000000070000C30C00000017000000FDFFFFFF0C0000001200000000000000C80000002600000054549632D4DEF23F012DAEC8666AFCBF000000000000000000000000000000000000000000000000000000000000F03F000000000000F03F000000000000000000000000000000004600000001000000010000000AD7A370
310
3D0AC73F000000000000F03F0000000000000000000000000000F03F000000000000000000000000000000000000000000000000000000000100000012000000540069006D006500730020004E0065007700200052006F006D0061006E00000000000000000000000C00000016000000070000C30C00000017000000FDFFFF
310
FF0C0000001200000000000000C8000000260000002880CB5CBD350D40012DAEC8666AFCBF000000000000000000000000000000000000000000000000000000000000F03F000000000000F03F000000000000000000000000000000004700000001000000010000000AD7A3703D0AC73F000000000000F03F000000000000
310
0000000000000000F03F000000000000000000000000000000000000000000000000000000000100000012000000540069006D006500730020004E0065007700200052006F006D0061006E00000000000000000000000C00000016000000070000C30C00000017000000FDFFFFFF0C0000001200000000000000C800000026
310
0000004A603A2F319E1840012DAEC8666AFCBF000000000000000000000000000000000000000000000000000000000000F03F000000000000F03F000000000000000000000000000000004800000001000000010000000AD7A3703D0AC73F000000000000F03F0000000000000000000000000000F03F0000000000000000
310
00000000000000000000000000000000000000000100000012000000540069006D006500730020004E0065007700200052006F006D0061006E00000000000000000000000C00000016000000070000C30C00000017000000FDFFFFFF0C0000001200000000000000CC00000026000000D6D40C72B8332140012DAEC8666AFC
310
BF000000000000000000000000000000000000000000000000000000000000F03F000000000000F03F00000000000000000000000000000000530053000000000002000000010000000AD7A3703D0AC73F000000000000F03F0000000000000000000000000000F03F00000000000000000000000000000000000000000000
310
0000000000000100000012000000540069006D006500730020004E0065007700200052006F006D0061006E00000000000000000000000C00000016000000070000C30C00000017000000FDFFFFFF0C0000001200000000000000CC000000260000009476F14A03362640012DAEC8666AFCBF00000000000000000000000000
310
0000000000000000000000000000000000F03F000000000000F03F00000000000000000000000000000000460046000000000002000000010000000AD7A3703D0AC73F000000000000F03F0000000000000000000000000000F03F000000000000000000000000000000000000000000000000000000000100000012000000
310
540069006D006500730020004E0065007700200052006F006D0061006E00000000000000000000000C00000016000000070000C30C00000017000000FDFFFFFF0C0000001200000000000000CC0000002600000008B454553EA7014061916B127B1601C0000000000000000000000000000000000000000000000000000000
310
000000F03F000000000000F03F00000000000000000000000000000000310031000000000002000000010000000AD7A3703D0AC73F000000000000F03F0000000000000000000000000000F03F000000000000000000000000000000000000000000000000000000000100000012000000540069006D006500730020004E00
310
65007700200052006F006D0061006E00000000000000000000000C00000016000000070000C30C00000017000000FDFFFFFF0C0000001200000000000000CC00000026000000A63862D8B1BD124061916B127B1601C0000000000000000000000000000000000000000000000000000000000000F03F000000000000F03F00
310
000000000000000000000000000000310032000000000002000000010000000AD7A3703D0AC73F000000000000F03F0000000000000000000000000000F03F000000000000000000000000000000000000000000000000000000000100000012000000540069006D006500730020004E0065007700200052006F006D006100
310
6E00000000000000000000000C00000016000000070000C30C00000017000000FDFFFFFF0C0000001200000000000000CC000000260000005A59688EFDC81C4061916B127B1601C0000000000000000000000000000000000000000000000000000000000000F03F000000000000F03F000000000000000000000000000000
310
00310033000000000002000000010000000AD7A3703D0AC73F000000000000F03F0000000000000000000000000000F03F000000000000000000000000000000000000000000000000000000000100000012000000540069006D006500730020004E0065007700200052006F006D0061006E00000000000000000000000C00
310
000016000000070000C30C00000017000000FDFFFFFF0C0000001200000000000000CC0000002600000011891EC8EA5D234061916B127B1601C0000000000000000000000000000000000000000000000000000000000000F03F000000000000F03F0000000000000000000000000000000031003400000000000200000001
310
0000000AD7A3703D0AC73F000000000000F03F0000000000000000000000000000F03F000000000000000000000000000000000000000000000000000000000100000012000000540069006D006500730020004E0065007700200052006F006D0061006E00000000000000000000000C00000016000000070000C30C000000
310
17000000FDFFFFFF0C0000001200000000000000CC0000002600000089BC056D2B62284061916B127B1601C0000000000000000000000000000000000000000000000000000000000000F03F000000000000F03F00000000000000000000000000000000310035000000000002000000010000000AD7A3703D0AC73F000000
310
000000F03F0000000000000000000000000000F03F000000000000000000000000000000000000000000000000000000000100000012000000540069006D006500730020004E0065007700200052006F006D0061006E00000000000000000000000C00000016000000070000C30C00000017000000FDFFFFFF0C0000001200
310
000000000000D400000026000000FD2FF4BFD0FF164035D41DFFBEDD04C0000000000000000000000000000000000000000000000000000000000000F03F000000000000F03F000000000000000000000000000000005400690074006C0065002D00320000000700000001000000000000000000D03F000000000000F03F00
310
00000000000000000000000000F03F000000000000000000000000000000000000000000000000000000000100000012000000540069006D006500730020004E0065007700200052006F006D0061006E00000000000000000000000C00000016000000070000C30C00000017000000FDFFFFFF0C0000001200000000000000
310
BC0000002600000014AE47E17A14F23F19EA5D9EA0D507C0000000000000000000000000000000000000000000000000000000000000F03F000000000000F03F00000000000000000000000000000000480031000000000002000000010000000AD7A3703D0AC73F000000000000F03F0000000000000000000000000000F0
310
3F000000000000000000000000000000000000000000000000000000000100000000000000000000007400780074002E007300680078000000000000000C00000016000000070000C30C00000017000000FDFFFFFF0C0000001200000000000000BC00000026000000CDCCCCCCCCCC0C4019EA5D9EA0D507C0000000000000
310
000000000000000000000000000000000000000000000000F03F000000000000F03F00000000000000000000000000000000480032000000740002000000010000000AD7A3703D0AC73F000000000000F03F0000000000000000000000000000F03F0000000000000000000000000000000000000000000000000000000001
310
00000000000000000040047400780074002E007300680078000000000040040C00000016000000070000C30C00000017000000FDFFFFFF0C0000001200000000000000BC00000026000000676666666666184019EA5D9EA0D507C0000000000000000000000000000000000000000000000000000000000000F03F00000000
310
0000F03F00000000000000000000000000000000480033000000000002000000010000000AD7A3703D0AC73F000000000000F03F0000000000000000000000000000F03F000000000000000000000000000000000000000000000000000000000100000000000000000000007400780074002E007300680078000000000000
310
000C00000016000000070000C30C00000017000000FDFFFFFF0C0000001200000000000000BC00000026000000343333333333214019EA5D9EA0D507C0000000000000000000000000000000000000000000000000000000000000F03F000000000000F03F000000000000000000000000000000004800340000005C000200
310
0000010000000AD7A3703D0AC73F000000000000F03F0000000000000000000000000000F03F000000000000000000000000000000000000000000000000000000000100000000000000000035047400780074002E00730068007800000000006F000C00000016000000070000C30C00000017000000FDFFFFFF0C00000012
310
00000000000000BC00000026000000343333333333264019EA5D9EA0D507C0000000000000000000000000000000000000000000000000000000000000F03F000000000000F03F000000000000000000000000000000004800350000005C0002000000010000000AD7A3703D0AC73F000000000000F03F0000000000000000
310
000000000000F03F000000000000000000000000000000000000000000000000000000000100000000000000000035047400780074002E00730068007800000000006F000C00000016000000070000C30C00000017000000FDFFFFFF0C0000001200000000000000C800000026000000B00D857EF5740240C15A9BA877790A
310
C0000000000000000000000000000000000000000000000000000000000000F03F000000000000F03F000000000000000000000000000000007100000001000000010000000AD7A3703D0AC73F000000000000F03F0000000000000000000000000000F03F0000000000000000000000000000000000000000000000000000
310
00000100000012000000540069006D006500730020004E0065007700200052006F006D0061006E00000000000000000000000C00000016000000070000C30C00000017000000FDFFFFFF0C0000001200000000000000C800000026000000A06974F889001340C15A9BA877790AC00000000000000000000000000000000000
310
00000000000000000000000000F03F000000000000F03F000000000000000000000000000000007700000001000000010000000AD7A3703D0AC73F000000000000F03F0000000000000000000000000000F03F000000000000000000000000000000000000000000000000000000000100000012000000540069006D006500
310
730020004E0065007700200052006F006D0061006E00000000003F6A000000000C00000016000000070000C30C00000017000000FDFFFFFF0C0000001200000000000000C800000026000000F41F57BD66CC0240A1D5AF56BF5A0DC0000000000000000000000000000000000000000000000000000000000000F03F000000
310
000000F03F000000000000000000000000000000007200000001000000010000000AD7A3703D0AC73F000000000000F03F0000000000000000000000000000F03F000000000000000000000000000000000000000000000000000000000100000012000000540069006D006500730020004E0065007700200052006F006D00
310
61006E00000000000000000000000C00000016000000070000C30C00000017000000FDFFFFFF0C0000001200000000000000D400000026000000587C3B045E962F402A99703D413517C0000000000000000000000000000000000000000000000000000000000000F03F000000000000F03F00000000000000000000000000
310
0000005400690074006C0065002D00310000000700000001000000000000000000D03F000000000000F03F0000000000000000000000000000F03F000000000000000000000000000000000000000000000000000000000100000012000000540069006D006500730020004E0065007700200052006F006D0061006E000000
310
00000000000000000C00000016000000070000C30C00000017000000FDFFFFFF0C0000001200000000000000C800000026000000FFA445E4902D25403044678D8CB218C0000000000000000000000000000000000000000000000000000000000000F03F000000000000F03F00000000000000000000000000000000480065
310
0061006400650072002D0041000000330008000000010000000AD7A3703D0AC73F000000000000F03F0000000000000000000000000000F03F000000000000000000000000000000000000000000000000000000000100000000000000000044007400780074002E007300680078000000000000000C000000160000000700
310
00C30C00000017000000FDFFFFFF0C0000001200000000000000C800000026000000FFA445E4902D2A403044678D8CB218C0000000000000000000000000000000000000000000000000000000000000F03F000000000000F03F000000000000000000000000000000004800650061006400650072002D0042000000330008
310
000000010000000AD7A3703D0AC73F000000000000F03F0000000000000000000000000000F03F000000000000000000000000000000000000000000000000000000000100000000000000000044007400780074002E007300680078000000000000000C00000016000000070000C30C00000017000000FDFFFFFF0C000000
310
1200000000000000C800000026000000FFA445E4902D2F403044678D8CB218C0000000000000000000000000000000000000000000000000000000000000F03F000000000000F03F000000000000000000000000000000004800650061006400650072002D0043000000330008000000010000000AD7A3703D0AC73F000000
310
000000F03F0000000000000000000000000000F03F000000000000000000000000000000000000000000000000000000000100000000000000000044007400780074002E007300680078000000000000000C00000016000000070000C30C00000017000000FDFFFFFF0C0000001200000000000000C8000000260000007FD2
310
2272C81632403044678D8CB218C0000000000000000000000000000000000000000000000000000000000000F03F000000000000F03F000000000000000000000000000000004800650061006400650072002D0044000000000008000000010000000AD7A3703D0AC73F000000000000F03F00000000000000000000000000
310
00F03F000000000000000000000000000000000000000000000000000000000100000000000000000070117400780074002E007300680078000000000000000C00000016000000070000C30C00000017000000FDFFFFFF0C0000001200000000000000C8000000260000007FD22272C89634403044678D8CB218C000000000
310
0000000000000000000000000000000000000000000000000000F03F000000000000F03F000000000000000000000000000000004800650061006400650072002D0045000000330008000000010000000AD7A3703D0AC73F000000000000F03F0000000000000000000000000000F03F000000000000000000000000000000
310
000000000000000000000000000100000000000000000044007400780074002E007300680078000000000000000C00000016000000070000C30C00000017000000FDFFFFFF0C0000001200000000000000C8000000260000008E673B0DED3C2540A081716430231AC000000000000000000000000000000000000000000000
310
0000000000000000F03F000000000000F03F000000000000000000000000000000004800650061006400650072002D0031000000330008000000010000000AD7A3703D0AC73F000000000000F03F0000000000000000000000000000F03F000000000000000000000000000000000000000000000000000000000100000000
310
000000000044007400780074002E007300680078000000000000000C00000016000000070000C30C00000017000000FDFFFFFF0C0000001200000000000000C800000026000000FFA445E4902D2A40A081716430231AC0000000000000000000000000000000000000000000000000000000000000F03F000000000000F03F
310
000000000000000000000000000000004800650061006400650072002D0032000000000008000000010000000AD7A3703D0AC73F000000000000F03F0000000000000000000000000000F03F000000000000000000000000000000000000000000000000000000000100000000000000000070117400780074002E00730068
310
0078000000000000000C00000016000000070000C30C00000017000000FDFFFFFF0C0000001200000000000000C800000026000000FFA445E4902D2F40A081716430231AC0000000000000000000000000000000000000000000000000000000000000F03F000000000000F03F000000000000000000000000000000004800
310
650061006400650072002D0033000000000008000000010000000AD7A3703D0AC73F000000000000F03F0000000000000000000000000000F03F000000000000000000000000000000000000000000000000000000000100000000000000000070117400780074002E007300680078000000000000000C0000001600000007
310
0000C30C00000017000000FDFFFFFF0C0000001200000000000000C8000000260000007FD22272C8163240A081716430231AC0000000000000000000000000000000000000000000000000000000000000F03F000000000000F03F000000000000000000000000000000004800650061006400650072002D00340000003300
310
08000000010000000AD7A3703D0AC73F000000000000F03F0000000000000000000000000000F03F000000000000000000000000000000000000000000000000000000000100000000000000000044007400780074002E007300680078000000000000000C00000016000000070000C30C00000017000000FDFFFFFF0C0000
310
001200000000000000C8000000260000007FD22272C8963440A081716430231AC0000000000000000000000000000000000000000000000000000000000000F03F000000000000F03F000000000000000000000000000000004800650061006400650072002D0035000000330008000000010000000AD7A3703D0AC73F0000
310
00000000F03F0000000000000000000000000000F03F000000000000000000000000000000000000000000000000000000000100000000000000000044007400780074002E007300680078000000000000000C00000016000000070000C30C00000017000000FDFFFFFF0C0000001200000000000000C80000002600000047
310
5319E5C0AB28403F1AED9DC2791BC0000000000000000000000000000000000000000000000000000000000000F03F000000000000F03F000000000000000000000000000000006400000001000000010000000AD7A3703D0AC73F000000000000F03F0000000000000000000000000000F03F000000000000000000000000
310
000000000000000000000000000000000100000012000000540069006D006500730020004E0065007700200052006F006D0061006E00000000000000000000000C00000016000000070000C30C00000017000000FDFFFFFF0C0000001200000000000000C8000000260000000F773F4BFDB42840FF6A0F6637EC1CC0000000
310
000000000000000000000000000000000000000000000000000000F03F000000000000F03F000000000000000000000000000000006600000001000000010000000AD7A3703D0AC73F000000000000F03F0000000000000000000000000000F03F000000000000000000000000000000000000000000000000000000000100
310
000012000000540069006D006500730020004E0065007700200052006F006D0061006E00000000003F6A000000000C00000016000000070000C30C00000017000000FDFFFFFF0C0000001200000000000000C8000000260000000D0D51518BAE2840E4C1718E8D5A1EC0000000000000000000000000000000000000000000
310
000000000000000000F03F000000000000F03F000000000000000000000000000000006700000001000000010000000AD7A3703D0AC73F000000000000F03F0000000000000000000000000000F03F000000000000000000000000000000000000000000000000000000000100000012000000540069006D00650073002000
310
4E0065007700200052006F006D0061006E00000000003F6A000000000C00000016000000070000C30C00000017000000FDFFFFFF0C0000001200000000000000D4000000260000000C7F0143CF913C407487F049617C23C0000000000000000000000000000000000000000000000000000000000000F03F000000000000F0
310
3F000000000000000000000000000000005400690074006C0065002D00310000000700000001000000000000000000D03F000000000000F03F0000000000000000000000000000F03F000000000000000000000000000000000000000000000000000000000100000012000000540069006D006500730020004E0065007700
310
200052006F006D0061006E00000000000000000000000C00000016000000070000C30C00000017000000FDFFFFFF0C0000001200000000000000C8000000260000005F9306B3685D3740F7DCEBF1063B24C0000000000000000000000000000000000000000000000000000000000000F03F000000000000F03F0000000000
310
00000000000000000000004800650061006400650072002D0041000000330008000000010000000AD7A3703D0AC73F000000000000F03F0000000000000000000000000000F03F000000000000000000000000000000000000000000000000000000000100000000000000000044007400780074002E007300680078000000
310
000000000C00000016000000070000C30C00000017000000FDFFFFFF0C0000001200000000000000C8000000260000005F9306B368DD3940F7DCEBF1063B24C0000000000000000000000000000000000000000000000000000000000000F03F000000000000F03F0000000000000000000000000000000048006500610064
310
00650072002D0042000000330008000000010000000AD7A3703D0AC73F000000000000F03F0000000000000000000000000000F03F000000000000000000000000000000000000000000000000000000000100000000000000000044007400780074002E007300680078000000000000000C00000016000000070000C30C00
310
000017000000FDFFFFFF0C0000001200000000000000C8000000260000005F9306B3685D3C40F7DCEBF1063B24C0000000000000000000000000000000000000000000000000000000000000F03F000000000000F03F000000000000000000000000000000004800650061006400650072002D004300000033000800000001
310
0000000AD7A3703D0AC73F000000000000F03F0000000000000000000000000000F03F000000000000000000000000000000000000000000000000000000000100000000000000000044007400780074002E007300680078000000000000000C00000016000000070000C30C00000017000000FDFFFFFF0C00000012000000
310
00000000C8000000260000005F9306B368DD3E40F7DCEBF1063B24C0000000000000000000000000000000000000000000000000000000000000F03F000000000000F03F000000000000000000000000000000004800650061006400650072002D0044000000330008000000010000000AD7A3703D0AC73F000000000000F0
310
3F0000000000000000000000000000F03F000000000000000000000000000000000000000000000000000000000100000000000000000044007400780074002E007300680078000000000000000C00000016000000070000C30C00000017000000FDFFFFFF0C0000001200000000000000C800000026000000B0498359B4AE
310
4040F7DCEBF1063B24C0000000000000000000000000000000000000000000000000000000000000F03F000000000000F03F000000000000000000000000000000004800650061006400650072002D0045000000000008000000010000000AD7A3703D0AC73F000000000000F03F0000000000000000000000000000F03F00
310
0000000000000000000000000000000000000000000000000000000100000000000000000070117400780074002E007300680078000000000000000C00000016000000070000C30C00000017000000FDFFFFFF0C0000001200000000000000C800000026000000A77481C716653740AFFB70DD58F324C00000000000000000
310
00000000000000000000000000000000000000000000F03F000000000000F03F000000000000000000000000000000004800650061006400650072002D0031000000330008000000010000000AD7A3703D0AC73F000000000000F03F0000000000000000000000000000F03F00000000000000000000000000000000000000
310
0000000000000000000100000000000000000044007400780074002E007300680078000000000000000C00000016000000070000C30C00000017000000FDFFFFFF0C0000001200000000000000C8000000260000005F9306B368DD3940AFFB70DD58F324C00000000000000000000000000000000000000000000000000000
310
00000000F03F000000000000F03F000000000000000000000000000000004800650061006400650072002D0032000000330008000000010000000AD7A3703D0AC73F000000000000F03F0000000000000000000000000000F03F00000000000000000000000000000000000000000000000000000000010000000000000000
310
0044007400780074002E007300680078000000000000000C00000016000000070000C30C00000017000000FDFFFFFF0C0000001200000000000000C8000000260000005F9306B3685D3C40AFFB70DD58F324C0000000000000000000000000000000000000000000000000000000000000F03F000000000000F03F00000000
310
0000000000000000000000004800650061006400650072002D0033000000330008000000010000000AD7A3703D0AC73F000000000000F03F0000000000000000000000000000F03F000000000000000000000000000000000000000000000000000000000100000000000000000044007400780074002E0073006800780000
310
00000000000C00000016000000070000C30C00000017000000FDFFFFFF0C0000001200000000000000C8000000260000005F9306B368DD3E40AFFB70DD58F324C0000000000000000000000000000000000000000000000000000000000000F03F000000000000F03F00000000000000000000000000000000480065006100
310
6400650072002D0034000000330008000000010000000AD7A3703D0AC73F000000000000F03F0000000000000000000000000000F03F000000000000000000000000000000000000000000000000000000000100000000000000000044007400780074002E007300680078000000000000000C00000016000000070000C30C
310
00000017000000FDFFFFFF0C0000001200000000000000C800000026000000B0498359B4AE4040AFFB70DD58F324C0000000000000000000000000000000000000000000000000000000000000F03F000000000000F03F000000000000000000000000000000004800650061006400650072002D0035000000330008000000
310
010000000AD7A3703D0AC73F000000000000F03F0000000000000000000000000000F03F000000000000000000000000000000000000000000000000000000000100000000000000000044007400780074002E007300680078000000000000000C00000016000000070000C30C00000017000000FDFFFFFF0C000000120000
310
0000000000C800000026000000C0EDA0CA191D3940FEC72EFAA19E25C0000000000000000000000000000000000000000000000000000000000000F03F000000000000F03F000000000000000000000000000000006800000001000000010000000AD7A3703D0AC73F000000000000F03F0000000000000000000000000000
310
F03F000000000000000000000000000000000000000000000000000000000100000012000000540069006D006500730020004E0065007700200052006F006D0061006E00000000003F6A000000000C00000016000000070000C30C00000017000000FDFFFFFF0C0000001200000000000000C800000026000000677C83E61E
310
2139405FF03F5EDC5726C0000000000000000000000000000000000000000000000000000000000000F03F000000000000F03F000000000000000000000000000000006600000001000000010000000AD7A3703D0AC73F000000000000F03F0000000000000000000000000000F03F00000000000000000000000000000000
310
0000000000000000000000000100000012000000540069006D006500730020004E0065007700200052006F006D0061006E00000000000000000000000C00000016000000070000C30C00000017000000FDFFFFFF0C0000001200000000000000C800000026000000D25B12DF6E313E40C8C6FA650F5826C000000000000000
310
0000000000000000000000000000000000000000000000F03F000000000000F03F000000000000000000000000000000006A00000001000000010000000AD7A3703D0AC73F000000000000F03F0000000000000000000000000000F03F00000000000000000000000000000000000000000000000000000000010000001200
310
0000540069006D006500730020004E0065007700200052006F006D0061006E00000000000000000000000C00000016000000070000C30C00000017000000FDFFFFFF0C000000120000000000000054000000200000000200000000000000000000000000000000000000000000000000000000000000000029400000000000
310
000000000000000000000000000000000000000000000000000000000000000000F03F0C00000016000000070000C30C00000017000000FDFFFFFF0C00000012000000000000005400000020000000020000000000000000000000C09F0ADBB92EDDBF00000000000000000000000000002940C09F0ADBB92EDDBF00000000
310
0000000000000000000000000000000000000000000000000000F03F0C00000016000000070000C30C00000017000000FDFFFFFF0C00000012000000000000005400000020000000020000000000000000000000603BD7A57B1CEABF00000000000000000000000000002940603BD7A57B1CEABF0000000000000000000000
310
00000000000000000000000000000000000000F03F0C00000016000000070000C30C00000017000000FDFFFFFF0C000000120000000000000054000000200000000200000000000000000000007093142FCDD0F2BF000000000000000000000000000029407093142FCDD0F2BF000000000000000000000000000000000000
310
000000000000000000000000F03F0C00000016000000070000C30C00000017000000FDFFFFFF0C0000001200000000000000540000002000000002000000000000000000000030893D8B5C93F8BF0000000000000000000000000000294030893D8B5C93F8BF00000000000000000000000000000000000000000000000000
310
0000000000F03F0C00000016000000070000C30C00000017000000FDFFFFFF0C00000012000000000000005400000020000000020000000000000000000000F07E66E7EB55FEBF00000000000000000000000000002940F07E66E7EB55FEBF000000000000000000000000000000000000000000000000000000000000F03F
310
0C00000016000000070000C30C00000017000000FDFFFFFF0C0000001200000000000000540000002000000002000000000000000000000058BAC7A13D0C02C00000000000000000000000000000294058BAC7A13D0C02C0000000000000000000000000000000000000000000000000000000000000F03F0C000000160000
310
00070000C30C00000017000000FDFFFFFF0C00000012000000000000005400000020000000020000000000000000000000F88DCEDBAAAC05C000000000000000000000000000002940F88DCEDBAAAC05C0000000000000000000000000000000000000000000000000000000000000F03F0C00000016000000070000C30C00
310
000017000000FDFFFFFF0C00000012000000000000005400000020000000020000000000000000000000D808E389F28D08C000000000000000000000000000002940D808E389F28D08C0000000000000000000000000000000000000000000000000000000000000F03F0C00000016000000070000C30C00000017000000FD
310
FFFFFF0C00000012000000000000005400000020000000020000000000000000000000B883F7373A6F0BC000000000000000000000000000002940B883F7373A6F0BC0000000000000000000000000000000000000000000000000000000000000F03F0C00000016000000070000C30C00000017000000FDFFFFFF0C000000
310
12000000000000005400000020000000020000000000000000000000A80BD9DCAB540EC000000000000000000000000000002940A80BD9DCAB540EC0000000000000000000000000000000000000000000000000000000000000F03F0C00000016000000070000C30C00000017000000FDFFFFFF0C00000012000000000000
310
005400000020000000020000000000000000000000000000000000000000000000000000000000000000000000A80BD9DCAB540EC0000000000000000000000000000000000000000000000000000000000000F03F0C00000016000000070000C30C00000017000000FDFFFFFF0C0000001200000000000000540000002000
310
0000020000000000000000000440C09F0ADBB92EDDBF0000000000000000000000000000044058BAC7A13D0C02C0000000000000000000000000000000000000000000000000000000000000F03F0C00000016000000070000C30C00000017000000FDFFFFFF0C000000120000000000000054000000200000000200000000
310
00000000000440F88DCEDBAAAC05C000000000000000000000000000000440A80BD9DCAB540EC0000000000000000000000000000000000000000000000000000000000000F03F0C00000016000000070000C30C00000017000000FDFFFFFF0C00000012000000000000005400000020000000020000000000000000001440
310
C09F0ADBB92EDDBF0000000000000000000000000000144058BAC7A13D0C02C0000000000000000000000000000000000000000000000000000000000000F03F0C00000016000000070000C30C00000017000000FDFFFFFF0C00000012000000000000005400000020000000020000000000000000001440F88DCEDBAAAC05
310
C000000000000000000000000000001440A80BD9DCAB540EC0000000000000000000000000000000000000000000000000000000000000F03F0C00000016000000070000C30C00000017000000FDFFFFFF0C00000012000000000000005400000020000000020000000000000000001E40C09F0ADBB92EDDBF000000000000
310
00000000000000001E4058BAC7A13D0C02C0000000000000000000000000000000000000000000000000000000000000F03F0C00000016000000070000C30C00000017000000FDFFFFFF0C00000012000000000000005400000020000000020000000000000000001E40F88DCEDBAAAC05C000000000000000000000000000
310
001E40A80BD9DCAB540EC0000000000000000000000000000000000000000000000000000000000000F03F0C00000016000000070000C30C00000017000000FDFFFFFF0C00000012000000000000005400000020000000020000000000000000002440C09F0ADBB92EDDBF0000000000000000000000000000244058BAC7A1
310
3D0C02C0000000000000000000000000000000000000000000000000000000000000F03F0C00000016000000070000C30C00000017000000FDFFFFFF0C00000012000000000000005400000020000000020000000000000000002440F88DCEDBAAAC05C000000000000000000000000000002440A80BD9DCAB540EC0000000
310
000000000000000000000000000000000000000000000000000000F03F0C00000016000000070000C30C00000017000000FDFFFFFF0C00000012000000000000005400000020000000020000000000000000002940000000000000000000000000000000000000000000002940A80BD9DCAB540EC000000000000000000000
310
0000000000000000000000000000000000000000F03F0C00000016000000080000C30C00000017000000000000000C0000001200000000000000540000002000000002000000000000000000000000000000000000000000000000000000000000000000000000000000000000000000000000000000000000000000000000
310
00000000000000000000000000F03F0C00000016000000070000C30C00000017000000FDFFFFFF0C0000001200000000000000540000002000000002000000E01F5A92D80E244024EC6E0E26CB15C00000000000000000F00F2D496C87364024EC6E0E26CB15C0000000000000000000000000000000000000000000000000
310
000000000000F03F0C00000016000000070000C30C00000017000000FDFFFFFF0C0000001200000000000000540000002000000002000000E01F5A92D80E244020961FAC119E17C00000000000000000F00F2D496C87364020961FAC119E17C0000000000000000000000000000000000000000000000000000000000000F0
310
3F0C00000016000000070000C30C00000017000000FDFFFFFF0C0000001200000000000000540000002000000002000000E01F5A92D80E244090D32983B50E19C00000000000000000F00F2D496C87364090D32983B50E19C0000000000000000000000000000000000000000000000000000000000000F03F0C0000001600
310
0000070000C30C00000017000000FDFFFFFF0C0000001200000000000000540000002000000002000000E01F5A92D80E24400011345A597F1AC00000000000000000F00F2D496C8736400011345A597F1AC0000000000000000000000000000000000000000000000000000000000000F03F0C00000016000000070000C30C
310
00000017000000FDFFFFFF0C0000001200000000000000540000002000000002000000E01F5A92D80E2440F8D4A42C12F21BC00000000000000000F00F2D496C873640F8D4A42C12F21BC0000000000000000000000000000000000000000000000000000000000000F03F0C00000016000000070000C30C00000017000000
310
FDFFFFFF0C0000001200000000000000540000002000000002000000E01F5A92D80E2440F09815FFCA641DC00000000000000000F00F2D496C873640F09815FFCA641DC0000000000000000000000000000000000000000000000000000000000000F03F0C00000016000000070000C30C00000017000000FDFFFFFF0C0000
310
001200000000000000540000002000000002000000E01F5A92D80E2440E85C86D183D71EC00000000000000000F00F2D496C873640E85C86D183D71EC0000000000000000000000000000000000000000000000000000000000000F03F0C00000016000000070000C30C00000017000000FDFFFFFF0C000000120000000000
310
0000540000002000000002000000E01F5A92D80E244024EC6E0E26CB15C00000000000000000E01F5A92D80E2440E85C86D183D71EC0000000000000000000000000000000000000000000000000000000000000F03F0C00000016000000070000C30C00000017000000FDFFFFFF0C00000012000000000000005400000020
310
00000002000000E01F5A92D80E294020961FAC119E17C00000000000000000E01F5A92D80E2940E85C86D183D71EC0000000000000000000000000000000000000000000000000000000000000F03F0C00000016000000070000C30C00000017000000FDFFFFFF0C0000001200000000000000540000002000000002000000
310
E01F5A92D80E2E4020961FAC119E17C00000000000000000E01F5A92D80E2E40E85C86D183D71EC0000000000000000000000000000000000000000000000000000000000000F03F0C00000016000000070000C30C00000017000000FDFFFFFF0C0000001200000000000000540000002000000002000000F00F2D496C8731
310
4020961FAC119E17C00000000000000000F00F2D496C873140E85C86D183D71EC0000000000000000000000000000000000000000000000000000000000000F03F0C00000016000000070000C30C00000017000000FDFFFFFF0C0000001200000000000000540000002000000002000000F00F2D496C07344020961FAC119E
310
17C00000000000000000F00F2D496C073440E85C86D183D71EC0000000000000000000000000000000000000000000000000000000000000F03F0C00000016000000070000C30C00000017000000FDFFFFFF0C0000001200000000000000540000002000000002000000F00F2D496C87364024EC6E0E26CB15C00000000000
310
000000F00F2D496C873640E85C86D183D71EC0000000000000000000000000000000000000000000000000000000000000F03F0C00000016000000080000C30C00000017000000000000000C000000120000000000000054000000200000000200000000000000000000000000000000000000000000000000000000000000
310
000000000000000000000000000000000000000000000000000000000000000000000000000000000000F03F0C00000016000000070000C30C00000017000000FDFFFFFF0C0000001200000000000000540000002000000002000000D0D0108A0CCE3640F1B06FB253C722C000000000000000006868084506A74140F1B06F
310
B253C722C0000000000000000000000000000000000000000000000000000000000000F03F0C00000016000000070000C30C00000017000000FDFFFFFF0C0000001200000000000000540000002000000002000000D0D0108A0CCE3640EF054881C9B023C000000000000000006868084506A74140EF054881C9B023C00000
310
00000000000000000000000000000000000000000000000000000000F03F0C00000016000000070000C30C00000017000000FDFFFFFF0C0000001200000000000000540000002000000002000000D0D0108A0CCE3640A724CD6C1B6924C000000000000000006868084506A74140A724CD6C1B6924C0000000000000000000
310
000000000000000000000000000000000000000000F03F0C00000016000000070000C30C00000017000000FDFFFFFF0C0000001200000000000000540000002000000002000000D0D0108A0CCE36405F4352586D2125C000000000000000006868084506A741405F4352586D2125C000000000000000000000000000000000
310
0000000000000000000000000000F03F0C00000016000000070000C30C00000017000000FDFFFFFF0C0000001200000000000000540000002000000002000000D0D0108A0CCE36405BA58AC1C9DA25C000000000000000006868084506A741405BA58AC1C9DA25C00000000000000000000000000000000000000000000000
310
00000000000000F03F0C00000016000000070000C30C00000017000000FDFFFFFF0C0000001200000000000000540000002000000002000000D0D0108A0CCE36405707C32A269426C000000000000000006868084506A741405707C32A269426C0000000000000000000000000000000000000000000000000000000000000
310
F03F0C00000016000000070000C30C00000017000000FDFFFFFF0C0000001200000000000000540000002000000002000000D0D0108A0CCE3640F1B06FB253C722C00000000000000000D0D0108A0CCE36405707C32A269426C0000000000000000000000000000000000000000000000000000000000000F03F0C00000016
310
000000070000C30C00000017000000FDFFFFFF0C0000001200000000000000540000002000000002000000D0D0108A0C4E3940EF054881C9B023C00000000000000000D0D0108A0C4E39405707C32A269426C0000000000000000000000000000000000000000000000000000000000000F03F0C00000016000000070000C3
310
0C00000017000000FDFFFFFF0C0000001200000000000000540000002000000002000000D0D0108A0CCE3B40EF054881C9B023C00000000000000000D0D0108A0CCE3B405707C32A269426C0000000000000000000000000000000000000000000000000000000000000F03F0C00000016000000070000C30C000000170000
310
00FDFFFFFF0C0000001200000000000000540000002000000002000000D0D0108A0C4E3E40EF054881C9B023C00000000000000000D0D0108A0C4E3E405707C32A269426C0000000000000000000000000000000000000000000000000000000000000F03F0C00000016000000070000C30C00000017000000FDFFFFFF0C00
310
000012000000000000005400000020000000020000006868084506674040EF054881C9B023C0000000000000000068680845066740405707C32A269426C0000000000000000000000000000000000000000000000000000000000000F03F0C00000016000000070000C30C00000017000000FDFFFFFF0C0000001200000000
310
0000005400000020000000020000006868084506A74140F1B06FB253C722C000000000000000006868084506A741405707C32A269426C0000000000000000000000000000000000000000000000000000000000000F03F0C00000016000000080000C30C00000017000000000000000C000000120000000000000054000000
310
200000000200000000000000000000000000000000000000000000000000000000000000000000000000000000000000000000000000000000000000000000000000000000000000000000000000F03F080000001F000000
100
AcDbBlockReference
  2
*T1
 10
84.66509801618446
 20
20.50261019851033
 30
0.0
100
AcDbTable
342
277
343
201
 11
1.0
 21
0.0
 31
0.0
 90
22
 91
10
 92
5
 93
0
 94
0
 95
0
 96
0
141
0.4559769286229275
141
0.36
141
0.36
141
0.36
141
0.36
141
0.36
141
0.4533333333333334
141
0.36
141
0.36
141
0.3620331651045422
142
2.5
142
2.5
142
2.5
142
2.5
142
2.5
171
1
172
0
173
0
174
0
175
5
176
1
 91
262144
178
0
145
0.0
 92
0
301
CELL_VALUE
 93
6
 90
4
  1
Title-1
 94
0
300

302
Title-1
304
ACVALUE_END
171
1
172
0
173
1
174
0
175
1
176
1
 91
0
178
0
145
0.0
 92
0
301
CELL_VALUE
 93
7
 90
0
 94
0
300

302

304
ACVALUE_END
171
1
172
0
173
1
174
0
175
1
176
1
 91
0
178
0
145
0.0
 92
0
301
CELL_VALUE
 93
7
 90
0
 94
0
300

302

304
ACVALUE_END
171
1
172
0
173
1
174
0
175
1
176
1
 91
0
178
0
145
0.0
 92
0
301
CELL_VALUE
 93
7
 90
0
 94
0
300

302

304
ACVALUE_END
171
1
172
0
173
1
174
0
175
1
176
1
 91
0
178
0
145
0.0
 92
0
301
CELL_VALUE
 93
7
 90
0
 94
0
300

302

304
ACVALUE_END
171
1
172
0
173
0
174
0
175
1
176
1
 91
262144
178
0
145
0.0
 92
0
301
CELL_VALUE
 93
6
 90
4
  1
Header-A
 94
0
300

302
Header-A
304
ACVALUE_END
171
1
172
0
173
0
174
0
175
1
176
1
 91
262144
178
0
145
0.0
 92
0
301
CELL_VALUE
 93
6
 90
4
  1
Header-B
 94
0
300

302
Header-B
304
ACVALUE_END
171
1
172
0
173
0
174
0
175
1
176
1
 91
262144
178
0
145
0.0
 92
0
301
CELL_VALUE
 93
6
 90
4
  1
Header-C
 94
0
300

302
Header-C
304
ACVALUE_END
171
1
172
0
173
0
174
0
175
1
176
1
 91
262144
178
0
145
0.0
 92
0
301
CELL_VALUE
 93
6
 90
4
  1
Header-D
 94
0
300

302
Header-D
304
ACVALUE_END
171
1
172
0
173
0
174
0
175
1
176
1
 91
262144
178
0
145
0.0
 92
0
301
CELL_VALUE
 93
6
 90
4
  1
Header-E
 94
0
300

302
Header-E
304
ACVALUE_END
171
1
172
0
173
0
174
0
175
1
176
1
 91
262161
178
0
145
0.0
170
5
  7
Standard
 92
0
301
CELL_VALUE
 93
6
 90
4
  1
Header-1
 94
0
300

302
Header-1
304
ACVALUE_END
171
1
172
0
173
0
174
0
175
1
176
1
 91
262161
178
0
145
0.0
170
5
  7
Standard
 92
0
301
CELL_VALUE
 93
6
 90
4
  1
Header-2
 94
0
300

302
Header-2
304
ACVALUE_END
171
1
172
0
173
0
174
0
175
1
176
1
 91
262161
178
0
145
0.0
170
5
  7
Standard
 92
0
301
CELL_VALUE
 93
6
 90
4
  1
Header-3
 94
0
300

302
Header-3
304
ACVALUE_END
171
1
172
0
173
0
174
0
175
1
176
1
 91
262161
178
0
145
0.0
170
5
  7
Standard
 92
0
301
CELL_VALUE
 93
6
 90
4
  1
Header-4
 94
0
300

302
Header-4
304
ACVALUE_END
171
1
172
0
173
0
174
0
175
1
176
1
 91
262161
178
0
145
0.0
170
5
  7
Standard
 92
0
301
CELL_VALUE
 93
6
 90
4
  1
Header-5
 94
0
300

302
Header-5
304
ACVALUE_END
171
1
172
0
173
0
174
0
175
1
176
1
 91
262145
178
0
145
0.0
170
3
 92
0
301
CELL_VALUE
 93
6
 90
1
 91
6
 94
0
300

302
6
304
ACVALUE_END
171
1
172
0
173
0
174
0
175
1
176
1
 91
262145
178
0
145
0.0
170
3
 92
0
301
CELL_VALUE
 93
6
 90
1
 91
7
 94
0
300

302
7
304
ACVALUE_END
171
1
172
0
173
0
174
0
175
1
176
1
 91
262145
178
0
145
0.0
170
3
 92
0
301
CELL_VALUE
 93
6
 90
1
 91
8
 94
0
300

302
8
304
ACVALUE_END
171
1
172
0
173
0
174
0
175
1
176
1
 91
262145
178
0
145
0.0
170
3
 92
0
301
CELL_VALUE
 93
6
 90
1
 91
9
 94
0
300

302
9
304
ACVALUE_END
171
1
172
0
173
0
174
0
175
1
176
1
 91
262145
178
0
145
0.0
170
3
 92
0
301
CELL_VALUE
 93
6
 90
1
 91
0
 94
0
300

302
0
304
ACVALUE_END
171
1
172
0
173
0
174
0
175
1
176
1
 91
262144
178
0
145
0.0
 92
0
301
CELL_VALUE
 93
6
 90
4
  1
F
 94
0
300

302
F
304
ACVALUE_END
171
1
172
0
173
0
174
0
175
1
176
1
 91
262144
178
0
145
0.0
 92
0
301
CELL_VALUE
 93
6
 90
4
  1
G
 94
0
300

302
G
304
ACVALUE_END
171
1
172
0
173
0
174
0
175
1
176
1
 91
262144
178
0
145
0.0
 92
0
301
CELL_VALUE
 93
6
 90
4
  1
H
 94
0
300

302
H
304
ACVALUE_END
171
1
172
0
173
0
174
0
175
1
176
1
 91
262144
178
0
145
0.0
 92
0
301
CELL_VALUE
 93
6
 90
4
  1
SS
 94
0
300

302
SS
304
ACVALUE_END
171
1
172
0
173
0
174
0
175
1
176
1
 91
262144
178
0
145
0.0
 92
0
301
CELL_VALUE
 93
6
 90
4
  1
FF
 94
0
300

302
FF
304
ACVALUE_END
171
1
172
0
173
0
174
0
175
1
176
1
 91
262145
178
0
145
0.0
170
3
 92
0
301
CELL_VALUE
 93
6
 90
1
 91
11
 94
0
300

302
11
304
ACVALUE_END
171
1
172
0
173
0
174
0
175
1
176
1
 91
262145
178
0
145
0.0
170
3
 92
0
301
CELL_VALUE
 93
6
 90
1
 91
12
 94
0
300

302
12
304
ACVALUE_END
171
1
172
0
173
0
174
0
175
1
176
1
 91
262145
178
0
145
0.0
170
3
 92
0
301
CELL_VALUE
 93
6
 90
1
 91
13
 94
0
300

302
13
304
ACVALUE_END
171
1
172
0
173
0
174
0
175
1
176
1
 91
262145
178
0
145
0.0
170
3
 92
0
301
CELL_VALUE
 93
6
 90
1
 91
14
 94
0
300

302
14
304
ACVALUE_END
171
1
172
0
173
0
174
0
175
1
176
1
 91
262145
178
0
145
0.0
170
3
 92
0
301
CELL_VALUE
 93
6
 90
1
 91
15
 94
0
300

302
15
304
ACVALUE_END
171
1
172
0
173
0
174
0
175
5
176
1
 91
262177
178
0
145
0.0
170
5
140
0.25
 92
0
301
CELL_VALUE
 93
6
 90
4
  1
Title-2
 94
0
300

302
Title-2
304
ACVALUE_END
171
1
172
0
173
1
174
0
175
1
176
1
 91
33
178
0
145
0.0
170
5
140
0.25
 92
0
301
CELL_VALUE
 93
7
 90
0
 94
0
300

302

304
ACVALUE_END
171
1
172
0
173
1
174
0
175
1
176
1
 91
33
178
0
145
0.0
170
5
140
0.25
 92
0
301
CELL_VALUE
 93
7
 90
0
 94
0
300

302

304
ACVALUE_END
171
1
172
0
173
1
174
0
175
1
176
1
 91
33
178
0
145
0.0
170
5
140
0.25
 92
0
301
CELL_VALUE
 93
7
 90
0
 94
0
300

302

304
ACVALUE_END
171
1
172
0
173
1
174
0
175
1
176
1
 91
33
178
0
145
0.0
170
5
140
0.25
 92
0
301
CELL_VALUE
 93
7
 90
0
 94
0
300

302

304
ACVALUE_END
171
1
172
0
173
0
174
0
175
1
176
1
 91
262161
178
0
145
0.0
170
5
  7
Standard
 92
0
301
CELL_VALUE
 93
6
 90
4
  1
H1
 94
0
300

302
H1
304
ACVALUE_END
171
1
172
0
173
0
174
0
175
1
176
1
 91
262161
178
0
145
0.0
170
5
  7
Standard
 92
0
301
CELL_VALUE
 93
6
 90
4
  1
H2
 94
0
300

302
H2
304
ACVALUE_END
171
1
172
0
173
0
174
0
175
1
176
1
 91
262161
178
0
145
0.0
170
5
  7
Standard
 92
0
301
CELL_VALUE
 93
6
 90
4
  1
H3
 94
0
300

302
H3
304
ACVALUE_END
171
1
172
0
173
0
174
0
175
1
176
1
 91
262161
178
0
145
0.0
170
5
  7
Standard
 92
0
301
CELL_VALUE
 93
6
 90
4
  1
H4
 94
0
300

302
H4
304
ACVALUE_END
171
1
172
0
173
0
174
0
175
1
176
1
 91
262161
178
0
145
0.0
170
5
  7
Standard
 92
0
301
CELL_VALUE
 93
6
 90
4
  1
H5
 94
0
300

302
H5
304
ACVALUE_END
171
1
172
0
173
0
174
0
175
1
176
1
 91
262145
178
0
145
0.0
170
3
 92
0
301
CELL_VALUE
 93
6
 90
4
  1
q
 94
0
300

302
q
304
ACVALUE_END
171
1
172
0
173
0
174
0
175
1
176
1
 91
262145
178
0
145
0.0
170
3
 92
0
301
CELL_VALUE
 93
6
 90
4
  1
w
 94
0
300

302
w
304
ACVALUE_END
171
1
172
0
173
0
174
0
175
1
176
1
 91
262145
178
0
145
0.0
170
3
 92
0
301
CELL_VALUE
 93
5
 90
1
 94
0
300

302

304
ACVALUE_END
171
1
172
0
173
0
174
0
175
1
176
1
 91
262145
178
0
145
0.0
170
3
 92
0
301
CELL_VALUE
 93
5
 90
1
 94
0
300

302

304
ACVALUE_END
171
1
172
0
173
0
174
0
175
1
176
1
 91
262145
178
0
145
0.0
170
3
 92
0
301
CELL_VALUE
 93
5
 90
1
 94
0
300

302

304
ACVALUE_END
171
1
172
0
173
0
174
0
175
1
176
1
 91
262145
178
0
145
0.0
170
3
 92
0
301
CELL_VALUE
 93
6
 90
4
  1
r
 94
0
300

302
r
304
ACVALUE_END
171
1
172
0
173
0
174
0
175
1
176
1
 91
262145
178
0
145
0.0
170
3
 92
0
301
CELL_VALUE
 93
5
 90
1
 94
0
300

302

304
ACVALUE_END
171
1
172
0
173
0
174
0
175
1
176
1
 91
262145
178
0
145
0.0
170
3
 92
0
301
CELL_VALUE
 93
5
 90
4
 94
0
300

302

304
ACVALUE_END
171
1
172
0
173
0
174
0
175
1
176
1
 91
262145
178
0
145
0.0
170
3
 92
0
301
CELL_VALUE
 93
5
 90
1
 94
0
300

302

304
ACVALUE_END
171
1
172
0
173
0
174
0
175
1
176
1
 91
262145
178
0
145
0.0
170
3
 92
0
301
CELL_VALUE
 93
5
 90
1
 94
0
300

302

304
ACVALUE_END
  0
ACAD_TABLE
  5
275
330
28
100
AcDbEntity
  8
0
 92
5148
310
1C14000072000000880000001D000000000000000000F03F00000000000000000000000000000000604D90096CAC57400000000000000000000000000000F03F0000000000000000C0038318C31B2E4000000000000000000000000000000000000000000000F03F0000000000000000000000000000000000000000000000
310
000000000000000000000000000000F03F0C00000016000000070000C30C00000017000000FDFFFFFF0C0000001200000000000000D400000026000000F1B8C2E30A0F174086D01AF0B2A1D6BF000000000000000000000000000000000000000000000000000000000000F03F000000000000F03F00000000000000000000
310
0000000000005400690074006C0065002D00310000000700000001000000000000000000D03F000000000000F03F0000000000000000000000000000F03F000000000000000000000000000000000000000000000000000000000100000012000000540069006D006500730020004E0065007700200052006F006D0061006E
310
00000000000000000000000C00000016000000070000C30C00000017000000FDFFFFFF0C0000001200000000000000C800000026000000EA51B81E85EBE13F82C0C2F7333BE7BF000000000000000000000000000000000000000000000000000000000000F03F000000000000F03F00000000000000000000000000000000
310
4800650061006400650072002D0041000000C73F08000000010000000AD7A3703D0AC73F000000000000F03F0000000000000000000000000000F03F000000000000000000000000000000000000000000000000000000000100000000000000000020007400780074002E007300680078000000000000000C000000160000
310
00070000C30C00000017000000FDFFFFFF0C0000001200000000000000C8000000260000007A14AE47E17A084082C0C2F7333BE7BF000000000000000000000000000000000000000000000000000000000000F03F000000000000F03F000000000000000000000000000000004800650061006400650072002D0042000000
310
000008000000010000000AD7A3703D0AC73F000000000000F03F0000000000000000000000000000F03F000000000000000000000000000000000000000000000000000000000100000000000000000070117400780074002E007300680078000000000000000C00000016000000070000C30C00000017000000FDFFFFFF0C
310
0000001200000000000000C8000000260000003E0AD7A3703D164082C0C2F7333BE7BF000000000000000000000000000000000000000000000000000000000000F03F000000000000F03F000000000000000000000000000000004800650061006400650072002D0043000000C73F08000000010000000AD7A3703D0AC73F
310
000000000000F03F0000000000000000000000000000F03F000000000000000000000000000000000000000000000000000000000100000000000000000020007400780074002E007300680078000000000000000C00000016000000070000C30C00000017000000FDFFFFFF0C0000001200000000000000C8000000260000
310
001F85EB51B81E204082C0C2F7333BE7BF000000000000000000000000000000000000000000000000000000000000F03F000000000000F03F000000000000000000000000000000004800650061006400650072002D0044000000330008000000010000000AD7A3703D0AC73F000000000000F03F00000000000000000000
310
00000000F03F000000000000000000000000000000000000000000000000000000000100000000000000000044007400780074002E007300680078000000000000000C00000016000000070000C30C00000017000000FDFFFFFF0C0000001200000000000000C8000000260000001F85EB51B81E254082C0C2F7333BE7BF00
310
0000000000000000000000000000000000000000000000000000000000F03F000000000000F03F000000000000000000000000000000004800650061006400650072002D0045000000C73F08000000010000000AD7A3703D0AC73F000000000000F03F0000000000000000000000000000F03F000000000000000000000000
310
000000000000000000000000000000000100000000000000000020007400780074002E007300680078000000000000000C00000016000000070000C30C00000017000000FDFFFFFF0C0000001200000000000000C800000026000000E07A14AE47E1E23F01560A582960F1BF00000000000000000000000000000000000000
310
0000000000000000000000F03F000000000000F03F000000000000000000000000000000004800650061006400650072002D0031000000330008000000010000000AD7A3703D0AC73F000000000000F03F0000000000000000000000000000F03F000000000000000000000000000000000000000000000000000000000100
310
000000000000000044007400780074002E007300680078000000000000000C00000016000000070000C30C00000017000000FDFFFFFF0C0000001200000000000000C8000000260000007A14AE47E17A084001560A582960F1BF000000000000000000000000000000000000000000000000000000000000F03F0000000000
310
00F03F000000000000000000000000000000004800650061006400650072002D0032000000C73F08000000010000000AD7A3703D0AC73F000000000000F03F0000000000000000000000000000F03F000000000000000000000000000000000000000000000000000000000100000000000000000020007400780074002E00
310
7300680078000000000000000C00000016000000070000C30C00000017000000FDFFFFFF0C0000001200000000000000C8000000260000003E0AD7A3703D164001560A582960F1BF000000000000000000000000000000000000000000000000000000000000F03F000000000000F03F000000000000000000000000000000
310
004800650061006400650072002D0033000000330008000000010000000AD7A3703D0AC73F000000000000F03F0000000000000000000000000000F03F000000000000000000000000000000000000000000000000000000000100000000000000000044007400780074002E007300680078000000000000000C0000001600
310
0000070000C30C00000017000000FDFFFFFF0C0000001200000000000000C8000000260000001F85EB51B81E204001560A582960F1BF000000000000000000000000000000000000000000000000000000000000F03F000000000000F03F000000000000000000000000000000004800650061006400650072002D00340000
310
00330008000000010000000AD7A3703D0AC73F000000000000F03F0000000000000000000000000000F03F000000000000000000000000000000000000000000000000000000000100000000000000000044007400780074002E007300680078000000000000000C00000016000000070000C30C00000017000000FDFFFFFF
310
0C0000001200000000000000C8000000260000001F85EB51B81E254001560A582960F1BF000000000000000000000000000000000000000000000000000000000000F03F000000000000F03F000000000000000000000000000000004800650061006400650072002D0035000000A37008000000010000000AD7A3703D0AC7
310
3F000000000000F03F0000000000000000000000000000F03F000000000000000000000000000000000000000000000000000000000100000000000000000068007400780074002E007300680078000000000000000C00000016000000070000C30C00000017000000FDFFFFFF0C0000001200000000000000C80000002600
310
00009BCDFC4AA173024073B8F83D72BAF6BF000000000000000000000000000000000000000000000000000000000000F03F000000000000F03F000000000000000000000000000000006400000001000000010000000AD7A3703D0AC73F000000000000F03F0000000000000000000000000000F03F000000000000000000
310
000000000000000000000000000000000000000100000012000000540069006D006500730020004E0065007700200052006F006D0061006E00000000000000000000000C00000016000000070000C30C00000017000000FDFFFFFF0C0000001200000000000000C800000026000000B75C95E39298024075FB815E4584FCBF
310
000000000000000000000000000000000000000000000000000000000000F03F000000000000F03F000000000000000000000000000000006600000001000000010000000AD7A3703D0AC73F000000000000F03F0000000000000000000000000000F03F000000000000000000000000000000000000000000000000000000
310
000100000012000000540069006D006500730020004E0065007700200052006F006D0061006E00000000000000000000000C00000016000000070000C30C00000017000000FDFFFFFF0C0000001200000000000000C800000026000000B4B4DBFBCA7E024085AB0500CF1E01C0000000000000000000000000000000000000
310
000000000000000000000000F03F000000000000F03F000000000000000000000000000000006700000001000000010000000AD7A3703D0AC73F000000000000F03F0000000000000000000000000000F03F000000000000000000000000000000000000000000000000000000000100000012000000540069006D00650073
310
0020004E0065007700200052006F006D0061006E00000000000000000000000C00000016000000070000C30C00000017000000FDFFFFFF0C0000001200000000000000540000002000000002000000000000000000000000000000000000000000000000000000000000000000294000000000000000000000000000000000
310
00000000000000000000000000000000000000000000F03F0C00000016000000070000C30C00000017000000FDFFFFFF0C00000012000000000000005400000020000000020000000000000000000000C09F0ADBB92EDDBF00000000000000000000000000002940C09F0ADBB92EDDBF000000000000000000000000000000
310
000000000000000000000000000000F03F0C00000016000000070000C30C00000017000000FDFFFFFF0C00000012000000000000005400000020000000020000000000000000000000603BD7A57B1CEABF00000000000000000000000000002940603BD7A57B1CEABF00000000000000000000000000000000000000000000
310
0000000000000000F03F0C00000016000000070000C30C00000017000000FDFFFFFF0C000000120000000000000054000000200000000200000000000000000000007093142FCDD0F2BF000000000000000000000000000029407093142FCDD0F2BF0000000000000000000000000000000000000000000000000000000000
310
00F03F0C00000016000000070000C30C00000017000000FDFFFFFF0C0000001200000000000000540000002000000002000000000000000000000050A3D778B09BF8BF0000000000000000000000000000294050A3D778B09BF8BF000000000000000000000000000000000000000000000000000000000000F03F0C000000
310
16000000070000C30C00000017000000FDFFFFFF0C0000001200000000000000540000002000000002000000000000000000000030B39AC29366FEBF0000000000000000000000000000294030B39AC29366FEBF000000000000000000000000000000000000000000000000000000000000F03F0C00000016000000070000
310
C30C00000017000000FDFFFFFF0C0000001200000000000000540000002000000002000000000000000000000088E12E86BB1802C00000000000000000000000000000294088E12E86BB1802C0000000000000000000000000000000000000000000000000000000000000F03F0C00000016000000070000C30C0000001700
310
0000FDFFFFFF0C0000001200000000000000540000002000000002000000000000000000000000000000000000000000000000000000000000000000000088E12E86BB1802C0000000000000000000000000000000000000000000000000000000000000F03F0C00000016000000070000C30C00000017000000FDFFFFFF0C
310
00000012000000000000005400000020000000020000000000000000000440C09F0ADBB92EDDBF0000000000000000000000000000044088E12E86BB1802C0000000000000000000000000000000000000000000000000000000000000F03F0C00000016000000070000C30C00000017000000FDFFFFFF0C00000012000000
310
000000005400000020000000020000000000000000001440C09F0ADBB92EDDBF0000000000000000000000000000144088E12E86BB1802C0000000000000000000000000000000000000000000000000000000000000F03F0C00000016000000070000C30C00000017000000FDFFFFFF0C0000001200000000000000540000
310
0020000000020000000000000000001E40C09F0ADBB92EDDBF00000000000000000000000000001E4088E12E86BB1802C0000000000000000000000000000000000000000000000000000000000000F03F0C00000016000000070000C30C00000017000000FDFFFFFF0C000000120000000000000054000000200000000200
310
00000000000000002440C09F0ADBB92EDDBF0000000000000000000000000000244088E12E86BB1802C0000000000000000000000000000000000000000000000000000000000000F03F0C00000016000000070000C30C00000017000000FDFFFFFF0C00000012000000000000005400000020000000020000000000000000
310
00294000000000000000000000000000000000000000000000294088E12E86BB1802C0000000000000000000000000000000000000000000000000000000000000F03F0C00000016000000080000C30C00000017000000000000000C0000001200000000000000540000002000000002000000000000000000000000000000
310
00000000000000000000000000000000000000000000000000000000000000000000000000000000000000000000000000000000000000000000F03F080000001F000000
100
AcDbBlockReference
  2
*T6
 10
94.69409407703414
 20
15.05422283744144
 30
0.0
100
AcDbTable
342
277
343
CBC
 11
1.0
 21
0.0
 31
0.0
 90
22
 91
6
 92
5
 93
0
 94
0
 95
0
 96
0
141
0.4559769286229275
141
0.36
141
0.36
141
0.3620331651045422
141
0.3620331651045422
141
0.3620331651045422
142
2.5
142
2.5
142
2.5
142
2.5
142
2.5
171
1
172
0
173
0
174
0
175
5
176
1
 91
262144
178
0
145
0.0
 92
0
301
CELL_VALUE
 93
6
 90
4
  1
Title-1
 94
0
300

302
Title-1
304
ACVALUE_END
171
1
172
0
173
1
174
0
175
1
176
1
 91
0
178
0
145
0.0
 92
0
301
CELL_VALUE
 93
7
 90
0
 94
0
300

302

304
ACVALUE_END
171
1
172
0
173
1
174
0
175
1
176
1
 91
0
178
0
145
0.0
 92
0
301
CELL_VALUE
 93
7
 90
0
 94
0
300

302

304
ACVALUE_END
171
1
172
0
173
1
174
0
175
1
176
1
 91
0
178
0
145
0.0
 92
0
301
CELL_VALUE
 93
7
 90
0
 94
0
300

302

304
ACVALUE_END
171
1
172
0
173
1
174
0
175
1
176
1
 91
0
178
0
145
0.0
 92
0
301
CELL_VALUE
 93
7
 90
0
 94
0
300

302

304
ACVALUE_END
171
1
172
0
173
0
174
0
175
1
176
1
 91
262144
178
0
145
0.0
 92
0
301
CELL_VALUE
 93
6
 90
4
  1
Header-A
 94
0
300

302
Header-A
304
ACVALUE_END
171
1
172
0
173
0
174
0
175
1
176
1
 91
262144
178
0
145
0.0
 92
0
301
CELL_VALUE
 93
6
 90
4
  1
Header-B
 94
0
300

302
Header-B
304
ACVALUE_END
171
1
172
0
173
0
174
0
175
1
176
1
 91
262144
178
0
145
0.0
 92
0
301
CELL_VALUE
 93
6
 90
4
  1
Header-C
 94
0
300

302
Header-C
304
ACVALUE_END
171
1
172
0
173
0
174
0
175
1
176
1
 91
262144
178
0
145
0.0
 92
0
301
CELL_VALUE
 93
6
 90
4
  1
Header-D
 94
0
300

302
Header-D
304
ACVALUE_END
171
1
172
0
173
0
174
0
175
1
176
1
 91
262144
178
0
145
0.0
 92
0
301
CELL_VALUE
 93
6
 90
4
  1
Header-E
 94
0
300

302
Header-E
304
ACVALUE_END
171
1
172
0
173
0
174
0
175
1
176
1
 91
262161
178
0
145
0.0
170
5
  7
Standard
 92
0
301
CELL_VALUE
 93
6
 90
4
  1
Header-1
 94
0
300

302
Header-1
304
ACVALUE_END
171
1
172
0
173
0
174
0
175
1
176
1
 91
262161
178
0
145
0.0
170
5
  7
Standard
 92
0
301
CELL_VALUE
 93
6
 90
4
  1
Header-2
 94
0
300

302
Header-2
304
ACVALUE_END
171
1
172
0
173
0
174
0
175
1
176
1
 91
262161
178
0
145
0.0
170
5
  7
Standard
 92
0
301
CELL_VALUE
 93
6
 90
4
  1
Header-3
 94
0
300

302
Header-3
304
ACVALUE_END
171
1
172
0
173
0
174
0
175
1
176
1
 91
262161
178
0
145
0.0
170
5
  7
Standard
 92
0
301
CELL_VALUE
 93
6
 90
4
  1
Header-4
 94
0
300

302
Header-4
304
ACVALUE_END
171
1
172
0
173
0
174
0
175
1
176
1
 91
262161
178
0
145
0.0
170
5
  7
Standard
 92
0
301
CELL_VALUE
 93
6
 90
4
  1
Header-5
 94
0
300

302
Header-5
304
ACVALUE_END
171
1
172
0
173
0
174
0
175
1
176
1
 91
262145
178
0
145
0.0
170
3
 92
0
301
CELL_VALUE
 93
6
 90
4
  1
d
 94
0
300

302
d
304
ACVALUE_END
171
1
172
0
173
0
174
0
175
1
176
1
 91
262145
178
0
145
0.0
170
3
 92
0
301
CELL_VALUE
 93
5
 90
1
 94
0
300

302

304
ACVALUE_END
171
1
172
0
173
0
174
0
175
1
176
1
 91
262145
178
0
145
0.0
170
3
 92
0
301
CELL_VALUE
 93
5
 90
4
 94
0
300

302

304
ACVALUE_END
171
1
172
0
173
0
174
0
175
1
176
1
 91
262145
178
0
145
0.0
170
3
 92
0
301
CELL_VALUE
 93
5
 90
1
 94
0
300

302

304
ACVALUE_END
171
1
172
0
173
0
174
0
175
1
176
1
 91
262145
178
0
145
0.0
170
3
 92
0
301
CELL_VALUE
 93
5
 90
1
 94
0
300

302

304
ACVALUE_END
171
1
172
0
173
0
174
0
175
1
176
1
 91
262145
178
0
145
0.0
170
3
 92
0
301
CELL_VALUE
 93
6
 90
4
  1
f
 94
0
300

302
f
304
ACVALUE_END
171
1
172
0
173
0
174
0
175
1
176
1
 91
262145
178
0
145
0.0
170
3
 92
0
301
CELL_VALUE
 93
5
 90
1
 94
0
300

302

304
ACVALUE_END
171
1
172
0
173
0
174
0
175
1
176
1
 91
262145
178
0
145
0.0
170
3
 92
0
301
CELL_VALUE
 93
5
 90
4
 94
0
300

302

304
ACVALUE_END
171
1
172
0
173
0
174
0
175
1
176
1
 91
262145
178
0
145
0.0
170
3
 92
0
301
CELL_VALUE
 93
5
 90
1
 94
0
300

302

304
ACVALUE_END
171
1
172
0
173
0
174
0
175
1
176
1
 91
262145
178
0
145
0.0
170
3
 92
0
301
CELL_VALUE
 93
5
 90
1
 94
0
300

302

304
ACVALUE_END
171
1
172
0
173
0
174
0
175
1
176
1
 91
262145
178
0
145
0.0
170
3
 92
0
301
CELL_VALUE
 93
6
 90
4
  1
g
 94
0
300

302
g
304
ACVALUE_END
171
1
172
0
173
0
174
0
175
1
176
1
 91
262145
178
0
145
0.0
170
3
 92
0
301
CELL_VALUE
 93
5
 90
1
 94
0
300

302

304
ACVALUE_END
171
1
172
0
173
0
174
0
175
1
176
1
 91
262145
178
0
145
0.0
170
3
 92
0
301
CELL_VALUE
 93
5
 90
4
 94
0
300

302

304
ACVALUE_END
171
1
172
0
173
0
174
0
175
1
176
1
 91
262145
178
0
145
0.0
170
3
 92
0
301
CELL_VALUE
 93
5
 90
1
 94
0
300

302

304
ACVALUE_END
171
1
172
0
173
0
174
0
175
1
176
1
 91
262145
178
0
145
0.0
170
3
 92
0
301
CELL_VALUE
 93
5
 90
1
 94
0
300

302

304
ACVALUE_END
  0
ACAD_TABLE
  5
276
330
28
100
AcDbEntity
  8
0
 92
5028
310
A41300006E000000880000001D000000000000000000F03F00000000000000000000000000000000983DC91914DE5A400000000000000000000000000000F03F0000000000000000E1C84A6D023A264000000000000000000000000000000000000000000000F03F0000000000000000000000000000000000000000000000
310
000000000000000000000000000000F03F0C00000016000000070000C30C00000017000000FDFFFFFF0C0000001200000000000000D400000026000000F1B8C2E30A0F174086D01AF0B2A1D6BF000000000000000000000000000000000000000000000000000000000000F03F000000000000F03F00000000000000000000
310
0000000000005400690074006C0065002D00310000000700000001000000000000000000D03F000000000000F03F0000000000000000000000000000F03F000000000000000000000000000000000000000000000000000000000100000012000000540069006D006500730020004E0065007700200052006F006D0061006E
310
00000000000000000000000C00000016000000070000C30C00000017000000FDFFFFFF0C0000001200000000000000C800000026000000EA51B81E85EBE13F92C0C2F7333BE7BF000000000000000000000000000000000000000000000000000000000000F03F000000000000F03F00000000000000000000000000000000
310
4800650061006400650072002D0041000000C73F08000000010000000AD7A3703D0AC73F000000000000F03F0000000000000000000000000000F03F000000000000000000000000000000000000000000000000000000000100000000000000000020007400780074002E007300680078000000000000000C000000160000
310
00070000C30C00000017000000FDFFFFFF0C0000001200000000000000C8000000260000007A14AE47E17A084092C0C2F7333BE7BF000000000000000000000000000000000000000000000000000000000000F03F000000000000F03F000000000000000000000000000000004800650061006400650072002D0042000000
310
000008000000010000000AD7A3703D0AC73F000000000000F03F0000000000000000000000000000F03F000000000000000000000000000000000000000000000000000000000100000000000000000070117400780074002E007300680078000000000000000C00000016000000070000C30C00000017000000FDFFFFFF0C
310
0000001200000000000000C8000000260000003E0AD7A3703D164092C0C2F7333BE7BF000000000000000000000000000000000000000000000000000000000000F03F000000000000F03F000000000000000000000000000000004800650061006400650072002D0043000000330008000000010000000AD7A3703D0AC73F
310
000000000000F03F0000000000000000000000000000F03F000000000000000000000000000000000000000000000000000000000100000000000000000044007400780074002E007300680078000000000000000C00000016000000070000C30C00000017000000FDFFFFFF0C0000001200000000000000C8000000260000
310
001F85EB51B81E204092C0C2F7333BE7BF000000000000000000000000000000000000000000000000000000000000F03F000000000000F03F000000000000000000000000000000004800650061006400650072002D0044000000C73F08000000010000000AD7A3703D0AC73F000000000000F03F00000000000000000000
310
00000000F03F000000000000000000000000000000000000000000000000000000000100000000000000000020007400780074002E007300680078000000000000000C00000016000000070000C30C00000017000000FDFFFFFF0C0000001200000000000000C8000000260000001F85EB51B81E254092C0C2F7333BE7BF00
310
0000000000000000000000000000000000000000000000000000000000F03F000000000000F03F000000000000000000000000000000004800650061006400650072002D0045000000C73F08000000010000000AD7A3703D0AC73F000000000000F03F0000000000000000000000000000F03F000000000000000000000000
310
000000000000000000000000000000000100000000000000000020007400780074002E007300680078000000000000000C00000016000000070000C30C00000017000000FDFFFFFF0C0000001200000000000000C800000026000000E07A14AE47E1E23F09560A582960F1BF00000000000000000000000000000000000000
310
0000000000000000000000F03F000000000000F03F000000000000000000000000000000004800650061006400650072002D0031000000330008000000010000000AD7A3703D0AC73F000000000000F03F0000000000000000000000000000F03F000000000000000000000000000000000000000000000000000000000100
310
000000000000000044007400780074002E007300680078000000000000000C00000016000000070000C30C00000017000000FDFFFFFF0C0000001200000000000000C8000000260000007A14AE47E17A084009560A582960F1BF000000000000000000000000000000000000000000000000000000000000F03F0000000000
310
00F03F000000000000000000000000000000004800650061006400650072002D0032000000C73F08000000010000000AD7A3703D0AC73F000000000000F03F0000000000000000000000000000F03F000000000000000000000000000000000000000000000000000000000100000000000000000020007400780074002E00
310
7300680078000000000000000C00000016000000070000C30C00000017000000FDFFFFFF0C0000001200000000000000C8000000260000003E0AD7A3703D164009560A582960F1BF000000000000000000000000000000000000000000000000000000000000F03F000000000000F03F000000000000000000000000000000
310
004800650061006400650072002D0033000000330008000000010000000AD7A3703D0AC73F000000000000F03F0000000000000000000000000000F03F000000000000000000000000000000000000000000000000000000000100000000000000000044007400780074002E007300680078000000000000000C0000001600
310
0000070000C30C00000017000000FDFFFFFF0C0000001200000000000000C8000000260000001F85EB51B81E204009560A582960F1BF000000000000000000000000000000000000000000000000000000000000F03F000000000000F03F000000000000000000000000000000004800650061006400650072002D00340000
310
00330008000000010000000AD7A3703D0AC73F000000000000F03F0000000000000000000000000000F03F000000000000000000000000000000000000000000000000000000000100000000000000000044007400780074002E007300680078000000000000000C00000016000000070000C30C00000017000000FDFFFFFF
310
0C0000001200000000000000C8000000260000001F85EB51B81E254009560A582960F1BF000000000000000000000000000000000000000000000000000000000000F03F000000000000F03F000000000000000000000000000000004800650061006400650072002D0035000000000008000000010000000AD7A3703D0AC7
310
3F000000000000F03F0000000000000000000000000000F03F000000000000000000000000000000000000000000000000000000000100000000000000000070117400780074002E007300680078000000000000000C00000016000000070000C30C00000017000000FDFFFFFF0C0000001200000000000000C80000002600
310
000081E780046A78024073B8F83D72BAF6BF000000000000000000000000000000000000000000000000000000000000F03F000000000000F03F000000000000000000000000000000006800000001000000010000000AD7A3703D0AC73F000000000000F03F0000000000000000000000000000F03F000000000000000000
310
000000000000000000000000000000000000000100000012000000540069006D006500730020004E0065007700200052006F006D0061006E00000000000000000000000C00000016000000070000C30C00000017000000FDFFFFFF0C0000001200000000000000C800000026000000B75C95E39298024075FB815E4584FCBF
310
000000000000000000000000000000000000000000000000000000000000F03F000000000000F03F000000000000000000000000000000006600000001000000010000000AD7A3703D0AC73F000000000000F03F0000000000000000000000000000F03F000000000000000000000000000000000000000000000000000000
310
000100000012000000540069006D006500730020004E0065007700200052006F006D0061006E00000000003F6A000000000C00000016000000070000C30C00000017000000FDFFFFFF0C0000001200000000000000C800000026000000092C0654898D1D40C2AE589CDD85FCBF000000000000000000000000000000000000
310
000000000000000000000000F03F000000000000F03F000000000000000000000000000000006A00000001000000010000000AD7A3703D0AC73F000000000000F03F0000000000000000000000000000F03F000000000000000000000000000000000000000000000000000000000100000012000000540069006D00650073
310
0020004E0065007700200052006F006D0061006E00000000000000000000000C00000016000000070000C30C00000017000000FDFFFFFF0C0000001200000000000000540000002000000002000000000000000000000000000000000000000000000000000000000000000000294000000000000000000000000000000000
310
00000000000000000000000000000000000000000000F03F0C00000016000000070000C30C00000017000000FDFFFFFF0C00000012000000000000005400000020000000020000000000000000000000C09F0ADBB92EDDBF00000000000000000000000000002940C09F0ADBB92EDDBF000000000000000000000000000000
310
000000000000000000000000000000F03F0C00000016000000070000C30C00000017000000FDFFFFFF0C00000012000000000000005400000020000000020000000000000000000000603BD7A57B1CEABF00000000000000000000000000002940603BD7A57B1CEABF00000000000000000000000000000000000000000000
310
0000000000000000F03F0C00000016000000070000C30C00000017000000FDFFFFFF0C000000120000000000000054000000200000000200000000000000000000007093142FCDD0F2BF000000000000000000000000000029407093142FCDD0F2BF0000000000000000000000000000000000000000000000000000000000
310
00F03F0C00000016000000070000C30C00000017000000FDFFFFFF0C0000001200000000000000540000002000000002000000000000000000000050A3D778B09BF8BF0000000000000000000000000000294050A3D778B09BF8BF000000000000000000000000000000000000000000000000000000000000F03F0C000000
310
16000000070000C30C00000017000000FDFFFFFF0C0000001200000000000000540000002000000002000000000000000000000030B39AC29366FEBF0000000000000000000000000000294030B39AC29366FEBF000000000000000000000000000000000000000000000000000000000000F03F0C00000016000000070000
310
C30C00000017000000FDFFFFFF0C0000001200000000000000540000002000000002000000000000000000000000000000000000000000000000000000000000000000000030B39AC29366FEBF000000000000000000000000000000000000000000000000000000000000F03F0C00000016000000070000C30C0000001700
310
0000FDFFFFFF0C00000012000000000000005400000020000000020000000000000000000440C09F0ADBB92EDDBF0000000000000000000000000000044030B39AC29366FEBF000000000000000000000000000000000000000000000000000000000000F03F0C00000016000000070000C30C00000017000000FDFFFFFF0C
310
00000012000000000000005400000020000000020000000000000000001440C09F0ADBB92EDDBF0000000000000000000000000000144030B39AC29366FEBF000000000000000000000000000000000000000000000000000000000000F03F0C00000016000000070000C30C00000017000000FDFFFFFF0C00000012000000
310
000000005400000020000000020000000000000000001E40C09F0ADBB92EDDBF00000000000000000000000000001E4030B39AC29366FEBF000000000000000000000000000000000000000000000000000000000000F03F0C00000016000000070000C30C00000017000000FDFFFFFF0C0000001200000000000000540000
310
0020000000020000000000000000002440C09F0ADBB92EDDBF0000000000000000000000000000244030B39AC29366FEBF000000000000000000000000000000000000000000000000000000000000F03F0C00000016000000070000C30C00000017000000FDFFFFFF0C000000120000000000000054000000200000000200
310
0000000000000000294000000000000000000000000000000000000000000000294030B39AC29366FEBF000000000000000000000000000000000000000000000000000000000000F03F0C00000016000000080000C30C00000017000000000000000C00000012000000000000005400000020000000020000000000000000
310
0000000000000000000000000000000000000000000000000000000000000000000000000000000000000000000000000000000000000000000000000000000000F03F080000001F000000
100
AcDbBlockReference
  2
*T7
 10
107.4699768510094
 20
11.11329976594828
 30
0.0
100
AcDbTable
342
277
343
D30
 11
1.0
 21
0.0
 31
0.0
 90
22
 91
5
 92
5
 93
0
 94
0
 95
0
 96
0
141
0.4559769286229275
141
0.36
141
0.36
141
0.3620331651045422
141
0.3620331651045422
142
2.5
142
2.5
142
2.5
142
2.5
142
2.5
171
1
172
0
173
0
174
0
175
5
176
1
 91
262144
178
0
145
0.0
 92
0
301
CELL_VALUE
 93
6
 90
4
  1
Title-1
 94
0
300

302
Title-1
304
ACVALUE_END
171
1
172
0
173
1
174
0
175
1
176
1
 91
0
178
0
145
0.0
 92
0
301
CELL_VALUE
 93
7
 90
0
 94
0
300

302

304
ACVALUE_END
171
1
172
0
173
1
174
0
175
1
176
1
 91
0
178
0
145
0.0
 92
0
301
CELL_VALUE
 93
7
 90
0
 94
0
300

302

304
ACVALUE_END
171
1
172
0
173
1
174
0
175
1
176
1
 91
0
178
0
145
0.0
 92
0
301
CELL_VALUE
 93
7
 90
0
 94
0
300

302

304
ACVALUE_END
171
1
172
0
173
1
174
0
175
1
176
1
 91
0
178
0
145
0.0
 92
0
301
CELL_VALUE
 93
7
 90
0
 94
0
300

302

304
ACVALUE_END
171
1
172
0
173
0
174
0
175
1
176
1
 91
262144
178
0
145
0.0
 92
0
301
CELL_VALUE
 93
6
 90
4
  1
Header-A
 94
0
300

302
Header-A
304
ACVALUE_END
171
1
172
0
173
0
174
0
175
1
176
1
 91
262144
178
0
145
0.0
 92
0
301
CELL_VALUE
 93
6
 90
4
  1
Header-B
 94
0
300

302
Header-B
304
ACVALUE_END
171
1
172
0
173
0
174
0
175
1
176
1
 91
262144
178
0
145
0.0
 92
0
301
CELL_VALUE
 93
6
 90
4
  1
Header-C
 94
0
300

302
Header-C
304
ACVALUE_END
171
1
172
0
173
0
174
0
175
1
176
1
 91
262144
178
0
145
0.0
 92
0
301
CELL_VALUE
 93
6
 90
4
  1
Header-D
 94
0
300

302
Header-D
304
ACVALUE_END
171
1
172
0
173
0
174
0
175
1
176
1
 91
262144
178
0
145
0.0
 92
0
301
CELL_VALUE
 93
6
 90
4
  1
Header-E
 94
0
300

302
Header-E
304
ACVALUE_END
171
1
172
0
173
0
174
0
175
1
176
1
 91
262161
178
0
145
0.0
170
5
  7
Standard
 92
0
301
CELL_VALUE
 93
6
 90
4
  1
Header-1
 94
0
300

302
Header-1
304
ACVALUE_END
171
1
172
0
173
0
174
0
175
1
176
1
 91
262161
178
0
145
0.0
170
5
  7
Standard
 92
0
301
CELL_VALUE
 93
6
 90
4
  1
Header-2
 94
0
300

302
Header-2
304
ACVALUE_END
171
1
172
0
173
0
174
0
175
1
176
1
 91
262161
178
0
145
0.0
170
5
  7
Standard
 92
0
301
CELL_VALUE
 93
6
 90
4
  1
Header-3
 94
0
300

302
Header-3
304
ACVALUE_END
171
1
172
0
173
0
174
0
175
1
176
1
 91
262161
178
0
145
0.0
170
5
  7
Standard
 92
0
301
CELL_VALUE
 93
6
 90
4
  1
Header-4
 94
0
300

302
Header-4
304
ACVALUE_END
171
1
172
0
173
0
174
0
175
1
176
1
 91
262161
178
0
145
0.0
170
5
  7
Standard
 92
0
301
CELL_VALUE
 93
6
 90
4
  1
Header-5
 94
0
300

302
Header-5
304
ACVALUE_END
171
1
172
0
173
0
174
0
175
1
176
1
 91
262145
178
0
145
0.0
170
3
 92
0
301
CELL_VALUE
 93
6
 90
4
  1
h
 94
0
300

302
h
304
ACVALUE_END
171
1
172
0
173
0
174
0
175
1
176
1
 91
262145
178
0
145
0.0
170
3
 92
0
301
CELL_VALUE
 93
5
 90
1
 94
0
300

302

304
ACVALUE_END
171
1
172
0
173
0
174
0
175
1
176
1
 91
262145
178
0
145
0.0
170
3
 92
0
301
CELL_VALUE
 93
5
 90
4
 94
0
300

302

304
ACVALUE_END
171
1
172
0
173
0
174
0
175
1
176
1
 91
262145
178
0
145
0.0
170
3
 92
0
301
CELL_VALUE
 93
5
 90
1
 94
0
300

302

304
ACVALUE_END
171
1
172
0
173
0
174
0
175
1
176
1
 91
262145
178
0
145
0.0
170
3
 92
0
301
CELL_VALUE
 93
5
 90
1
 94
0
300

302

304
ACVALUE_END
171
1
172
0
173
0
174
0
175
1
176
1
 91
262145
178
0
145
0.0
170
3
 92
0
301
CELL_VALUE
 93
6
 90
4
  1
f
 94
0
300

302
f
304
ACVALUE_END
171
1
172
0
173
0
174
0
175
1
176
1
 91
262145
178
0
145
0.0
170
3
 92
0
301
CELL_VALUE
 93
5
 90
1
 94
0
300

302

304
ACVALUE_END
171
1
172
0
173
0
174
0
175
1
176
1
 91
262145
178
0
145
0.0
170
3
 92
0
301
CELL_VALUE
 93
6
 90
4
  1
j
 94
0
300

302
j
304
ACVALUE_END
171
1
172
0
173
0
174
0
175
1
176
1
 91
262145
178
0
145
0.0
170
3
 92
0
301
CELL_VALUE
 93
5
 90
1
 94
0
300

302

304
ACVALUE_END
171
1
172
0
173
0
174
0
175
1
176
1
 91
262145
178
0
145
0.0
170
3
 92
0
301
CELL_VALUE
 93
5
 90
1
 94
0
300

302

304
ACVALUE_END
  0
ENDSEC
  0
SECTION
  2
OBJECTS
  0
DICTIONARY
  5
40
330
0
100
AcDbDictionary
281
1
  3
ACAD_COLOR
350
41
  3
ACAD_GROUP
350
42
  3
ACAD_LAYOUT
350
43
  3
ACAD_MATERIAL
350
44
  3
ACAD_MLINESTYLE
350
45
  3
ACAD_PLOTSETTINGS
350
46
  3
ACAD_PLOTSTYLENAME
350
47
  3
ACAD_TABLESTYLE
350
48
  3
ACAD_VISUALSTYLE
350
49
  3
AcDbVariableDictionary
350
4A
  0
DICTIONARY
  5
41
102
{ACAD_REACTORS
330
40
102
}
330
40
100
AcDbDictionary
281
1
  0
DICTIONARY
  5
42
102
{ACAD_REACTORS
330
40
102
}
330
40
100
AcDbDictionary
281
1
  0
DICTIONARY
  5
43
102
{ACAD_REACTORS
330
40
102
}
330
40
100
AcDbDictionary
281
1
  3
Layout1
350
2B
  3
Layout2
350
2D
  3
Model
350
29
  0
DICTIONARY
  5
44
102
{ACAD_REACTORS
330
40
102
}
330
40
100
AcDbDictionary
281
1
  3
ByBlock
350
4B
  3
ByLayer
350
4C
  3
Global
350
4D
  0
DICTIONARY
  5
45
102
{ACAD_REACTORS
330
40
102
}
330
40
100
AcDbDictionary
281
1
  3
Standard
350
4E
  0
DICTIONARY
  5
46
102
{ACAD_REACTORS
330
40
102
}
330
40
100
AcDbDictionary
281
1
  0
ACDBDICTIONARYWDFLT
  5
47
102
{ACAD_REACTORS
330
40
102
}
330
40
100
AcDbDictionary
281
1
  3
Normal
350
F
100
AcDbDictionaryWithDefault
340
F
  0
DICTIONARY
  5
48
102
{ACAD_REACTORS
330
40
102
}
330
40
100
AcDbDictionary
281
1
  3
Standard
350
277
  0
DICTIONARY
  5
49
102
{ACAD_REACTORS
330
40
102
}
330
40
100
AcDbDictionary
281
1
  3
2dWireframe
350
4F
  3
3D Hidden
350
50
  3
3dWireframe
350
51
  3
Basic
350
52
  3
Brighten
350
53
  3
ColorChange
350
54
  3
Conceptual
350
55
  3
Dim
350
56
  3
Facepattern
350
57
  3
Flat
350
58
  3
FlatWithEdges
350
59
  3
Gouraud
350
5A
  3
GouraudWithEdges
350
5B
  3
Linepattern
350
5C
  3
Realistic
350
5D
  3
Thicken
350
5E
  0
DICTIONARY
  5
4A
102
{ACAD_REACTORS
330
40
102
}
330
40
100
AcDbDictionary
281
1
  3
CTABLESTYLE
350
5F
  3
DIMASSOC
350
60
  3
HIDETEXT
350
61
  0
LAYOUT
  5
2B
102
{ACAD_REACTORS
330
43
102
}
330
43
100
AcDbPlotSettings
  1

  2
None
  4

  6

 40
0.0
 41
0.0
 42
0.0
 43
0.0
 44
0.0
 45
0.0
 46
0.0
 47
0.0
 48
0.0
 49
0.0
140
0.0
141
0.0
142
1.0
143
1.0
 70
688
 72
0
 73
0
 74
5
  7

 75
16
147
1.0
 76
0
 77
2
 78
300
148
0.0
149
0.0
100
AcDbLayout
  1
Layout1
 70
1
 71
1
 10
0.0
 20
0.0
 11
12.0
 21
9.0
 12
0.0
 22
0.0
 32
0.0
 14
0.0
 24
0.0
 34
0.0
 15
0.0
 25
0.0
 35
0.0
146
0.0
 13
0.0
 23
0.0
 33
0.0
 16
1.0
 26
0.0
 36
0.0
 17
0.0
 27
1.0
 37
0.0
 76
0
330
2A
  0
LAYOUT
  5
2D
102
{ACAD_REACTORS
330
43
102
}
330
43
100
AcDbPlotSettings
  1

  2
None
  4

  6

 40
0.0
 41
0.0
 42
0.0
 43
0.0
 44
0.0
 45
0.0
 46
0.0
 47
0.0
 48
0.0
 49
0.0
140
0.0
141
0.0
142
1.0
143
1.0
 70
688
 72
0
 73
0
 74
5
  7

 75
16
147
1.0
 76
0
 77
2
 78
300
148
0.0
149
0.0
100
AcDbLayout
  1
Layout2
 70
1
 71
2
 10
0.0
 20
0.0
 11
12.0
 21
9.0
 12
0.0
 22
0.0
 32
0.0
 14
0.0
 24
0.0
 34
0.0
 15
0.0
 25
0.0
 35
0.0
146
0.0
 13
0.0
 23
0.0
 33
0.0
 16
1.0
 26
0.0
 36
0.0
 17
0.0
 27
1.0
 37
0.0
 76
0
330
2C
  0
LAYOUT
  5
29
102
{ACAD_REACTORS
330
43
102
}
330
43
100
AcDbPlotSettings
  1

  2
none_device
  4
ANSI_A_(8.50_x_11.00_Inches)
  6

 40
6.349999904632568
 41
19.04999923706055
 42
6.350006103515625
 43
19.04998779296875
 44
215.8999938964844
 45
279.3999938964844
 46
0.0
 47
0.0
 48
0.0
 49
0.0
140
0.0
141
0.0
142
1.0
143
2.584895464708373
 70
11952
 72
0
 73
1
 74
0
  7

 75
0
147
0.3868628397755418
 76
0
 77
2
 78
300
148
0.0
149
0.0
100
AcDbLayout
  1
Model
 70
1
 71
0
 10
0.0
 20
0.0
 11
12.0
 21
9.0
 12
0.0
 22
0.0
 32
0.0
 14
0.0
 24
0.0
 34
0.0
 15
0.0
 25
0.0
 35
0.0
146
0.0
 13
0.0
 23
0.0
 33
0.0
 16
1.0
 26
0.0
 36
0.0
 17
0.0
 27
1.0
 37
0.0
 76
0
330
28
331
94
  0
MATERIAL
  5
4B
102
{ACAD_REACTORS
330
44
102
}
330
44
100
AcDbMaterial
  1
ByBlock
  0
MATERIAL
  5
4C
102
{ACAD_REACTORS
330
44
102
}
330
44
100
AcDbMaterial
  1
ByLayer
  0
MATERIAL
  5
4D
102
{ACAD_REACTORS
330
44
102
}
330
44
100
AcDbMaterial
  1
Global
  0
MLINESTYLE
  5
4E
102
{ACAD_REACTORS
330
45
102
}
330
45
100
AcDbMlineStyle
  2
STANDARD
 70
0
  3

 62
256
 51
90.0
 52
90.0
 71
2
 49
0.5
 62
256
  6
BYLAYER
 49
-0.5
 62
256
  6
BYLAYER
  0
ACDBPLACEHOLDER
  5
F
102
{ACAD_REACTORS
330
47
102
}
330
47
  0
VISUALSTYLE
  5
4F
102
{ACAD_REACTORS
330
49
102
}
330
49
100
AcDbVisualStyle
  2
2dWireframe
 70
4
 71
0
 72
2
 73
1
 90
0
 40
-0.6
 41
-30.0
 62
5
 63
7
421
16777215
 74
1
 91
4
 64
7
 65
257
 75
1
175
1
 42
1.0
 92
0
 66
257
 43
1.0
 76
1
 77
6
 78
2
 67
7
 79
5
170
0
171
0
290
0
174
0
 93
1
 44
0.0
173
0
291
0
 45
0.0
  0
VISUALSTYLE
  5
50
102
{ACAD_REACTORS
330
49
102
}
330
49
100
AcDbVisualStyle
  2
3D Hidden
 70
6
 71
1
 72
2
 73
2
 90
0
 40
-0.6
 41
-30.0
 62
5
 63
7
421
16777215
 74
2
 91
2
 64
7
 65
257
 75
2
175
1
 42
40.0
 92
0
 66
257
 43
1.0
 76
1
 77
6
 78
2
 67
7
 79
3
170
0
171
0
290
0
174
0
 93
1
 44
0.0
173
0
291
0
 45
0.0
  0
VISUALSTYLE
  5
51
102
{ACAD_REACTORS
330
49
102
}
330
49
100
AcDbVisualStyle
  2
3dWireframe
 70
5
 71
0
 72
2
 73
1
 90
0
 40
-0.6
 41
-30.0
 62
5
 63
7
421
16777215
 74
1
 91
4
 64
7
 65
257
 75
1
175
1
 42
1.0
 92
0
 66
257
 43
1.0
 76
1
 77
6
 78
2
 67
7
 79
5
170
0
171
0
290
0
174
0
 93
1
 44
0.0
173
0
291
0
 45
0.0
  0
VISUALSTYLE
  5
52
102
{ACAD_REACTORS
330
49
102
}
330
49
100
AcDbVisualStyle
  2
Basic
 70
7
 71
1
 72
0
 73
1
 90
0
 40
-0.6
 41
-30.0
 62
5
 63
7
421
16777215
 74
0
 91
4
 64
7
 65
257
 75
1
175
1
 42
1.0
 92
8
 66
7
 43
1.0
 76
1
 77
6
 78
2
 67
7
 79
5
170
0
171
0
290
0
174
0
 93
1
 44
0.0
173
0
291
1
 45
0.0
  0
VISUALSTYLE
  5
53
102
{ACAD_REACTORS
330
49
102
}
330
49
100
AcDbVisualStyle
  2
Brighten
 70
12
 71
2
 72
2
 73
1
 90
0
 40
-0.6
 41
-30.0
 62
5
 63
7
421
16777215
 74
1
 91
4
 64
7
 65
257
 75
1
175
1
 42
1.0
 92
8
 66
7
 43
1.0
 76
1
 77
6
 78
2
 67
7
 79
5
170
0
171
0
290
0
174
0
 93
1
 44
50.0
173
0
291
1
 45
0.0
  0
VISUALSTYLE
  5
54
102
{ACAD_REACTORS
330
49
102
}
330
49
100
AcDbVisualStyle
  2
ColorChange
 70
16
 71
2
 72
2
 73
3
 90
0
 40
-0.6
 41
-30.0
 62
5
 63
8
421
8421504
 74
1
 91
4
 64
7
 65
257
 75
1
175
1
 42
1.0
 92
8
 66
8
424
8421504
 43
1.0
 76
1
 77
6
 78
2
 67
7
 79
5
170
0
171
0
290
0
174
0
 93
1
 44
0.0
173
0
291
1
 45
0.0
  0
VISUALSTYLE
  5
55
102
{ACAD_REACTORS
330
49
102
}
330
49
100
AcDbVisualStyle
  2
Conceptual
 70
9
 71
3
 72
2
 73
1
 90
0
 40
-0.6
 41
-30.0
 62
5
 63
7
421
16777215
 74
2
 91
2
 64
7
 65
257
 75
1
175
1
 42
40.0
 92
8
 66
7
 43
1.0
 76
1
 77
6
 78
2
 67
7
 79
3
170
0
171
0
290
0
174
0
 93
1
 44
0.0
173
0
291
0
 45
0.0
  0
VISUALSTYLE
  5
56
102
{ACAD_REACTORS
330
49
102
}
330
49
100
AcDbVisualStyle
  2
Dim
 70
11
 71
2
 72
2
 73
1
 90
0
 40
-0.6
 41
-30.0
 62
5
 63
7
421
16777215
 74
1
 91
4
 64
7
 65
257
 75
1
175
1
 42
1.0
 92
8
 66
7
 43
1.0
 76
1
 77
6
 78
2
 67
7
 79
5
170
0
171
0
290
0
174
0
 93
1
 44
-50.0
173
0
291
1
 45
0.0
  0
VISUALSTYLE
  5
57
102
{ACAD_REACTORS
330
49
102
}
330
49
100
AcDbVisualStyle
  2
Facepattern
 70
15
 71
2
 72
2
 73
1
 90
0
 40
-0.6
 41
-30.0
 62
5
 63
7
421
16777215
 74
1
 91
4
 64
7
 65
257
 75
1
175
1
 42
1.0
 92
8
 66
7
 43
1.0
 76
1
 77
6
 78
2
 67
7
 79
5
170
0
171
0
290
0
174
0
 93
1
 44
0.0
173
0
291
1
 45
0.0
  0
VISUALSTYLE
  5
58
102
{ACAD_REACTORS
330
49
102
}
330
49
100
AcDbVisualStyle
  2
Flat
 70
0
 71
2
 72
1
 73
1
 90
2
 40
-0.6
 41
30.0
 62
5
 63
7
421
16777215
 74
0
 91
4
 64
7
 65
257
 75
1
175
1
 42
1.0
 92
8
 66
7
 43
1.0
 76
1
 77
6
 78
2
 67
7
 79
5
170
0
171
0
290
0
174
0
 93
1
 44
0.0
173
0
291
1
 45
0.0
  0
VISUALSTYLE
  5
59
102
{ACAD_REACTORS
330
49
102
}
330
49
100
AcDbVisualStyle
  2
FlatWithEdges
 70
1
 71
2
 72
1
 73
1
 90
2
 40
-0.6
 41
30.0
 62
5
 63
7
421
16777215
 74
1
 91
4
 64
7
 65
257
 75
1
175
1
 42
1.0
 92
0
 66
257
 43
1.0
 76
1
 77
6
 78
2
 67
7
 79
5
170
0
171
0
290
0
174
0
 93
1
 44
0.0
173
0
291
1
 45
0.0
  0
VISUALSTYLE
  5
5A
102
{ACAD_REACTORS
330
49
102
}
330
49
100
AcDbVisualStyle
  2
Gouraud
 70
2
 71
2
 72
2
 73
1
 90
2
 40
-0.6
 41
30.0
 62
5
 63
7
421
16777215
 74
0
 91
4
 64
7
 65
257
 75
1
175
1
 42
1.0
 92
0
 66
7
 43
1.0
 76
1
 77
6
 78
2
 67
7
 79
5
170
0
171
0
290
0
174
0
 93
1
 44
0.0
173
0
291
1
 45
0.0
  0
VISUALSTYLE
  5
5B
102
{ACAD_REACTORS
330
49
102
}
330
49
100
AcDbVisualStyle
  2
GouraudWithEdges
 70
3
 71
2
 72
2
 73
1
 90
2
 40
-0.6
 41
30.0
 62
5
 63
7
421
16777215
 74
1
 91
4
 64
7
 65
257
 75
1
175
1
 42
1.0
 92
0
 66
257
 43
1.0
 76
1
 77
6
 78
2
 67
7
 79
5
170
0
171
0
290
0
174
0
 93
1
 44
0.0
173
0
291
1
 45
0.0
  0
VISUALSTYLE
  5
5C
102
{ACAD_REACTORS
330
49
102
}
330
49
100
AcDbVisualStyle
  2
Linepattern
 70
14
 71
2
 72
2
 73
1
 90
0
 40
-0.6
 41
-30.0
 62
5
 63
7
421
16777215
 74
1
 91
4
 64
7
 65
257
 75
7
175
7
 42
1.0
 92
8
 66
7
 43
1.0
 76
1
 77
6
 78
2
 67
7
 79
5
170
0
171
0
290
0
174
0
 93
1
 44
0.0
173
0
291
1
 45
0.0
  0
VISUALSTYLE
  5
5D
102
{ACAD_REACTORS
330
49
102
}
330
49
100
AcDbVisualStyle
  2
Realistic
 70
8
 71
2
 72
2
 73
1
 90
0
 40
-0.6
 41
-30.0
 62
5
 63
7
421
16777215
 74
1
 91
0
 64
7
 65
257
 75
1
175
1
 42
1.0
 92
8
 66
8
424
7895160
 43
1.0
 76
1
 77
6
 78
2
 67
7
 79
5
170
0
171
0
290
0
174
0
 93
13
 44
0.0
173
0
291
0
 45
0.0
  0
VISUALSTYLE
  5
5E
102
{ACAD_REACTORS
330
49
102
}
330
49
100
AcDbVisualStyle
  2
Thicken
 70
13
 71
2
 72
2
 73
1
 90
0
 40
-0.6
 41
-30.0
 62
5
 63
7
421
16777215
 74
1
 91
4
 64
7
 65
257
 75
1
175
1
 42
1.0
 92
12
 66
7
 43
1.0
 76
1
 77
6
 78
2
 67
7
 79
5
170
0
171
0
290
0
174
0
 93
1
 44
0.0
173
0
291
1
 45
0.0
  0
DICTIONARYVAR
  5
5F
102
{ACAD_REACTORS
330
4A
102
}
330
4A
100
DictionaryVariables
280
0
  1
STANDARD
  0
DICTIONARYVAR
  5
60
102
{ACAD_REACTORS
330
4A
102
}
330
4A
100
DictionaryVariables
280
0
  1
2
  0
DICTIONARYVAR
  5
61
102
{ACAD_REACTORS
330
4A
102
}
330
4A
100
DictionaryVariables
280
0
  1
1
  0
TABLESTYLE
  5
277
102
{ACAD_XDICTIONARY
360
278
102
}
102
{ACAD_REACTORS
330
48
330
274
330
275
330
276
102
}
330
48
100
AcDbTableStyle
  3
Standard
 70
0
 71
0
 40
0.06
 41
0.06
280
0
281
0
  7
newtext
140
0.18
170
2
 62
0
 63
7
283
0
 90
512
 91
0
  1

274
-2
284
1
 64
0
275
-2
285
1
 65
0
276
-2
286
1
 66
0
277
-2
287
1
 67
0
278
-2
288
1
 68
0
279
-2
289
1
 69
0
  7
newtext
140
0.25
170
5
 62
0
 63
7
283
0
 90
512
 91
0
  1

274
-2
284
1
 64
0
275
-2
285
1
 65
0
276
-2
286
1
 66
0
277
-2
287
1
 67
0
278
-2
288
1
 68
0
279
-2
289
1
 69
0
  7
Standard
140
0.18
170
5
 62
0
 63
7
283
0
 90
512
 91
0
  1

274
-2
284
1
 64
0
275
-2
285
1
 65
0
276
-2
286
1
 66
0
277
-2
287
1
 67
0
278
-2
288
1
 68
0
279
-2
289
1
 69
0
  0
DICTIONARY
  5
278
330
277
100
AcDbDictionary
280
1
281
1
  3
ACAD_ROUNDTRIP_2008_TABLESTYLE_CELLSTYLEMAP
360
CB6
  0
ENDSEC
  0
EOF
