0
SECTION
2
HEADER
9
$ACADVER
1
AC1015
9
$ACADMAINTVER
70
10
9
$DWGCODEPAGE
3
ANSI_1251
9
$INSBASE
10
0.0
20
0.0
30
0.0
9
$EXTMIN
10
1.000000000000000E+20
20
1.000000000000000E+20
30
1.000000000000000E+20
9
$EXTMAX
10
-1.000000000000000E+20
20
-1.000000000000000E+20
30
-1.000000000000000E+20
9
$LIMMIN
10
0.0
20
0.0
9
$LIMMAX
10
12.0
20
9.0
9
$ORTHOMODE
70
0
9
$REGENMODE
70
1
9
$FILLMODE
70
1
9
$QTEXTMODE
70
0
9
$MIRRTEXT
70
1
9
$LTSCALE
40
1
9
$ATTMODE
70
1
9
$TEXTSIZE
40
2.5
9
$TRACEWID
40
0.05
9
$TEXTSTYLE
7
Standard
9
$CLAYER
8
0
9
$CELTYPE
6
ByLayer
9
$CECOLOR
62
256
9
$CELTSCALE
40
1
9
$DISPSILH
70
0
9
$DIMSCALE
40
1.0
9
$DIMASZ
40
0.18
9
$DIMEXO
40
0.0625
9
$DIMDLI
40
0.38
9
$DIMRND
40
0.0
9
$DIMDLE
40
0.0
9
$DIMEXE
40
0.18
9
$DIMTP
40
0.0
9
$DIMTM
40
0.0
9
$DIMTXT
40
0.18
9
$DIMCEN
40
0.09
9
$DIMTSZ
40
0.0
9
$DIMTOL
70
0
9
$DIMLIM
70
0
9
$DIMTIH
70
1
9
$DIMTOH
70
1
9
$DIMSE1
70
0
9
$DIMSE2
70
0
9
$DIMTAD
70
0
9
$DIMZIN
70
0
9
$DIMBLK
1

9
$DIMASO
70
1
9
$DIMSHO
70
1
9
$DIMPOST
1

9
$DIMAPOST
1

9
$DIMALT
70
0
9
$DIMALTD
70
2
9
$DIMALTF
40
25.4
9
$DIMLFAC
40
1.0
9
$DIMTOFL
70
0
9
$DIMTVP
40
0.0
9
$DIMTIX
70
0
9
$DIMSOXD
70
0
9
$DIMSAH
70
0
9
$DIMBLK1
1

9
$DIMBLK2
1

9
$DIMSTYLE
2
ISO-25
9
$DIMCLRD
70
0
9
$DIMCLRE
70
0
9
$DIMCLRT
70
0
9
$DIMTFAC
40
1.0
9
$DIMGAP
40
0.09
9
$DIMJUST
70
0
9
$DIMSD1
70
0
9
$DIMSD2
70
0
9
$DIMTOLJ
70
1
9
$DIMTZIN
70
0
9
$DIMALTZ
70
0
9
$DIMALTTZ
70
0
9
$DIMUPT
70
0
9
$DIMDEC
70
4
9
$DIMTDEC
70
4
9
$DIMALTU
70
2
9
$DIMALTTD
70
2
9
$DIMTXSTY
7
Standard
9
$DIMAUNIT
70
0
9
$DIMADEC
70
0
9
$DIMALTRND
40
0.0
9
$DIMAZIN
70
0
9
$DIMDSEP
70
46
9
$DIMATFIT
70
3
9
$DIMFRAC
70
0
9
$DIMLDRBLK
1

9
$DIMLUNIT
70
2
9
$DIMLWD
70
-2
9
$DIMLWE
70
-2
9
$DIMTMOVE
70
0
9
$LUNITS
70
2
9
$LUPREC
70
4
9
$SKETCHINC
40
0.1
9
$FILLETRAD
40
0.5
9
$AUNITS
70
0
9
$AUPREC
70
0
9
$MENU
1
.
9
$ELEVATION
40
0.0
9
$PELEVATION
40
0.0
9
$THICKNESS
40
0.0
9
$LIMCHECK
70
0
9
$CHAMFERA
40
0.5
9
$CHAMFERB
40
0.5
9
$CHAMFERC
40
1.0
9
$CHAMFERD
40
0.0
9
$SKPOLY
70
0
9
$TDCREATE
40
2461101.084178646
9
$TDUCREATE
40
2461101.375845312
9
$TDUPDATE
40
2461101.084629004
9
$TDUUPDATE
40
2461101.376295671
9
$TDINDWG
40
0.0004510185
9
$TDUSRTIMER
40
0.0004510185
9
$USRTIMER
70
1
9
$ANGBASE
50
0
9
$ANGDIR
70
0
9
$PDMODE
70
0
9
$PDSIZE
40
0.0
9
$PLINEWID
40
0.0
9
$SPLFRAME
70
0
9
$SPLINETYPE
70
6
9
$SPLINESEGS
70
8
9
$HANDSEED
5
100000090
9
$SURFTAB1
70
6
9
$SURFTAB2
70
6
9
$SURFTYPE
70
6
9
$SURFU
70
6
9
$SURFV
70
6
9
$UCSBASE
2

9
$UCSNAME
2

9
$UCSORG
10
0.0
20
0.0
30
0.0
9
$UCSXDIR
10
1.0
20
0.0
30
0.0
9
$UCSYDIR
10
0.0
20
1.0
30
0.0
9
$UCSORTHOREF
2

9
$UCSORTHOVIEW
70
0
9
$UCSORGTOP
10
0.0
20
0.0
30
0.0
9
$UCSORGBOTTOM
10
0.0
20
0.0
30
0.0
9
$UCSORGLEFT
10
0.0
20
0.0
30
0.0
9
$UCSORGRIGHT
10
0.0
20
0.0
30
0.0
9
$UCSORGFRONT
10
0.0
20
0.0
30
0.0
9
$UCSORGBACK
10
0.0
20
0.0
30
0.0
9
$PUCSBASE
2

9
$PUCSNAME
2

9
$PUCSORG
10
0.0
20
0.0
30
0.0
9
$PUCSXDIR
10
1.0
20
0.0
30
0.0
9
$PUCSYDIR
10
0.0
20
1.0
30
0.0
9
$PUCSORTHOREF
2

9
$PUCSORTHOVIEW
70
0
9
$PUCSORGTOP
10
0.0
20
0.0
30
0.0
9
$PUCSORGBOTTOM
10
0.0
20
0.0
30
0.0
9
$PUCSORGLEFT
10
0.0
20
0.0
30
0.0
9
$PUCSORGRIGHT
10
0.0
20
0.0
30
0.0
9
$PUCSORGFRONT
10
0.0
20
0.0
30
0.0
9
$PUCSORGBACK
10
0.0
20
0.0
30
0.0
9
$USERI1
70
0
9
$USERI2
70
0
9
$USERI3
70
0
9
$USERI4
70
0
9
$USERI5
70
0
9
$USERR1
40
0.0
9
$USERR2
40
0.0
9
$USERR3
40
0.0
9
$USERR4
40
0.0
9
$USERR5
40
0.0
9
$WORLDVIEW
70
1
9
$SHADEDGE
70
3
9
$SHADEDIF
70
70
9
$TILEMODE
70
1
9
$MAXACTVP
70
64
9
$PINSBASE
10
0.0
20
0.0
30
0.0
9
$PLIMCHECK
70
0
9
$PEXTMIN
10
0.0
20
0.0
30
0.0
9
$PEXTMAX
10
0.0
20
0.0
30
0.0
9
$PLIMMIN
10
0.0
20
0.0
9
$PLIMMAX
10
12.0
20
9.0
9
$UNITMODE
70
0
9
$VISRETAIN
70
1
9
$PLINEGEN
70
0
9
$PSLTSCALE
70
1
9
$TREEDEPTH
70
3020
9
$CMLSTYLE
2
Standard
9
$CMLJUST
70
0
9
$CMLSCALE
40
1.0
9
$PROXYGRAPHICS
70
1
9
$MEASUREMENT
70
0
9
$CELWEIGHT
370
-1
9
$ENDCAPS
280
0
9
$JOINSTYLE
280
0
9
$LWDISPLAY
290
0
9
$INSUNITS
70
4
9
$HYPERLINKBASE
1

9
$STYLESHEET
1

9
$XEDIT
290
1
9
$CEPSNTYPE
380
0
9
$PSTYLEMODE
290
1
9
$FINGERPRINTGUID
2
{FDEAD576-A652-11D2-9A35-0060089B3A3F}
9
$VERSIONGUID
2
{3238B8A1-0C23-11D4-BD6B-0060B087441E}
9
$EXTNAMES
290
1
9
$PSVPSCALE
40
0.0
9
$OLESTARTUP
290
0
0
ENDSEC
0
SECTION
2
CLASSES
0
CLASS
1
ACDBDICTIONARYWDFLT
2
AcDbDictionaryWithDefault
3
AutoCAD 2000
90
0
280
0
281
0
0
CLASS
1
ACDBPLACEHOLDER
2
AcDbPlaceHolder
3
AutoCAD 2000
90
0
280
0
281
0
0
CLASS
1
LAYOUT
2
AcDbLayout
3
AutoCAD 2000
90
0
280
0
281
0
0
ENDSEC
0
SECTION
2
TABLES
0
TABLE
2
VPORT
5
4
330
0
100
AcDbSymbolTable
70
1
0
VPORT
5
5
330
4
100
AcDbSymbolTableRecord
100
AcDbViewportTableRecord
2
*Active
70
0
10
0.0
20
0.0
11
1.0
21
1.0
12
-1097.46136661374
22
9233.62342370289
13
0
23
0
14
10
24
10
15
10
25
10
16
0
26
0
36
1
17
0
27
0
37
0
40
108104.988000609
41
1.67321428571429
42
50.0
43
0.0
44
0.0
50
0.0
51
0.0
71
0
72
1000
73
1
74
3
75
0
76
1
77
0
78
0
281
0
65
1
110
0.0
120
0.0
130
0.0
111
1.0
121
0.0
131
0.0
112
0.0
122
1.0
132
0.0
79
0
146
0.0
0
ENDTAB
0
TABLE
2
LTYPE
5
6
330
0
100
AcDbSymbolTable
70
1
0
LTYPE
5
A
330
A
100
AcDbSymbolTableRecord
100
AcDbLinetypeTableRecord
2
Continuous
70
0
3
Solid line
72
65
73
0
40
0
0
LTYPE
5
B
330
B
100
AcDbSymbolTableRecord
100
AcDbLinetypeTableRecord
2
ByLayer
70
0
3

72
65
73
0
40
0
0
LTYPE
5
C
330
C
100
AcDbSymbolTableRecord
100
AcDbLinetypeTableRecord
2
ByBlock
70
0
3

72
65
73
0
40
0
0
LTYPE
5
D
330
D
100
AcDbSymbolTableRecord
100
AcDbLinetypeTableRecord
2
цняр 2.303 5
70
0
3
ьРПХУ-ОСМЙРХПМЮЪ РНМЙЮЪ ____ _ ____ _ ____ _ __
72
65
73
4
40
24
49
20
74
0
49
-1.5
74
0
49
1
74
0
49
-1.5
74
0
0
LTYPE
5
E
330
E
100
AcDbSymbolTableRecord
100
AcDbLinetypeTableRecord
2
GOST2.303 5
70
0
3
ьРПХУ-ОСМЙРХПМЮЪ РНМЙЮЪ ____ _ ____ _ ____ _ __
72
65
73
4
40
24
49
20
74
0
49
-1.5
74
0
49
1
74
0
49
-1.5
74
0
0
ENDTAB
0
TABLE
2
LAYER
5
F
330
0
100
AcDbSymbolTable
70
1
0
LAYER
5
12
100
AcDbSymbolTableRecord
100
AcDbLayerTableRecord
2
0
70
0
62
7
6
Continuous
290
1
370
-3
390
11
0
LAYER
5
13
100
AcDbSymbolTableRecord
100
AcDbLayerTableRecord
2
SYS_METRIC
70
0
62
-7
6
Continuous
290
0
370
-3
390
11
0
LAYER
5
14
100
AcDbSymbolTableRecord
100
AcDbLayerTableRecord
2
Defpoints
70
0
62
183
6
Continuous
290
0
370
40
390
11
0
LAYER
5
15
100
AcDbSymbolTableRecord
100
AcDbLayerTableRecord
2
_ннях_
70
0
62
215
6
GOST2.303 5
290
1
370
15
390
11
0
LAYER
5
16
100
AcDbSymbolTableRecord
100
AcDbLayerTableRecord
2
_нях_
70
0
62
243
6
GOST2.303 5
290
1
370
15
390
11
0
ENDTAB
0
TABLE
2
STYLE
5
17
330
0
100
AcDbSymbolTable
70
1
0
STYLE
5
19
330
17
100
AcDbSymbolTableRecord
100
AcDbTextStyleTableRecord
2
Standard
70
0
40
0
41
1
50
0
71
0
42
2.5
3
arial.ttf
4

1001
ACAD
1000
Arial
0
STYLE
5
1A
330
17
100
AcDbSymbolTableRecord
100
AcDbTextStyleTableRecord
2
юММНРЮРХБМШИ
70
0
40
0
41
1
50
0
71
0
42
2.5
3
arial.ttf
4

1001
ACAD
1000
Arial
0
STYLE
5
1B
330
17
100
AcDbSymbolTableRecord
100
AcDbTextStyleTableRecord
2
GOST-2.304_Type-B
70
0
40
0
41
1
50
0
71
0
42
2.5
3
GOST_Common.ttf
4

1001
ACAD
1000
GOST Common
0
STYLE
5
1C
330
17
100
AcDbSymbolTableRecord
100
AcDbTextStyleTableRecord
2
GOST-2.304_Type-B_italic
70
0
40
0
41
1
50
0
71
0
42
2.5
3
GOST_Common Italic.ttf
4

1001
ACAD
1000
GOST Common
0
STYLE
5
1D
330
17
100
AcDbSymbolTableRecord
100
AcDbTextStyleTableRecord
2
GOST-2.304_Type-B_shrink
70
0
40
0
41
0.8
50
0
71
0
42
2.5
3
GOST_Common.ttf
4

1001
ACAD
1000
GOST Common
0
STYLE
5
1E
330
17
100
AcDbSymbolTableRecord
100
AcDbTextStyleTableRecord
2
цняр 2.304
70
0
40
0
41
1
50
0
71
0
42
2.5
3
CS_Gost2304.shx
4

0
ENDTAB
0
TABLE
2
VIEW
5
1F
330
0
100
AcDbSymbolTable
70
0
0
ENDTAB
0
TABLE
2
UCS
5
20
330
0
100
AcDbSymbolTable
70
0
0
ENDTAB
0
TABLE
2
APPID
5
21
330
0
100
AcDbSymbolTable
70
1
0
APPID
5
23
100
AcDbSymbolTableRecord
100
AcDbRegAppTableRecord
2
ACAD
70
0
0
APPID
5
24
100
AcDbSymbolTableRecord
100
AcDbRegAppTableRecord
2
ACAD_PSEXT
70
0
0
APPID
5
25
100
AcDbSymbolTableRecord
100
AcDbRegAppTableRecord
2
AcAecLayerStandard
70
0
0
APPID
5
26
100
AcDbSymbolTableRecord
100
AcDbRegAppTableRecord
2
DSTP_XDATA
70
0
0
APPID
5
27
100
AcDbSymbolTableRecord
100
AcDbRegAppTableRecord
2
ACAD_DSTYLE_DIM_LINETYPE
70
0
0
APPID
5
28
100
AcDbSymbolTableRecord
100
AcDbRegAppTableRecord
2
ACAD_DSTYLE_DIM_EXT1_LINETYPE
70
0
0
APPID
5
29
100
AcDbSymbolTableRecord
100
AcDbRegAppTableRecord
2
ACAD_DSTYLE_DIM_EXT2_LINETYPE
70
0
0
ENDTAB
0
TABLE
2
DIMSTYLE
5
2A
330
0
100
AcDbSymbolTable
70
1
100
AcDbDimStyleTable
71
0
0
DIMSTYLE
105
2C
330
2A
100
AcDbSymbolTableRecord
100
AcDbDimStyleTableRecord
2
Standard
3

70
0
40
0
44
0.18
42
0.0625
46
0
41
0.18
173
0
140
0.18
141
0.09
73
1
74
1
147
0.625
77
0
144
1
271
4
45
0
277
2
278
46
279
0
340
19
0
DIMSTYLE
105
2D
330
2A
100
AcDbSymbolTableRecord
100
AcDbDimStyleTableRecord
2
юММНРЮРХБМШИ
3

70
0
40
0
44
1.25
42
0.625
46
0
41
2.5
173
0
140
2.5
141
2.5
73
0
74
0
147
0.625
77
1
144
1
271
2
45
0
277
2
278
44
279
0
340
19
0
DIMSTYLE
105
2E
330
2A
100
AcDbSymbolTableRecord
100
AcDbDimStyleTableRecord
2
ISO-25
3

70
0
40
0
44
1.25
42
0.625
46
0
41
2.5
173
0
140
2.5
141
2.5
73
0
74
0
147
0.625
77
1
144
1
271
2
45
0
277
2
278
44
279
0
340
19
0
DIMSTYLE
105
2F
330
2A
100
AcDbSymbolTableRecord
100
AcDbDimStyleTableRecord
2
яодя$0
3

70
0
40
100
44
1.25
42
0.625
46
2
41
2.5
173
0
341
30
342
30
140
2.5
141
2.5
73
0
74
0
147
0.375
77
1
144
1
271
0
45
10
277
2
278
44
279
1
371
-1
372
-1
178
256
340
1E
0
ENDTAB
0
TABLE
2
BLOCK_RECORD
5
31
330
0
100
AcDbSymbolTable
70
1
0
BLOCK_RECORD
5
32
330
31
100
AcDbSymbolTableRecord
100
AcDbBlockTableRecord
2
*Model_Space
340
33
0
BLOCK_RECORD
5
34
330
31
100
AcDbSymbolTableRecord
100
AcDbBlockTableRecord
2
*Paper_Space
340
35
0
BLOCK_RECORD
5
36
330
31
100
AcDbSymbolTableRecord
100
AcDbBlockTableRecord
2
*Paper_Space0
340
37
0
BLOCK_RECORD
5
30
100
AcDbSymbolTableRecord
100
AcDbBlockTableRecord
2
_Oblique
0
BLOCK_RECORD
5
38
100
AcDbSymbolTableRecord
100
AcDbBlockTableRecord
2
нЯХ_АКНЙ а
0
ENDTAB
0
ENDSEC
0
SECTION
2
BLOCKS
0
BLOCK
5
39
330
32
100
AcDbEntity
8
0
100
AcDbBlockBegin
2
*Model_Space
70
0
10
0.0
20
0.0
30
0.0
3
*Model_Space
1

0
ENDBLK
5
3A
330
32
100
AcDbEntity
8
0
100
AcDbBlockEnd
0
BLOCK
5
3B
330
34
100
AcDbEntity
67
1
8
0
100
AcDbBlockBegin
2
*Paper_Space
70
0
10
0.0
20
0.0
30
0.0
3
*Paper_Space
1

0
ENDBLK
5
3C
330
34
100
AcDbEntity
67
1
8
0
100
AcDbBlockEnd
0
BLOCK
5
3D
330
36
100
AcDbEntity
8
0
100
AcDbBlockBegin
2
*Paper_Space0
70
0
10
0.0
20
0.0
30
0.0
3
*Paper_Space0
1

0
ENDBLK
5
3E
330
36
100
AcDbEntity
8
0
100
AcDbBlockEnd
0
BLOCK
5
3F
100
AcDbEntity
8
0
100
AcDbBlockBegin
2
_Oblique
70
2
10
0
20
0
30
0
3
_Oblique
1

0
LINE
5
40
100
AcDbEntity
8
0
62
0
370
-2
100
AcDbLine
6
ByBlock
10
-0.5000000000
20
-0.5000000000
30
0.0000000000
11
0.5000000000
21
0.5000000000
31
0.0000000000
1001
DSTP_XDATA
1002
{
1000
_OWNERHANDLE=0000000064
1002
}
0
ENDBLK
5
41
100
AcDbEntity
8
0
100
AcDbBlockEnd
1001
DSTP_XDATA
1002
{
1002
}
0
BLOCK
5
42
100
AcDbEntity
8
0
100
AcDbBlockBegin
2
нЯХ_АКНЙ а
70
2
10
0
20
0
30
0
3
п·я│п╦_п╠п╩п╬п╨ п▒
1

0
INSERT
5
43
100
AcDbEntity
8
_ннях_
62
30
100
AcDbBlockReference
6
цняр 2.303 5
48
100.0000000000
2
PE368107032
10
79726.5603334600
20
16377.1207702215
30
175.0000000000
41
1.0000000000
42
1.0000000000
43
1.0000000000
50
0.0000000000
1001
DSTP_XDATA
1002
{
1000
_OWNERHANDLE=0000000064
1002
}
0
INSERT
5
44
100
AcDbEntity
8
_ннях_
100
AcDbBlockReference
6
цняр 2.303 5
48
100.0000000000
2
PE393963369
10
29999.9999998764
20
16155.9716086069
30
175.0000000000
41
1.0000000000
42
1.0000000000
43
1.0000000000
50
0.0000000000
1001
DSTP_XDATA
1002
{
1000
_OWNERHANDLE=0000000064
1002
}
0
INSERT
5
45
100
AcDbEntity
8
_ннях_
100
AcDbBlockReference
6
цняр 2.303 5
48
100.0000000000
2
PE976931765
10
36000.0000000000
20
16155.9716086069
30
175.0000000000
41
1.0000000000
42
1.0000000000
43
1.0000000000
50
0.0000000000
1001
DSTP_XDATA
1002
{
1000
_OWNERHANDLE=0000000064
1002
}
0
INSERT
5
46
100
AcDbEntity
8
_ннях_
100
AcDbBlockReference
6
цняр 2.303 5
48
100.0000000000
2
PE650322515
10
42058.1250000000
20
16155.9716086069
30
175.0000000000
41
1.0000000000
42
1.0000000000
43
1.0000000000
50
0.0000000000
1001
DSTP_XDATA
1002
{
1000
_OWNERHANDLE=0000000064
1002
}
0
INSERT
5
47
100
AcDbEntity
8
_ннях_
100
AcDbBlockReference
6
цняр 2.303 5
48
100.0000000000
2
PE475668138
10
51038.4375012927
20
16155.9716086069
30
175.0000000000
41
1.0000000000
42
1.0000000000
43
1.0000000000
50
0.0000000000
1001
DSTP_XDATA
1002
{
1000
_OWNERHANDLE=0000000064
1002
}
0
INSERT
5
48
100
AcDbEntity
8
_ннях_
100
AcDbBlockReference
6
цняр 2.303 5
48
100.0000000000
2
PE382503983
10
60038.4375012927
20
16155.9716086069
30
175.0000000000
41
1.0000000000
42
1.0000000000
43
1.0000000000
50
0.0000000000
1001
DSTP_XDATA
1002
{
1000
_OWNERHANDLE=0000000064
1002
}
0
INSERT
5
49
100
AcDbEntity
8
_ннях_
100
AcDbBlockReference
6
цняр 2.303 5
48
100.0000000000
2
PE376440185
10
66036.2500012927
20
16155.9716086069
30
175.0000000000
41
1.0000000000
42
1.0000000000
43
1.0000000000
50
0.0000000000
1001
DSTP_XDATA
1002
{
1000
_OWNERHANDLE=0000000064
1002
}
0
INSERT
5
4A
100
AcDbEntity
8
_ннях_
100
AcDbBlockReference
6
цняр 2.303 5
48
100.0000000000
2
PE20813743
10
72038.4375000000
20
16155.9716086069
30
175.0000000000
41
1.0000000000
42
1.0000000000
43
1.0000000000
50
0.0000000000
1001
DSTP_XDATA
1002
{
1000
_OWNERHANDLE=0000000064
1002
}
0
INSERT
5
4B
100
AcDbEntity
8
_ннях_
100
AcDbBlockReference
6
цняр 2.303 5
48
100.0000000000
2
PE790720741
10
26800.0000000000
20
16155.9716086069
30
175.0000000000
41
1.0000000000
42
1.0000000000
43
1.0000000000
50
0.0000000000
1001
DSTP_XDATA
1002
{
1000
_OWNERHANDLE=0000000064
1002
}
0
INSERT
5
4C
100
AcDbEntity
8
_ннях_
100
AcDbBlockReference
6
цняр 2.303 5
48
100.0000000000
2
PE342372218
10
63038.4375012927
20
16155.9716086069
30
175.0000000000
41
1.0000000000
42
1.0000000000
43
1.0000000000
50
0.0000000000
1001
DSTP_XDATA
1002
{
1000
_OWNERHANDLE=0000000064
1002
}
0
INSERT
5
4D
100
AcDbEntity
8
_ннях_
100
AcDbBlockReference
6
цняр 2.303 5
48
100.0000000000
2
PE717760008
10
78038.4375000000
20
-1564.2401420267
30
175.0000000000
41
1.0000000000
42
1.0000000000
43
1.0000000000
50
0.0000000000
1001
DSTP_XDATA
1002
{
1000
_OWNERHANDLE=0000000064
1002
}
0
INSERT
5
4E
100
AcDbEntity
8
_ннях_
100
AcDbBlockReference
6
цняр 2.303 5
48
100.0000000000
2
PE967568384
10
81018.7500000000
20
-1564.2401420267
30
175.0000000000
41
1.0000000000
42
1.0000000000
43
1.0000000000
50
0.0000000000
1001
DSTP_XDATA
1002
{
1000
_OWNERHANDLE=0000000064
1002
}
0
INSERT
5
4F
100
AcDbEntity
8
_ннях_
100
AcDbBlockReference
6
цняр 2.303 5
48
100.0000000000
2
PE349927427
10
39038.4375000000
20
16155.9716086069
30
175.0000000000
41
1.0000000000
42
1.0000000000
43
1.0000000000
50
0.0000000000
1001
DSTP_XDATA
1002
{
1000
_OWNERHANDLE=0000000064
1002
}
0
INSERT
5
50
100
AcDbEntity
8
_ннях_
100
AcDbBlockReference
6
цняр 2.303 5
48
100.0000000000
2
PE849629639
10
23999.9999998764
20
16155.9716086069
30
175.0000000000
41
1.0000000000
42
1.0000000000
43
1.0000000000
50
0.0000000000
1001
DSTP_XDATA
1002
{
1000
_OWNERHANDLE=0000000064
1002
}
0
INSERT
5
51
100
AcDbEntity
8
_ннях_
62
30
100
AcDbBlockReference
6
цняр 2.303 5
48
100.0000000000
2
PE571760460
10
76255.4195882638
20
16155.9716086069
30
175.0000000000
41
1.0000000000
42
1.0000000000
43
1.0000000000
50
0.0000000000
1001
DSTP_XDATA
1002
{
1000
_OWNERHANDLE=0000000064
1002
}
0
CIRCLE
5
52
100
AcDbEntity
8
Defpoints
370
50
100
AcDbCircle
6
ByBlock
48
100.0000000000
10
72000.0000000000
20
35779.7656591856
30
0.0000000000
40
500.0000000000
1001
DSTP_XDATA
1002
{
1000
_OWNERHANDLE=0000000064
1002
}
0
DIMENSION
5
53
100
AcDbEntity
8
_ннях_
100
AcDbDimension
6
ByBlock
48
100.0000000000
10
85088.9797616925
20
-1799.2737380041
30
0.0000000000
11
83418.5298697805
21
-2163.0608312825
31
0.0000000000
70
1
3
яодя$0
100
AcDbAlignedDimension
13
81873.0317052442
23
-2948.9070924717
33
0.0000000000
14
85142.7501993859
24
-1980.8983274969
34
0.0000000000
1001
DSTP_XDATA
1002
{
1000
_OWNERHANDLE=0000000064
1002
}
0
CIRCLE
5
54
100
AcDbEntity
8
_ннях_
100
AcDbCircle
6
ByLayer
48
100.0000000000
10
85439.8353204398
20
-2984.3858472298
30
0.0000000000
40
500.0000000000
1001
DSTP_XDATA
1002
{
1000
_OWNERHANDLE=0000000064
1002
}
0
DIMENSION
5
55
100
AcDbEntity
8
_ннях_
100
AcDbDimension
6
ByBlock
48
100.0000000000
10
26800.0000000000
20
-2213.6885998292
30
0.0000000000
11
25399.9999999382
21
-2088.3135998292
31
0.0000000000
70
0
3
яодя$0
100
AcDbAlignedDimension
13
23999.9999998764
23
-1680.0643303183
33
0.0000000000
14
26800.0000000000
24
-1680.0643303183
34
0.0000000000
50
0.0000000000
100
AcDbRotatedDimension
1001
DSTP_XDATA
1002
{
1000
_OWNERHANDLE=0000000064
1002
}
0
DIMENSION
5
56
100
AcDbEntity
8
_ннях_
100
AcDbDimension
6
ByBlock
48
100.0000000000
10
26800.0000000000
20
-2213.6885998292
30
0.0000000000
11
28399.9999999382
21
-2088.3135998292
31
0.0000000000
70
0
3
яодя$0
100
AcDbAlignedDimension
13
29999.9999998764
23
-1680.0643303183
33
0.0000000000
14
26800.0000000000
24
-1680.0643303183
34
0.0000000000
50
0.0000000000
100
AcDbRotatedDimension
1001
DSTP_XDATA
1002
{
1000
_OWNERHANDLE=0000000064
1002
}
0
DIMENSION
5
57
100
AcDbEntity
8
_ннях_
100
AcDbDimension
6
ByBlock
48
100.0000000000
10
36000.0000000000
20
-2213.6885998292
30
0.0000000000
11
32999.9999999382
21
-2088.3135998292
31
0.0000000000
70
0
3
яодя$0
100
AcDbAlignedDimension
13
29999.9999998764
23
-1680.0643303183
33
0.0000000000
14
36000.0000000000
24
-1680.0643303183
34
0.0000000000
50
0.0000000000
100
AcDbRotatedDimension
1001
DSTP_XDATA
1002
{
1000
_OWNERHANDLE=0000000064
1002
}
0
DIMENSION
5
58
100
AcDbEntity
8
_ннях_
100
AcDbDimension
6
ByBlock
48
100.0000000000
10
36000.0000000000
20
-2213.6885998292
30
0.0000000000
11
37500.0000000000
21
-2088.3135998292
31
0.0000000000
70
0
3
яодя$0
100
AcDbAlignedDimension
13
39000.0000000000
23
-1680.0643303183
33
0.0000000000
14
36000.0000000000
24
-1680.0643303183
34
0.0000000000
50
0.0000000000
100
AcDbRotatedDimension
1001
DSTP_XDATA
1002
{
1000
_OWNERHANDLE=0000000064
1002
}
0
DIMENSION
5
59
100
AcDbEntity
8
_ннях_
100
AcDbDimension
6
ByBlock
48
100.0000000000
10
51000.0000012927
20
-2213.6885998292
30
0.0000000000
11
46500.0000006463
21
-2088.3135998292
31
0.0000000000
70
0
3
яодя$0
100
AcDbAlignedDimension
13
42000.0000000000
23
-1680.0643303183
33
0.0000000000
14
51000.0000012927
24
-1680.0643303183
34
0.0000000000
50
0.0000000000
100
AcDbRotatedDimension
1001
DSTP_XDATA
1002
{
1000
_OWNERHANDLE=0000000064
1002
}
0
DIMENSION
5
5A
100
AcDbEntity
8
_ннях_
100
AcDbDimension
6
ByBlock
48
100.0000000000
10
60000.0000012927
20
-2213.6885998292
30
0.0000000000
11
55500.0000012927
21
-2088.3135998292
31
0.0000000000
70
0
3
яодя$0
100
AcDbAlignedDimension
13
51000.0000012927
23
-1680.0643303183
33
0.0000000000
14
60000.0000012927
24
-1680.0643303183
34
0.0000000000
50
0.0000000000
100
AcDbRotatedDimension
1001
DSTP_XDATA
1002
{
1000
_OWNERHANDLE=0000000064
1002
}
0
DIMENSION
5
5B
100
AcDbEntity
8
_ннях_
100
AcDbDimension
6
ByBlock
48
100.0000000000
10
63000.0000012927
20
-2213.6885998292
30
0.0000000000
11
61500.0000012927
21
-2088.3135998292
31
0.0000000000
70
0
3
яодя$0
100
AcDbAlignedDimension
13
60000.0000012927
23
-1680.0643303183
33
0.0000000000
14
63000.0000012927
24
-1680.0643303183
34
0.0000000000
50
0.0000000000
100
AcDbRotatedDimension
1001
DSTP_XDATA
1002
{
1000
_OWNERHANDLE=0000000064
1002
}
0
DIMENSION
5
5C
100
AcDbEntity
8
_ннях_
100
AcDbDimension
6
ByBlock
48
100.0000000000
10
81000.0000000000
20
-2809.7965893699
30
0.0000000000
11
52499.9999999382
21
-2684.4215893699
31
0.0000000000
70
0
3
яодя$0
100
AcDbAlignedDimension
13
23999.9999998764
23
-2338.6885998292
33
0.0000000000
14
81000.0000000000
24
-2213.6885998292
34
0.0000000000
50
0.0000000000
100
AcDbRotatedDimension
1001
DSTP_XDATA
1002
{
1000
_OWNERHANDLE=0000000064
1002
}
0
DIMENSION
5
5D
100
AcDbEntity
8
_ннях_
100
AcDbDimension
6
ByBlock
48
100.0000000000
10
72000.0000000000
20
-2213.6885998292
30
0.0000000000
11
69000.0000006463
21
-2088.3135998292
31
0.0000000000
70
0
3
яодя$0
100
AcDbAlignedDimension
13
66000.0000012927
23
-1680.0643303183
33
0.0000000000
14
72000.0000000000
24
-1680.0643303183
34
0.0000000000
50
0.0000000000
100
AcDbRotatedDimension
1001
DSTP_XDATA
1002
{
1000
_OWNERHANDLE=0000000064
1002
}
0
DIMENSION
5
5E
100
AcDbEntity
8
_ннях_
100
AcDbDimension
6
ByBlock
48
100.0000000000
10
78000.0000000000
20
-2213.6885998292
30
0.0000000000
11
75000.0000000000
21
-2088.3135998292
31
0.0000000000
70
0
3
яодя$0
100
AcDbAlignedDimension
13
72000.0000000000
23
-1680.0643303183
33
0.0000000000
14
78000.0000000000
24
-1680.0643303183
34
0.0000000000
50
0.0000000000
100
AcDbRotatedDimension
1001
DSTP_XDATA
1002
{
1000
_OWNERHANDLE=0000000064
1002
}
0
DIMENSION
5
5F
100
AcDbEntity
8
_ннях_
100
AcDbDimension
6
ByBlock
48
100.0000000000
10
81000.0000000000
20
-2213.6885998292
30
0.0000000000
11
79500.0000000000
21
-2088.3135998292
31
0.0000000000
70
0
3
яодя$0
100
AcDbAlignedDimension
13
78000.0000000000
23
-2809.7965893699
33
0.0000000000
14
81000.0000000000
24
-2934.7965893699
34
0.0000000000
50
0.0000000000
100
AcDbRotatedDimension
1001
DSTP_XDATA
1002
{
1000
_OWNERHANDLE=0000000064
1002
}
0
CIRCLE
5
60
100
AcDbEntity
8
Defpoints
370
50
100
AcDbCircle
6
ByBlock
48
100.0000000000
10
51000.0000012927
20
-3467.8224419718
30
0.0000000000
40
500.0000000000
1001
DSTP_XDATA
1002
{
1000
_OWNERHANDLE=0000000064
1002
}
0
CIRCLE
5
61
100
AcDbEntity
8
_ннях_
100
AcDbCircle
6
ByLayer
48
100.0000000000
10
81000.0000000000
20
-3467.8224419718
30
0.0000000000
40
500.0000000000
1001
DSTP_XDATA
1002
{
1000
_OWNERHANDLE=0000000064
1002
}
0
CIRCLE
5
62
100
AcDbEntity
8
Defpoints
370
50
100
AcDbCircle
6
ByBlock
48
100.0000000000
10
72000.0000000000
20
-3467.8224419718
30
0.0000000000
40
500.0000000000
1001
DSTP_XDATA
1002
{
1000
_OWNERHANDLE=0000000064
1002
}
0
DIMENSION
5
63
100
AcDbEntity
8
_ннях_
100
AcDbDimension
6
ByBlock
48
100.0000000000
10
42000.0000000000
20
-2213.6885998292
30
0.0000000000
11
40500.0000000000
21
-2088.3135998292
31
0.0000000000
70
0
3
яодя$0
100
AcDbAlignedDimension
13
39000.0000000000
23
-1680.0643303183
33
0.0000000000
14
42000.0000000000
24
-1680.0643303183
34
0.0000000000
50
0.0000000000
100
AcDbRotatedDimension
1001
DSTP_XDATA
1002
{
1000
_OWNERHANDLE=0000000064
1002
}
0
DIMENSION
5
64
100
AcDbEntity
8
_ннях_
100
AcDbDimension
6
ByBlock
48
100.0000000000
10
66000.0000012927
20
-2213.6885998292
30
0.0000000000
11
64500.0000012927
21
-2088.3135998292
31
0.0000000000
70
0
3
яодя$0
100
AcDbAlignedDimension
13
63000.0000012927
23
-1680.0643303183
33
0.0000000000
14
66000.0000012927
24
-1680.0643303183
34
0.0000000000
50
0.0000000000
100
AcDbRotatedDimension
1001
DSTP_XDATA
1002
{
1000
_OWNERHANDLE=0000000064
1002
}
0
CIRCLE
5
65
100
AcDbEntity
8
_ннях_
100
AcDbCircle
6
ByLayer
48
100.0000000000
10
21008.2172282627
20
0.0000000000
30
0.0000000000
40
500.0000000000
1001
DSTP_XDATA
1002
{
1000
_OWNERHANDLE=0000000064
1002
}
0
CIRCLE
5
66
100
AcDbEntity
8
_ннях_
100
AcDbCircle
6
ByLayer
48
100.0000000000
10
21004.4598455265
20
30399.9999917781
30
0.0000000000
40
500.0000000000
1001
DSTP_XDATA
1002
{
1000
_OWNERHANDLE=0000000064
1002
}
0
INSERT
5
67
100
AcDbEntity
8
_ннях_
100
AcDbBlockReference
6
цняр 2.303 5
48
100.0000000000
2
PE321409147
10
51019.8925158514
20
14999.9999917781
30
175.0000000000
41
1.0000000000
42
1.0000000000
43
1.0000000000
50
0.0000000000
1001
DSTP_XDATA
1002
{
1000
_OWNERHANDLE=0000000064
1002
}
0
INSERT
5
68
100
AcDbEntity
8
_ннях_
100
AcDbBlockReference
6
цняр 2.303 5
48
100.0000000000
2
PE104492601
10
48266.6030414227
20
33599.9999917781
30
175.0000000000
41
1.0000000000
42
1.0000000000
43
1.0000000000
50
0.0000000000
1001
DSTP_XDATA
1002
{
1000
_OWNERHANDLE=0000000064
1002
}
0
INSERT
5
69
100
AcDbEntity
8
_ннях_
100
AcDbBlockReference
6
цняр 2.303 5
48
100.0000000000
2
PE246828256
10
48788.4085607090
20
30399.9999917781
30
175.0000000000
41
1.0000000000
42
1.0000000000
43
1.0000000000
50
0.0000000000
1001
DSTP_XDATA
1002
{
1000
_OWNERHANDLE=0000000064
1002
}
0
INSERT
5
6A
100
AcDbEntity
8
_ннях_
100
AcDbBlockReference
6
цняр 2.303 5
48
100.0000000000
2
PE85974827
10
49687.6556733859
20
23999.9999917781
30
175.0000000000
41
1.0000000000
42
1.0000000000
43
1.0000000000
50
0.0000000000
1001
DSTP_XDATA
1002
{
1000
_OWNERHANDLE=0000000064
1002
}
0
INSERT
5
6B
100
AcDbEntity
8
_ннях_
100
AcDbBlockReference
6
цняр 2.303 5
48
100.0000000000
2
PE360393892
10
50131.7346208743
20
20999.9999917783
30
175.0000000000
41
1.0000000000
42
1.0000000000
43
1.0000000000
50
0.0000000000
1001
DSTP_XDATA
1002
{
1000
_OWNERHANDLE=0000000064
1002
}
0
INSERT
5
6C
100
AcDbEntity
8
_ннях_
100
AcDbBlockReference
6
цняр 2.303 5
48
100.0000000000
2
PE791038062
10
50575.8135683629
20
17999.9999917781
30
175.0000000000
41
1.0000000000
42
1.0000000000
43
1.0000000000
50
0.0000000000
1001
DSTP_XDATA
1002
{
1000
_OWNERHANDLE=0000000064
1002
}
0
INSERT
5
6D
100
AcDbEntity
8
_ннях_
100
AcDbBlockReference
6
цняр 2.303 5
48
100.0000000000
2
PE480491434
10
51908.0504108284
20
8999.9999917781
30
175.0000000000
41
1.0000000000
42
1.0000000000
43
1.0000000000
50
0.0000000000
1001
DSTP_XDATA
1002
{
1000
_OWNERHANDLE=0000000064
1002
}
0
INSERT
5
6E
100
AcDbEntity
8
_ннях_
100
AcDbBlockReference
6
цняр 2.303 5
48
100.0000000000
2
PE923171578
10
52440.9451478146
20
5399.9999917781
30
175.0000000000
41
1.0000000000
42
1.0000000000
43
1.0000000000
50
0.0000000000
1001
DSTP_XDATA
1002
{
1000
_OWNERHANDLE=0000000064
1002
}
0
INSERT
5
6F
100
AcDbEntity
8
_ннях_
100
AcDbBlockReference
6
цняр 2.303 5
48
100.0000000000
2
PE647967992
10
53290.2872520769
20
0.0000000000
30
175.0000000000
41
1.0000000000
42
1.0000000000
43
1.0000000000
50
0.0000000000
1001
DSTP_XDATA
1002
{
1000
_OWNERHANDLE=0000000064
1002
}
0
DIMENSION
5
70
100
AcDbEntity
8
_ннях_
100
AcDbDimension
6
ByBlock
48
100.0000000000
10
22301.8857650494
20
5399.9999917784
30
0.0000000000
11
22176.5107650494
21
2699.9999958892
31
0.0000000000
70
0
3
яодя$0
100
AcDbAlignedDimension
13
22301.8857650469
23
0.0000000000
33
0.0000000000
14
22301.8857650469
24
5399.9999917784
34
0.0000000000
50
90.0000000000
100
AcDbRotatedDimension
1001
DSTP_XDATA
1002
{
1000
_OWNERHANDLE=0000000064
1002
}
0
DIMENSION
5
71
100
AcDbEntity
8
_ннях_
100
AcDbDimension
6
ByBlock
48
100.0000000000
10
22301.8857650494
20
8999.9999917781
30
0.0000000000
11
22176.5107650494
21
7199.9999917781
31
0.0000000000
70
0
3
яодя$0
100
AcDbAlignedDimension
13
22301.8857650469
23
5399.9999917781
33
0.0000000000
14
22301.8857650469
24
8999.9999917781
34
0.0000000000
50
90.0000000000
100
AcDbRotatedDimension
1001
DSTP_XDATA
1002
{
1000
_OWNERHANDLE=0000000064
1002
}
0
DIMENSION
5
72
100
AcDbEntity
8
_ннях_
100
AcDbDimension
6
ByBlock
48
100.0000000000
10
22301.8857650494
20
14999.9999917781
30
0.0000000000
11
22176.5107650494
21
11999.9999917781
31
0.0000000000
70
0
3
яодя$0
100
AcDbAlignedDimension
13
22301.8857650469
23
8999.9999917781
33
0.0000000000
14
22301.8857650469
24
14999.9999917781
34
0.0000000000
50
90.0000000000
100
AcDbRotatedDimension
1001
DSTP_XDATA
1002
{
1000
_OWNERHANDLE=0000000064
1002
}
0
DIMENSION
5
73
100
AcDbEntity
8
_ннях_
100
AcDbDimension
6
ByBlock
48
100.0000000000
10
22301.8857650494
20
17999.9999917781
30
0.0000000000
11
22176.5107650494
21
16499.9999917781
31
0.0000000000
70
0
3
яодя$0
100
AcDbAlignedDimension
13
22301.8857650469
23
14999.9999917781
33
0.0000000000
14
22301.8857650469
24
17999.9999917781
34
0.0000000000
50
90.0000000000
100
AcDbRotatedDimension
1001
DSTP_XDATA
1002
{
1000
_OWNERHANDLE=0000000064
1002
}
0
DIMENSION
5
74
100
AcDbEntity
8
_ннях_
100
AcDbDimension
6
ByBlock
48
100.0000000000
10
22301.8857650497
20
20999.9999917783
30
0.0000000000
11
22176.5107650497
21
19499.9999917782
31
0.0000000000
70
0
3
яодя$0
100
AcDbAlignedDimension
13
22301.8857650469
23
17999.9999917781
33
0.0000000000
14
22301.8857650469
24
20999.9999917783
34
0.0000000000
50
90.0000000000
100
AcDbRotatedDimension
1001
DSTP_XDATA
1002
{
1000
_OWNERHANDLE=0000000064
1002
}
0
DIMENSION
5
75
100
AcDbEntity
8
_ннях_
100
AcDbDimension
6
ByBlock
48
100.0000000000
10
22301.8857650497
20
23999.9999917781
30
0.0000000000
11
22176.5107650497
21
22499.9999917782
31
0.0000000000
70
0
3
яодя$0
100
AcDbAlignedDimension
13
22301.8857650469
23
20999.9999917783
33
0.0000000000
14
22301.8857650469
24
23999.9999917781
34
0.0000000000
50
90.0000000000
100
AcDbRotatedDimension
1001
DSTP_XDATA
1002
{
1000
_OWNERHANDLE=0000000064
1002
}
0
DIMENSION
5
76
100
AcDbEntity
8
_ннях_
100
AcDbDimension
6
ByBlock
48
100.0000000000
10
22301.8857650499
20
30399.9999917781
30
0.0000000000
11
22176.5107650499
21
27199.9999917781
31
0.0000000000
70
0
3
яодя$0
100
AcDbAlignedDimension
13
22301.8857650469
23
23999.9999917781
33
0.0000000000
14
22301.8857650473
24
30399.9999917781
34
0.0000000000
50
90.0000000000
100
AcDbRotatedDimension
1001
DSTP_XDATA
1002
{
1000
_OWNERHANDLE=0000000064
1002
}
0
DIMENSION
5
77
100
AcDbEntity
8
_ннях_
100
AcDbDimension
6
ByBlock
48
100.0000000000
10
22301.8857650499
20
33599.9999917781
30
0.0000000000
11
22176.5107650499
21
31999.9999917781
31
0.0000000000
70
0
3
яодя$0
100
AcDbAlignedDimension
13
22301.8857650473
23
30399.9999917781
33
0.0000000000
14
22301.8857650469
24
33599.9999917781
34
0.0000000000
50
90.0000000000
100
AcDbRotatedDimension
1001
DSTP_XDATA
1002
{
1000
_OWNERHANDLE=0000000064
1002
}
0
DIMENSION
5
78
100
AcDbEntity
8
_ннях_
100
AcDbDimension
6
ByBlock
48
100.0000000000
10
21708.2172282628
20
0.0000000000
30
0.0000000000
11
21582.8422282628
21
16799.9999958890
31
0.0000000000
70
0
3
яодя$0
100
AcDbAlignedDimension
13
21382.8527552530
23
33599.9999917781
33
0.0000000000
14
21219.8635205739
24
0.0000000000
34
0.0000000000
50
90.0000000000
100
AcDbRotatedDimension
1001
DSTP_XDATA
1002
{
1000
_OWNERHANDLE=0000000064
1002
}
0
DIMENSION
5
79
100
AcDbEntity
8
_ннях_
100
AcDbDimension
6
ByBlock
48
100.0000000000
10
26800.0000000000
20
34448.1239050593
30
0.0000000000
11
25399.9999999382
21
34573.4989050593
31
0.0000000000
70
0
3
яодя$0
100
AcDbAlignedDimension
13
23999.9999998764
23
35379.7656591856
33
0.0000000000
14
26800.0000000000
24
35379.7656591856
34
0.0000000000
50
0.0000000000
100
AcDbRotatedDimension
1001
DSTP_XDATA
1002
{
1000
_OWNERHANDLE=0000000064
1002
}
0
DIMENSION
5
7A
100
AcDbEntity
8
_ннях_
100
AcDbDimension
6
ByBlock
48
100.0000000000
10
29999.9999998764
20
34448.1239050593
30
0.0000000000
11
28399.9999999382
21
34573.4989050593
31
0.0000000000
70
0
3
яодя$0
100
AcDbAlignedDimension
13
26800.0000000000
23
35379.7656591856
33
0.0000000000
14
29999.9999998764
24
35379.7656591856
34
0.0000000000
50
0.0000000000
100
AcDbRotatedDimension
1001
DSTP_XDATA
1002
{
1000
_OWNERHANDLE=0000000064
1002
}
0
DIMENSION
5
7B
100
AcDbEntity
8
_ннях_
100
AcDbDimension
6
ByBlock
48
100.0000000000
10
36000.0000000000
20
34448.1239050593
30
0.0000000000
11
32999.9999999382
21
34573.4989050593
31
0.0000000000
70
0
3
яодя$0
100
AcDbAlignedDimension
13
29999.9999998764
23
35379.7656591856
33
0.0000000000
14
36000.0000000000
24
35379.7656591856
34
0.0000000000
50
0.0000000000
100
AcDbRotatedDimension
1001
DSTP_XDATA
1002
{
1000
_OWNERHANDLE=0000000064
1002
}
0
DIMENSION
5
7C
100
AcDbEntity
8
_ннях_
100
AcDbDimension
6
ByBlock
48
100.0000000000
10
39000.0000000000
20
34448.1239050593
30
0.0000000000
11
37500.0000000000
21
34573.4989050593
31
0.0000000000
70
0
3
яодя$0
100
AcDbAlignedDimension
13
36000.0000000000
23
35379.7656591856
33
0.0000000000
14
39000.0000000000
24
35379.7656591856
34
0.0000000000
50
0.0000000000
100
AcDbRotatedDimension
1001
DSTP_XDATA
1002
{
1000
_OWNERHANDLE=0000000064
1002
}
0
DIMENSION
5
7D
100
AcDbEntity
8
_ннях_
100
AcDbDimension
6
ByBlock
48
100.0000000000
10
42000.0000000000
20
34448.1239050593
30
0.0000000000
11
40500.0000000000
21
34573.4989050593
31
0.0000000000
70
0
3
яодя$0
100
AcDbAlignedDimension
13
39000.0000000000
23
35379.7656591856
33
0.0000000000
14
42000.0000000000
24
35379.7656591856
34
0.0000000000
50
0.0000000000
100
AcDbRotatedDimension
1001
DSTP_XDATA
1002
{
1000
_OWNERHANDLE=0000000064
1002
}
0
DIMENSION
5
7E
100
AcDbEntity
8
_ннях_
100
AcDbDimension
6
ByBlock
48
100.0000000000
10
51000.0000012927
20
34448.1239050593
30
0.0000000000
11
46500.0000006463
21
34573.4989050593
31
0.0000000000
70
0
3
яодя$0
100
AcDbAlignedDimension
13
42000.0000000000
23
35379.7656591856
33
0.0000000000
14
51000.0000012927
24
35379.7656591856
34
0.0000000000
50
0.0000000000
100
AcDbRotatedDimension
1001
DSTP_XDATA
1002
{
1000
_OWNERHANDLE=0000000064
1002
}
0
DIMENSION
5
7F
100
AcDbEntity
8
_ннях_
100
AcDbDimension
6
ByBlock
48
100.0000000000
10
60000.0000012927
20
34448.1239050593
30
0.0000000000
11
55500.0000012927
21
34573.4989050593
31
0.0000000000
70
0
3
яодя$0
100
AcDbAlignedDimension
13
51000.0000012927
23
35379.7656591856
33
0.0000000000
14
60000.0000012927
24
35379.7656591856
34
0.0000000000
50
0.0000000000
100
AcDbRotatedDimension
1001
DSTP_XDATA
1002
{
1000
_OWNERHANDLE=0000000064
1002
}
0
DIMENSION
5
80
100
AcDbEntity
8
_ннях_
100
AcDbDimension
6
ByBlock
48
100.0000000000
10
63000.0000012927
20
34448.1239050593
30
0.0000000000
11
61500.0000012927
21
34573.4989050593
31
0.0000000000
70
0
3
яодя$0
100
AcDbAlignedDimension
13
60000.0000012927
23
35379.7656591856
33
0.0000000000
14
63000.0000012927
24
35379.7656591856
34
0.0000000000
50
0.0000000000
100
AcDbRotatedDimension
1001
DSTP_XDATA
1002
{
1000
_OWNERHANDLE=0000000064
1002
}
0
DIMENSION
5
81
100
AcDbEntity
8
_ннях_
100
AcDbDimension
6
ByBlock
48
100.0000000000
10
66000.0000012927
20
34448.1239050593
30
0.0000000000
11
64500.0000012927
21
34573.4989050593
31
0.0000000000
70
0
3
яодя$0
100
AcDbAlignedDimension
13
63000.0000012927
23
35379.7656591856
33
0.0000000000
14
66000.0000012927
24
35379.7656591856
34
0.0000000000
50
0.0000000000
100
AcDbRotatedDimension
1001
DSTP_XDATA
1002
{
1000
_OWNERHANDLE=0000000064
1002
}
0
DIMENSION
5
82
100
AcDbEntity
8
_ннях_
100
AcDbDimension
6
ByBlock
48
100.0000000000
10
72000.0000000000
20
34448.1239050593
30
0.0000000000
11
69000.0000006463
21
34573.4989050593
31
0.0000000000
70
0
3
яодя$0
100
AcDbAlignedDimension
13
66000.0000012927
23
35379.7656591856
33
0.0000000000
14
72000.0000000000
24
35379.7656591856
34
0.0000000000
50
0.0000000000
100
AcDbRotatedDimension
1001
DSTP_XDATA
1002
{
1000
_OWNERHANDLE=0000000064
1002
}
0
CIRCLE
5
83
100
AcDbEntity
8
_ннях_
100
AcDbCircle
6
ByLayer
48
100.0000000000
10
73975.7853464803
20
35738.6273876728
30
0.0000000000
40
500.0000000000
1001
DSTP_XDATA
1002
{
1000
_OWNERHANDLE=0000000064
1002
}
0
DIMENSION
5
84
100
AcDbEntity
8
_ннях_
100
AcDbDimension
6
ByBlock
48
100.0000000000
10
74143.4370519942
20
35172.3371825347
30
0.0000000000
11
72472.9871600821
21
34808.5500892564
31
0.0000000000
70
1
3
яодя$0
100
AcDbAlignedDimension
13
71052.6315786917
23
33599.9999917781
33
0.0000000000
14
74322.3500728333
24
34568.0087567528
34
0.0000000000
1001
DSTP_XDATA
1002
{
1000
_OWNERHANDLE=0000000064
1002
}
0
DIMENSION
5
85
100
AcDbEntity
8
_ннях_
100
AcDbDimension
6
ByBlock
48
100.0000000000
10
71999.1708091482
20
34881.7540503319
30
0.0000000000
11
47999.4320064362
21
35057.1287782522
31
0.0000000000
70
1
3
яодя$0
100
AcDbAlignedDimension
13
23999.9999998764
23
35379.7656591856
33
0.0000000000
14
72000.0000000000
24
35279.7656591856
34
0.0000000000
1001
DSTP_XDATA
1002
{
1000
_OWNERHANDLE=0000000064
1002
}
0
ENDBLK
5
86
100
AcDbEntity
8
0
100
AcDbBlockEnd
1001
DSTP_XDATA
1002
{
1002
}
0
ENDSEC
0
SECTION
2
ENTITIES
0
INSERT
5
87
100
AcDbEntity
8
_нях_
100
AcDbBlockReference
6
ByLayer
48
100.0000000000
2
нЯХ_АКНЙ а
10
-11893.3405306588
20
12669.0224188684
30
0.0000000000
41
1.0000000000
42
1.0000000000
43
1.0000000000
50
0.0000000000
1001
DSTP_XDATA
1002
{
1000
_OWNERHANDLE=0000000064
1002
}
0
ENDSEC
0
SECTION
2
OBJECTS
0
DICTIONARY
5
89
330
0
100
AcDbDictionary
281
1
3
ACAD_GROUP
350
8A
3
ACAD_LAYOUT
350
8B
3
ACAD_MLINESTYLE
350
8C
3
ACAD_PLOTSETTINGS
350
8D
3
ACAD_PLOTSTYLENAME
350
8E
0
DICTIONARY
5
8A
102
{ACAD_REACTORS
330
89
102
}
330
89
100
AcDbDictionary
281
1
0
DICTIONARY
5
8B
102
{ACAD_REACTORS
330
89
102
}
330
89
100
AcDbDictionary
281
1
3
Layout1
350
35
3
Layout2
350
37
3
Model
350
33
0
DICTIONARY
5
8C
102
{ACAD_REACTORS
330
89
102
}
330
89
100
AcDbDictionary
281
1
3
Standard
350
8F
0
DICTIONARY
5
8D
102
{ACAD_REACTORS
330
89
102
}
330
89
100
AcDbDictionary
281
1
0
ACDBDICTIONARYWDFLT
5
8E
102
{ACAD_REACTORS
330
89
102
}
330
89
100
AcDbDictionary
281
1
3
Normal
350
11
100
AcDbDictionaryWithDefault
340
11
0
LAYOUT
5
35
102
{ACAD_REACTORS
330
8B
102
}
330
8B
100
AcDbPlotSettings
1

2
None
4

6

40
0.0
41
0.0
42
0.0
43
0.0
44
0.0
45
0.0
46
0.0
47
0.0
48
0.0
49
0.0
140
0.0
141
0.0
142
1.0
143
1.0
70
688
72
0
73
0
74
5
7

75
16
147
1.0
148
0.0
149
0.0
100
AcDbLayout
1
Layout1
70
1
71
1
10
0.0
20
0.0
11
12.0
21
9.0
12
0.0
22
0.0
32
0.0
14
0.0
24
0.0
34
0.0
15
0.0
25
0.0
35
0.0
146
0.0
13
0.0
23
0.0
33
0.0
16
1.0
26
0.0
36
0.0
17
0.0
27
1.0
37
0.0
76
0
330
34
0
LAYOUT
5
37
102
{ACAD_REACTORS
330
8B
102
}
330
8B
100
AcDbPlotSettings
1

2
None
4

6

40
0.0
41
0.0
42
0.0
43
0.0
44
0.0
45
0.0
46
0.0
47
0.0
48
0.0
49
0.0
140
0.0
141
0.0
142
1.0
143
1.0
70
688
72
0
73
0
74
5
7

75
16
147
1.0
148
0.0
149
0.0
100
AcDbLayout
1
Layout2
70
1
71
2
10
0.0
20
0.0
11
12.0
21
9.0
12
0.0
22
0.0
32
0.0
14
0.0
24
0.0
34
0.0
15
0.0
25
0.0
35
0.0
146
0.0
13
0.0
23
0.0
33
0.0
16
1.0
26
0.0
36
0.0
17
0.0
27
1.0
37
0.0
76
0
330
36
0
LAYOUT
5
33
102
{ACAD_REACTORS
330
8B
102
}
330
8B
100
AcDbPlotSettings
1

2
none_device
4
ANSI_A_(8.50_x_11.00_Inches)
6

40
6.349999904632568
41
19.04999923706054
42
6.350006103515625
43
19.04998779296875
44
215.8999938964843
45
279.3999938964843
46
0.0
47
0.0
48
0.0
49
0.0
140
0.0
141
0.0
142
1.0
143
2.584895464708373
70
11952
72
0
73
1
74
0
7

75
0
147
0.3868628397755418
148
0.0
149
0.0
100
AcDbLayout
1
Model
70
1
71
0
10
0.0
20
0.0
11
12.0
21
9.0
12
0.0
22
0.0
32
0.0
14
0.0
24
0.0
34
0.0
15
0.0
25
0.0
35
0.0
146
0.0
13
0.0
23
0.0
33
0.0
16
1.0
26
0.0
36
0.0
17
0.0
27
1.0
37
0.0
76
0
330
32
0
MLINESTYLE
5
8F
102
{ACAD_REACTORS
330
8C
102
}
330
8C
100
AcDbMlineStyle
2
STANDARD
70
0
3

62
256
51
90.0
52
90.0
71
2
49
0.5
62
256
6
BYLAYER
49
-0.5
62
256
6
BYLAYER
0
ACDBPLACEHOLDER
5
11
102
{ACAD_REACTORS
330
8E
102
}
330
8E
0
ENDSEC
0
EOF
