0
SECTION
2
HEADER
9
$ACADVER
1
AC1015
9
$ACADMAINTVER
70
10
9
$DWGCODEPAGE
3
ANSI_1251
9
$INSBASE
10
0.0
20
0.0
30
0.0
9
$EXTMIN
10
1.000000000000000E+20
20
1.000000000000000E+20
30
1.000000000000000E+20
9
$EXTMAX
10
-1.000000000000000E+20
20
-1.000000000000000E+20
30
-1.000000000000000E+20
9
$LIMMIN
10
0.0
20
0.0
9
$LIMMAX
10
12.0
20
9.0
9
$ORTHOMODE
70
0
9
$REGENMODE
70
1
9
$FILLMODE
70
1
9
$QTEXTMODE
70
0
9
$MIRRTEXT
70
1
9
$LTSCALE
40
1
9
$ATTMODE
70
1
9
$TEXTSIZE
40
2.5
9
$TRACEWID
40
0.05
9
$TEXTSTYLE
7
Standard
9
$CLAYER
8
0
9
$CELTYPE
6
ByBlock
9
$CECOLOR
62
7
9
$CELTSCALE
40
1
9
$DISPSILH
70
0
9
$DIMSCALE
40
1.0
9
$DIMASZ
40
0.18
9
$DIMEXO
40
0.0625
9
$DIMDLI
40
0.38
9
$DIMRND
40
0.0
9
$DIMDLE
40
0.0
9
$DIMEXE
40
0.18
9
$DIMTP
40
0.0
9
$DIMTM
40
0.0
9
$DIMTXT
40
0.18
9
$DIMCEN
40
0.09
9
$DIMTSZ
40
0.0
9
$DIMTOL
70
0
9
$DIMLIM
70
0
9
$DIMTIH
70
1
9
$DIMTOH
70
1
9
$DIMSE1
70
0
9
$DIMSE2
70
0
9
$DIMTAD
70
0
9
$DIMZIN
70
0
9
$DIMBLK
1

9
$DIMASO
70
1
9
$DIMSHO
70
1
9
$DIMPOST
1

9
$DIMAPOST
1

9
$DIMALT
70
0
9
$DIMALTD
70
2
9
$DIMALTF
40
25.4
9
$DIMLFAC
40
1.0
9
$DIMTOFL
70
0
9
$DIMTVP
40
0.0
9
$DIMTIX
70
0
9
$DIMSOXD
70
0
9
$DIMSAH
70
0
9
$DIMBLK1
1

9
$DIMBLK2
1

9
$DIMSTYLE
2
ISO-25
9
$DIMCLRD
70
0
9
$DIMCLRE
70
0
9
$DIMCLRT
70
0
9
$DIMTFAC
40
1.0
9
$DIMGAP
40
0.09
9
$DIMJUST
70
0
9
$DIMSD1
70
0
9
$DIMSD2
70
0
9
$DIMTOLJ
70
1
9
$DIMTZIN
70
0
9
$DIMALTZ
70
0
9
$DIMALTTZ
70
0
9
$DIMUPT
70
0
9
$DIMDEC
70
4
9
$DIMTDEC
70
4
9
$DIMALTU
70
2
9
$DIMALTTD
70
2
9
$DIMTXSTY
7
Standard
9
$DIMAUNIT
70
0
9
$DIMADEC
70
0
9
$DIMALTRND
40
0.0
9
$DIMAZIN
70
0
9
$DIMDSEP
70
46
9
$DIMATFIT
70
3
9
$DIMFRAC
70
0
9
$DIMLDRBLK
1

9
$DIMLUNIT
70
2
9
$DIMLWD
70
-2
9
$DIMLWE
70
-2
9
$DIMTMOVE
70
0
9
$LUNITS
70
2
9
$LUPREC
70
4
9
$SKETCHINC
40
0.1
9
$FILLETRAD
40
0.5
9
$AUNITS
70
0
9
$AUPREC
70
4
9
$MENU
1
.
9
$ELEVATION
40
0.0
9
$PELEVATION
40
0.0
9
$THICKNESS
40
0.0
9
$LIMCHECK
70
0
9
$CHAMFERA
40
0.5
9
$CHAMFERB
40
0.5
9
$CHAMFERC
40
1.0
9
$CHAMFERD
40
0.0
9
$SKPOLY
70
0
9
$TDCREATE
40
2461101.084178646
9
$TDUCREATE
40
2461101.375845312
9
$TDUPDATE
40
2461101.084629004
9
$TDUUPDATE
40
2461101.376295671
9
$TDINDWG
40
0.0004510185
9
$TDUSRTIMER
40
0.0004510185
9
$USRTIMER
70
1
9
$ANGBASE
50
0
9
$ANGDIR
70
1
9
$PDMODE
70
0
9
$PDSIZE
40
0.0
9
$PLINEWID
40
0.0
9
$SPLFRAME
70
0
9
$SPLINETYPE
70
6
9
$SPLINESEGS
70
8
9
$HANDSEED
5
10000005C
9
$SURFTAB1
70
6
9
$SURFTAB2
70
6
9
$SURFTYPE
70
6
9
$SURFU
70
6
9
$SURFV
70
6
9
$UCSBASE
2

9
$UCSNAME
2

9
$UCSORG
10
0.0
20
0.0
30
0.0
9
$UCSXDIR
10
1.0
20
0.0
30
0.0
9
$UCSYDIR
10
0.0
20
1.0
30
0.0
9
$UCSORTHOREF
2

9
$UCSORTHOVIEW
70
0
9
$UCSORGTOP
10
0.0
20
0.0
30
0.0
9
$UCSORGBOTTOM
10
0.0
20
0.0
30
0.0
9
$UCSORGLEFT
10
0.0
20
0.0
30
0.0
9
$UCSORGRIGHT
10
0.0
20
0.0
30
0.0
9
$UCSORGFRONT
10
0.0
20
0.0
30
0.0
9
$UCSORGBACK
10
0.0
20
0.0
30
0.0
9
$PUCSBASE
2

9
$PUCSNAME
2

9
$PUCSORG
10
0.0
20
0.0
30
0.0
9
$PUCSXDIR
10
1.0
20
0.0
30
0.0
9
$PUCSYDIR
10
0.0
20
1.0
30
0.0
9
$PUCSORTHOREF
2

9
$PUCSORTHOVIEW
70
0
9
$PUCSORGTOP
10
0.0
20
0.0
30
0.0
9
$PUCSORGBOTTOM
10
0.0
20
0.0
30
0.0
9
$PUCSORGLEFT
10
0.0
20
0.0
30
0.0
9
$PUCSORGRIGHT
10
0.0
20
0.0
30
0.0
9
$PUCSORGFRONT
10
0.0
20
0.0
30
0.0
9
$PUCSORGBACK
10
0.0
20
0.0
30
0.0
9
$USERI1
70
0
9
$USERI2
70
0
9
$USERI3
70
0
9
$USERI4
70
0
9
$USERI5
70
0
9
$USERR1
40
0.0
9
$USERR2
40
0.0
9
$USERR3
40
0.0
9
$USERR4
40
0.0
9
$USERR5
40
0.0
9
$WORLDVIEW
70
1
9
$SHADEDGE
70
3
9
$SHADEDIF
70
70
9
$TILEMODE
70
1
9
$MAXACTVP
70
64
9
$PINSBASE
10
0.0
20
0.0
30
0.0
9
$PLIMCHECK
70
0
9
$PEXTMIN
10
0.0
20
0.0
30
0.0
9
$PEXTMAX
10
0.0
20
0.0
30
0.0
9
$PLIMMIN
10
0.0
20
0.0
9
$PLIMMAX
10
12.0
20
9.0
9
$UNITMODE
70
1
9
$VISRETAIN
70
1
9
$PLINEGEN
70
0
9
$PSLTSCALE
70
1
9
$TREEDEPTH
70
3020
9
$CMLSTYLE
2
Standard
9
$CMLJUST
70
0
9
$CMLSCALE
40
1.0
9
$PROXYGRAPHICS
70
1
9
$MEASUREMENT
70
0
9
$CELWEIGHT
370
0
9
$ENDCAPS
280
0
9
$JOINSTYLE
280
0
9
$LWDISPLAY
290
0
9
$INSUNITS
70
0
9
$HYPERLINKBASE
1

9
$STYLESHEET
1

9
$XEDIT
290
1
9
$CEPSNTYPE
380
0
9
$PSTYLEMODE
290
1
9
$FINGERPRINTGUID
2
{FDEAD576-A652-11D2-9A35-0060089B3A3F}
9
$VERSIONGUID
2
{3238B8A1-0C23-11D4-BD6B-0060B087441E}
9
$EXTNAMES
290
1
9
$PSVPSCALE
40
0.0
9
$OLESTARTUP
290
0
0
ENDSEC
0
SECTION
2
CLASSES
0
CLASS
1
ACDBDICTIONARYWDFLT
2
AcDbDictionaryWithDefault
3
AutoCAD 2000
90
0
280
0
281
0
0
CLASS
1
ACDBPLACEHOLDER
2
AcDbPlaceHolder
3
AutoCAD 2000
90
0
280
0
281
0
0
CLASS
1
LAYOUT
2
AcDbLayout
3
AutoCAD 2000
90
0
280
0
281
0
0
ENDSEC
0
SECTION
2
TABLES
0
TABLE
2
VPORT
5
4
330
0
100
AcDbSymbolTable
70
1
0
VPORT
5
5
330
4
100
AcDbSymbolTableRecord
100
AcDbViewportTableRecord
2
*Active
70
0
10
0.0
20
0.0
11
1.0
21
1.0
12
269.22989688216
22
170.050264547621
13
0
23
0
14
10
24
10
15
10
25
10
16
0
26
0
36
1
17
0
27
0
37
0
40
10.4285799522672
41
1.9465737514518
42
50.0
43
0.0
44
0.0
50
0.0
51
0.0
71
0
72
1000
73
1
74
3
75
0
76
0
77
0
78
0
281
0
65
1
110
0.0
120
0.0
130
0.0
111
1.0
121
0.0
131
0.0
112
0.0
122
1.0
132
0.0
79
0
146
0.0
0
ENDTAB
0
TABLE
2
LTYPE
5
6
330
0
100
AcDbSymbolTable
70
1
0
LTYPE
5
A
330
A
100
AcDbSymbolTableRecord
100
AcDbLinetypeTableRecord
2
Continuous
70
0
3
Solid line
72
65
73
0
40
0
0
LTYPE
5
B
330
B
100
AcDbSymbolTableRecord
100
AcDbLinetypeTableRecord
2
ByLayer
70
0
3

72
65
73
0
40
0
0
LTYPE
5
C
330
C
100
AcDbSymbolTableRecord
100
AcDbLinetypeTableRecord
2
ByBlock
70
0
3

72
65
73
0
40
0
0
ENDTAB
0
TABLE
2
LAYER
5
D
330
0
100
AcDbSymbolTable
70
1
0
LAYER
5
10
100
AcDbSymbolTableRecord
100
AcDbLayerTableRecord
2
0
70
0
62
7
6
Continuous
290
1
370
-3
390
F
0
LAYER
5
11
100
AcDbSymbolTableRecord
100
AcDbLayerTableRecord
2
SYS_METRIC
70
0
62
-7
6
Continuous
290
0
370
-3
390
F
0
ENDTAB
0
TABLE
2
STYLE
5
12
330
0
100
AcDbSymbolTable
70
1
0
STYLE
5
14
330
12
100
AcDbSymbolTableRecord
100
AcDbTextStyleTableRecord
2
Standard
70
0
40
0
41
1
50
0
71
0
42
2.5
3
txt
4

0
STYLE
5
15
330
12
100
AcDbSymbolTableRecord
100
AcDbTextStyleTableRecord
2
newtext
70
0
40
0
41
1
50
0
71
0
42
2.5
3
times.ttf
4

1001
ACAD
1000
Times New Roman
0
ENDTAB
0
TABLE
2
VIEW
5
16
330
0
100
AcDbSymbolTable
70
0
0
ENDTAB
0
TABLE
2
UCS
5
17
330
0
100
AcDbSymbolTable
70
0
0
ENDTAB
0
TABLE
2
APPID
5
18
330
0
100
AcDbSymbolTable
70
1
0
APPID
5
1A
100
AcDbSymbolTableRecord
100
AcDbRegAppTableRecord
2
ACAD
70
0
0
APPID
5
1B
100
AcDbSymbolTableRecord
100
AcDbRegAppTableRecord
2
ACAD_PSEXT
70
0
0
APPID
5
1C
100
AcDbSymbolTableRecord
100
AcDbRegAppTableRecord
2
AcAecLayerStandard
70
0
0
APPID
5
1D
100
AcDbSymbolTableRecord
100
AcDbRegAppTableRecord
2
DSTP_XDATA
70
0
0
APPID
5
1E
100
AcDbSymbolTableRecord
100
AcDbRegAppTableRecord
2
ACAD_DSTYLE_DIM_LINETYPE
70
0
0
APPID
5
1F
100
AcDbSymbolTableRecord
100
AcDbRegAppTableRecord
2
ACAD_DSTYLE_DIM_EXT1_LINETYPE
70
0
0
APPID
5
20
100
AcDbSymbolTableRecord
100
AcDbRegAppTableRecord
2
ACAD_DSTYLE_DIM_EXT2_LINETYPE
70
0
0
ENDTAB
0
TABLE
2
DIMSTYLE
5
21
330
0
100
AcDbSymbolTable
70
1
100
AcDbDimStyleTable
71
0
0
DIMSTYLE
105
23
330
21
100
AcDbSymbolTableRecord
100
AcDbDimStyleTableRecord
2
ISO-25
3

70
0
40
0
44
1.25
42
0.625
46
0
41
2.5
173
0
140
2.5
141
2.5
73
0
74
0
147
0.625
77
1
144
1
271
2
45
0
277
2
278
44
279
0
340
14
0
ENDTAB
0
TABLE
2
BLOCK_RECORD
5
24
330
0
100
AcDbSymbolTable
70
1
0
BLOCK_RECORD
5
25
330
24
100
AcDbSymbolTableRecord
100
AcDbBlockTableRecord
2
*Model_Space
340
26
0
BLOCK_RECORD
5
27
330
24
100
AcDbSymbolTableRecord
100
AcDbBlockTableRecord
2
*Paper_Space
340
28
0
BLOCK_RECORD
5
29
330
24
100
AcDbSymbolTableRecord
100
AcDbBlockTableRecord
2
*Paper_Space0
340
2A
0
ENDTAB
0
ENDSEC
0
SECTION
2
BLOCKS
0
BLOCK
5
2B
330
25
100
AcDbEntity
8
0
100
AcDbBlockBegin
2
*Model_Space
70
0
10
0.0
20
0.0
30
0.0
3
*Model_Space
1

0
ENDBLK
5
2C
330
25
100
AcDbEntity
8
0
100
AcDbBlockEnd
0
BLOCK
5
2D
330
27
100
AcDbEntity
67
1
8
0
100
AcDbBlockBegin
2
*Paper_Space
70
0
10
0.0
20
0.0
30
0.0
3
*Paper_Space
1

0
ENDBLK
5
2E
330
27
100
AcDbEntity
67
1
8
0
100
AcDbBlockEnd
0
BLOCK
5
2F
330
29
100
AcDbEntity
8
0
100
AcDbBlockBegin
2
*Paper_Space0
70
0
10
0.0
20
0.0
30
0.0
3
*Paper_Space0
1

0
ENDBLK
5
30
330
29
100
AcDbEntity
8
0
100
AcDbBlockEnd
0
ENDSEC
0
SECTION
2
ENTITIES
0
TEXT
5
31
100
AcDbEntity
8
0
100
AcDbText
6
ByLayer
10
267.3191774589
20
170.0885673439
30
0.0000000000
11
267.3191774589
21
170.0885673439
31
0.0000000000
40
0.2500000000
50
0.0000000000
41
1.0000000000
51
0.0000000000
72
0
7
newtext
1
Zagolovok
100
AcDbText
73
0
1001
DSTP_XDATA
1002
{
1000
_OWNERHANDLE=0000000064
1002
}
0
TEXT
5
32
100
AcDbEntity
8
0
100
AcDbText
6
ByLayer
10
263.0622596507
20
169.6788989950
30
0.0000000000
11
263.0622596507
21
169.6788989950
31
0.0000000000
40
0.1800000000
50
0.0000000000
41
1.0000000000
51
0.0000000000
72
0
7
Standard
1
A
100
AcDbText
73
0
1001
DSTP_XDATA
1002
{
1000
_OWNERHANDLE=0000000064
1002
}
0
TEXT
5
33
100
AcDbEntity
8
0
100
AcDbText
6
ByLayer
10
265.5622596507
20
169.6788989950
30
0.0000000000
11
265.5622596507
21
169.6788989950
31
0.0000000000
40
0.1800000000
50
0.0000000000
41
1.0000000000
51
0.0000000000
72
0
7
Standard
1
B
100
AcDbText
73
0
1001
DSTP_XDATA
1002
{
1000
_OWNERHANDLE=0000000064
1002
}
0
TEXT
5
34
100
AcDbEntity
8
0
100
AcDbText
6
ByLayer
10
268.0622596507
20
169.6788989950
30
0.0000000000
11
268.0622596507
21
169.6788989950
31
0.0000000000
40
0.1800000000
50
0.0000000000
41
1.0000000000
51
0.0000000000
72
0
7
Standard
1
C
100
AcDbText
73
0
1001
DSTP_XDATA
1002
{
1000
_OWNERHANDLE=0000000064
1002
}
0
TEXT
5
35
100
AcDbEntity
8
0
100
AcDbText
6
ByLayer
10
270.5622596507
20
169.6788989950
30
0.0000000000
11
270.5622596507
21
169.6788989950
31
0.0000000000
40
0.1800000000
50
0.0000000000
41
1.0000000000
51
0.0000000000
72
0
7
Standard
1
D
100
AcDbText
73
0
1001
DSTP_XDATA
1002
{
1000
_OWNERHANDLE=0000000064
1002
}
0
TEXT
5
36
100
AcDbEntity
8
0
100
AcDbText
6
ByLayer
10
273.0622596507
20
169.6788989950
30
0.0000000000
11
273.0622596507
21
169.6788989950
31
0.0000000000
40
0.1800000000
50
0.0000000000
41
1.0000000000
51
0.0000000000
72
0
7
Standard
1
E
100
AcDbText
73
0
1001
DSTP_XDATA
1002
{
1000
_OWNERHANDLE=0000000064
1002
}
0
TEXT
5
37
100
AcDbEntity
8
0
100
AcDbText
6
ByLayer
10
264.2118126428
20
169.3488989950
30
0.0000000000
11
264.2118126428
21
169.3488989950
31
0.0000000000
40
0.1800000000
50
0.0000000000
41
1.0000000000
51
0.0000000000
72
0
7
newtext
1
1
100
AcDbText
73
0
1001
DSTP_XDATA
1002
{
1000
_OWNERHANDLE=0000000064
1002
}
0
TEXT
5
38
100
AcDbEntity
8
0
100
AcDbText
6
ByLayer
10
266.6903995209
20
169.3488989950
30
0.0000000000
11
266.6903995209
21
169.3488989950
31
0.0000000000
40
0.1800000000
50
0.0000000000
41
1.0000000000
51
0.0000000000
72
0
7
newtext
1
2
100
AcDbText
73
0
1001
DSTP_XDATA
1002
{
1000
_OWNERHANDLE=0000000064
1002
}
0
TEXT
5
39
100
AcDbEntity
8
0
100
AcDbText
6
ByLayer
10
269.2014305231
20
169.3488989950
30
0.0000000000
11
269.2014305231
21
169.3488989950
31
0.0000000000
40
0.1800000000
50
0.0000000000
41
1.0000000000
51
0.0000000000
72
0
7
newtext
1
3
100
AcDbText
73
0
1001
DSTP_XDATA
1002
{
1000
_OWNERHANDLE=0000000064
1002
}
0
TEXT
5
3A
100
AcDbEntity
8
0
100
AcDbText
6
ByLayer
10
271.6885826500
20
169.3488989950
30
0.0000000000
11
271.6885826500
21
169.3488989950
31
0.0000000000
40
0.1800000000
50
0.0000000000
41
1.0000000000
51
0.0000000000
72
0
7
newtext
1
4
100
AcDbText
73
0
1001
DSTP_XDATA
1002
{
1000
_OWNERHANDLE=0000000064
1002
}
0
TEXT
5
3B
100
AcDbEntity
8
0
100
AcDbText
6
ByLayer
10
274.1968883457
20
169.3488989950
30
0.0000000000
11
274.1968883457
21
169.3488989950
31
0.0000000000
40
0.1800000000
50
0.0000000000
41
1.0000000000
51
0.0000000000
72
0
7
newtext
1
5
100
AcDbText
73
0
1001
DSTP_XDATA
1002
{
1000
_OWNERHANDLE=0000000064
1002
}
0
TEXT
5
3C
100
AcDbEntity
8
0
100
AcDbText
6
ByLayer
10
264.1896208619
20
168.9888989950
30
0.0000000000
11
264.1896208619
21
168.9888989950
31
0.0000000000
40
0.1800000000
50
0.0000000000
41
1.0000000000
51
0.0000000000
72
0
7
newtext
1
6
100
AcDbText
73
0
1001
DSTP_XDATA
1002
{
1000
_OWNERHANDLE=0000000064
1002
}
0
TEXT
5
3D
100
AcDbEntity
8
0
100
AcDbText
6
ByLayer
10
266.6911781799
20
168.9888989950
30
0.0000000000
11
266.6911781799
21
168.9888989950
31
0.0000000000
40
0.1800000000
50
0.0000000000
41
1.0000000000
51
0.0000000000
72
0
7
newtext
1
7
100
AcDbText
73
0
1001
DSTP_XDATA
1002
{
1000
_OWNERHANDLE=0000000064
1002
}
0
TEXT
5
3E
100
AcDbEntity
8
0
100
AcDbText
6
ByLayer
10
269.1946821453
20
168.9888989950
30
0.0000000000
11
269.1946821453
21
168.9888989950
31
0.0000000000
40
0.1800000000
50
0.0000000000
41
1.0000000000
51
0.0000000000
72
0
7
newtext
1
8
100
AcDbText
73
0
1001
DSTP_XDATA
1002
{
1000
_OWNERHANDLE=0000000064
1002
}
0
TEXT
5
3F
100
AcDbEntity
8
0
100
AcDbText
6
ByLayer
10
271.6907888504
20
168.9888989950
30
0.0000000000
11
271.6907888504
21
168.9888989950
31
0.0000000000
40
0.1800000000
50
0.0000000000
41
1.0000000000
51
0.0000000000
72
0
7
newtext
1
9
100
AcDbText
73
0
1001
DSTP_XDATA
1002
{
1000
_OWNERHANDLE=0000000064
1002
}
0
TEXT
5
40
100
AcDbEntity
8
0
100
AcDbText
6
ByLayer
10
274.1888422030
20
168.9888989950
30
0.0000000000
11
274.1888422030
21
168.9888989950
31
0.0000000000
40
0.1800000000
50
0.0000000000
41
1.0000000000
51
0.0000000000
72
0
7
newtext
1
0
100
AcDbText
73
0
1001
DSTP_XDATA
1002
{
1000
_OWNERHANDLE=0000000064
1002
}
0
TEXT
5
41
100
AcDbEntity
8
0
100
AcDbText
6
ByLayer
10
263.0622596507
20
168.5988989950
30
0.0000000000
11
263.0622596507
21
168.5988989950
31
0.0000000000
40
0.1800000000
50
0.0000000000
41
1.0000000000
51
0.0000000000
72
0
7
Standard
1
F
100
AcDbText
73
0
1001
DSTP_XDATA
1002
{
1000
_OWNERHANDLE=0000000064
1002
}
0
TEXT
5
42
100
AcDbEntity
8
0
100
AcDbText
6
ByLayer
10
265.5622596507
20
168.5988989950
30
0.0000000000
11
265.5622596507
21
168.5988989950
31
0.0000000000
40
0.1800000000
50
0.0000000000
41
1.0000000000
51
0.0000000000
72
0
7
Standard
1
G
100
AcDbText
73
0
1001
DSTP_XDATA
1002
{
1000
_OWNERHANDLE=0000000064
1002
}
0
TEXT
5
43
100
AcDbEntity
8
0
100
AcDbText
6
ByLayer
10
268.0622596507
20
168.5988989950
30
0.0000000000
11
268.0622596507
21
168.5988989950
31
0.0000000000
40
0.1800000000
50
0.0000000000
41
1.0000000000
51
0.0000000000
72
0
7
Standard
1
H
100
AcDbText
73
0
1001
DSTP_XDATA
1002
{
1000
_OWNERHANDLE=0000000064
1002
}
0
TEXT
5
44
100
AcDbEntity
8
0
100
AcDbText
6
ByLayer
10
270.4722596507
20
168.5988989950
30
0.0000000000
11
270.4722596507
21
168.5988989950
31
0.0000000000
40
0.1800000000
50
0.0000000000
41
1.0000000000
51
0.0000000000
72
0
7
Standard
1
SS
100
AcDbText
73
0
1001
DSTP_XDATA
1002
{
1000
_OWNERHANDLE=0000000064
1002
}
0
TEXT
5
45
100
AcDbEntity
8
0
100
AcDbText
6
ByLayer
10
272.9722596507
20
168.5988989950
30
0.0000000000
11
272.9722596507
21
168.5988989950
31
0.0000000000
40
0.1800000000
50
0.0000000000
41
1.0000000000
51
0.0000000000
72
0
7
Standard
1
FF
100
AcDbText
73
0
1001
DSTP_XDATA
1002
{
1000
_OWNERHANDLE=0000000064
1002
}
0
LINE
5
46
100
AcDbEntity
8
0
100
AcDbLine
6
ByLayer
10
261.8722596507
20
170.4048759236
30
0.0000000000
11
274.3722596507
21
170.4048759236
31
0.0000000000
1001
DSTP_XDATA
1002
{
1000
_OWNERHANDLE=0000000064
1002
}
0
LINE
5
47
100
AcDbEntity
8
0
100
AcDbLine
6
ByLayer
10
261.8722596507
20
169.9488989950
30
0.0000000000
11
274.3722596507
21
169.9488989950
31
0.0000000000
1001
DSTP_XDATA
1002
{
1000
_OWNERHANDLE=0000000064
1002
}
0
LINE
5
48
100
AcDbEntity
8
0
100
AcDbLine
6
ByLayer
10
261.8722596507
20
169.5888989950
30
0.0000000000
11
274.3722596507
21
169.5888989950
31
0.0000000000
1001
DSTP_XDATA
1002
{
1000
_OWNERHANDLE=0000000064
1002
}
0
LINE
5
49
100
AcDbEntity
8
0
100
AcDbLine
6
ByLayer
10
261.8722596507
20
169.2288989950
30
0.0000000000
11
274.3722596507
21
169.2288989950
31
0.0000000000
1001
DSTP_XDATA
1002
{
1000
_OWNERHANDLE=0000000064
1002
}
0
LINE
5
4A
100
AcDbEntity
8
0
100
AcDbLine
6
ByLayer
10
261.8722596507
20
168.8688989950
30
0.0000000000
11
274.3722596507
21
168.8688989950
31
0.0000000000
1001
DSTP_XDATA
1002
{
1000
_OWNERHANDLE=0000000064
1002
}
0
LINE
5
4B
100
AcDbEntity
8
0
100
AcDbLine
6
ByLayer
10
261.8722596507
20
168.5088989950
30
0.0000000000
11
274.3722596507
21
168.5088989950
31
0.0000000000
1001
DSTP_XDATA
1002
{
1000
_OWNERHANDLE=0000000064
1002
}
0
LINE
5
4C
100
AcDbEntity
8
0
100
AcDbLine
6
ByLayer
10
261.8722596507
20
170.4048759236
30
0.0000000000
11
261.8722596507
21
168.5088989950
31
0.0000000000
1001
DSTP_XDATA
1002
{
1000
_OWNERHANDLE=0000000064
1002
}
0
LINE
5
4D
100
AcDbEntity
8
0
100
AcDbLine
6
ByLayer
10
264.3722596507
20
169.9488989950
30
0.0000000000
11
264.3722596507
21
168.5088989950
31
0.0000000000
1001
DSTP_XDATA
1002
{
1000
_OWNERHANDLE=0000000064
1002
}
0
LINE
5
4E
100
AcDbEntity
8
0
100
AcDbLine
6
ByLayer
10
266.8722596507
20
169.9488989950
30
0.0000000000
11
266.8722596507
21
168.5088989950
31
0.0000000000
1001
DSTP_XDATA
1002
{
1000
_OWNERHANDLE=0000000064
1002
}
0
LINE
5
4F
100
AcDbEntity
8
0
100
AcDbLine
6
ByLayer
10
269.3722596507
20
169.9488989950
30
0.0000000000
11
269.3722596507
21
168.5088989950
31
0.0000000000
1001
DSTP_XDATA
1002
{
1000
_OWNERHANDLE=0000000064
1002
}
0
LINE
5
50
100
AcDbEntity
8
0
100
AcDbLine
6
ByLayer
10
271.8722596507
20
169.9488989950
30
0.0000000000
11
271.8722596507
21
168.5088989950
31
0.0000000000
1001
DSTP_XDATA
1002
{
1000
_OWNERHANDLE=0000000064
1002
}
0
LINE
5
51
100
AcDbEntity
8
0
100
AcDbLine
6
ByLayer
10
274.3722596507
20
170.4048759236
30
0.0000000000
11
274.3722596507
21
168.5088989950
31
0.0000000000
1001
DSTP_XDATA
1002
{
1000
_OWNERHANDLE=0000000064
1002
}
0
LINE
5
52
100
AcDbEntity
8
0
370
0
100
AcDbLine
6
ByLayer
10
261.8722596507
20
170.4048759236
30
0.0000000000
11
261.8722596507
21
170.4048759236
31
0.0000000000
1001
DSTP_XDATA
1002
{
1000
_OWNERHANDLE=0000000064
1002
}
0
LINE
5
53
100
AcDbEntity
8
0
370
0
100
AcDbLine
6
ByLayer
10
261.8722596507
20
170.4048759236
30
0.0000000000
11
261.8722596507
21
170.4048759236
31
0.0000000000
1001
DSTP_XDATA
1002
{
1000
_OWNERHANDLE=0000000064
1002
}
0
LINE
5
54
100
AcDbEntity
8
0
370
0
100
AcDbLine
6
ByLayer
10
261.8722596507
20
170.4048759236
30
0.0000000000
11
261.8722596507
21
170.4048759236
31
0.0000000000
1001
DSTP_XDATA
1002
{
1000
_OWNERHANDLE=0000000064
1002
}
0
ENDSEC
0
SECTION
2
OBJECTS
0
DICTIONARY
5
55
330
0
100
AcDbDictionary
281
1
3
ACAD_GROUP
350
56
3
ACAD_LAYOUT
350
57
3
ACAD_MLINESTYLE
350
58
3
ACAD_PLOTSETTINGS
350
59
3
ACAD_PLOTSTYLENAME
350
5A
0
DICTIONARY
5
56
102
{ACAD_REACTORS
330
55
102
}
330
55
100
AcDbDictionary
281
1
0
DICTIONARY
5
57
102
{ACAD_REACTORS
330
55
102
}
330
55
100
AcDbDictionary
281
1
3
Layout1
350
28
3
Layout2
350
2A
3
Model
350
26
0
DICTIONARY
5
58
102
{ACAD_REACTORS
330
55
102
}
330
55
100
AcDbDictionary
281
1
3
Standard
350
5B
0
DICTIONARY
5
59
102
{ACAD_REACTORS
330
55
102
}
330
55
100
AcDbDictionary
281
1
0
ACDBDICTIONARYWDFLT
5
5A
102
{ACAD_REACTORS
330
55
102
}
330
55
100
AcDbDictionary
281
1
3
Normal
350
F
100
AcDbDictionaryWithDefault
340
F
0
LAYOUT
5
28
102
{ACAD_REACTORS
330
57
102
}
330
57
100
AcDbPlotSettings
1

2
None
4

6

40
0.0
41
0.0
42
0.0
43
0.0
44
0.0
45
0.0
46
0.0
47
0.0
48
0.0
49
0.0
140
0.0
141
0.0
142
1.0
143
1.0
70
688
72
0
73
0
74
5
7

75
16
147
1.0
148
0.0
149
0.0
100
AcDbLayout
1
Layout1
70
1
71
1
10
0.0
20
0.0
11
12.0
21
9.0
12
0.0
22
0.0
32
0.0
14
0.0
24
0.0
34
0.0
15
0.0
25
0.0
35
0.0
146
0.0
13
0.0
23
0.0
33
0.0
16
1.0
26
0.0
36
0.0
17
0.0
27
1.0
37
0.0
76
0
330
27
0
LAYOUT
5
2A
102
{ACAD_REACTORS
330
57
102
}
330
57
100
AcDbPlotSettings
1

2
None
4

6

40
0.0
41
0.0
42
0.0
43
0.0
44
0.0
45
0.0
46
0.0
47
0.0
48
0.0
49
0.0
140
0.0
141
0.0
142
1.0
143
1.0
70
688
72
0
73
0
74
5
7

75
16
147
1.0
148
0.0
149
0.0
100
AcDbLayout
1
Layout2
70
1
71
2
10
0.0
20
0.0
11
12.0
21
9.0
12
0.0
22
0.0
32
0.0
14
0.0
24
0.0
34
0.0
15
0.0
25
0.0
35
0.0
146
0.0
13
0.0
23
0.0
33
0.0
16
1.0
26
0.0
36
0.0
17
0.0
27
1.0
37
0.0
76
0
330
29
0
LAYOUT
5
26
102
{ACAD_REACTORS
330
57
102
}
330
57
100
AcDbPlotSettings
1

2
none_device
4
ANSI_A_(8.50_x_11.00_Inches)
6

40
6.349999904632568
41
19.04999923706054
42
6.350006103515625
43
19.04998779296875
44
215.8999938964843
45
279.3999938964843
46
0.0
47
0.0
48
0.0
49
0.0
140
0.0
141
0.0
142
1.0
143
2.584895464708373
70
11952
72
0
73
1
74
0
7

75
0
147
0.3868628397755418
148
0.0
149
0.0
100
AcDbLayout
1
Model
70
1
71
0
10
0.0
20
0.0
11
12.0
21
9.0
12
0.0
22
0.0
32
0.0
14
0.0
24
0.0
34
0.0
15
0.0
25
0.0
35
0.0
146
0.0
13
0.0
23
0.0
33
0.0
16
1.0
26
0.0
36
0.0
17
0.0
27
1.0
37
0.0
76
0
330
25
0
MLINESTYLE
5
5B
102
{ACAD_REACTORS
330
58
102
}
330
58
100
AcDbMlineStyle
2
STANDARD
70
0
3

62
256
51
90.0
52
90.0
71
2
49
0.5
62
256
6
BYLAYER
49
-0.5
62
256
6
BYLAYER
0
ACDBPLACEHOLDER
5
F
102
{ACAD_REACTORS
330
5A
102
}
330
5A
0
ENDSEC
0
EOF
