0
SECTION
2
HEADER
9
$ACADVER
1
AC1021
9
$ACADMAINTVER
70
1
9
$DWGCODEPAGE
3
ANSI_1252
9
$LASTSAVEDBY
1
Administrator
9
$INSBASE
10
0.0
20
0.0
30
0.0
9
$EXTMIN
10
1.000000000000000E+20
20
1.000000000000000E+20
30
1.000000000000000E+20
9
$EXTMAX
10
-1.000000000000000E+20
20
-1.000000000000000E+20
30
-1.000000000000000E+20
9
$LIMMIN
10
0.0
20
0.0
9
$LIMMAX
10
12.0
20
9.0
9
$ORTHOMODE
70
0
9
$REGENMODE
70
1
9
$FILLMODE
70
1
9
$QTEXTMODE
70
0
9
$MIRRTEXT
70
0
9
$LTSCALE
40
1
9
$ATTMODE
70
1
9
$TEXTSIZE
40
0.2
9
$TRACEWID
40
0.05
9
$TEXTSTYLE
7
newtext
9
$CLAYER
8
0
9
$CELTYPE
6
ByLayer
9
$CECOLOR
62
256
9
$CELTSCALE
40
1
9
$DISPSILH
70
0
9
$DIMSCALE
40
1.0
9
$DIMASZ
40
0.18
9
$DIMEXO
40
0.0625
9
$DIMDLI
40
0.38
9
$DIMRND
40
0.0
9
$DIMDLE
40
0.0
9
$DIMEXE
40
0.18
9
$DIMTP
40
0.0
9
$DIMTM
40
0.0
9
$DIMTXT
40
0.18
9
$DIMCEN
40
0.09
9
$DIMTSZ
40
0.0
9
$DIMTOL
70
0
9
$DIMLIM
70
0
9
$DIMTIH
70
1
9
$DIMTOH
70
1
9
$DIMSE1
70
0
9
$DIMSE2
70
0
9
$DIMTAD
70
0
9
$DIMZIN
70
0
9
$DIMBLK
1

9
$DIMASO
70
1
9
$DIMSHO
70
1
9
$DIMPOST
1

9
$DIMAPOST
1

9
$DIMALT
70
0
9
$DIMALTD
70
2
9
$DIMALTF
40
25.4
9
$DIMLFAC
40
1.0
9
$DIMTOFL
70
0
9
$DIMTVP
40
0.0
9
$DIMTIX
70
0
9
$DIMSOXD
70
0
9
$DIMSAH
70
0
9
$DIMBLK1
1

9
$DIMBLK2
1

9
$DIMSTYLE
2
Standard
9
$DIMCLRD
70
0
9
$DIMCLRE
70
0
9
$DIMCLRT
70
0
9
$DIMTFAC
40
1.0
9
$DIMGAP
40
0.09
9
$DIMJUST
70
0
9
$DIMSD1
70
0
9
$DIMSD2
70
0
9
$DIMTOLJ
70
1
9
$DIMTZIN
70
0
9
$DIMALTZ
70
0
9
$DIMALTTZ
70
0
9
$DIMUPT
70
0
9
$DIMDEC
70
4
9
$DIMTDEC
70
4
9
$DIMALTU
70
2
9
$DIMALTTD
70
2
9
$DIMTXSTY
7
Standard
9
$DIMAUNIT
70
0
9
$DIMADEC
70
0
9
$DIMALTRND
40
0.0
9
$DIMAZIN
70
0
9
$DIMDSEP
70
46
9
$DIMATFIT
70
3
9
$DIMFRAC
70
0
9
$DIMLDRBLK
1

9
$DIMLUNIT
70
2
9
$DIMLWD
70
-2
9
$DIMLWE
70
-2
9
$DIMTMOVE
70
0
9
$DIMFXL
40
1.0
9
$DIMFXLON
70
0
9
$DIMJOGANG
40
0.7853981633974483
9
$DIMTFILL
70
0
9
$DIMTFILLCLR
70
0
9
$DIMARCSYM
70
0
9
$DIMLTYPE
6

9
$DIMLTEX1
6

9
$DIMLTEX2
6

9
$LUNITS
70
2
9
$LUPREC
70
4
9
$SKETCHINC
40
0.1
9
$FILLETRAD
40
0.0
9
$AUNITS
70
0
9
$AUPREC
70
0
9
$MENU
1
.
9
$ELEVATION
40
0.0
9
$PELEVATION
40
0.0
9
$THICKNESS
40
0.0
9
$LIMCHECK
70
0
9
$CHAMFERA
40
0.0
9
$CHAMFERB
40
0.0
9
$CHAMFERC
40
0.0
9
$CHAMFERD
40
0.0
9
$SKPOLY
70
0
9
$TDCREATE
40
2461134.735790231
9
$TDUCREATE
40
2461134.985790232
9
$TDUPDATE
40
2461134.736115266
9
$TDUUPDATE
40
2461134.986115266
9
$TDINDWG
40
0.0003263310
9
$TDUSRTIMER
40
0.0003261690
9
$USRTIMER
70
1
9
$ANGBASE
50
0
9
$ANGDIR
70
0
9
$PDMODE
70
0
9
$PDSIZE
40
0.0
9
$PLINEWID
40
0.0
9
$SPLFRAME
70
0
9
$SPLINETYPE
70
6
9
$SPLINESEGS
70
8
9
$HANDSEED
5
1000006C1
9
$SURFTAB1
70
6
9
$SURFTAB2
70
6
9
$SURFTYPE
70
6
9
$SURFU
70
6
9
$SURFV
70
6
9
$UCSBASE
2

9
$UCSNAME
2

9
$UCSORG
10
0.0
20
0.0
30
0.0
9
$UCSXDIR
10
1.0
20
0.0
30
0.0
9
$UCSYDIR
10
0.0
20
1.0
30
0.0
9
$UCSORTHOREF
2

9
$UCSORTHOVIEW
70
0
9
$UCSORGTOP
10
0.0
20
0.0
30
0.0
9
$UCSORGBOTTOM
10
0.0
20
0.0
30
0.0
9
$UCSORGLEFT
10
0.0
20
0.0
30
0.0
9
$UCSORGRIGHT
10
0.0
20
0.0
30
0.0
9
$UCSORGFRONT
10
0.0
20
0.0
30
0.0
9
$UCSORGBACK
10
0.0
20
0.0
30
0.0
9
$PUCSBASE
2

9
$PUCSNAME
2

9
$PUCSORG
10
0.0
20
0.0
30
0.0
9
$PUCSXDIR
10
1.0
20
0.0
30
0.0
9
$PUCSYDIR
10
0.0
20
1.0
30
0.0
9
$PUCSORTHOREF
2

9
$PUCSORTHOVIEW
70
0
9
$PUCSORGTOP
10
0.0
20
0.0
30
0.0
9
$PUCSORGBOTTOM
10
0.0
20
0.0
30
0.0
9
$PUCSORGLEFT
10
0.0
20
0.0
30
0.0
9
$PUCSORGRIGHT
10
0.0
20
0.0
30
0.0
9
$PUCSORGFRONT
10
0.0
20
0.0
30
0.0
9
$PUCSORGBACK
10
0.0
20
0.0
30
0.0
9
$USERI1
70
0
9
$USERI2
70
0
9
$USERI3
70
0
9
$USERI4
70
0
9
$USERI5
70
0
9
$USERR1
40
0.0
9
$USERR2
40
0.0
9
$USERR3
40
0.0
9
$USERR4
40
0.0
9
$USERR5
40
0.0
9
$WORLDVIEW
70
1
9
$SHADEDGE
70
3
9
$SHADEDIF
70
70
9
$TILEMODE
70
1
9
$MAXACTVP
70
64
9
$PINSBASE
10
0.0
20
0.0
30
0.0
9
$PLIMCHECK
70
0
9
$PEXTMIN
10
0.0
20
0.0
30
0.0
9
$PEXTMAX
10
0.0
20
0.0
30
0.0
9
$PLIMMIN
10
0.0
20
0.0
9
$PLIMMAX
10
12.0
20
9.0
9
$UNITMODE
70
0
9
$VISRETAIN
70
1
9
$PLINEGEN
70
0
9
$PSLTSCALE
70
1
9
$TREEDEPTH
70
3020
9
$CMLSTYLE
2
Standard
9
$CMLJUST
70
0
9
$CMLSCALE
40
1.0
9
$PROXYGRAPHICS
70
1
9
$MEASUREMENT
70
0
9
$CELWEIGHT
370
-1
9
$ENDCAPS
280
0
9
$JOINSTYLE
280
0
9
$LWDISPLAY
290
0
9
$INSUNITS
70
1
9
$HYPERLINKBASE
1

9
$STYLESHEET
1

9
$XEDIT
290
1
9
$CEPSNTYPE
380
0
9
$PSTYLEMODE
290
1
9
$FINGERPRINTGUID
2
{F6527B4C-C152-47DC-8E14-96D8FEF1295F}
9
$VERSIONGUID
2
{FBC2AE19-5C5C-49EC-81BC-71B1A3362A02}
9
$EXTNAMES
290
1
9
$PSVPSCALE
40
0.0
9
$OLESTARTUP
290
0
9
$SORTENTS
280
127
9
$INDEXCTL
280
0
9
$HIDETEXT
280
1
9
$XCLIPFRAME
290
0
9
$HALOGAP
280
0
9
$OBSCOLOR
70
257
9
$OBSLTYPE
280
0
9
$INTERSECTIONDISPLAY
280
0
9
$INTERSECTIONCOLOR
70
257
9
$DIMASSOC
280
2
9
$PROJECTNAME
1

9
$CAMERADISPLAY
290
0
9
$LENSLENGTH
40
50.0
9
$CAMERAHEIGHT
40
0.0
9
$STEPSPERSEC
40
2.0
9
$STEPSIZE
40
6.0
9
$3DDWFPREC
40
2.0
9
$PSOLWIDTH
40
0.25
9
$PSOLHEIGHT
40
4.0
9
$LOFTANG1
40
1.570796326794896
9
$LOFTANG2
40
1.570796326794896
9
$LOFTMAG1
40
0.0
9
$LOFTMAG2
40
0.0
9
$LOFTPARAM
70
7
9
$LOFTNORMALS
280
1
9
$LATITUDE
40
37.795
9
$LONGITUDE
40
-122.394
9
$NORTHDIRECTION
40
0.0
9
$TIMEZONE
70
-8000
9
$LIGHTGLYPHDISPLAY
280
1
9
$TILEMODELIGHTSYNCH
280
1
9
$CMATERIAL
347
96
9
$SOLIDHIST
280
1
9
$SHOWHIST
280
1
9
$DWFFRAME
280
2
9
$DGNFRAME
280
0
9
$REALWORLDSCALE
290
1
9
$INTERFERECOLOR
62
1
9
$INTERFEREOBJVS
345
A3
9
$INTERFEREVPVS
346
A0
9
$CSHADOW
280
0
9
$SHADOWPLANELOCATION
40
0.0
0
ENDSEC
0
SECTION
2
CLASSES
0
CLASS
1
ACDBDICTIONARYWDFLT
2
AcDbDictionaryWithDefault
3
ObjectDBX Classes
90
0
91
1
280
0
281
0
0
CLASS
1
DICTIONARYVAR
2
AcDbDictionaryVar
3
ObjectDBX Classes
90
0
91
3
280
0
281
0
0
CLASS
1
TABLESTYLE
2
AcDbTableStyle
3
ObjectDBX Classes
90
4095
91
1
280
0
281
0
0
CLASS
1
MATERIAL
2
AcDbMaterial
3
ObjectDBX Classes
90
1024
91
3
280
0
281
0
0
CLASS
1
VISUALSTYLE
2
AcDbVisualStyle
3
ObjectDBX Classes
90
4095
91
16
280
0
281
0
0
ENDSEC
0
SECTION
2
TABLES
0
TABLE
2
VPORT
5
4
330
0
100
AcDbSymbolTable
70
1
0
VPORT
5
5
330
4
100
AcDbSymbolTableRecord
100
AcDbViewportTableRecord
2
*Active
70
0
10
0.0
20
0.0
11
1.0
21
1.0
12
113.170316620292
22
22.5513891995649
13
0
23
0
14
0.5
24
0.5
15
0.5
25
0.5
16
0
26
0
36
1
17
0
27
0
37
0
40
65.3477853465278
41
1.57978723404255
42
50.0
43
0.0
44
0.0
50
0.0
51
0.0
71
0
72
1000
73
1
74
3
75
0
76
0
77
0
78
0
281
0
65
1
110
0.0
120
0.0
130
0.0
111
1.0
121
0.0
131
0.0
112
0.0
122
1.0
132
0.0
79
0
146
0.0
0
ENDTAB
0
TABLE
2
LTYPE
5
6
330
0
100
AcDbSymbolTable
70
1
0
LTYPE
5
A
330
A
100
AcDbSymbolTableRecord
100
AcDbLinetypeTableRecord
2
Continuous
70
0
3
Solid line
72
65
73
0
40
0
0
LTYPE
5
B
330
B
100
AcDbSymbolTableRecord
100
AcDbLinetypeTableRecord
2
ByLayer
70
0
3

72
65
73
0
40
0
0
LTYPE
5
C
330
C
100
AcDbSymbolTableRecord
100
AcDbLinetypeTableRecord
2
ByBlock
70
0
3

72
65
73
0
40
0
0
ENDTAB
0
TABLE
2
LAYER
5
D
330
0
100
AcDbSymbolTable
70
1
0
LAYER
5
10
100
AcDbSymbolTableRecord
100
AcDbLayerTableRecord
2
0
70
0
62
7
6
Continuous
290
1
370
-3
390
F
0
LAYER
5
11
100
AcDbSymbolTableRecord
100
AcDbLayerTableRecord
2
SYS_METRIC
70
0
62
-7
6
Continuous
290
0
370
-3
390
F
0
LAYER
5
12
100
AcDbSymbolTableRecord
100
AcDbLayerTableRecord
2
Defpoints
70
0
62
7
6
Continuous
290
0
370
-3
390
F
0
ENDTAB
0
TABLE
2
STYLE
5
13
330
0
100
AcDbSymbolTable
70
1
0
STYLE
5
15
330
13
100
AcDbSymbolTableRecord
100
AcDbTextStyleTableRecord
2
Standard
70
0
40
0
41
1
50
0
71
0
42
2.5
3
txt
4

0
STYLE
5
16
330
13
100
AcDbSymbolTableRecord
100
AcDbTextStyleTableRecord
2
newtext
70
0
40
0
41
1
50
0
71
0
42
2.5
3
times.ttf
4

1001
ACAD
1000
Times New Roman
0
ENDTAB
0
TABLE
2
VIEW
5
17
330
0
100
AcDbSymbolTable
70
0
0
ENDTAB
0
TABLE
2
UCS
5
18
330
0
100
AcDbSymbolTable
70
0
0
ENDTAB
0
TABLE
2
APPID
5
19
330
0
100
AcDbSymbolTable
70
1
0
APPID
5
1B
100
AcDbSymbolTableRecord
100
AcDbRegAppTableRecord
2
ACAD
70
0
0
APPID
5
1C
100
AcDbSymbolTableRecord
100
AcDbRegAppTableRecord
2
ACAD_PSEXT
70
0
0
APPID
5
1D
100
AcDbSymbolTableRecord
100
AcDbRegAppTableRecord
2
AcAecLayerStandard
70
0
0
APPID
5
1E
100
AcDbSymbolTableRecord
100
AcDbRegAppTableRecord
2
DSTP_XDATA
70
0
0
APPID
5
1F
100
AcDbSymbolTableRecord
100
AcDbRegAppTableRecord
2
ACAD_DSTYLE_DIM_LINETYPE
70
0
0
APPID
5
20
100
AcDbSymbolTableRecord
100
AcDbRegAppTableRecord
2
ACAD_DSTYLE_DIM_EXT1_LINETYPE
70
0
0
APPID
5
21
100
AcDbSymbolTableRecord
100
AcDbRegAppTableRecord
2
ACAD_DSTYLE_DIM_EXT2_LINETYPE
70
0
0
ENDTAB
0
TABLE
2
DIMSTYLE
5
22
330
0
100
AcDbSymbolTable
70
1
100
AcDbDimStyleTable
71
0
0
DIMSTYLE
105
24
330
22
100
AcDbSymbolTableRecord
100
AcDbDimStyleTableRecord
2
Standard
3

70
0
40
0
44
0.18
42
0.0625
46
0
41
0.18
173
0
140
0.18
141
0.09
73
1
74
1
147
0.625
77
0
144
1
271
4
45
0
277
2
278
46
279
0
340
15
0
ENDTAB
0
TABLE
2
BLOCK_RECORD
5
25
330
0
100
AcDbSymbolTable
70
1
0
BLOCK_RECORD
5
26
330
25
100
AcDbSymbolTableRecord
100
AcDbBlockTableRecord
2
*Model_Space
340
27
70
0
280
1
281
0
0
BLOCK_RECORD
5
28
330
25
100
AcDbSymbolTableRecord
100
AcDbBlockTableRecord
2
*Paper_Space
340
29
70
0
280
1
281
0
0
BLOCK_RECORD
5
2A
330
25
100
AcDbSymbolTableRecord
100
AcDbBlockTableRecord
2
*Paper_Space0
340
2B
70
0
280
1
281
0
0
BLOCK_RECORD
5
2C
100
AcDbSymbolTableRecord
100
AcDbBlockTableRecord
2
*T1
0
BLOCK_RECORD
5
2D
100
AcDbSymbolTableRecord
100
AcDbBlockTableRecord
2
*T2
0
BLOCK_RECORD
5
2E
100
AcDbSymbolTableRecord
100
AcDbBlockTableRecord
2
*T3
0
BLOCK_RECORD
5
2F
100
AcDbSymbolTableRecord
100
AcDbBlockTableRecord
2
*T4
0
BLOCK_RECORD
5
30
100
AcDbSymbolTableRecord
100
AcDbBlockTableRecord
2
*T5
0
BLOCK_RECORD
5
31
100
AcDbSymbolTableRecord
100
AcDbBlockTableRecord
2
*T6
0
BLOCK_RECORD
5
32
100
AcDbSymbolTableRecord
100
AcDbBlockTableRecord
2
*T7
0
ENDTAB
0
ENDSEC
0
SECTION
2
BLOCKS
0
BLOCK
5
33
330
26
100
AcDbEntity
8
0
100
AcDbBlockBegin
2
*Model_Space
70
0
10
0.0
20
0.0
30
0.0
3
*Model_Space
1

0
ENDBLK
5
34
330
26
100
AcDbEntity
8
0
100
AcDbBlockEnd
0
BLOCK
5
35
330
28
100
AcDbEntity
67
1
8
0
100
AcDbBlockBegin
2
*Paper_Space
70
0
10
0.0
20
0.0
30
0.0
3
*Paper_Space
1

0
ENDBLK
5
36
330
28
100
AcDbEntity
67
1
8
0
100
AcDbBlockEnd
0
BLOCK
5
37
330
2A
100
AcDbEntity
67
1
8
0
100
AcDbBlockBegin
2
*Paper_Space0
70
0
10
0.0
20
0.0
30
0.0
3
*Paper_Space0
1

0
ENDBLK
5
38
330
2A
100
AcDbEntity
67
1
8
0
100
AcDbBlockEnd
0
BLOCK
5
39
100
AcDbEntity
8
0
100
AcDbBlockBegin
2
*T1
70
2
10
0
20
0
30
0
3
*T1
1

0
MTEXT
5
3A
100
AcDbEntity
8
0
62
0
100
AcDbMText
6
ByLayer
10
6.2500000000
20
-0.2279884643
30
0.0000000000
40
0.2500000000
41
12.3800000000
71
5
1

7
newtext
11
1.0000000000
21
0.0000000000
31
0.0000000000
73
2
44
1.0000000000
1001
DSTP_XDATA
1002
{
1000
_OWNERHANDLE=0000000064
1002
}
0
MTEXT
5
3B
100
AcDbEntity
8
0
62
0
100
AcDbMText
6
ByLayer
10
1.2500000000
20
-0.6359769286
30
0.0000000000
40
0.1800000000
41
2.3800000000
71
5
1

7
Standard
11
1.0000000000
21
0.0000000000
31
0.0000000000
73
2
44
1.0000000000
1001
DSTP_XDATA
1002
{
1000
_OWNERHANDLE=0000000064
1002
}
0
MTEXT
5
3C
100
AcDbEntity
8
0
62
0
100
AcDbMText
6
ByLayer
10
3.7500000000
20
-0.6359769286
30
0.0000000000
40
0.1800000000
41
2.3800000000
71
5
1

7
Standard
11
1.0000000000
21
0.0000000000
31
0.0000000000
73
2
44
1.0000000000
1001
DSTP_XDATA
1002
{
1000
_OWNERHANDLE=0000000064
1002
}
0
MTEXT
5
3D
100
AcDbEntity
8
0
62
0
100
AcDbMText
6
ByLayer
10
6.2500000000
20
-0.6359769286
30
0.0000000000
40
0.1800000000
41
2.3800000000
71
5
1

7
Standard
11
1.0000000000
21
0.0000000000
31
0.0000000000
73
2
44
1.0000000000
1001
DSTP_XDATA
1002
{
1000
_OWNERHANDLE=0000000064
1002
}
0
MTEXT
5
3E
100
AcDbEntity
8
0
62
0
100
AcDbMText
6
ByLayer
10
8.7500000000
20
-0.6359769286
30
0.0000000000
40
0.1800000000
41
2.3800000000
71
5
1

7
Standard
11
1.0000000000
21
0.0000000000
31
0.0000000000
73
2
44
1.0000000000
1001
DSTP_XDATA
1002
{
1000
_OWNERHANDLE=0000000064
1002
}
0
MTEXT
5
3F
100
AcDbEntity
8
0
62
0
100
AcDbMText
6
ByLayer
10
11.2500000000
20
-0.6359769286
30
0.0000000000
40
0.1800000000
41
2.3800000000
71
5
1

7
Standard
11
1.0000000000
21
0.0000000000
31
0.0000000000
73
2
44
1.0000000000
1001
DSTP_XDATA
1002
{
1000
_OWNERHANDLE=0000000064
1002
}
0
MTEXT
5
40
100
AcDbEntity
8
0
62
0
100
AcDbMText
6
ByLayer
10
2.4400000000
20
-0.8759769286
30
0.0000000000
40
0.1800000000
41
2.3800000000
71
3
1

7
newtext
11
1.0000000000
21
0.0000000000
31
0.0000000000
73
2
44
1.0000000000
1001
DSTP_XDATA
1002
{
1000
_OWNERHANDLE=0000000064
1002
}
0
MTEXT
5
41
100
AcDbEntity
8
0
62
0
100
AcDbMText
6
ByLayer
10
4.9400000000
20
-0.8759769286
30
0.0000000000
40
0.1800000000
41
2.3800000000
71
3
1

7
newtext
11
1.0000000000
21
0.0000000000
31
0.0000000000
73
2
44
1.0000000000
1001
DSTP_XDATA
1002
{
1000
_OWNERHANDLE=0000000064
1002
}
0
MTEXT
5
42
100
AcDbEntity
8
0
62
0
100
AcDbMText
6
ByLayer
10
7.4400000000
20
-0.8759769286
30
0.0000000000
40
0.1800000000
41
2.3800000000
71
3
1

7
newtext
11
1.0000000000
21
0.0000000000
31
0.0000000000
73
2
44
1.0000000000
1001
DSTP_XDATA
1002
{
1000
_OWNERHANDLE=0000000064
1002
}
0
MTEXT
5
43
100
AcDbEntity
8
0
62
0
100
AcDbMText
6
ByLayer
10
9.9400000000
20
-0.8759769286
30
0.0000000000
40
0.1800000000
41
2.3800000000
71
3
1

7
newtext
11
1.0000000000
21
0.0000000000
31
0.0000000000
73
2
44
1.0000000000
1001
DSTP_XDATA
1002
{
1000
_OWNERHANDLE=0000000064
1002
}
0
MTEXT
5
44
100
AcDbEntity
8
0
62
0
100
AcDbMText
6
ByLayer
10
12.4400000000
20
-0.8759769286
30
0.0000000000
40
0.1800000000
41
2.3800000000
71
3
1

7
newtext
11
1.0000000000
21
0.0000000000
31
0.0000000000
73
2
44
1.0000000000
1001
DSTP_XDATA
1002
{
1000
_OWNERHANDLE=0000000064
1002
}
0
MTEXT
5
45
100
AcDbEntity
8
0
62
0
100
AcDbMText
6
ByLayer
10
2.4400000000
20
-1.2359769286
30
0.0000000000
40
0.1800000000
41
2.3800000000
71
3
1

7
newtext
11
1.0000000000
21
0.0000000000
31
0.0000000000
73
2
44
1.0000000000
1001
DSTP_XDATA
1002
{
1000
_OWNERHANDLE=0000000064
1002
}
0
MTEXT
5
46
100
AcDbEntity
8
0
62
0
100
AcDbMText
6
ByLayer
10
4.9400000000
20
-1.2359769286
30
0.0000000000
40
0.1800000000
41
2.3800000000
71
3
1

7
newtext
11
1.0000000000
21
0.0000000000
31
0.0000000000
73
2
44
1.0000000000
1001
DSTP_XDATA
1002
{
1000
_OWNERHANDLE=0000000064
1002
}
0
MTEXT
5
47
100
AcDbEntity
8
0
62
0
100
AcDbMText
6
ByLayer
10
7.4400000000
20
-1.2359769286
30
0.0000000000
40
0.1800000000
41
2.3800000000
71
3
1

7
newtext
11
1.0000000000
21
0.0000000000
31
0.0000000000
73
2
44
1.0000000000
1001
DSTP_XDATA
1002
{
1000
_OWNERHANDLE=0000000064
1002
}
0
MTEXT
5
48
100
AcDbEntity
8
0
62
0
100
AcDbMText
6
ByLayer
10
9.9400000000
20
-1.2359769286
30
0.0000000000
40
0.1800000000
41
2.3800000000
71
3
1

7
newtext
11
1.0000000000
21
0.0000000000
31
0.0000000000
73
2
44
1.0000000000
1001
DSTP_XDATA
1002
{
1000
_OWNERHANDLE=0000000064
1002
}
0
MTEXT
5
49
100
AcDbEntity
8
0
62
0
100
AcDbMText
6
ByLayer
10
12.4400000000
20
-1.2359769286
30
0.0000000000
40
0.1800000000
41
2.3800000000
71
3
1

7
newtext
11
1.0000000000
21
0.0000000000
31
0.0000000000
73
2
44
1.0000000000
1001
DSTP_XDATA
1002
{
1000
_OWNERHANDLE=0000000064
1002
}
0
MTEXT
5
4A
100
AcDbEntity
8
0
62
0
100
AcDbMText
6
ByLayer
10
1.2500000000
20
-1.7159769286
30
0.0000000000
40
0.1800000000
41
2.3800000000
71
5
1

7
Standard
11
1.0000000000
21
0.0000000000
31
0.0000000000
73
2
44
1.0000000000
1001
DSTP_XDATA
1002
{
1000
_OWNERHANDLE=0000000064
1002
}
0
MTEXT
5
4B
100
AcDbEntity
8
0
62
0
100
AcDbMText
6
ByLayer
10
3.7500000000
20
-1.7159769286
30
0.0000000000
40
0.1800000000
41
2.3800000000
71
5
1

7
Standard
11
1.0000000000
21
0.0000000000
31
0.0000000000
73
2
44
1.0000000000
1001
DSTP_XDATA
1002
{
1000
_OWNERHANDLE=0000000064
1002
}
0
MTEXT
5
4C
100
AcDbEntity
8
0
62
0
100
AcDbMText
6
ByLayer
10
6.2500000000
20
-1.7159769286
30
0.0000000000
40
0.1800000000
41
2.3800000000
71
5
1

7
Standard
11
1.0000000000
21
0.0000000000
31
0.0000000000
73
2
44
1.0000000000
1001
DSTP_XDATA
1002
{
1000
_OWNERHANDLE=0000000064
1002
}
0
MTEXT
5
4D
100
AcDbEntity
8
0
62
0
100
AcDbMText
6
ByLayer
10
8.7500000000
20
-1.7159769286
30
0.0000000000
40
0.1800000000
41
2.3800000000
71
5
1

7
Standard
11
1.0000000000
21
0.0000000000
31
0.0000000000
73
2
44
1.0000000000
1001
DSTP_XDATA
1002
{
1000
_OWNERHANDLE=0000000064
1002
}
0
MTEXT
5
4E
100
AcDbEntity
8
0
62
0
100
AcDbMText
6
ByLayer
10
11.2500000000
20
-1.7159769286
30
0.0000000000
40
0.1800000000
41
2.3800000000
71
5
1

7
Standard
11
1.0000000000
21
0.0000000000
31
0.0000000000
73
2
44
1.0000000000
1001
DSTP_XDATA
1002
{
1000
_OWNERHANDLE=0000000064
1002
}
0
MTEXT
5
4F
100
AcDbEntity
8
0
62
0
100
AcDbMText
6
ByLayer
10
19.7400000000
20
-0.2279884643
30
0.0000000000
40
0.2500000000
41
12.3800000000
71
5
1

7
newtext
11
1.0000000000
21
0.0000000000
31
0.0000000000
73
2
44
1.0000000000
1001
DSTP_XDATA
1002
{
1000
_OWNERHANDLE=0000000064
1002
}
0
MTEXT
5
50
100
AcDbEntity
8
0
62
0
100
AcDbMText
6
ByLayer
10
14.7400000000
20
-0.6359769286
30
0.0000000000
40
0.1800000000
41
2.3800000000
71
5
1

7
Standard
11
1.0000000000
21
0.0000000000
31
0.0000000000
73
2
44
1.0000000000
1001
DSTP_XDATA
1002
{
1000
_OWNERHANDLE=0000000064
1002
}
0
MTEXT
5
51
100
AcDbEntity
8
0
62
0
100
AcDbMText
6
ByLayer
10
17.2400000000
20
-0.6359769286
30
0.0000000000
40
0.1800000000
41
2.3800000000
71
5
1

7
Standard
11
1.0000000000
21
0.0000000000
31
0.0000000000
73
2
44
1.0000000000
1001
DSTP_XDATA
1002
{
1000
_OWNERHANDLE=0000000064
1002
}
0
MTEXT
5
52
100
AcDbEntity
8
0
62
0
100
AcDbMText
6
ByLayer
10
19.7400000000
20
-0.6359769286
30
0.0000000000
40
0.1800000000
41
2.3800000000
71
5
1

7
Standard
11
1.0000000000
21
0.0000000000
31
0.0000000000
73
2
44
1.0000000000
1001
DSTP_XDATA
1002
{
1000
_OWNERHANDLE=0000000064
1002
}
0
MTEXT
5
53
100
AcDbEntity
8
0
62
0
100
AcDbMText
6
ByLayer
10
22.2400000000
20
-0.6359769286
30
0.0000000000
40
0.1800000000
41
2.3800000000
71
5
1

7
Standard
11
1.0000000000
21
0.0000000000
31
0.0000000000
73
2
44
1.0000000000
1001
DSTP_XDATA
1002
{
1000
_OWNERHANDLE=0000000064
1002
}
0
MTEXT
5
54
100
AcDbEntity
8
0
62
0
100
AcDbMText
6
ByLayer
10
24.7400000000
20
-0.6359769286
30
0.0000000000
40
0.1800000000
41
2.3800000000
71
5
1

7
Standard
11
1.0000000000
21
0.0000000000
31
0.0000000000
73
2
44
1.0000000000
1001
DSTP_XDATA
1002
{
1000
_OWNERHANDLE=0000000064
1002
}
0
MTEXT
5
55
100
AcDbEntity
8
0
62
0
100
AcDbMText
6
ByLayer
10
15.9300000000
20
-0.8759769286
30
0.0000000000
40
0.1800000000
41
2.3800000000
71
3
1

7
newtext
11
1.0000000000
21
0.0000000000
31
0.0000000000
73
2
44
1.0000000000
1001
DSTP_XDATA
1002
{
1000
_OWNERHANDLE=0000000064
1002
}
0
MTEXT
5
56
100
AcDbEntity
8
0
62
0
100
AcDbMText
6
ByLayer
10
18.4300000000
20
-0.8759769286
30
0.0000000000
40
0.1800000000
41
2.3800000000
71
3
1

7
newtext
11
1.0000000000
21
0.0000000000
31
0.0000000000
73
2
44
1.0000000000
1001
DSTP_XDATA
1002
{
1000
_OWNERHANDLE=0000000064
1002
}
0
MTEXT
5
57
100
AcDbEntity
8
0
62
0
100
AcDbMText
6
ByLayer
10
20.9300000000
20
-0.8759769286
30
0.0000000000
40
0.1800000000
41
2.3800000000
71
3
1

7
newtext
11
1.0000000000
21
0.0000000000
31
0.0000000000
73
2
44
1.0000000000
1001
DSTP_XDATA
1002
{
1000
_OWNERHANDLE=0000000064
1002
}
0
MTEXT
5
58
100
AcDbEntity
8
0
62
0
100
AcDbMText
6
ByLayer
10
23.4300000000
20
-0.8759769286
30
0.0000000000
40
0.1800000000
41
2.3800000000
71
3
1

7
newtext
11
1.0000000000
21
0.0000000000
31
0.0000000000
73
2
44
1.0000000000
1001
DSTP_XDATA
1002
{
1000
_OWNERHANDLE=0000000064
1002
}
0
MTEXT
5
59
100
AcDbEntity
8
0
62
0
100
AcDbMText
6
ByLayer
10
25.9300000000
20
-0.8759769286
30
0.0000000000
40
0.1800000000
41
2.3800000000
71
3
1

7
newtext
11
1.0000000000
21
0.0000000000
31
0.0000000000
73
2
44
1.0000000000
1001
DSTP_XDATA
1002
{
1000
_OWNERHANDLE=0000000064
1002
}
0
MTEXT
5
5A
100
AcDbEntity
8
0
62
0
100
AcDbMText
6
ByLayer
10
33.2300000000
20
-0.2279884643
30
0.0000000000
40
0.2500000000
41
12.3800000000
71
5
1

7
newtext
11
1.0000000000
21
0.0000000000
31
0.0000000000
73
2
44
1.0000000000
1001
DSTP_XDATA
1002
{
1000
_OWNERHANDLE=0000000064
1002
}
0
MTEXT
5
5B
100
AcDbEntity
8
0
62
0
100
AcDbMText
6
ByLayer
10
28.2300000000
20
-0.6359769286
30
0.0000000000
40
0.1800000000
41
2.3800000000
71
5
1

7
Standard
11
1.0000000000
21
0.0000000000
31
0.0000000000
73
2
44
1.0000000000
1001
DSTP_XDATA
1002
{
1000
_OWNERHANDLE=0000000064
1002
}
0
MTEXT
5
5C
100
AcDbEntity
8
0
62
0
100
AcDbMText
6
ByLayer
10
30.7300000000
20
-0.6359769286
30
0.0000000000
40
0.1800000000
41
2.3800000000
71
5
1

7
Standard
11
1.0000000000
21
0.0000000000
31
0.0000000000
73
2
44
1.0000000000
1001
DSTP_XDATA
1002
{
1000
_OWNERHANDLE=0000000064
1002
}
0
MTEXT
5
5D
100
AcDbEntity
8
0
62
0
100
AcDbMText
6
ByLayer
10
33.2300000000
20
-0.6359769286
30
0.0000000000
40
0.1800000000
41
2.3800000000
71
5
1

7
Standard
11
1.0000000000
21
0.0000000000
31
0.0000000000
73
2
44
1.0000000000
1001
DSTP_XDATA
1002
{
1000
_OWNERHANDLE=0000000064
1002
}
0
MTEXT
5
5E
100
AcDbEntity
8
0
62
0
100
AcDbMText
6
ByLayer
10
35.7300000000
20
-0.6359769286
30
0.0000000000
40
0.1800000000
41
2.3800000000
71
5
1

7
Standard
11
1.0000000000
21
0.0000000000
31
0.0000000000
73
2
44
1.0000000000
1001
DSTP_XDATA
1002
{
1000
_OWNERHANDLE=0000000064
1002
}
0
MTEXT
5
5F
100
AcDbEntity
8
0
62
0
100
AcDbMText
6
ByLayer
10
38.2300000000
20
-0.6359769286
30
0.0000000000
40
0.1800000000
41
2.3800000000
71
5
1

7
Standard
11
1.0000000000
21
0.0000000000
31
0.0000000000
73
2
44
1.0000000000
1001
DSTP_XDATA
1002
{
1000
_OWNERHANDLE=0000000064
1002
}
0
MTEXT
5
60
100
AcDbEntity
8
0
62
0
100
AcDbMText
6
ByLayer
10
46.7200000000
20
-0.2279884643
30
0.0000000000
40
0.2500000000
41
12.3800000000
71
5
1

7
newtext
11
1.0000000000
21
0.0000000000
31
0.0000000000
73
2
44
1.0000000000
1001
DSTP_XDATA
1002
{
1000
_OWNERHANDLE=0000000064
1002
}
0
MTEXT
5
61
100
AcDbEntity
8
0
62
0
100
AcDbMText
6
ByLayer
10
41.7200000000
20
-0.6359769286
30
0.0000000000
40
0.1800000000
41
2.3800000000
71
5
1

7
Standard
11
1.0000000000
21
0.0000000000
31
0.0000000000
73
2
44
1.0000000000
1001
DSTP_XDATA
1002
{
1000
_OWNERHANDLE=0000000064
1002
}
0
MTEXT
5
62
100
AcDbEntity
8
0
62
0
100
AcDbMText
6
ByLayer
10
44.2200000000
20
-0.6359769286
30
0.0000000000
40
0.1800000000
41
2.3800000000
71
5
1

7
Standard
11
1.0000000000
21
0.0000000000
31
0.0000000000
73
2
44
1.0000000000
1001
DSTP_XDATA
1002
{
1000
_OWNERHANDLE=0000000064
1002
}
0
MTEXT
5
63
100
AcDbEntity
8
0
62
0
100
AcDbMText
6
ByLayer
10
46.7200000000
20
-0.6359769286
30
0.0000000000
40
0.1800000000
41
2.3800000000
71
5
1

7
Standard
11
1.0000000000
21
0.0000000000
31
0.0000000000
73
2
44
1.0000000000
1001
DSTP_XDATA
1002
{
1000
_OWNERHANDLE=0000000064
1002
}
0
MTEXT
5
64
100
AcDbEntity
8
0
62
0
100
AcDbMText
6
ByLayer
10
49.2200000000
20
-0.6359769286
30
0.0000000000
40
0.1800000000
41
2.3800000000
71
5
1

7
Standard
11
1.0000000000
21
0.0000000000
31
0.0000000000
73
2
44
1.0000000000
1001
DSTP_XDATA
1002
{
1000
_OWNERHANDLE=0000000064
1002
}
0
MTEXT
5
65
100
AcDbEntity
8
0
62
0
100
AcDbMText
6
ByLayer
10
51.7200000000
20
-0.6359769286
30
0.0000000000
40
0.1800000000
41
2.3800000000
71
5
1

7
Standard
11
1.0000000000
21
0.0000000000
31
0.0000000000
73
2
44
1.0000000000
1001
DSTP_XDATA
1002
{
1000
_OWNERHANDLE=0000000064
1002
}
0
MTEXT
5
66
100
AcDbEntity
8
0
62
0
100
AcDbMText
6
ByLayer
10
60.2100000000
20
-0.2279884643
30
0.0000000000
40
0.2500000000
41
12.3800000000
71
5
1

7
newtext
11
1.0000000000
21
0.0000000000
31
0.0000000000
73
2
44
1.0000000000
1001
DSTP_XDATA
1002
{
1000
_OWNERHANDLE=0000000064
1002
}
0
MTEXT
5
67
100
AcDbEntity
8
0
62
0
100
AcDbMText
6
ByLayer
10
55.2100000000
20
-0.6359769286
30
0.0000000000
40
0.1800000000
41
2.3800000000
71
5
1

7
Standard
11
1.0000000000
21
0.0000000000
31
0.0000000000
73
2
44
1.0000000000
1001
DSTP_XDATA
1002
{
1000
_OWNERHANDLE=0000000064
1002
}
0
MTEXT
5
68
100
AcDbEntity
8
0
62
0
100
AcDbMText
6
ByLayer
10
57.7100000000
20
-0.6359769286
30
0.0000000000
40
0.1800000000
41
2.3800000000
71
5
1

7
Standard
11
1.0000000000
21
0.0000000000
31
0.0000000000
73
2
44
1.0000000000
1001
DSTP_XDATA
1002
{
1000
_OWNERHANDLE=0000000064
1002
}
0
MTEXT
5
69
100
AcDbEntity
8
0
62
0
100
AcDbMText
6
ByLayer
10
60.2100000000
20
-0.6359769286
30
0.0000000000
40
0.1800000000
41
2.3800000000
71
5
1

7
Standard
11
1.0000000000
21
0.0000000000
31
0.0000000000
73
2
44
1.0000000000
1001
DSTP_XDATA
1002
{
1000
_OWNERHANDLE=0000000064
1002
}
0
MTEXT
5
6A
100
AcDbEntity
8
0
62
0
100
AcDbMText
6
ByLayer
10
62.7100000000
20
-0.6359769286
30
0.0000000000
40
0.1800000000
41
2.3800000000
71
5
1

7
Standard
11
1.0000000000
21
0.0000000000
31
0.0000000000
73
2
44
1.0000000000
1001
DSTP_XDATA
1002
{
1000
_OWNERHANDLE=0000000064
1002
}
0
MTEXT
5
6B
100
AcDbEntity
8
0
62
0
100
AcDbMText
6
ByLayer
10
65.2100000000
20
-0.6359769286
30
0.0000000000
40
0.1800000000
41
2.3800000000
71
5
1

7
Standard
11
1.0000000000
21
0.0000000000
31
0.0000000000
73
2
44
1.0000000000
1001
DSTP_XDATA
1002
{
1000
_OWNERHANDLE=0000000064
1002
}
0
LINE
5
6C
100
AcDbEntity
8
0
62
0
370
-2
100
AcDbLine
6
ByBlock
10
0.0000000000
20
0.0000000000
30
0.0000000000
11
12.5000000000
21
0.0000000000
31
0.0000000000
1001
DSTP_XDATA
1002
{
1000
_OWNERHANDLE=0000000064
1002
}
0
LINE
5
6D
100
AcDbEntity
8
0
62
0
370
-2
100
AcDbLine
6
ByBlock
10
0.0000000000
20
-0.4559769286
30
0.0000000000
11
12.5000000000
21
-0.4559769286
31
0.0000000000
1001
DSTP_XDATA
1002
{
1000
_OWNERHANDLE=0000000064
1002
}
0
LINE
5
6E
100
AcDbEntity
8
0
62
0
370
-2
100
AcDbLine
6
ByBlock
10
0.0000000000
20
-0.8159769286
30
0.0000000000
11
12.5000000000
21
-0.8159769286
31
0.0000000000
1001
DSTP_XDATA
1002
{
1000
_OWNERHANDLE=0000000064
1002
}
0
LINE
5
6F
100
AcDbEntity
8
0
62
0
370
-2
100
AcDbLine
6
ByBlock
10
0.0000000000
20
-1.1759769286
30
0.0000000000
11
12.5000000000
21
-1.1759769286
31
0.0000000000
1001
DSTP_XDATA
1002
{
1000
_OWNERHANDLE=0000000064
1002
}
0
LINE
5
70
100
AcDbEntity
8
0
62
0
370
-2
100
AcDbLine
6
ByBlock
10
0.0000000000
20
-1.5359769286
30
0.0000000000
11
12.5000000000
21
-1.5359769286
31
0.0000000000
1001
DSTP_XDATA
1002
{
1000
_OWNERHANDLE=0000000064
1002
}
0
LINE
5
71
100
AcDbEntity
8
0
62
0
370
-2
100
AcDbLine
6
ByBlock
10
0.0000000000
20
-1.8959769286
30
0.0000000000
11
12.5000000000
21
-1.8959769286
31
0.0000000000
1001
DSTP_XDATA
1002
{
1000
_OWNERHANDLE=0000000064
1002
}
0
LINE
5
72
100
AcDbEntity
8
0
62
0
370
-2
100
AcDbLine
6
ByBlock
10
0.0000000000
20
0.0000000000
30
0.0000000000
11
0.0000000000
21
-1.8959769286
31
0.0000000000
1001
DSTP_XDATA
1002
{
1000
_OWNERHANDLE=0000000064
1002
}
0
LINE
5
73
100
AcDbEntity
8
0
62
0
370
-2
100
AcDbLine
6
ByBlock
10
2.5000000000
20
-0.4559769286
30
0.0000000000
11
2.5000000000
21
-1.8959769286
31
0.0000000000
1001
DSTP_XDATA
1002
{
1000
_OWNERHANDLE=0000000064
1002
}
0
LINE
5
74
100
AcDbEntity
8
0
62
0
370
-2
100
AcDbLine
6
ByBlock
10
5.0000000000
20
-0.4559769286
30
0.0000000000
11
5.0000000000
21
-1.8959769286
31
0.0000000000
1001
DSTP_XDATA
1002
{
1000
_OWNERHANDLE=0000000064
1002
}
0
LINE
5
75
100
AcDbEntity
8
0
62
0
370
-2
100
AcDbLine
6
ByBlock
10
7.5000000000
20
-0.4559769286
30
0.0000000000
11
7.5000000000
21
-1.8959769286
31
0.0000000000
1001
DSTP_XDATA
1002
{
1000
_OWNERHANDLE=0000000064
1002
}
0
LINE
5
76
100
AcDbEntity
8
0
62
0
370
-2
100
AcDbLine
6
ByBlock
10
10.0000000000
20
-0.4559769286
30
0.0000000000
11
10.0000000000
21
-1.8959769286
31
0.0000000000
1001
DSTP_XDATA
1002
{
1000
_OWNERHANDLE=0000000064
1002
}
0
LINE
5
77
100
AcDbEntity
8
0
62
0
370
-2
100
AcDbLine
6
ByBlock
10
12.5000000000
20
0.0000000000
30
0.0000000000
11
12.5000000000
21
-1.8959769286
31
0.0000000000
1001
DSTP_XDATA
1002
{
1000
_OWNERHANDLE=0000000064
1002
}
0
LINE
5
78
100
AcDbEntity
8
Defpoints
62
8
370
0
100
AcDbLine
6
ByLayer
10
0.0000000000
20
0.0000000000
30
0.0000000000
11
0.0000000000
21
0.0000000000
31
0.0000000000
1001
DSTP_XDATA
1002
{
1000
_OWNERHANDLE=0000000064
1002
}
0
LINE
5
79
100
AcDbEntity
8
0
62
0
370
-2
100
AcDbLine
6
ByBlock
10
13.4900000000
20
0.0000000000
30
0.0000000000
11
25.9900000000
21
0.0000000000
31
0.0000000000
1001
DSTP_XDATA
1002
{
1000
_OWNERHANDLE=0000000064
1002
}
0
LINE
5
7A
100
AcDbEntity
8
0
62
0
370
-2
100
AcDbLine
6
ByBlock
10
13.4900000000
20
-0.4559769286
30
0.0000000000
11
25.9900000000
21
-0.4559769286
31
0.0000000000
1001
DSTP_XDATA
1002
{
1000
_OWNERHANDLE=0000000064
1002
}
0
LINE
5
7B
100
AcDbEntity
8
0
62
0
370
-2
100
AcDbLine
6
ByBlock
10
13.4900000000
20
-0.8159769286
30
0.0000000000
11
25.9900000000
21
-0.8159769286
31
0.0000000000
1001
DSTP_XDATA
1002
{
1000
_OWNERHANDLE=0000000064
1002
}
0
LINE
5
7C
100
AcDbEntity
8
0
62
0
370
-2
100
AcDbLine
6
ByBlock
10
13.4900000000
20
-1.1759769286
30
0.0000000000
11
25.9900000000
21
-1.1759769286
31
0.0000000000
1001
DSTP_XDATA
1002
{
1000
_OWNERHANDLE=0000000064
1002
}
0
LINE
5
7D
100
AcDbEntity
8
0
62
0
370
-2
100
AcDbLine
6
ByBlock
10
13.4900000000
20
-1.5359769286
30
0.0000000000
11
25.9900000000
21
-1.5359769286
31
0.0000000000
1001
DSTP_XDATA
1002
{
1000
_OWNERHANDLE=0000000064
1002
}
0
LINE
5
7E
100
AcDbEntity
8
0
62
0
370
-2
100
AcDbLine
6
ByBlock
10
13.4900000000
20
0.0000000000
30
0.0000000000
11
13.4900000000
21
-1.5359769286
31
0.0000000000
1001
DSTP_XDATA
1002
{
1000
_OWNERHANDLE=0000000064
1002
}
0
LINE
5
7F
100
AcDbEntity
8
0
62
0
370
-2
100
AcDbLine
6
ByBlock
10
15.9900000000
20
-0.4559769286
30
0.0000000000
11
15.9900000000
21
-1.5359769286
31
0.0000000000
1001
DSTP_XDATA
1002
{
1000
_OWNERHANDLE=0000000064
1002
}
0
LINE
5
80
100
AcDbEntity
8
0
62
0
370
-2
100
AcDbLine
6
ByBlock
10
18.4900000000
20
-0.4559769286
30
0.0000000000
11
18.4900000000
21
-1.5359769286
31
0.0000000000
1001
DSTP_XDATA
1002
{
1000
_OWNERHANDLE=0000000064
1002
}
0
LINE
5
81
100
AcDbEntity
8
0
62
0
370
-2
100
AcDbLine
6
ByBlock
10
20.9900000000
20
-0.4559769286
30
0.0000000000
11
20.9900000000
21
-1.5359769286
31
0.0000000000
1001
DSTP_XDATA
1002
{
1000
_OWNERHANDLE=0000000064
1002
}
0
LINE
5
82
100
AcDbEntity
8
0
62
0
370
-2
100
AcDbLine
6
ByBlock
10
23.4900000000
20
-0.4559769286
30
0.0000000000
11
23.4900000000
21
-1.5359769286
31
0.0000000000
1001
DSTP_XDATA
1002
{
1000
_OWNERHANDLE=0000000064
1002
}
0
LINE
5
83
100
AcDbEntity
8
0
62
0
370
-2
100
AcDbLine
6
ByBlock
10
25.9900000000
20
0.0000000000
30
0.0000000000
11
25.9900000000
21
-1.5359769286
31
0.0000000000
1001
DSTP_XDATA
1002
{
1000
_OWNERHANDLE=0000000064
1002
}
0
LINE
5
84
100
AcDbEntity
8
Defpoints
62
8
370
0
100
AcDbLine
6
ByLayer
10
0.0000000000
20
0.0000000000
30
0.0000000000
11
0.0000000000
21
0.0000000000
31
0.0000000000
1001
DSTP_XDATA
1002
{
1000
_OWNERHANDLE=0000000064
1002
}
0
LINE
5
85
100
AcDbEntity
8
0
62
0
370
-2
100
AcDbLine
6
ByBlock
10
26.9800000000
20
0.0000000000
30
0.0000000000
11
39.4800000000
21
0.0000000000
31
0.0000000000
1001
DSTP_XDATA
1002
{
1000
_OWNERHANDLE=0000000064
1002
}
0
LINE
5
86
100
AcDbEntity
8
0
62
0
370
-2
100
AcDbLine
6
ByBlock
10
26.9800000000
20
-0.4559769286
30
0.0000000000
11
39.4800000000
21
-0.4559769286
31
0.0000000000
1001
DSTP_XDATA
1002
{
1000
_OWNERHANDLE=0000000064
1002
}
0
LINE
5
87
100
AcDbEntity
8
0
62
0
370
-2
100
AcDbLine
6
ByBlock
10
26.9800000000
20
-0.8159769286
30
0.0000000000
11
39.4800000000
21
-0.8159769286
31
0.0000000000
1001
DSTP_XDATA
1002
{
1000
_OWNERHANDLE=0000000064
1002
}
0
LINE
5
88
100
AcDbEntity
8
0
62
0
370
-2
100
AcDbLine
6
ByBlock
10
26.9800000000
20
-1.1759769286
30
0.0000000000
11
39.4800000000
21
-1.1759769286
31
0.0000000000
1001
DSTP_XDATA
1002
{
1000
_OWNERHANDLE=0000000064
1002
}
0
LINE
5
89
100
AcDbEntity
8
0
62
0
370
-2
100
AcDbLine
6
ByBlock
10
26.9800000000
20
0.0000000000
30
0.0000000000
11
26.9800000000
21
-1.1759769286
31
0.0000000000
1001
DSTP_XDATA
1002
{
1000
_OWNERHANDLE=0000000064
1002
}
0
LINE
5
8A
100
AcDbEntity
8
0
62
0
370
-2
100
AcDbLine
6
ByBlock
10
29.4800000000
20
-0.4559769286
30
0.0000000000
11
29.4800000000
21
-1.1759769286
31
0.0000000000
1001
DSTP_XDATA
1002
{
1000
_OWNERHANDLE=0000000064
1002
}
0
LINE
5
8B
100
AcDbEntity
8
0
62
0
370
-2
100
AcDbLine
6
ByBlock
10
31.9800000000
20
-0.4559769286
30
0.0000000000
11
31.9800000000
21
-1.1759769286
31
0.0000000000
1001
DSTP_XDATA
1002
{
1000
_OWNERHANDLE=0000000064
1002
}
0
LINE
5
8C
100
AcDbEntity
8
0
62
0
370
-2
100
AcDbLine
6
ByBlock
10
34.4800000000
20
-0.4559769286
30
0.0000000000
11
34.4800000000
21
-1.1759769286
31
0.0000000000
1001
DSTP_XDATA
1002
{
1000
_OWNERHANDLE=0000000064
1002
}
0
LINE
5
8D
100
AcDbEntity
8
0
62
0
370
-2
100
AcDbLine
6
ByBlock
10
36.9800000000
20
-0.4559769286
30
0.0000000000
11
36.9800000000
21
-1.1759769286
31
0.0000000000
1001
DSTP_XDATA
1002
{
1000
_OWNERHANDLE=0000000064
1002
}
0
LINE
5
8E
100
AcDbEntity
8
0
62
0
370
-2
100
AcDbLine
6
ByBlock
10
39.4800000000
20
0.0000000000
30
0.0000000000
11
39.4800000000
21
-1.1759769286
31
0.0000000000
1001
DSTP_XDATA
1002
{
1000
_OWNERHANDLE=0000000064
1002
}
0
LINE
5
8F
100
AcDbEntity
8
Defpoints
62
8
370
0
100
AcDbLine
6
ByLayer
10
0.0000000000
20
0.0000000000
30
0.0000000000
11
0.0000000000
21
0.0000000000
31
0.0000000000
1001
DSTP_XDATA
1002
{
1000
_OWNERHANDLE=0000000064
1002
}
0
LINE
5
90
100
AcDbEntity
8
0
62
0
370
-2
100
AcDbLine
6
ByBlock
10
40.4700000000
20
0.0000000000
30
0.0000000000
11
52.9700000000
21
0.0000000000
31
0.0000000000
1001
DSTP_XDATA
1002
{
1000
_OWNERHANDLE=0000000064
1002
}
0
LINE
5
91
100
AcDbEntity
8
0
62
0
370
-2
100
AcDbLine
6
ByBlock
10
40.4700000000
20
-0.4559769286
30
0.0000000000
11
52.9700000000
21
-0.4559769286
31
0.0000000000
1001
DSTP_XDATA
1002
{
1000
_OWNERHANDLE=0000000064
1002
}
0
LINE
5
92
100
AcDbEntity
8
0
62
0
370
-2
100
AcDbLine
6
ByBlock
10
40.4700000000
20
-0.8159769286
30
0.0000000000
11
52.9700000000
21
-0.8159769286
31
0.0000000000
1001
DSTP_XDATA
1002
{
1000
_OWNERHANDLE=0000000064
1002
}
0
LINE
5
93
100
AcDbEntity
8
0
62
0
370
-2
100
AcDbLine
6
ByBlock
10
40.4700000000
20
-1.1759769286
30
0.0000000000
11
52.9700000000
21
-1.1759769286
31
0.0000000000
1001
DSTP_XDATA
1002
{
1000
_OWNERHANDLE=0000000064
1002
}
0
LINE
5
94
100
AcDbEntity
8
0
62
0
370
-2
100
AcDbLine
6
ByBlock
10
40.4700000000
20
0.0000000000
30
0.0000000000
11
40.4700000000
21
-1.1759769286
31
0.0000000000
1001
DSTP_XDATA
1002
{
1000
_OWNERHANDLE=0000000064
1002
}
0
LINE
5
95
100
AcDbEntity
8
0
62
0
370
-2
100
AcDbLine
6
ByBlock
10
42.9700000000
20
-0.4559769286
30
0.0000000000
11
42.9700000000
21
-1.1759769286
31
0.0000000000
1001
DSTP_XDATA
1002
{
1000
_OWNERHANDLE=0000000064
1002
}
0
LINE
5
96
100
AcDbEntity
8
0
62
0
370
-2
100
AcDbLine
6
ByBlock
10
45.4700000000
20
-0.4559769286
30
0.0000000000
11
45.4700000000
21
-1.1759769286
31
0.0000000000
1001
DSTP_XDATA
1002
{
1000
_OWNERHANDLE=0000000064
1002
}
0
LINE
5
97
100
AcDbEntity
8
0
62
0
370
-2
100
AcDbLine
6
ByBlock
10
47.9700000000
20
-0.4559769286
30
0.0000000000
11
47.9700000000
21
-1.1759769286
31
0.0000000000
1001
DSTP_XDATA
1002
{
1000
_OWNERHANDLE=0000000064
1002
}
0
LINE
5
98
100
AcDbEntity
8
0
62
0
370
-2
100
AcDbLine
6
ByBlock
10
50.4700000000
20
-0.4559769286
30
0.0000000000
11
50.4700000000
21
-1.1759769286
31
0.0000000000
1001
DSTP_XDATA
1002
{
1000
_OWNERHANDLE=0000000064
1002
}
0
LINE
5
99
100
AcDbEntity
8
0
62
0
370
-2
100
AcDbLine
6
ByBlock
10
52.9700000000
20
0.0000000000
30
0.0000000000
11
52.9700000000
21
-1.1759769286
31
0.0000000000
1001
DSTP_XDATA
1002
{
1000
_OWNERHANDLE=0000000064
1002
}
0
LINE
5
9A
100
AcDbEntity
8
Defpoints
62
8
370
0
100
AcDbLine
6
ByLayer
10
0.0000000000
20
0.0000000000
30
0.0000000000
11
0.0000000000
21
0.0000000000
31
0.0000000000
1001
DSTP_XDATA
1002
{
1000
_OWNERHANDLE=0000000064
1002
}
0
LINE
5
9B
100
AcDbEntity
8
0
62
0
370
-2
100
AcDbLine
6
ByBlock
10
53.9600000000
20
0.0000000000
30
0.0000000000
11
66.4600000000
21
0.0000000000
31
0.0000000000
1001
DSTP_XDATA
1002
{
1000
_OWNERHANDLE=0000000064
1002
}
0
LINE
5
9C
100
AcDbEntity
8
0
62
0
370
-2
100
AcDbLine
6
ByBlock
10
53.9600000000
20
-0.4559769286
30
0.0000000000
11
66.4600000000
21
-0.4559769286
31
0.0000000000
1001
DSTP_XDATA
1002
{
1000
_OWNERHANDLE=0000000064
1002
}
0
LINE
5
9D
100
AcDbEntity
8
0
62
0
370
-2
100
AcDbLine
6
ByBlock
10
53.9600000000
20
-0.8159769286
30
0.0000000000
11
66.4600000000
21
-0.8159769286
31
0.0000000000
1001
DSTP_XDATA
1002
{
1000
_OWNERHANDLE=0000000064
1002
}
0
LINE
5
9E
100
AcDbEntity
8
0
62
0
370
-2
100
AcDbLine
6
ByBlock
10
53.9600000000
20
-1.1759769286
30
0.0000000000
11
66.4600000000
21
-1.1759769286
31
0.0000000000
1001
DSTP_XDATA
1002
{
1000
_OWNERHANDLE=0000000064
1002
}
0
LINE
5
9F
100
AcDbEntity
8
0
62
0
370
-2
100
AcDbLine
6
ByBlock
10
53.9600000000
20
0.0000000000
30
0.0000000000
11
53.9600000000
21
-1.1759769286
31
0.0000000000
1001
DSTP_XDATA
1002
{
1000
_OWNERHANDLE=0000000064
1002
}
0
LINE
5
A0
100
AcDbEntity
8
0
62
0
370
-2
100
AcDbLine
6
ByBlock
10
56.4600000000
20
-0.4559769286
30
0.0000000000
11
56.4600000000
21
-1.1759769286
31
0.0000000000
1001
DSTP_XDATA
1002
{
1000
_OWNERHANDLE=0000000064
1002
}
0
LINE
5
A1
100
AcDbEntity
8
0
62
0
370
-2
100
AcDbLine
6
ByBlock
10
58.9600000000
20
-0.4559769286
30
0.0000000000
11
58.9600000000
21
-1.1759769286
31
0.0000000000
1001
DSTP_XDATA
1002
{
1000
_OWNERHANDLE=0000000064
1002
}
0
LINE
5
A2
100
AcDbEntity
8
0
62
0
370
-2
100
AcDbLine
6
ByBlock
10
61.4600000000
20
-0.4559769286
30
0.0000000000
11
61.4600000000
21
-1.1759769286
31
0.0000000000
1001
DSTP_XDATA
1002
{
1000
_OWNERHANDLE=0000000064
1002
}
0
LINE
5
A3
100
AcDbEntity
8
0
62
0
370
-2
100
AcDbLine
6
ByBlock
10
63.9600000000
20
-0.4559769286
30
0.0000000000
11
63.9600000000
21
-1.1759769286
31
0.0000000000
1001
DSTP_XDATA
1002
{
1000
_OWNERHANDLE=0000000064
1002
}
0
LINE
5
A4
100
AcDbEntity
8
0
62
0
370
-2
100
AcDbLine
6
ByBlock
10
66.4600000000
20
0.0000000000
30
0.0000000000
11
66.4600000000
21
-1.1759769286
31
0.0000000000
1001
DSTP_XDATA
1002
{
1000
_OWNERHANDLE=0000000064
1002
}
0
LINE
5
A5
100
AcDbEntity
8
Defpoints
62
8
370
0
100
AcDbLine
6
ByLayer
10
0.0000000000
20
0.0000000000
30
0.0000000000
11
0.0000000000
21
0.0000000000
31
0.0000000000
1001
DSTP_XDATA
1002
{
1000
_OWNERHANDLE=0000000064
1002
}
0
ENDBLK
5
A6
100
AcDbEntity
8
0
100
AcDbBlockEnd
1001
DSTP_XDATA
1002
{
1002
}
0
BLOCK
5
A7
100
AcDbEntity
8
0
100
AcDbBlockBegin
2
*T2
70
2
10
0
20
0
30
0
3
*T2
1

0
ENDBLK
5
A8
100
AcDbEntity
8
0
100
AcDbBlockEnd
1001
DSTP_XDATA
1002
{
1002
}
0
BLOCK
5
A9
100
AcDbEntity
8
0
100
AcDbBlockBegin
2
*T3
70
2
10
0
20
0
30
0
3
*T3
1

0
ENDBLK
5
AA
100
AcDbEntity
8
0
100
AcDbBlockEnd
1001
DSTP_XDATA
1002
{
1002
}
0
BLOCK
5
AB
100
AcDbEntity
8
0
100
AcDbBlockBegin
2
*T4
70
2
10
0
20
0
30
0
3
*T4
1

0
MTEXT
5
AC
100
AcDbEntity
8
0
62
0
100
AcDbMText
6
ByLayer
10
6.2500000000
20
-0.2279884643
30
0.0000000000
40
0.2500000000
41
12.3800000000
71
5
1

7
newtext
11
1.0000000000
21
0.0000000000
31
0.0000000000
73
2
44
1.0000000000
1001
DSTP_XDATA
1002
{
1000
_OWNERHANDLE=0000000064
1002
}
0
MTEXT
5
AD
100
AcDbEntity
8
0
62
0
100
AcDbMText
6
ByLayer
10
1.2500000000
20
-0.6359769286
30
0.0000000000
40
0.1800000000
41
2.3800000000
71
5
1

7
Standard
11
1.0000000000
21
0.0000000000
31
0.0000000000
73
2
44
1.0000000000
1001
DSTP_XDATA
1002
{
1000
_OWNERHANDLE=0000000064
1002
}
0
MTEXT
5
AE
100
AcDbEntity
8
0
62
0
100
AcDbMText
6
ByLayer
10
3.7500000000
20
-0.6359769286
30
0.0000000000
40
0.1800000000
41
2.3800000000
71
5
1

7
Standard
11
1.0000000000
21
0.0000000000
31
0.0000000000
73
2
44
1.0000000000
1001
DSTP_XDATA
1002
{
1000
_OWNERHANDLE=0000000064
1002
}
0
MTEXT
5
AF
100
AcDbEntity
8
0
62
0
100
AcDbMText
6
ByLayer
10
6.2500000000
20
-0.6359769286
30
0.0000000000
40
0.1800000000
41
2.3800000000
71
5
1

7
Standard
11
1.0000000000
21
0.0000000000
31
0.0000000000
73
2
44
1.0000000000
1001
DSTP_XDATA
1002
{
1000
_OWNERHANDLE=0000000064
1002
}
0
MTEXT
5
B0
100
AcDbEntity
8
0
62
0
100
AcDbMText
6
ByLayer
10
8.7500000000
20
-0.6359769286
30
0.0000000000
40
0.1800000000
41
2.3800000000
71
5
1

7
Standard
11
1.0000000000
21
0.0000000000
31
0.0000000000
73
2
44
1.0000000000
1001
DSTP_XDATA
1002
{
1000
_OWNERHANDLE=0000000064
1002
}
0
MTEXT
5
B1
100
AcDbEntity
8
0
62
0
100
AcDbMText
6
ByLayer
10
11.2500000000
20
-0.6359769286
30
0.0000000000
40
0.1800000000
41
2.3800000000
71
5
1

7
Standard
11
1.0000000000
21
0.0000000000
31
0.0000000000
73
2
44
1.0000000000
1001
DSTP_XDATA
1002
{
1000
_OWNERHANDLE=0000000064
1002
}
0
MTEXT
5
B2
100
AcDbEntity
8
0
62
0
100
AcDbMText
6
ByLayer
10
2.4400000000
20
-0.8759769286
30
0.0000000000
40
0.1800000000
41
2.3800000000
71
3
1

7
newtext
11
1.0000000000
21
0.0000000000
31
0.0000000000
73
2
44
1.0000000000
1001
DSTP_XDATA
1002
{
1000
_OWNERHANDLE=0000000064
1002
}
0
MTEXT
5
B3
100
AcDbEntity
8
0
62
0
100
AcDbMText
6
ByLayer
10
4.9400000000
20
-0.8759769286
30
0.0000000000
40
0.1800000000
41
2.3800000000
71
3
1

7
newtext
11
1.0000000000
21
0.0000000000
31
0.0000000000
73
2
44
1.0000000000
1001
DSTP_XDATA
1002
{
1000
_OWNERHANDLE=0000000064
1002
}
0
MTEXT
5
B4
100
AcDbEntity
8
0
62
0
100
AcDbMText
6
ByLayer
10
7.4400000000
20
-0.8759769286
30
0.0000000000
40
0.1800000000
41
2.3800000000
71
3
1

7
newtext
11
1.0000000000
21
0.0000000000
31
0.0000000000
73
2
44
1.0000000000
1001
DSTP_XDATA
1002
{
1000
_OWNERHANDLE=0000000064
1002
}
0
MTEXT
5
B5
100
AcDbEntity
8
0
62
0
100
AcDbMText
6
ByLayer
10
9.9400000000
20
-0.8759769286
30
0.0000000000
40
0.1800000000
41
2.3800000000
71
3
1

7
newtext
11
1.0000000000
21
0.0000000000
31
0.0000000000
73
2
44
1.0000000000
1001
DSTP_XDATA
1002
{
1000
_OWNERHANDLE=0000000064
1002
}
0
MTEXT
5
B6
100
AcDbEntity
8
0
62
0
100
AcDbMText
6
ByLayer
10
12.4400000000
20
-0.8759769286
30
0.0000000000
40
0.1800000000
41
2.3800000000
71
3
1

7
newtext
11
1.0000000000
21
0.0000000000
31
0.0000000000
73
2
44
1.0000000000
1001
DSTP_XDATA
1002
{
1000
_OWNERHANDLE=0000000064
1002
}
0
LINE
5
B7
100
AcDbEntity
8
0
62
0
370
-2
100
AcDbLine
6
ByBlock
10
0.0000000000
20
0.0000000000
30
0.0000000000
11
12.5000000000
21
0.0000000000
31
0.0000000000
1001
DSTP_XDATA
1002
{
1000
_OWNERHANDLE=0000000064
1002
}
0
LINE
5
B8
100
AcDbEntity
8
0
62
0
370
-2
100
AcDbLine
6
ByBlock
10
0.0000000000
20
-0.4559769286
30
0.0000000000
11
12.5000000000
21
-0.4559769286
31
0.0000000000
1001
DSTP_XDATA
1002
{
1000
_OWNERHANDLE=0000000064
1002
}
0
LINE
5
B9
100
AcDbEntity
8
0
62
0
370
-2
100
AcDbLine
6
ByBlock
10
0.0000000000
20
-0.8159769286
30
0.0000000000
11
12.5000000000
21
-0.8159769286
31
0.0000000000
1001
DSTP_XDATA
1002
{
1000
_OWNERHANDLE=0000000064
1002
}
0
LINE
5
BA
100
AcDbEntity
8
0
62
0
370
-2
100
AcDbLine
6
ByBlock
10
0.0000000000
20
-1.1759769286
30
0.0000000000
11
12.5000000000
21
-1.1759769286
31
0.0000000000
1001
DSTP_XDATA
1002
{
1000
_OWNERHANDLE=0000000064
1002
}
0
LINE
5
BB
100
AcDbEntity
8
0
62
0
370
-2
100
AcDbLine
6
ByBlock
10
0.0000000000
20
-1.5359769286
30
0.0000000000
11
12.5000000000
21
-1.5359769286
31
0.0000000000
1001
DSTP_XDATA
1002
{
1000
_OWNERHANDLE=0000000064
1002
}
0
LINE
5
BC
100
AcDbEntity
8
0
62
0
370
-2
100
AcDbLine
6
ByBlock
10
0.0000000000
20
0.0000000000
30
0.0000000000
11
0.0000000000
21
-1.5359769286
31
0.0000000000
1001
DSTP_XDATA
1002
{
1000
_OWNERHANDLE=0000000064
1002
}
0
LINE
5
BD
100
AcDbEntity
8
0
62
0
370
-2
100
AcDbLine
6
ByBlock
10
2.5000000000
20
-0.4559769286
30
0.0000000000
11
2.5000000000
21
-1.5359769286
31
0.0000000000
1001
DSTP_XDATA
1002
{
1000
_OWNERHANDLE=0000000064
1002
}
0
LINE
5
BE
100
AcDbEntity
8
0
62
0
370
-2
100
AcDbLine
6
ByBlock
10
5.0000000000
20
-0.4559769286
30
0.0000000000
11
5.0000000000
21
-1.5359769286
31
0.0000000000
1001
DSTP_XDATA
1002
{
1000
_OWNERHANDLE=0000000064
1002
}
0
LINE
5
BF
100
AcDbEntity
8
0
62
0
370
-2
100
AcDbLine
6
ByBlock
10
7.5000000000
20
-0.4559769286
30
0.0000000000
11
7.5000000000
21
-1.5359769286
31
0.0000000000
1001
DSTP_XDATA
1002
{
1000
_OWNERHANDLE=0000000064
1002
}
0
LINE
5
C0
100
AcDbEntity
8
0
62
0
370
-2
100
AcDbLine
6
ByBlock
10
10.0000000000
20
-0.4559769286
30
0.0000000000
11
10.0000000000
21
-1.5359769286
31
0.0000000000
1001
DSTP_XDATA
1002
{
1000
_OWNERHANDLE=0000000064
1002
}
0
LINE
5
C1
100
AcDbEntity
8
0
62
0
370
-2
100
AcDbLine
6
ByBlock
10
12.5000000000
20
0.0000000000
30
0.0000000000
11
12.5000000000
21
-1.5359769286
31
0.0000000000
1001
DSTP_XDATA
1002
{
1000
_OWNERHANDLE=0000000064
1002
}
0
LINE
5
C2
100
AcDbEntity
8
Defpoints
62
8
370
0
100
AcDbLine
6
ByLayer
10
0.0000000000
20
0.0000000000
30
0.0000000000
11
0.0000000000
21
0.0000000000
31
0.0000000000
1001
DSTP_XDATA
1002
{
1000
_OWNERHANDLE=0000000064
1002
}
0
ENDBLK
5
C3
100
AcDbEntity
8
0
100
AcDbBlockEnd
1001
DSTP_XDATA
1002
{
1002
}
0
BLOCK
5
C4
100
AcDbEntity
8
0
100
AcDbBlockBegin
2
*T5
70
2
10
0
20
0
30
0
3
*T5
1

0
MTEXT
5
C5
100
AcDbEntity
8
0
62
0
100
AcDbMText
6
ByLayer
10
6.2500000000
20
-0.2279884643
30
0.0000000000
40
0.2500000000
41
12.3800000000
71
5
1

7
newtext
11
1.0000000000
21
0.0000000000
31
0.0000000000
73
2
44
1.0000000000
1001
DSTP_XDATA
1002
{
1000
_OWNERHANDLE=0000000064
1002
}
0
MTEXT
5
C6
100
AcDbEntity
8
0
62
0
100
AcDbMText
6
ByLayer
10
1.2500000000
20
-0.6359769286
30
0.0000000000
40
0.1800000000
41
2.3800000000
71
5
1

7
Standard
11
1.0000000000
21
0.0000000000
31
0.0000000000
73
2
44
1.0000000000
1001
DSTP_XDATA
1002
{
1000
_OWNERHANDLE=0000000064
1002
}
0
MTEXT
5
C7
100
AcDbEntity
8
0
62
0
100
AcDbMText
6
ByLayer
10
3.7500000000
20
-0.6359769286
30
0.0000000000
40
0.1800000000
41
2.3800000000
71
5
1

7
Standard
11
1.0000000000
21
0.0000000000
31
0.0000000000
73
2
44
1.0000000000
1001
DSTP_XDATA
1002
{
1000
_OWNERHANDLE=0000000064
1002
}
0
MTEXT
5
C8
100
AcDbEntity
8
0
62
0
100
AcDbMText
6
ByLayer
10
6.2500000000
20
-0.6359769286
30
0.0000000000
40
0.1800000000
41
2.3800000000
71
5
1

7
Standard
11
1.0000000000
21
0.0000000000
31
0.0000000000
73
2
44
1.0000000000
1001
DSTP_XDATA
1002
{
1000
_OWNERHANDLE=0000000064
1002
}
0
MTEXT
5
C9
100
AcDbEntity
8
0
62
0
100
AcDbMText
6
ByLayer
10
8.7500000000
20
-0.6359769286
30
0.0000000000
40
0.1800000000
41
2.3800000000
71
5
1

7
Standard
11
1.0000000000
21
0.0000000000
31
0.0000000000
73
2
44
1.0000000000
1001
DSTP_XDATA
1002
{
1000
_OWNERHANDLE=0000000064
1002
}
0
MTEXT
5
CA
100
AcDbEntity
8
0
62
0
100
AcDbMText
6
ByLayer
10
11.2500000000
20
-0.6359769286
30
0.0000000000
40
0.1800000000
41
2.3800000000
71
5
1

7
Standard
11
1.0000000000
21
0.0000000000
31
0.0000000000
73
2
44
1.0000000000
1001
DSTP_XDATA
1002
{
1000
_OWNERHANDLE=0000000064
1002
}
0
LINE
5
CB
100
AcDbEntity
8
0
62
0
370
-2
100
AcDbLine
6
ByBlock
10
0.0000000000
20
0.0000000000
30
0.0000000000
11
12.5000000000
21
0.0000000000
31
0.0000000000
1001
DSTP_XDATA
1002
{
1000
_OWNERHANDLE=0000000064
1002
}
0
LINE
5
CC
100
AcDbEntity
8
0
62
0
370
-2
100
AcDbLine
6
ByBlock
10
0.0000000000
20
-0.4559769286
30
0.0000000000
11
12.5000000000
21
-0.4559769286
31
0.0000000000
1001
DSTP_XDATA
1002
{
1000
_OWNERHANDLE=0000000064
1002
}
0
LINE
5
CD
100
AcDbEntity
8
0
62
0
370
-2
100
AcDbLine
6
ByBlock
10
0.0000000000
20
-0.8159769286
30
0.0000000000
11
12.5000000000
21
-0.8159769286
31
0.0000000000
1001
DSTP_XDATA
1002
{
1000
_OWNERHANDLE=0000000064
1002
}
0
LINE
5
CE
100
AcDbEntity
8
0
62
0
370
-2
100
AcDbLine
6
ByBlock
10
0.0000000000
20
-1.1759769286
30
0.0000000000
11
12.5000000000
21
-1.1759769286
31
0.0000000000
1001
DSTP_XDATA
1002
{
1000
_OWNERHANDLE=0000000064
1002
}
0
LINE
5
CF
100
AcDbEntity
8
0
62
0
370
-2
100
AcDbLine
6
ByBlock
10
0.0000000000
20
0.0000000000
30
0.0000000000
11
0.0000000000
21
-1.1759769286
31
0.0000000000
1001
DSTP_XDATA
1002
{
1000
_OWNERHANDLE=0000000064
1002
}
0
LINE
5
D0
100
AcDbEntity
8
0
62
0
370
-2
100
AcDbLine
6
ByBlock
10
2.5000000000
20
-0.4559769286
30
0.0000000000
11
2.5000000000
21
-1.1759769286
31
0.0000000000
1001
DSTP_XDATA
1002
{
1000
_OWNERHANDLE=0000000064
1002
}
0
LINE
5
D1
100
AcDbEntity
8
0
62
0
370
-2
100
AcDbLine
6
ByBlock
10
5.0000000000
20
-0.4559769286
30
0.0000000000
11
5.0000000000
21
-1.1759769286
31
0.0000000000
1001
DSTP_XDATA
1002
{
1000
_OWNERHANDLE=0000000064
1002
}
0
LINE
5
D2
100
AcDbEntity
8
0
62
0
370
-2
100
AcDbLine
6
ByBlock
10
7.5000000000
20
-0.4559769286
30
0.0000000000
11
7.5000000000
21
-1.1759769286
31
0.0000000000
1001
DSTP_XDATA
1002
{
1000
_OWNERHANDLE=0000000064
1002
}
0
LINE
5
D3
100
AcDbEntity
8
0
62
0
370
-2
100
AcDbLine
6
ByBlock
10
10.0000000000
20
-0.4559769286
30
0.0000000000
11
10.0000000000
21
-1.1759769286
31
0.0000000000
1001
DSTP_XDATA
1002
{
1000
_OWNERHANDLE=0000000064
1002
}
0
LINE
5
D4
100
AcDbEntity
8
0
62
0
370
-2
100
AcDbLine
6
ByBlock
10
12.5000000000
20
0.0000000000
30
0.0000000000
11
12.5000000000
21
-1.1759769286
31
0.0000000000
1001
DSTP_XDATA
1002
{
1000
_OWNERHANDLE=0000000064
1002
}
0
LINE
5
D5
100
AcDbEntity
8
Defpoints
62
8
370
0
100
AcDbLine
6
ByLayer
10
0.0000000000
20
0.0000000000
30
0.0000000000
11
0.0000000000
21
0.0000000000
31
0.0000000000
1001
DSTP_XDATA
1002
{
1000
_OWNERHANDLE=0000000064
1002
}
0
ENDBLK
5
D6
100
AcDbEntity
8
0
100
AcDbBlockEnd
1001
DSTP_XDATA
1002
{
1002
}
0
BLOCK
5
D7
100
AcDbEntity
8
0
100
AcDbBlockBegin
2
*T6
70
2
10
0
20
0
30
0
3
*T6
1

0
MTEXT
5
D8
100
AcDbEntity
8
0
62
0
100
AcDbMText
6
ByLayer
10
6.2500000000
20
-0.2279884643
30
0.0000000000
40
0.2500000000
41
12.3800000000
71
5
1

7
newtext
11
1.0000000000
21
0.0000000000
31
0.0000000000
73
2
44
1.0000000000
1001
DSTP_XDATA
1002
{
1000
_OWNERHANDLE=0000000064
1002
}
0
MTEXT
5
D9
100
AcDbEntity
8
0
62
0
100
AcDbMText
6
ByLayer
10
1.2500000000
20
-0.6359769286
30
0.0000000000
40
0.1800000000
41
2.3800000000
71
5
1

7
Standard
11
1.0000000000
21
0.0000000000
31
0.0000000000
73
2
44
1.0000000000
1001
DSTP_XDATA
1002
{
1000
_OWNERHANDLE=0000000064
1002
}
0
MTEXT
5
DA
100
AcDbEntity
8
0
62
0
100
AcDbMText
6
ByLayer
10
3.7500000000
20
-0.6359769286
30
0.0000000000
40
0.1800000000
41
2.3800000000
71
5
1

7
Standard
11
1.0000000000
21
0.0000000000
31
0.0000000000
73
2
44
1.0000000000
1001
DSTP_XDATA
1002
{
1000
_OWNERHANDLE=0000000064
1002
}
0
MTEXT
5
DB
100
AcDbEntity
8
0
62
0
100
AcDbMText
6
ByLayer
10
6.2500000000
20
-0.6359769286
30
0.0000000000
40
0.1800000000
41
2.3800000000
71
5
1

7
Standard
11
1.0000000000
21
0.0000000000
31
0.0000000000
73
2
44
1.0000000000
1001
DSTP_XDATA
1002
{
1000
_OWNERHANDLE=0000000064
1002
}
0
MTEXT
5
DC
100
AcDbEntity
8
0
62
0
100
AcDbMText
6
ByLayer
10
8.7500000000
20
-0.6359769286
30
0.0000000000
40
0.1800000000
41
2.3800000000
71
5
1

7
Standard
11
1.0000000000
21
0.0000000000
31
0.0000000000
73
2
44
1.0000000000
1001
DSTP_XDATA
1002
{
1000
_OWNERHANDLE=0000000064
1002
}
0
MTEXT
5
DD
100
AcDbEntity
8
0
62
0
100
AcDbMText
6
ByLayer
10
11.2500000000
20
-0.6359769286
30
0.0000000000
40
0.1800000000
41
2.3800000000
71
5
1

7
Standard
11
1.0000000000
21
0.0000000000
31
0.0000000000
73
2
44
1.0000000000
1001
DSTP_XDATA
1002
{
1000
_OWNERHANDLE=0000000064
1002
}
0
LINE
5
DE
100
AcDbEntity
8
0
62
0
370
-2
100
AcDbLine
6
ByBlock
10
0.0000000000
20
0.0000000000
30
0.0000000000
11
12.5000000000
21
0.0000000000
31
0.0000000000
1001
DSTP_XDATA
1002
{
1000
_OWNERHANDLE=0000000064
1002
}
0
LINE
5
DF
100
AcDbEntity
8
0
62
0
370
-2
100
AcDbLine
6
ByBlock
10
0.0000000000
20
-0.4559769286
30
0.0000000000
11
12.5000000000
21
-0.4559769286
31
0.0000000000
1001
DSTP_XDATA
1002
{
1000
_OWNERHANDLE=0000000064
1002
}
0
LINE
5
E0
100
AcDbEntity
8
0
62
0
370
-2
100
AcDbLine
6
ByBlock
10
0.0000000000
20
-0.8159769286
30
0.0000000000
11
12.5000000000
21
-0.8159769286
31
0.0000000000
1001
DSTP_XDATA
1002
{
1000
_OWNERHANDLE=0000000064
1002
}
0
LINE
5
E1
100
AcDbEntity
8
0
62
0
370
-2
100
AcDbLine
6
ByBlock
10
0.0000000000
20
-1.1759769286
30
0.0000000000
11
12.5000000000
21
-1.1759769286
31
0.0000000000
1001
DSTP_XDATA
1002
{
1000
_OWNERHANDLE=0000000064
1002
}
0
LINE
5
E2
100
AcDbEntity
8
0
62
0
370
-2
100
AcDbLine
6
ByBlock
10
0.0000000000
20
0.0000000000
30
0.0000000000
11
0.0000000000
21
-1.1759769286
31
0.0000000000
1001
DSTP_XDATA
1002
{
1000
_OWNERHANDLE=0000000064
1002
}
0
LINE
5
E3
100
AcDbEntity
8
0
62
0
370
-2
100
AcDbLine
6
ByBlock
10
2.5000000000
20
-0.4559769286
30
0.0000000000
11
2.5000000000
21
-1.1759769286
31
0.0000000000
1001
DSTP_XDATA
1002
{
1000
_OWNERHANDLE=0000000064
1002
}
0
LINE
5
E4
100
AcDbEntity
8
0
62
0
370
-2
100
AcDbLine
6
ByBlock
10
5.0000000000
20
-0.4559769286
30
0.0000000000
11
5.0000000000
21
-1.1759769286
31
0.0000000000
1001
DSTP_XDATA
1002
{
1000
_OWNERHANDLE=0000000064
1002
}
0
LINE
5
E5
100
AcDbEntity
8
0
62
0
370
-2
100
AcDbLine
6
ByBlock
10
7.5000000000
20
-0.4559769286
30
0.0000000000
11
7.5000000000
21
-1.1759769286
31
0.0000000000
1001
DSTP_XDATA
1002
{
1000
_OWNERHANDLE=0000000064
1002
}
0
LINE
5
E6
100
AcDbEntity
8
0
62
0
370
-2
100
AcDbLine
6
ByBlock
10
10.0000000000
20
-0.4559769286
30
0.0000000000
11
10.0000000000
21
-1.1759769286
31
0.0000000000
1001
DSTP_XDATA
1002
{
1000
_OWNERHANDLE=0000000064
1002
}
0
LINE
5
E7
100
AcDbEntity
8
0
62
0
370
-2
100
AcDbLine
6
ByBlock
10
12.5000000000
20
0.0000000000
30
0.0000000000
11
12.5000000000
21
-1.1759769286
31
0.0000000000
1001
DSTP_XDATA
1002
{
1000
_OWNERHANDLE=0000000064
1002
}
0
LINE
5
E8
100
AcDbEntity
8
Defpoints
62
8
370
0
100
AcDbLine
6
ByLayer
10
0.0000000000
20
0.0000000000
30
0.0000000000
11
0.0000000000
21
0.0000000000
31
0.0000000000
1001
DSTP_XDATA
1002
{
1000
_OWNERHANDLE=0000000064
1002
}
0
ENDBLK
5
E9
100
AcDbEntity
8
0
100
AcDbBlockEnd
1001
DSTP_XDATA
1002
{
1002
}
0
BLOCK
5
EA
100
AcDbEntity
8
0
100
AcDbBlockBegin
2
*T7
70
2
10
0
20
0
30
0
3
*T7
1

0
MTEXT
5
EB
100
AcDbEntity
8
0
62
0
100
AcDbMText
6
ByLayer
10
6.2500000000
20
-0.2279884643
30
0.0000000000
40
0.2500000000
41
12.3800000000
71
5
1

7
newtext
11
1.0000000000
21
0.0000000000
31
0.0000000000
73
2
44
1.0000000000
1001
DSTP_XDATA
1002
{
1000
_OWNERHANDLE=0000000064
1002
}
0
MTEXT
5
EC
100
AcDbEntity
8
0
62
0
100
AcDbMText
6
ByLayer
10
1.2500000000
20
-0.6359769286
30
0.0000000000
40
0.1800000000
41
2.3800000000
71
5
1

7
Standard
11
1.0000000000
21
0.0000000000
31
0.0000000000
73
2
44
1.0000000000
1001
DSTP_XDATA
1002
{
1000
_OWNERHANDLE=0000000064
1002
}
0
MTEXT
5
ED
100
AcDbEntity
8
0
62
0
100
AcDbMText
6
ByLayer
10
3.7500000000
20
-0.6359769286
30
0.0000000000
40
0.1800000000
41
2.3800000000
71
5
1

7
Standard
11
1.0000000000
21
0.0000000000
31
0.0000000000
73
2
44
1.0000000000
1001
DSTP_XDATA
1002
{
1000
_OWNERHANDLE=0000000064
1002
}
0
MTEXT
5
EE
100
AcDbEntity
8
0
62
0
100
AcDbMText
6
ByLayer
10
6.2500000000
20
-0.6359769286
30
0.0000000000
40
0.1800000000
41
2.3800000000
71
5
1

7
Standard
11
1.0000000000
21
0.0000000000
31
0.0000000000
73
2
44
1.0000000000
1001
DSTP_XDATA
1002
{
1000
_OWNERHANDLE=0000000064
1002
}
0
MTEXT
5
EF
100
AcDbEntity
8
0
62
0
100
AcDbMText
6
ByLayer
10
8.7500000000
20
-0.6359769286
30
0.0000000000
40
0.1800000000
41
2.3800000000
71
5
1

7
Standard
11
1.0000000000
21
0.0000000000
31
0.0000000000
73
2
44
1.0000000000
1001
DSTP_XDATA
1002
{
1000
_OWNERHANDLE=0000000064
1002
}
0
MTEXT
5
F0
100
AcDbEntity
8
0
62
0
100
AcDbMText
6
ByLayer
10
11.2500000000
20
-0.6359769286
30
0.0000000000
40
0.1800000000
41
2.3800000000
71
5
1

7
Standard
11
1.0000000000
21
0.0000000000
31
0.0000000000
73
2
44
1.0000000000
1001
DSTP_XDATA
1002
{
1000
_OWNERHANDLE=0000000064
1002
}
0
LINE
5
F1
100
AcDbEntity
8
0
62
0
370
-2
100
AcDbLine
6
ByBlock
10
0.0000000000
20
0.0000000000
30
0.0000000000
11
12.5000000000
21
0.0000000000
31
0.0000000000
1001
DSTP_XDATA
1002
{
1000
_OWNERHANDLE=0000000064
1002
}
0
LINE
5
F2
100
AcDbEntity
8
0
62
0
370
-2
100
AcDbLine
6
ByBlock
10
0.0000000000
20
-0.4559769286
30
0.0000000000
11
12.5000000000
21
-0.4559769286
31
0.0000000000
1001
DSTP_XDATA
1002
{
1000
_OWNERHANDLE=0000000064
1002
}
0
LINE
5
F3
100
AcDbEntity
8
0
62
0
370
-2
100
AcDbLine
6
ByBlock
10
0.0000000000
20
-0.8159769286
30
0.0000000000
11
12.5000000000
21
-0.8159769286
31
0.0000000000
1001
DSTP_XDATA
1002
{
1000
_OWNERHANDLE=0000000064
1002
}
0
LINE
5
F4
100
AcDbEntity
8
0
62
0
370
-2
100
AcDbLine
6
ByBlock
10
0.0000000000
20
-1.1759769286
30
0.0000000000
11
12.5000000000
21
-1.1759769286
31
0.0000000000
1001
DSTP_XDATA
1002
{
1000
_OWNERHANDLE=0000000064
1002
}
0
LINE
5
F5
100
AcDbEntity
8
0
62
0
370
-2
100
AcDbLine
6
ByBlock
10
0.0000000000
20
0.0000000000
30
0.0000000000
11
0.0000000000
21
-1.1759769286
31
0.0000000000
1001
DSTP_XDATA
1002
{
1000
_OWNERHANDLE=0000000064
1002
}
0
LINE
5
F6
100
AcDbEntity
8
0
62
0
370
-2
100
AcDbLine
6
ByBlock
10
2.5000000000
20
-0.4559769286
30
0.0000000000
11
2.5000000000
21
-1.1759769286
31
0.0000000000
1001
DSTP_XDATA
1002
{
1000
_OWNERHANDLE=0000000064
1002
}
0
LINE
5
F7
100
AcDbEntity
8
0
62
0
370
-2
100
AcDbLine
6
ByBlock
10
5.0000000000
20
-0.4559769286
30
0.0000000000
11
5.0000000000
21
-1.1759769286
31
0.0000000000
1001
DSTP_XDATA
1002
{
1000
_OWNERHANDLE=0000000064
1002
}
0
LINE
5
F8
100
AcDbEntity
8
0
62
0
370
-2
100
AcDbLine
6
ByBlock
10
7.5000000000
20
-0.4559769286
30
0.0000000000
11
7.5000000000
21
-1.1759769286
31
0.0000000000
1001
DSTP_XDATA
1002
{
1000
_OWNERHANDLE=0000000064
1002
}
0
LINE
5
F9
100
AcDbEntity
8
0
62
0
370
-2
100
AcDbLine
6
ByBlock
10
10.0000000000
20
-0.4559769286
30
0.0000000000
11
10.0000000000
21
-1.1759769286
31
0.0000000000
1001
DSTP_XDATA
1002
{
1000
_OWNERHANDLE=0000000064
1002
}
0
LINE
5
FA
100
AcDbEntity
8
0
62
0
370
-2
100
AcDbLine
6
ByBlock
10
12.5000000000
20
0.0000000000
30
0.0000000000
11
12.5000000000
21
-1.1759769286
31
0.0000000000
1001
DSTP_XDATA
1002
{
1000
_OWNERHANDLE=0000000064
1002
}
0
LINE
5
FB
100
AcDbEntity
8
Defpoints
62
8
370
0
100
AcDbLine
6
ByLayer
10
0.0000000000
20
0.0000000000
30
0.0000000000
11
0.0000000000
21
0.0000000000
31
0.0000000000
1001
DSTP_XDATA
1002
{
1000
_OWNERHANDLE=0000000064
1002
}
0
ENDBLK
5
FC
100
AcDbEntity
8
0
100
AcDbBlockEnd
1001
DSTP_XDATA
1002
{
1002
}
0
ENDSEC
0
SECTION
2
ENTITIES
  0
ACAD_TABLE
  5
EB
330
26
100
AcDbEntity
  8
0
 92
    18540
310
6C480000B2010000880000001D000000000000000000F03F00000000000000000000000000000000640945F7902A55400000000000000000000000000000F03F0000000000000000E93CDD0FAB80344000000000000000000000000000000000000000000000F03F0000000000000000000000000000000000000000000000
310
000000000000000000000000000000F03F0C00000016000000070000C30C00000017000000FDFFFFFF0C0000001200000000000000D8000000260000009A3469D2A4C9154031AA4757663ED4BF000000000000000000000000000000000000000000000000000000000000F03F000000000000F03F00000000000000000000
310
0000000000005A00610067006F006C006F0076006F006B0000000900000001000000000000000000D03F000000000000F03F0000000000000000000000000000F03F000000000000000000000000000000000000000000000000000000000100000012000000540069006D006500730020004E0065007700200052006F006D
310
0061006E00000000000000000000000C00000016000000070000C30C00000017000000FDFFFFFF0C0000001200000000000000B8000000260000000AD7A3703D0AF33F82C0C2F7333BE7BF000000000000000000000000000000000000000000000000000000000000F03F000000000000F03F000000000000000000000000
310
000000004100000001000000010000000AD7A3703D0AC73F000000000000F03F0000000000000000000000000000F03F000000000000000000000000000000000000000000000000000000000100000000000000000000007400780074002E007300680078000000000000000C00000016000000070000C30C000000170000
310
00FDFFFFFF0C0000001200000000000000B80000002600000085EB51B81E850D4082C0C2F7333BE7BF000000000000000000000000000000000000000000000000000000000000F03F000000000000F03F000000000000000000000000000000004200000001000000010000000AD7A3703D0AC73F000000000000F03F0000
310
000000000000000000000000F03F000000000000000000000000000000000000000000000000000000000100000000000000000000007400780074002E00730068007800000000008D3F0C00000016000000070000C30C00000017000000FDFFFFFF0C0000001200000000000000B800000026000000C3F5285C8FC2184082
310
C0C2F7333BE7BF000000000000000000000000000000000000000000000000000000000000F03F000000000000F03F000000000000000000000000000000004300000001000000010000000AD7A3703D0AC73F000000000000F03F0000000000000000000000000000F03F0000000000000000000000000000000000000000
310
00000000000000000100000000000000000000007400780074002E007300680078000000000000000C00000016000000070000C30C00000017000000FDFFFFFF0C0000001200000000000000B800000026000000E27A14AE4761214082C0C2F7333BE7BF000000000000000000000000000000000000000000000000000000
310
000000F03F000000000000F03F000000000000000000000000000000004400000001000000010000000AD7A3703D0AC73F000000000000F03F0000000000000000000000000000F03F000000000000000000000000000000000000000000000000000000000100000000000000000000007400780074002E00730068007800
310
0000000000000C00000016000000070000C30C00000017000000FDFFFFFF0C0000001200000000000000B800000026000000E27A14AE4761264082C0C2F7333BE7BF000000000000000000000000000000000000000000000000000000000000F03F000000000000F03F000000000000000000000000000000004500000001
310
000000010000000AD7A3703D0AC73F000000000000F03F0000000000000000000000000000F03F000000000000000000000000000000000000000000000000000000000100000000000000000000007400780074002E0073006800780000000000A93F0C00000016000000070000C30C00000017000000FDFFFFFF0C000000
310
1200000000000000C800000026000000D791218F67B7024081415C1048E5F0BF000000000000000000000000000000000000000000000000000000000000F03F000000000000F03F000000000000000000000000000000003100000001000000010000000AD7A3703D0AC73F000000000000F03F0000000000000000000000
310
000000F03F000000000000000000000000000000000000000000000000000000000100000012000000540069006D006500730020004E0065007700200052006F006D0061006E00000000000000000000000C00000016000000070000C30C00000017000000FDFFFFFF0C0000001200000000000000C8000000260000008DA7
310
4875C645134081415C1048E5F0BF000000000000000000000000000000000000000000000000000000000000F03F000000000000F03F000000000000000000000000000000003200000001000000010000000AD7A3703D0AC73F000000000000F03F0000000000000000000000000000F03F00000000000000000000000000
310
0000000000000000000000000000000100000012000000540069006D006500730020004E0065007700200052006F006D0061006E00000000000000000000000C00000016000000070000C30C00000017000000FDFFFFFF0C0000001200000000000000C80000002600000042C84E2B12511D4081415C1048E5F0BF00000000
310
0000000000000000000000000000000000000000000000000000F03F000000000000F03F000000000000000000000000000000003300000001000000010000000AD7A3703D0AC73F000000000000F03F0000000000000000000000000000F03F00000000000000000000000000000000000000000000000000000000010000
310
0012000000540069006D006500730020004E0065007700200052006F006D0061006E00000000000000000000000C00000016000000070000C30C00000017000000FDFFFFFF0C0000001200000000000000C80000002600000084C09116F5A1234081415C1048E5F0BF00000000000000000000000000000000000000000000
310
0000000000000000F03F000000000000F03F000000000000000000000000000000003400000001000000010000000AD7A3703D0AC73F000000000000F03F0000000000000000000000000000F03F000000000000000000000000000000000000000000000000000000000100000012000000540069006D006500730020004E
310
0065007700200052006F006D0061006E00000000000000000000000C00000016000000070000C30C00000017000000FDFFFFFF0C0000001200000000000000C800000026000000FCF378BB35A6284081415C1048E5F0BF000000000000000000000000000000000000000000000000000000000000F03F000000000000F03F
310
000000000000000000000000000000003500000001000000010000000AD7A3703D0AC73F000000000000F03F0000000000000000000000000000F03F000000000000000000000000000000000000000000000000000000000100000012000000540069006D006500730020004E0065007700200052006F006D0061006E0000
310
0000000000000000000C00000016000000070000C30C00000017000000FDFFFFFF0C0000001200000000000000C800000026000000CD9BBAACF48902404137856CD7A7F6BF000000000000000000000000000000000000000000000000000000000000F03F000000000000F03F000000000000000000000000000000003600
310
000001000000010000000AD7A3703D0AC73F000000000000F03F0000000000000000000000000000F03F000000000000000000000000000000000000000000000000000000000100000012000000540069006D006500730020004E0065007700200052006F006D0061006E00000000000000000000000C0000001600000007
310
0000C30C00000017000000FDFFFFFF0C0000001200000000000000C80000002600000033013494924613404137856CD7A7F6BF000000000000000000000000000000000000000000000000000000000000F03F000000000000F03F000000000000000000000000000000003700000001000000010000000AD7A3703D0AC73F
310
000000000000F03F0000000000000000000000000000F03F000000000000000000000000000000000000000000000000000000000100000012000000540069006D006500730020004E0065007700200052006F006D0061006E00000000000000000000000C00000016000000070000C30C00000017000000FDFFFFFF0C0000
310
001200000000000000C800000026000000A014571F294A1D404137856CD7A7F6BF000000000000000000000000000000000000000000000000000000000000F03F000000000000F03F000000000000000000000000000000003800000001000000010000000AD7A3703D0AC73F000000000000F03F00000000000000000000
310
00000000F03F000000000000000000000000000000000000000000000000000000000100000012000000540069006D006500730020004E0065007700200052006F006D0061006E00000000000000000000000C00000016000000070000C30C00000017000000FDFFFFFF0C0000001200000000000000C80000002600000030
310
2A5F4216A323404137856CD7A7F6BF000000000000000000000000000000000000000000000000000000000000F03F000000000000F03F000000000000000000000000000000003900000001000000010000000AD7A3703D0AC73F000000000000F03F0000000000000000000000000000F03F000000000000000000000000
310
000000000000000000000000000000000100000012000000540069006D006500730020004E0065007700200052006F006D0061006E00000000000000000000000C00000016000000070000C30C00000017000000FDFFFFFF0C0000001200000000000000C80000002600000020FAB81B17A228404137856CD7A7F6BF000000
310
000000000000000000000000000000000000000000000000000000F03F000000000000F03F000000000000000000000000000000003000000001000000010000000AD7A3703D0AC73F000000000000F03F0000000000000000000000000000F03F000000000000000000000000000000000000000000000000000000000100
310
000012000000540069006D006500730020004E0065007700200052006F006D0061006E00000000000000000000000C00000016000000070000C30C00000017000000FDFFFFFF0C0000001200000000000000B8000000260000000AD7A3703D0AF33F80415C1048E5FCBF000000000000000000000000000000000000000000
310
000000000000000000F03F000000000000F03F000000000000000000000000000000004600000001000000010000000AD7A3703D0AC73F000000000000F03F0000000000000000000000000000F03F000000000000000000000000000000000000000000000000000000000100000000000000000000007400780074002E00
310
73006800780000000000A93F0C00000016000000070000C30C00000017000000FDFFFFFF0C0000001200000000000000B80000002600000085EB51B81E850D4080415C1048E5FCBF000000000000000000000000000000000000000000000000000000000000F03F000000000000F03F000000000000000000000000000000
310
004700000001000000010000000AD7A3703D0AC73F000000000000F03F0000000000000000000000000000F03F000000000000000000000000000000000000000000000000000000000100000000000000000000007400780074002E007300680078000000000000000C00000016000000070000C30C00000017000000FDFF
310
FFFF0C0000001200000000000000B800000026000000C3F5285C8FC2184080415C1048E5FCBF000000000000000000000000000000000000000000000000000000000000F03F000000000000F03F000000000000000000000000000000004800000001000000010000000AD7A3703D0AC73F000000000000F03F0000000000
310
000000000000000000F03F000000000000000000000000000000000000000000000000000000000100000000000000000000007400780074002E007300680078000000000000000C00000016000000070000C30C00000017000000FDFFFFFF0C0000001200000000000000BC00000026000000343333333333214080415C10
310
48E5FCBF000000000000000000000000000000000000000000000000000000000000F03F000000000000F03F000000000000000000000000000000005300530000003D4102000000010000000AD7A3703D0AC73F000000000000F03F0000000000000000000000000000F03F00000000000000000000000000000000000000
310
0000000000000000000100000000000000000000007400780074002E00730068007800000000008B240C00000016000000070000C30C00000017000000FDFFFFFF0C0000001200000000000000BC00000026000000343333333333264080415C1048E5FCBF0000000000000000000000000000000000000000000000000000
310
00000000F03F000000000000F03F000000000000000000000000000000004600460000003D4102000000010000000AD7A3703D0AC73F000000000000F03F0000000000000000000000000000F03F000000000000000000000000000000000000000000000000000000000100000000000000000000007400780074002E0073
310
0068007800000000009A240C00000016000000070000C30C00000017000000FDFFFFFF0C0000001200000000000000D800000026000000635771D8D9EF324031AA4757663ED4BF000000000000000000000000000000000000000000000000000000000000F03F000000000000F03F00000000000000000000000000000000
310
5A00610067006F006C006F0076006F006B0000000900000001000000000000000000D03F000000000000F03F0000000000000000000000000000F03F000000000000000000000000000000000000000000000000000000000100000012000000540069006D006500730020004E0065007700200052006F006D0061006E0000
310
0000000000000000000C00000016000000070000C30C00000017000000FDFFFFFF0C0000001200000000000000B8000000260000005A8FC2F5285C2D4082C0C2F7333BE7BF000000000000000000000000000000000000000000000000000000000000F03F000000000000F03F000000000000000000000000000000004100
310
000001000000010000000AD7A3703D0AC73F000000000000F03F0000000000000000000000000000F03F000000000000000000000000000000000000000000000000000000000100000000000000000000007400780074002E007300680078000000000000000C00000016000000070000C30C00000017000000FDFFFFFF0C
310
0000001200000000000000B800000026000000AC47E17A142E314082C0C2F7333BE7BF000000000000000000000000000000000000000000000000000000000000F03F000000000000F03F000000000000000000000000000000004200000001000000010000000AD7A3703D0AC73F000000000000F03F0000000000000000
310
000000000000F03F000000000000000000000000000000000000000000000000000000000100000000000000000000007400780074002E00730068007800000000008D3F0C00000016000000070000C30C00000017000000FDFFFFFF0C0000001200000000000000B800000026000000AC47E17A14AE334082C0C2F7333BE7
310
BF000000000000000000000000000000000000000000000000000000000000F03F000000000000F03F000000000000000000000000000000004300000001000000010000000AD7A3703D0AC73F000000000000F03F0000000000000000000000000000F03F0000000000000000000000000000000000000000000000000000
310
00000100000000000000000000007400780074002E007300680078000000000000000C00000016000000070000C30C00000017000000FDFFFFFF0C0000001200000000000000B800000026000000AC47E17A142E364082C0C2F7333BE7BF000000000000000000000000000000000000000000000000000000000000F03F00
310
0000000000F03F000000000000000000000000000000004400000001000000010000000AD7A3703D0AC73F000000000000F03F0000000000000000000000000000F03F000000000000000000000000000000000000000000000000000000000100000000000000000000007400780074002E00730068007800000000000000
310
0C00000016000000070000C30C00000017000000FDFFFFFF0C0000001200000000000000B800000026000000AC47E17A14AE384082C0C2F7333BE7BF000000000000000000000000000000000000000000000000000000000000F03F000000000000F03F000000000000000000000000000000004500000001000000010000
310
000AD7A3703D0AC73F000000000000F03F0000000000000000000000000000F03F000000000000000000000000000000000000000000000000000000000100000000000000000000007400780074002E007300680078000000000000000C00000016000000070000C30C00000017000000FDFFFFFF0C000000120000000000
310
0000CC000000260000007B4103DDB0642F4081415C1048E5F0BF000000000000000000000000000000000000000000000000000000000000F03F000000000000F03F000000000000000000000000000000003100310000006E0002000000010000000AD7A3703D0AC73F000000000000F03F00000000000000000000000000
310
00F03F000000000000000000000000000000000000000000000000000000000100000012000000540069006D006500730020004E0065007700200052006F006D0061006E00000000000000000053000C00000016000000070000C30C00000017000000FDFFFFFF0C0000001200000000000000CC000000260000006598EF19
310
DD2C324081415C1048E5F0BF000000000000000000000000000000000000000000000000000000000000F03F000000000000F03F00000000000000000000000000000000310032000000670002000000010000000AD7A3703D0AC73F000000000000F03F0000000000000000000000000000F03F0000000000000000000000
310
00000000000000000000000000000000000100000012000000540069006D006500730020004E0065007700200052006F006D0061006E00000000000000000000000C00000016000000070000C30C00000017000000FDFFFFFF0C0000001200000000000000CC0000002600000092207107B0AF344081415C1048E5F0BF0000
310
00000000000000000000000000000000000000000000000000000000F03F000000000000F03F00000000000000000000000000000000310033000000000002000000010000000AD7A3703D0AC73F000000000000F03F0000000000000000000000000000F03F00000000000000000000000000000000000000000000000000
310
0000000100000012000000540069006D006500730020004E0065007700200052006F006D0061006E00000000000000000000000C00000016000000070000C30C00000017000000FDFFFFFF0C0000001200000000000000CC00000026000000C44EE607662C374081415C1048E5F0BF00000000000000000000000000000000
310
0000000000000000000000000000F03F000000000000F03F000000000000000000000000000000003100340000006F0002000000010000000AD7A3703D0AC73F000000000000F03F0000000000000000000000000000F03F000000000000000000000000000000000000000000000000000000000100000012000000540069
310
006D006500730020004E0065007700200052006F006D0061006E00000000000000000061000C00000016000000070000C30C00000017000000FDFFFFFF0C0000001200000000000000CC0000002600000080E8595A86AE394081415C1048E5F0BF000000000000000000000000000000000000000000000000000000000000
310
F03F000000000000F03F000000000000000000000000000000003100350000006E0002000000010000000AD7A3703D0AC73F000000000000F03F0000000000000000000000000000F03F000000000000000000000000000000000000000000000000000000000100000012000000540069006D006500730020004E00650077
310
00200052006F006D0061006E00000000000000000066000C00000016000000070000C30C00000017000000FDFFFFFF0C0000001200000000000000D800000026000000CF30243EA536404031AA4757663ED4BF000000000000000000000000000000000000000000000000000000000000F03F000000000000F03F00000000
310
0000000000000000000000005A00610067006F006C006F0076006F006B0000000900000001000000000000000000D03F000000000000F03F0000000000000000000000000000F03F000000000000000000000000000000000000000000000000000000000100000012000000540069006D006500730020004E006500770020
310
0052006F006D0061006E00000000000000000000000C00000016000000070000C30C00000017000000FDFFFFFF0C0000001200000000000000B800000026000000E851B81E852B3C4082C0C2F7333BE7BF000000000000000000000000000000000000000000000000000000000000F03F000000000000F03F000000000000
310
000000000000000000004100000001000000010000000AD7A3703D0AC73F000000000000F03F0000000000000000000000000000F03F000000000000000000000000000000000000000000000000000000000100000000000000000000007400780074002E007300680078000000000000000C00000016000000070000C30C
310
00000017000000FDFFFFFF0C0000001200000000000000B800000026000000E851B81E85AB3E4082C0C2F7333BE7BF000000000000000000000000000000000000000000000000000000000000F03F000000000000F03F000000000000000000000000000000004200000001000000010000000AD7A3703D0AC73F00000000
310
0000F03F0000000000000000000000000000F03F000000000000000000000000000000000000000000000000000000000100000000000000000000007400780074002E00730068007800000000008D3F0C00000016000000070000C30C00000017000000FDFFFFFF0C0000001200000000000000B800000026000000F5285C
310
8FC295404082C0C2F7333BE7BF000000000000000000000000000000000000000000000000000000000000F03F000000000000F03F000000000000000000000000000000004300000001000000010000000AD7A3703D0AC73F000000000000F03F0000000000000000000000000000F03F0000000000000000000000000000
310
00000000000000000000000000000100000000000000000000007400780074002E0073006800780000000000A93F0C00000016000000070000C30C00000017000000FDFFFFFF0C0000001200000000000000B800000026000000F5285C8FC2D5414082C0C2F7333BE7BF000000000000000000000000000000000000000000
310
000000000000000000F03F000000000000F03F000000000000000000000000000000004400000001000000010000000AD7A3703D0AC73F000000000000F03F0000000000000000000000000000F03F000000000000000000000000000000000000000000000000000000000100000000000000000000007400780074002E00
310
73006800780000000000A93F0C00000016000000070000C30C00000017000000FDFFFFFF0C0000001200000000000000B800000026000000F5285C8FC215434082C0C2F7333BE7BF000000000000000000000000000000000000000000000000000000000000F03F000000000000F03F000000000000000000000000000000
310
004500000001000000010000000AD7A3703D0AC73F000000000000F03F0000000000000000000000000000F03F000000000000000000000000000000000000000000000000000000000100000000000000000000007400780074002E00730068007800000000008D3F0C00000016000000070000C30C00000017000000FDFF
310
FFFF0C0000001200000000000000D800000026000000EBB50F905DF5464031AA4757663ED4BF000000000000000000000000000000000000000000000000000000000000F03F000000000000F03F000000000000000000000000000000005A00610067006F006C006F0076006F006B00000009000000010000000000000000
310
00D03F000000000000F03F0000000000000000000000000000F03F000000000000000000000000000000000000000000000000000000000100000012000000540069006D006500730020004E0065007700200052006F006D0061006E00000000000000000000000C00000016000000070000C30C00000017000000FDFFFFFF
310
0C0000001200000000000000B80000002600000013AE47E17AD4444082C0C2F7333BE7BF000000000000000000000000000000000000000000000000000000000000F03F000000000000F03F000000000000000000000000000000004100000001000000010000000AD7A3703D0AC73F000000000000F03F00000000000000
310
00000000000000F03F000000000000000000000000000000000000000000000000000000000100000000000000000000007400780074002E0073006800780000000000A93F0C00000016000000070000C30C00000017000000FDFFFFFF0C0000001200000000000000B80000002600000011AE47E17A14464082C0C2F7333B
310
E7BF000000000000000000000000000000000000000000000000000000000000F03F000000000000F03F000000000000000000000000000000004200000001000000010000000AD7A3703D0AC73F000000000000F03F0000000000000000000000000000F03F00000000000000000000000000000000000000000000000000
310
0000000100000000000000000000007400780074002E00730068007800000000008D3F0C00000016000000070000C30C00000017000000FDFFFFFF0C0000001200000000000000B80000002600000011AE47E17A54474082C0C2F7333BE7BF000000000000000000000000000000000000000000000000000000000000F03F
310
000000000000F03F000000000000000000000000000000004300000001000000010000000AD7A3703D0AC73F000000000000F03F0000000000000000000000000000F03F000000000000000000000000000000000000000000000000000000000100000000000000000000007400780074002E00730068007800000000008D
310
3F0C00000016000000070000C30C00000017000000FDFFFFFF0C0000001200000000000000B80000002600000011AE47E17A94484082C0C2F7333BE7BF000000000000000000000000000000000000000000000000000000000000F03F000000000000F03F0000000000000000000000000000000044000000010000000100
310
00000AD7A3703D0AC73F000000000000F03F0000000000000000000000000000F03F000000000000000000000000000000000000000000000000000000000100000000000000000000007400780074002E007300680078000000000000000C00000016000000070000C30C00000017000000FDFFFFFF0C0000001200000000
310
000000B80000002600000011AE47E17AD4494082C0C2F7333BE7BF000000000000000000000000000000000000000000000000000000000000F03F000000000000F03F000000000000000000000000000000004500000001000000010000000AD7A3703D0AC73F000000000000F03F0000000000000000000000000000F03F
310
000000000000000000000000000000000000000000000000000000000100000000000000000000007400780074002E007300680078000000000000000C00000016000000070000C30C00000017000000FDFFFFFF0C0000001200000000000000D8000000260000000B3BFBE115B44D4031AA4757663ED4BF00000000000000
310
0000000000000000000000000000000000000000000000F03F000000000000F03F000000000000000000000000000000005A00610067006F006C006F0076006F006B0000000900000001000000000000000000D03F000000000000F03F0000000000000000000000000000F03F000000000000000000000000000000000000
310
000000000000000000000100000012000000540069006D006500730020004E0065007700200052006F006D0061006E00000000000000000000000C00000016000000070000C30C00000017000000FDFFFFFF0C0000001200000000000000B8000000260000003133333333934B4082C0C2F7333BE7BF000000000000000000
310
000000000000000000000000000000000000000000F03F000000000000F03F000000000000000000000000000000004100000001000000010000000AD7A3703D0AC73F000000000000F03F0000000000000000000000000000F03F000000000000000000000000000000000000000000000000000000000100000000000000
310
000000007400780074002E007300680078000000000000000C00000016000000070000C30C00000017000000FDFFFFFF0C0000001200000000000000B8000000260000003133333333D34C4082C0C2F7333BE7BF000000000000000000000000000000000000000000000000000000000000F03F000000000000F03F000000
310
000000000000000000000000004200000001000000010000000AD7A3703D0AC73F000000000000F03F0000000000000000000000000000F03F000000000000000000000000000000000000000000000000000000000100000000000000000000007400780074002E007300680078000000000000000C000000160000000700
310
00C30C00000017000000FDFFFFFF0C0000001200000000000000B8000000260000003133333333134E4082C0C2F7333BE7BF000000000000000000000000000000000000000000000000000000000000F03F000000000000F03F000000000000000000000000000000004300000001000000010000000AD7A3703D0AC73F00
310
0000000000F03F0000000000000000000000000000F03F000000000000000000000000000000000000000000000000000000000100000000000000000000007400780074002E00730068007800000000008D3F0C00000016000000070000C30C00000017000000FDFFFFFF0C0000001200000000000000B800000026000000
310
3133333333534F4082C0C2F7333BE7BF000000000000000000000000000000000000000000000000000000000000F03F000000000000F03F000000000000000000000000000000004400000001000000010000000AD7A3703D0AC73F000000000000F03F0000000000000000000000000000F03F0000000000000000000000
310
00000000000000000000000000000000000100000000000000000000007400780074002E00730068007800000000008D3F0C00000016000000070000C30C00000017000000FDFFFFFF0C0000001200000000000000B800000026000000989999999949504082C0C2F7333BE7BF000000000000000000000000000000000000
310
000000000000000000000000F03F000000000000F03F000000000000000000000000000000004500000001000000010000000AD7A3703D0AC73F000000000000F03F0000000000000000000000000000F03F000000000000000000000000000000000000000000000000000000000100000000000000000000007400780074
310
002E007300680078000000000000000C00000016000000070000C30C00000017000000FDFFFFFF0C000000120000000000000054000000200000000200000000000000000000000000000000000000000000000000000000000000000029400000000000000000000000000000000000000000000000000000000000000000
310
000000000000F03F0C00000016000000070000C30C00000017000000FDFFFFFF0C00000012000000000000005400000020000000020000000000000000000000C09F0ADBB92EDDBF00000000000000000000000000002940C09F0ADBB92EDDBF000000000000000000000000000000000000000000000000000000000000F0
310
3F0C00000016000000070000C30C00000017000000FDFFFFFF0C00000012000000000000005400000020000000020000000000000000000000603BD7A57B1CEABF00000000000000000000000000002940603BD7A57B1CEABF000000000000000000000000000000000000000000000000000000000000F03F0C0000001600
310
0000070000C30C00000017000000FDFFFFFF0C000000120000000000000054000000200000000200000000000000000000007093142FCDD0F2BF000000000000000000000000000029407093142FCDD0F2BF000000000000000000000000000000000000000000000000000000000000F03F0C00000016000000070000C30C
310
00000017000000FDFFFFFF0C0000001200000000000000540000002000000002000000000000000000000030893D8B5C93F8BF0000000000000000000000000000294030893D8B5C93F8BF000000000000000000000000000000000000000000000000000000000000F03F0C00000016000000070000C30C00000017000000
310
FDFFFFFF0C00000012000000000000005400000020000000020000000000000000000000F07E66E7EB55FEBF00000000000000000000000000002940F07E66E7EB55FEBF000000000000000000000000000000000000000000000000000000000000F03F0C00000016000000070000C30C00000017000000FDFFFFFF0C0000
310
0012000000000000005400000020000000020000000000000000000000000000000000000000000000000000000000000000000000F07E66E7EB55FEBF000000000000000000000000000000000000000000000000000000000000F03F0C00000016000000070000C30C00000017000000FDFFFFFF0C000000120000000000
310
00005400000020000000020000000000000000000440C09F0ADBB92EDDBF00000000000000000000000000000440F07E66E7EB55FEBF000000000000000000000000000000000000000000000000000000000000F03F0C00000016000000070000C30C00000017000000FDFFFFFF0C00000012000000000000005400000020
310
000000020000000000000000001440C09F0ADBB92EDDBF00000000000000000000000000001440F07E66E7EB55FEBF000000000000000000000000000000000000000000000000000000000000F03F0C00000016000000070000C30C00000017000000FDFFFFFF0C0000001200000000000000540000002000000002000000
310
0000000000001E40C09F0ADBB92EDDBF00000000000000000000000000001E40F07E66E7EB55FEBF000000000000000000000000000000000000000000000000000000000000F03F0C00000016000000070000C30C00000017000000FDFFFFFF0C000000120000000000000054000000200000000200000000000000000024
310
40C09F0ADBB92EDDBF00000000000000000000000000002440F07E66E7EB55FEBF000000000000000000000000000000000000000000000000000000000000F03F0C00000016000000070000C30C00000017000000FDFFFFFF0C00000012000000000000005400000020000000020000000000000000002940000000000000
310
000000000000000000000000000000002940F07E66E7EB55FEBF000000000000000000000000000000000000000000000000000000000000F03F0C00000016000000080000C30C00000017000000000000000C0000001200000000000000540000002000000002000000000000000000000000000000000000000000000000
310
00000000000000000000000000000000000000000000000000000000000000000000000000000000000000000000000000F03F0C00000016000000070000C30C00000017000000FDFFFFFF0C00000012000000000000005400000020000000020000007814AE47E1FA2A40000000000000000000000000000000003C0AD7A3
310
70FD39400000000000000000000000000000000000000000000000000000000000000000000000000000F03F0C00000016000000070000C30C00000017000000FDFFFFFF0C00000012000000000000005400000020000000020000007814AE47E1FA2A40C09F0ADBB92EDDBF00000000000000003C0AD7A370FD3940C09F0A
310
DBB92EDDBF000000000000000000000000000000000000000000000000000000000000F03F0C00000016000000070000C30C00000017000000FDFFFFFF0C00000012000000000000005400000020000000020000007814AE47E1FA2A40603BD7A57B1CEABF00000000000000003C0AD7A370FD3940603BD7A57B1CEABF0000
310
00000000000000000000000000000000000000000000000000000000F03F0C00000016000000070000C30C00000017000000FDFFFFFF0C00000012000000000000005400000020000000020000007814AE47E1FA2A407093142FCDD0F2BF00000000000000003C0AD7A370FD39407093142FCDD0F2BF000000000000000000
310
000000000000000000000000000000000000000000F03F0C00000016000000070000C30C00000017000000FDFFFFFF0C00000012000000000000005400000020000000020000007814AE47E1FA2A4030893D8B5C93F8BF00000000000000003C0AD7A370FD394030893D8B5C93F8BF00000000000000000000000000000000
310
0000000000000000000000000000F03F0C00000016000000070000C30C00000017000000FDFFFFFF0C00000012000000000000005400000020000000020000007814AE47E1FA2A40000000000000000000000000000000007814AE47E1FA2A4030893D8B5C93F8BF0000000000000000000000000000000000000000000000
310
00000000000000F03F0C00000016000000070000C30C00000017000000FDFFFFFF0C00000012000000000000005400000020000000020000007814AE47E1FA2F40C09F0ADBB92EDDBF00000000000000007814AE47E1FA2F4030893D8B5C93F8BF000000000000000000000000000000000000000000000000000000000000
310
F03F0C00000016000000070000C30C00000017000000FDFFFFFF0C00000012000000000000005400000020000000020000003C0AD7A3707D3240C09F0ADBB92EDDBF00000000000000003C0AD7A3707D324030893D8B5C93F8BF000000000000000000000000000000000000000000000000000000000000F03F0C00000016
310
000000070000C30C00000017000000FDFFFFFF0C00000012000000000000005400000020000000020000003C0AD7A370FD3440C09F0ADBB92EDDBF00000000000000003C0AD7A370FD344030893D8B5C93F8BF000000000000000000000000000000000000000000000000000000000000F03F0C00000016000000070000C3
310
0C00000017000000FDFFFFFF0C00000012000000000000005400000020000000020000003C0AD7A3707D3740C09F0ADBB92EDDBF00000000000000003C0AD7A3707D374030893D8B5C93F8BF000000000000000000000000000000000000000000000000000000000000F03F0C00000016000000070000C30C000000170000
310
00FDFFFFFF0C00000012000000000000005400000020000000020000003C0AD7A370FD3940000000000000000000000000000000003C0AD7A370FD394030893D8B5C93F8BF000000000000000000000000000000000000000000000000000000000000F03F0C00000016000000080000C30C00000017000000000000000C00
310
0000120000000000000054000000200000000200000000000000000000000000000000000000000000000000000000000000000000000000000000000000000000000000000000000000000000000000000000000000000000000000F03F0C00000016000000070000C30C00000017000000FDFFFFFF0C0000001200000000
310
0000005400000020000000020000007814AE47E1FA3A40000000000000000000000000000000003C0AD7A370BD43400000000000000000000000000000000000000000000000000000000000000000000000000000F03F0C00000016000000070000C30C00000017000000FDFFFFFF0C000000120000000000000054000000
310
20000000020000007814AE47E1FA3A40C09F0ADBB92EDDBF00000000000000003C0AD7A370BD4340C09F0ADBB92EDDBF000000000000000000000000000000000000000000000000000000000000F03F0C00000016000000070000C30C00000017000000FDFFFFFF0C00000012000000000000005400000020000000020000
310
007814AE47E1FA3A40603BD7A57B1CEABF00000000000000003C0AD7A370BD4340603BD7A57B1CEABF000000000000000000000000000000000000000000000000000000000000F03F0C00000016000000070000C30C00000017000000FDFFFFFF0C00000012000000000000005400000020000000020000007814AE47E1FA
310
3A407093142FCDD0F2BF00000000000000003C0AD7A370BD43407093142FCDD0F2BF000000000000000000000000000000000000000000000000000000000000F03F0C00000016000000070000C30C00000017000000FDFFFFFF0C00000012000000000000005400000020000000020000007814AE47E1FA3A400000000000
310
00000000000000000000007814AE47E1FA3A407093142FCDD0F2BF000000000000000000000000000000000000000000000000000000000000F03F0C00000016000000070000C30C00000017000000FDFFFFFF0C00000012000000000000005400000020000000020000007814AE47E17A3D40C09F0ADBB92EDDBF00000000
310
000000007814AE47E17A3D407093142FCDD0F2BF000000000000000000000000000000000000000000000000000000000000F03F0C00000016000000070000C30C00000017000000FDFFFFFF0C00000012000000000000005400000020000000020000007814AE47E1FA3F40C09F0ADBB92EDDBF00000000000000007814AE
310
47E1FA3F407093142FCDD0F2BF000000000000000000000000000000000000000000000000000000000000F03F0C00000016000000070000C30C00000017000000FDFFFFFF0C00000012000000000000005400000020000000020000003C0AD7A3703D4140C09F0ADBB92EDDBF00000000000000003C0AD7A3703D41407093
310
142FCDD0F2BF000000000000000000000000000000000000000000000000000000000000F03F0C00000016000000070000C30C00000017000000FDFFFFFF0C00000012000000000000005400000020000000020000003C0AD7A3707D4240C09F0ADBB92EDDBF00000000000000003C0AD7A3707D42407093142FCDD0F2BF00
310
0000000000000000000000000000000000000000000000000000000000F03F0C00000016000000070000C30C00000017000000FDFFFFFF0C00000012000000000000005400000020000000020000003C0AD7A370BD4340000000000000000000000000000000003C0AD7A370BD43407093142FCDD0F2BF0000000000000000
310
00000000000000000000000000000000000000000000F03F0C00000016000000080000C30C00000017000000000000000C000000120000000000000054000000200000000200000000000000000000000000000000000000000000000000000000000000000000000000000000000000000000000000000000000000000000
310
000000000000000000000000000000F03F0C00000016000000070000C30C00000017000000FDFFFFFF0C00000012000000000000005400000020000000020000005A8FC2F5283C444000000000000000000000000000000000588FC2F5287C4A40000000000000000000000000000000000000000000000000000000000000
310
0000000000000000F03F0C00000016000000070000C30C00000017000000FDFFFFFF0C00000012000000000000005400000020000000020000005A8FC2F5283C4440C09F0ADBB92EDDBF0000000000000000588FC2F5287C4A40C09F0ADBB92EDDBF0000000000000000000000000000000000000000000000000000000000
310
00F03F0C00000016000000070000C30C00000017000000FDFFFFFF0C00000012000000000000005400000020000000020000005A8FC2F5283C4440603BD7A57B1CEABF0000000000000000588FC2F5287C4A40603BD7A57B1CEABF000000000000000000000000000000000000000000000000000000000000F03F0C000000
310
16000000070000C30C00000017000000FDFFFFFF0C00000012000000000000005400000020000000020000005A8FC2F5283C44407093142FCDD0F2BF0000000000000000588FC2F5287C4A407093142FCDD0F2BF000000000000000000000000000000000000000000000000000000000000F03F0C00000016000000070000
310
C30C00000017000000FDFFFFFF0C00000012000000000000005400000020000000020000005A8FC2F5283C4440000000000000000000000000000000005A8FC2F5283C44407093142FCDD0F2BF000000000000000000000000000000000000000000000000000000000000F03F0C00000016000000070000C30C0000001700
310
0000FDFFFFFF0C00000012000000000000005400000020000000020000005A8FC2F5287C4540C09F0ADBB92EDDBF00000000000000005A8FC2F5287C45407093142FCDD0F2BF000000000000000000000000000000000000000000000000000000000000F03F0C00000016000000070000C30C00000017000000FDFFFFFF0C
310
0000001200000000000000540000002000000002000000588FC2F528BC4640C09F0ADBB92EDDBF0000000000000000588FC2F528BC46407093142FCDD0F2BF000000000000000000000000000000000000000000000000000000000000F03F0C00000016000000070000C30C00000017000000FDFFFFFF0C00000012000000
310
00000000540000002000000002000000588FC2F528FC4740C09F0ADBB92EDDBF0000000000000000588FC2F528FC47407093142FCDD0F2BF000000000000000000000000000000000000000000000000000000000000F03F0C00000016000000070000C30C00000017000000FDFFFFFF0C0000001200000000000000540000
310
002000000002000000588FC2F5283C4940C09F0ADBB92EDDBF0000000000000000588FC2F5283C49407093142FCDD0F2BF000000000000000000000000000000000000000000000000000000000000F03F0C00000016000000070000C30C00000017000000FDFFFFFF0C000000120000000000000054000000200000000200
310
0000588FC2F5287C4A4000000000000000000000000000000000588FC2F5287C4A407093142FCDD0F2BF000000000000000000000000000000000000000000000000000000000000F03F0C00000016000000080000C30C00000017000000000000000C00000012000000000000005400000020000000020000000000000000
310
0000000000000000000000000000000000000000000000000000000000000000000000000000000000000000000000000000000000000000000000000000000000F03F0C00000016000000070000C30C00000017000000FDFFFFFF0C00000012000000000000005400000020000000020000007814AE47E1FA4A4000000000
310
0000000000000000000000003C0AD7A3709D50400000000000000000000000000000000000000000000000000000000000000000000000000000F03F0C00000016000000070000C30C00000017000000FDFFFFFF0C00000012000000000000005400000020000000020000007814AE47E1FA4A40C09F0ADBB92EDDBF000000
310
00000000003C0AD7A3709D5040C09F0ADBB92EDDBF000000000000000000000000000000000000000000000000000000000000F03F0C00000016000000070000C30C00000017000000FDFFFFFF0C00000012000000000000005400000020000000020000007814AE47E1FA4A40603BD7A57B1CEABF00000000000000003C0A
310
D7A3709D5040603BD7A57B1CEABF000000000000000000000000000000000000000000000000000000000000F03F0C00000016000000070000C30C00000017000000FDFFFFFF0C00000012000000000000005400000020000000020000007814AE47E1FA4A407093142FCDD0F2BF00000000000000003C0AD7A3709D504070
310
93142FCDD0F2BF000000000000000000000000000000000000000000000000000000000000F03F0C00000016000000070000C30C00000017000000FDFFFFFF0C00000012000000000000005400000020000000020000007814AE47E1FA4A40000000000000000000000000000000007814AE47E1FA4A407093142FCDD0F2BF
310
000000000000000000000000000000000000000000000000000000000000F03F0C00000016000000070000C30C00000017000000FDFFFFFF0C00000012000000000000005400000020000000020000007814AE47E13A4C40C09F0ADBB92EDDBF00000000000000007814AE47E13A4C407093142FCDD0F2BF00000000000000
310
0000000000000000000000000000000000000000000000F03F0C00000016000000070000C30C00000017000000FDFFFFFF0C00000012000000000000005400000020000000020000007814AE47E17A4D40C09F0ADBB92EDDBF00000000000000007814AE47E17A4D407093142FCDD0F2BF0000000000000000000000000000
310
00000000000000000000000000000000F03F0C00000016000000070000C30C00000017000000FDFFFFFF0C00000012000000000000005400000020000000020000007814AE47E1BA4E40C09F0ADBB92EDDBF00000000000000007814AE47E1BA4E407093142FCDD0F2BF000000000000000000000000000000000000000000
310
000000000000000000F03F0C00000016000000070000C30C00000017000000FDFFFFFF0C00000012000000000000005400000020000000020000007814AE47E1FA4F40C09F0ADBB92EDDBF00000000000000007814AE47E1FA4F407093142FCDD0F2BF00000000000000000000000000000000000000000000000000000000
310
0000F03F0C00000016000000070000C30C00000017000000FDFFFFFF0C00000012000000000000005400000020000000020000003C0AD7A3709D5040000000000000000000000000000000003C0AD7A3709D50407093142FCDD0F2BF000000000000000000000000000000000000000000000000000000000000F03F0C0000
310
0016000000080000C30C00000017000000000000000C000000120000000000000054000000200000000200000000000000000000000000000000000000000000000000000000000000000000000000000000000000000000000000000000000000000000000000000000000000000000000000F03F080000001F000000
100
AcDbBlockReference
  2
*T1
 10
84.66509801618446
 20
20.50261019851033
 30
0.0
100
AcDbTable
342
FE
343
2C
 11
1.0
 21
0.0
 31
0.0
 90
       22
 91
        5
 92
        5
 93
        0
 94
        0
 95
        0
 96
        0
141
0.4559769286229273
141
0.36
141
0.36
141
0.36
141
0.36
142
2.5
142
2.5
142
2.5
142
2.5
142
2.5
171
     1
172
     0
173
     0
174
     0
175
     5
176
     1
 91
   262144
178
     0
145
0.0
 92
        0
301
CELL_VALUE
 93
        6
 90
        4
  1
Zagolovok
 94
        0
300

302
Zagolovok
304
ACVALUE_END
171
     1
172
     0
173
     1
174
     0
175
     1
176
     1
 91
        0
178
     0
145
0.0
 92
        0
301
CELL_VALUE
 93
        7
 90
        0
 94
        0
300

302

304
ACVALUE_END
171
     1
172
     0
173
     1
174
     0
175
     1
176
     1
 91
        0
178
     0
145
0.0
 92
        0
301
CELL_VALUE
 93
        7
 90
        0
 94
        0
300

302

304
ACVALUE_END
171
     1
172
     0
173
     1
174
     0
175
     1
176
     1
 91
        0
178
     0
145
0.0
 92
        0
301
CELL_VALUE
 93
        7
 90
        0
 94
        0
300

302

304
ACVALUE_END
171
     1
172
     0
173
     1
174
     0
175
     1
176
     1
 91
        0
178
     0
145
0.0
 92
        0
301
CELL_VALUE
 93
        7
 90
        0
 94
        0
300

302

304
ACVALUE_END
171
     1
172
     0
173
     0
174
     0
175
     1
176
     1
 91
   262144
178
     0
145
0.0
 92
        0
301
CELL_VALUE
 93
        6
 90
        4
  1
A
 94
        0
300

302
A
304
ACVALUE_END
171
     1
172
     0
173
     0
174
     0
175
     1
176
     1
 91
   262144
178
     0
145
0.0
 92
        0
301
CELL_VALUE
 93
        6
 90
        4
  1
B
 94
        0
300

302
B
304
ACVALUE_END
171
     1
172
     0
173
     0
174
     0
175
     1
176
     1
 91
   262144
178
     0
145
0.0
 92
        0
301
CELL_VALUE
 93
        6
 90
        4
  1
C
 94
        0
300

302
C
304
ACVALUE_END
171
     1
172
     0
173
     0
174
     0
175
     1
176
     1
 91
   262144
178
     0
145
0.0
 92
        0
301
CELL_VALUE
 93
        6
 90
        4
  1
D
 94
        0
300

302
D
304
ACVALUE_END
171
     1
172
     0
173
     0
174
     0
175
     1
176
     1
 91
   262144
178
     0
145
0.0
 92
        0
301
CELL_VALUE
 93
        6
 90
        4
  1
E
 94
        0
300

302
E
304
ACVALUE_END
171
     1
172
     0
173
     0
174
     0
175
     1
176
     1
 91
   262145
178
     0
145
0.0
170
     3
 92
        0
301
CELL_VALUE
 93
        6
 90
        1
 91
        1
 94
        0
300

302
1
304
ACVALUE_END
171
     1
172
     0
173
     0
174
     0
175
     1
176
     1
 91
   262145
178
     0
145
0.0
170
     3
 92
        0
301
CELL_VALUE
 93
        6
 90
        1
 91
        2
 94
        0
300

302
2
304
ACVALUE_END
171
     1
172
     0
173
     0
174
     0
175
     1
176
     1
 91
   262145
178
     0
145
0.0
170
     3
 92
        0
301
CELL_VALUE
 93
        6
 90
        1
 91
        3
 94
        0
300

302
3
304
ACVALUE_END
171
     1
172
     0
173
     0
174
     0
175
     1
176
     1
 91
   262145
178
     0
145
0.0
170
     3
 92
        0
301
CELL_VALUE
 93
        6
 90
        1
 91
        4
 94
        0
300

302
4
304
ACVALUE_END
171
     1
172
     0
173
     0
174
     0
175
     1
176
     1
 91
   262145
178
     0
145
0.0
170
     3
 92
        0
301
CELL_VALUE
 93
        6
 90
        1
 91
        5
 94
        0
300

302
5
304
ACVALUE_END
171
     1
172
     0
173
     0
174
     0
175
     1
176
     1
 91
   262145
178
     0
145
0.0
170
     3
 92
        0
301
CELL_VALUE
 93
        6
 90
        1
 91
        6
 94
        0
300

302
6
304
ACVALUE_END
171
     1
172
     0
173
     0
174
     0
175
     1
176
     1
 91
   262145
178
     0
145
0.0
170
     3
 92
        0
301
CELL_VALUE
 93
        6
 90
        1
 91
        7
 94
        0
300

302
7
304
ACVALUE_END
171
     1
172
     0
173
     0
174
     0
175
     1
176
     1
 91
   262145
178
     0
145
0.0
170
     3
 92
        0
301
CELL_VALUE
 93
        6
 90
        1
 91
        8
 94
        0
300

302
8
304
ACVALUE_END
171
     1
172
     0
173
     0
174
     0
175
     1
176
     1
 91
   262145
178
     0
145
0.0
170
     3
 92
        0
301
CELL_VALUE
 93
        6
 90
        1
 91
        9
 94
        0
300

302
9
304
ACVALUE_END
171
     1
172
     0
173
     0
174
     0
175
     1
176
     1
 91
   262145
178
     0
145
0.0
170
     3
 92
        0
301
CELL_VALUE
 93
        6
 90
        1
 91
        0
 94
        0
300

302
0
304
ACVALUE_END
171
     1
172
     0
173
     0
174
     0
175
     1
176
     1
 91
   262161
178
     0
145
0.0
170
     5
  7
Standard
 92
        0
301
CELL_VALUE
 93
        6
 90
        4
  1
F
 94
        0
300

302
F
304
ACVALUE_END
171
     1
172
     0
173
     0
174
     0
175
     1
176
     1
 91
   262161
178
     0
145
0.0
170
     5
  7
Standard
 92
        0
301
CELL_VALUE
 93
        6
 90
        4
  1
G
 94
        0
300

302
G
304
ACVALUE_END
171
     1
172
     0
173
     0
174
     0
175
     1
176
     1
 91
   262161
178
     0
145
0.0
170
     5
  7
Standard
 92
        0
301
CELL_VALUE
 93
        6
 90
        4
  1
H
 94
        0
300

302
H
304
ACVALUE_END
171
     1
172
     0
173
     0
174
     0
175
     1
176
     1
 91
   262161
178
     0
145
0.0
170
     5
  7
Standard
 92
        0
301
CELL_VALUE
 93
        6
 90
        4
  1
SS
 94
        0
300

302
SS
304
ACVALUE_END
171
     1
172
     0
173
     0
174
     0
175
     1
176
     1
 91
   262161
178
     0
145
0.0
170
     5
  7
Standard
 92
        0
301
CELL_VALUE
 93
        6
 90
        4
  1
FF
 94
        0
300

302
FF
304
ACVALUE_END
  0
ACAD_TABLE
  5
54C
330
26
100
AcDbEntity
  8
0
 92
     4144
310
301000005E000000880000001D000000000000000000F03F00000000000000000000000000000000F3CB3A20ED8958400000000000000000000000000000F03F0000000000000000E93CDD0FAB80344000000000000000000000000000000000000000000000F03F0000000000000000000000000000000000000000000000
310
000000000000000000000000000000F03F0C00000016000000070000C30C00000017000000FDFFFFFF0C0000001200000000000000D8000000260000009A3469D2A4C9154031AA4757663ED4BF000000000000000000000000000000000000000000000000000000000000F03F000000000000F03F00000000000000000000
310
0000000000005A00610067006F006C006F0076006F006B0000000900000001000000000000000000D03F000000000000F03F0000000000000000000000000000F03F000000000000000000000000000000000000000000000000000000000100000012000000540069006D006500730020004E0065007700200052006F006D
310
0061006E00000000000000000000000C00000016000000070000C30C00000017000000FDFFFFFF0C0000001200000000000000B8000000260000000AD7A3703D0AF33F62C0C2F7333BE7BF000000000000000000000000000000000000000000000000000000000000F03F000000000000F03F000000000000000000000000
310
000000004100000001000000010000000AD7A3703D0AC73F000000000000F03F0000000000000000000000000000F03F000000000000000000000000000000000000000000000000000000000100000000000000000000007400780074002E007300680078000000000000000C00000016000000070000C30C000000170000
310
00FDFFFFFF0C0000001200000000000000B80000002600000085EB51B81E850D4062C0C2F7333BE7BF000000000000000000000000000000000000000000000000000000000000F03F000000000000F03F000000000000000000000000000000004200000001000000010000000AD7A3703D0AC73F000000000000F03F0000
310
000000000000000000000000F03F000000000000000000000000000000000000000000000000000000000100000000000000000000007400780074002E0073006800780000000000A93F0C00000016000000070000C30C00000017000000FDFFFFFF0C0000001200000000000000B800000026000000C3F5285C8FC2184062
310
C0C2F7333BE7BF000000000000000000000000000000000000000000000000000000000000F03F000000000000F03F000000000000000000000000000000004300000001000000010000000AD7A3703D0AC73F000000000000F03F0000000000000000000000000000F03F0000000000000000000000000000000000000000
310
00000000000000000100000000000000000000007400780074002E0073006800780000000000A93F0C00000016000000070000C30C00000017000000FDFFFFFF0C0000001200000000000000B800000026000000E27A14AE4761214062C0C2F7333BE7BF000000000000000000000000000000000000000000000000000000
310
000000F03F000000000000F03F000000000000000000000000000000004400000001000000010000000AD7A3703D0AC73F000000000000F03F0000000000000000000000000000F03F000000000000000000000000000000000000000000000000000000000100000000000000000000007400780074002E00730068007800
310
0000000000000C00000016000000070000C30C00000017000000FDFFFFFF0C0000001200000000000000B800000026000000E27A14AE4761264062C0C2F7333BE7BF000000000000000000000000000000000000000000000000000000000000F03F000000000000F03F000000000000000000000000000000004500000001
310
000000010000000AD7A3703D0AC73F000000000000F03F0000000000000000000000000000F03F000000000000000000000000000000000000000000000000000000000100000000000000000000007400780074002E00730068007800000000008D3F0C00000016000000070000C30C00000017000000FDFFFFFF0C000000
310
1200000000000000CC0000002600000008B454553EA7014081415C1048E5F0BF000000000000000000000000000000000000000000000000000000000000F03F000000000000F03F00000000000000000000000000000000310031000000000002000000010000000AD7A3703D0AC73F000000000000F03F00000000000000
310
00000000000000F03F000000000000000000000000000000000000000000000000000000000100000012000000540069006D006500730020004E0065007700200052006F006D0061006E00000000000000000000000C00000016000000070000C30C00000017000000FDFFFFFF0C0000001200000000000000CC0000002600
310
0000A63862D8B1BD124081415C1048E5F0BF000000000000000000000000000000000000000000000000000000000000F03F000000000000F03F00000000000000000000000000000000310032000000670002000000010000000AD7A3703D0AC73F000000000000F03F0000000000000000000000000000F03F0000000000
310
00000000000000000000000000000000000000000000000100000012000000540069006D006500730020004E0065007700200052006F006D0061006E00000000000000000000000C00000016000000070000C30C00000017000000FDFFFFFF0C0000001200000000000000CC000000260000005A59688EFDC81C4081415C10
310
48E5F0BF000000000000000000000000000000000000000000000000000000000000F03F000000000000F03F000000000000000000000000000000003100330000006E0002000000010000000AD7A3703D0AC73F000000000000F03F0000000000000000000000000000F03F00000000000000000000000000000000000000
310
0000000000000000000100000012000000540069006D006500730020004E0065007700200052006F006D0061006E00000000000000000053000C00000016000000070000C30C00000017000000FDFFFFFF0C0000001200000000000000CC0000002600000011891EC8EA5D234081415C1048E5F0BF00000000000000000000
310
0000000000000000000000000000000000000000F03F000000000000F03F000000000000000000000000000000003100340000006F0002000000010000000AD7A3703D0AC73F000000000000F03F0000000000000000000000000000F03F000000000000000000000000000000000000000000000000000000000100000012
310
000000540069006D006500730020004E0065007700200052006F006D0061006E00000000000000000061000C00000016000000070000C30C00000017000000FDFFFFFF0C0000001200000000000000CC0000002600000089BC056D2B62284081415C1048E5F0BF000000000000000000000000000000000000000000000000
310
000000000000F03F000000000000F03F000000000000000000000000000000003100350000006F0002000000010000000AD7A3703D0AC73F000000000000F03F0000000000000000000000000000F03F000000000000000000000000000000000000000000000000000000000100000012000000540069006D006500730020
310
004E0065007700200052006F006D0061006E00000000000000000061000C00000016000000070000C30C00000017000000FDFFFFFF0C00000012000000000000005400000020000000020000000000000000000000000000000000000000000000000000000000000000002940000000000000000000000000000000000000
310
0000000000000000000000000000000000000000F03F0C00000016000000070000C30C00000017000000FDFFFFFF0C00000012000000000000005400000020000000020000000000000000000000C09F0ADBB92EDDBF00000000000000000000000000002940C09F0ADBB92EDDBF0000000000000000000000000000000000
310
00000000000000000000000000F03F0C00000016000000070000C30C00000017000000FDFFFFFF0C00000012000000000000005400000020000000020000000000000000000000603BD7A57B1CEABF00000000000000000000000000002940603BD7A57B1CEABF000000000000000000000000000000000000000000000000
310
000000000000F03F0C00000016000000070000C30C00000017000000FDFFFFFF0C000000120000000000000054000000200000000200000000000000000000007093142FCDD0F2BF000000000000000000000000000029407093142FCDD0F2BF000000000000000000000000000000000000000000000000000000000000F0
310
3F0C00000016000000070000C30C00000017000000FDFFFFFF0C0000001200000000000000540000002000000002000000000000000000000030893D8B5C93F8BF0000000000000000000000000000294030893D8B5C93F8BF000000000000000000000000000000000000000000000000000000000000F03F0C0000001600
310
0000070000C30C00000017000000FDFFFFFF0C0000001200000000000000540000002000000002000000000000000000000000000000000000000000000000000000000000000000000030893D8B5C93F8BF000000000000000000000000000000000000000000000000000000000000F03F0C00000016000000070000C30C
310
00000017000000FDFFFFFF0C00000012000000000000005400000020000000020000000000000000000440C09F0ADBB92EDDBF0000000000000000000000000000044030893D8B5C93F8BF000000000000000000000000000000000000000000000000000000000000F03F0C00000016000000070000C30C00000017000000
310
FDFFFFFF0C00000012000000000000005400000020000000020000000000000000001440C09F0ADBB92EDDBF0000000000000000000000000000144030893D8B5C93F8BF000000000000000000000000000000000000000000000000000000000000F03F0C00000016000000070000C30C00000017000000FDFFFFFF0C0000
310
0012000000000000005400000020000000020000000000000000001E40C09F0ADBB92EDDBF00000000000000000000000000001E4030893D8B5C93F8BF000000000000000000000000000000000000000000000000000000000000F03F0C00000016000000070000C30C00000017000000FDFFFFFF0C000000120000000000
310
00005400000020000000020000000000000000002440C09F0ADBB92EDDBF0000000000000000000000000000244030893D8B5C93F8BF000000000000000000000000000000000000000000000000000000000000F03F0C00000016000000070000C30C00000017000000FDFFFFFF0C00000012000000000000005400000020
310
00000002000000000000000000294000000000000000000000000000000000000000000000294030893D8B5C93F8BF000000000000000000000000000000000000000000000000000000000000F03F0C00000016000000080000C30C00000017000000000000000C0000001200000000000000540000002000000002000000
310
00000000000000000000000000000000000000000000000000000000000000000000000000000000000000000000000000000000000000000000000000000000000000000000F03F080000001F000000
100
AcDbBlockReference
  2
*T4
 10
98.15509801618446
 20
20.50261019851033
 30
0.0
100
AcDbTable
342
FE
343
2F
 11
1.0
 21
0.0
 31
0.0
 90
       22
 91
        4
 92
        5
 93
        0
 94
        0
 95
        0
 96
        0
141
0.4559769286229273
141
0.36
141
0.36
141
0.36
142
2.5
142
2.5
142
2.5
142
2.5
142
2.5
171
     1
172
     0
173
     0
174
     0
175
     5
176
     1
 91
   262144
178
     0
145
0.0
 92
        0
301
CELL_VALUE
 93
        6
 90
        4
  1
Zagolovok
 94
        0
300

302
Zagolovok
304
ACVALUE_END
171
     1
172
     0
173
     1
174
     0
175
     1
176
     1
 91
        0
178
     0
145
0.0
 92
        0
301
CELL_VALUE
 93
        7
 90
        0
 94
        0
300

302

304
ACVALUE_END
171
     1
172
     0
173
     1
174
     0
175
     1
176
     1
 91
        0
178
     0
145
0.0
 92
        0
301
CELL_VALUE
 93
        7
 90
        0
 94
        0
300

302

304
ACVALUE_END
171
     1
172
     0
173
     1
174
     0
175
     1
176
     1
 91
        0
178
     0
145
0.0
 92
        0
301
CELL_VALUE
 93
        7
 90
        0
 94
        0
300

302

304
ACVALUE_END
171
     1
172
     0
173
     1
174
     0
175
     1
176
     1
 91
        0
178
     0
145
0.0
 92
        0
301
CELL_VALUE
 93
        7
 90
        0
 94
        0
300

302

304
ACVALUE_END
171
     1
172
     0
173
     0
174
     0
175
     1
176
     1
 91
   262144
178
     0
145
0.0
 92
        0
301
CELL_VALUE
 93
        6
 90
        4
  1
A
 94
        0
300

302
A
304
ACVALUE_END
171
     1
172
     0
173
     0
174
     0
175
     1
176
     1
 91
   262144
178
     0
145
0.0
 92
        0
301
CELL_VALUE
 93
        6
 90
        4
  1
B
 94
        0
300

302
B
304
ACVALUE_END
171
     1
172
     0
173
     0
174
     0
175
     1
176
     1
 91
   262144
178
     0
145
0.0
 92
        0
301
CELL_VALUE
 93
        6
 90
        4
  1
C
 94
        0
300

302
C
304
ACVALUE_END
171
     1
172
     0
173
     0
174
     0
175
     1
176
     1
 91
   262144
178
     0
145
0.0
 92
        0
301
CELL_VALUE
 93
        6
 90
        4
  1
D
 94
        0
300

302
D
304
ACVALUE_END
171
     1
172
     0
173
     0
174
     0
175
     1
176
     1
 91
   262144
178
     0
145
0.0
 92
        0
301
CELL_VALUE
 93
        6
 90
        4
  1
E
 94
        0
300

302
E
304
ACVALUE_END
171
     1
172
     0
173
     0
174
     0
175
     1
176
     1
 91
   262145
178
     0
145
0.0
170
     3
 92
        0
301
CELL_VALUE
 93
        6
 90
        1
 91
       11
 94
        0
300

302
11
304
ACVALUE_END
171
     1
172
     0
173
     0
174
     0
175
     1
176
     1
 91
   262145
178
     0
145
0.0
170
     3
 92
        0
301
CELL_VALUE
 93
        6
 90
        1
 91
       12
 94
        0
300

302
12
304
ACVALUE_END
171
     1
172
     0
173
     0
174
     0
175
     1
176
     1
 91
   262145
178
     0
145
0.0
170
     3
 92
        0
301
CELL_VALUE
 93
        6
 90
        1
 91
       13
 94
        0
300

302
13
304
ACVALUE_END
171
     1
172
     0
173
     0
174
     0
175
     1
176
     1
 91
   262145
178
     0
145
0.0
170
     3
 92
        0
301
CELL_VALUE
 93
        6
 90
        1
 91
       14
 94
        0
300

302
14
304
ACVALUE_END
171
     1
172
     0
173
     0
174
     0
175
     1
176
     1
 91
   262145
178
     0
145
0.0
170
     3
 92
        0
301
CELL_VALUE
 93
        6
 90
        1
 91
       15
 94
        0
300

302
15
304
ACVALUE_END
171
     1
172
     0
173
     0
174
     0
175
     1
176
     1
 91
   262145
178
     0
145
0.0
170
     3
 92
        0
301
CELL_VALUE
 93
        5
 90
        1
 94
        0
300

302

304
ACVALUE_END
171
     1
172
     0
173
     0
174
     0
175
     1
176
     1
 91
   262145
178
     0
145
0.0
170
     3
 92
        0
301
CELL_VALUE
 93
        5
 90
        1
 94
        0
300

302

304
ACVALUE_END
171
     1
172
     0
173
     0
174
     0
175
     1
176
     1
 91
   262145
178
     0
145
0.0
170
     3
 92
        0
301
CELL_VALUE
 93
        5
 90
        1
 94
        0
300

302

304
ACVALUE_END
171
     1
172
     0
173
     0
174
     0
175
     1
176
     1
 91
   262145
178
     0
145
0.0
170
     3
 92
        0
301
CELL_VALUE
 93
        5
 90
        1
 94
        0
300

302

304
ACVALUE_END
171
     1
172
     0
173
     0
174
     0
175
     1
176
     1
 91
   262145
178
     0
145
0.0
170
     3
 92
        0
301
CELL_VALUE
 93
        5
 90
        1
 94
        0
300

302

304
ACVALUE_END
  0
ACAD_TABLE
  5
5BC
330
26
100
AcDbEntity
  8
0
 92
     2824
310
080B000046000000880000001D000000000000000000F03F00000000000000000000000000000000828E304949E95B400000000000000000000000000000F03F0000000000000000E93CDD0FAB80344000000000000000000000000000000000000000000000F03F0000000000000000000000000000000000000000000000
310
000000000000000000000000000000F03F0C00000016000000070000C30C00000017000000FDFFFFFF0C0000001200000000000000D8000000260000009A3469D2A4C9154031AA4757663ED4BF000000000000000000000000000000000000000000000000000000000000F03F000000000000F03F00000000000000000000
310
0000000000005A00610067006F006C006F0076006F006B0000000900000001000000000000000000D03F000000000000F03F0000000000000000000000000000F03F000000000000000000000000000000000000000000000000000000000100000012000000540069006D006500730020004E0065007700200052006F006D
310
0061006E00000000000000000000000C00000016000000070000C30C00000017000000FDFFFFFF0C0000001200000000000000B8000000260000000AD7A3703D0AF33F62C0C2F7333BE7BF000000000000000000000000000000000000000000000000000000000000F03F000000000000F03F000000000000000000000000
310
000000004100000001000000010000000AD7A3703D0AC73F000000000000F03F0000000000000000000000000000F03F000000000000000000000000000000000000000000000000000000000100000000000000000000007400780074002E00730068007800000000008D3F0C00000016000000070000C30C000000170000
310
00FDFFFFFF0C0000001200000000000000B80000002600000085EB51B81E850D4062C0C2F7333BE7BF000000000000000000000000000000000000000000000000000000000000F03F000000000000F03F000000000000000000000000000000004200000001000000010000000AD7A3703D0AC73F000000000000F03F0000
310
000000000000000000000000F03F000000000000000000000000000000000000000000000000000000000100000000000000000000007400780074002E00730068007800000000008D3F0C00000016000000070000C30C00000017000000FDFFFFFF0C0000001200000000000000B800000026000000C3F5285C8FC2184062
310
C0C2F7333BE7BF000000000000000000000000000000000000000000000000000000000000F03F000000000000F03F000000000000000000000000000000004300000001000000010000000AD7A3703D0AC73F000000000000F03F0000000000000000000000000000F03F0000000000000000000000000000000000000000
310
00000000000000000100000000000000000000007400780074002E007300680078000000000000000C00000016000000070000C30C00000017000000FDFFFFFF0C0000001200000000000000B800000026000000E27A14AE4761214062C0C2F7333BE7BF000000000000000000000000000000000000000000000000000000
310
000000F03F000000000000F03F000000000000000000000000000000004400000001000000010000000AD7A3703D0AC73F000000000000F03F0000000000000000000000000000F03F000000000000000000000000000000000000000000000000000000000100000000000000000000007400780074002E00730068007800
310
0000000000000C00000016000000070000C30C00000017000000FDFFFFFF0C0000001200000000000000B800000026000000E27A14AE4761264062C0C2F7333BE7BF000000000000000000000000000000000000000000000000000000000000F03F000000000000F03F000000000000000000000000000000004500000001
310
000000010000000AD7A3703D0AC73F000000000000F03F0000000000000000000000000000F03F000000000000000000000000000000000000000000000000000000000100000000000000000000007400780074002E007300680078000000000000000C00000016000000070000C30C00000017000000FDFFFFFF0C000000
310
120000000000000054000000200000000200000000000000000000000000000000000000000000000000000000000000000029400000000000000000000000000000000000000000000000000000000000000000000000000000F03F0C00000016000000070000C30C00000017000000FDFFFFFF0C00000012000000000000
310
005400000020000000020000000000000000000000C09F0ADBB92EDDBF00000000000000000000000000002940C09F0ADBB92EDDBF000000000000000000000000000000000000000000000000000000000000F03F0C00000016000000070000C30C00000017000000FDFFFFFF0C0000001200000000000000540000002000
310
0000020000000000000000000000603BD7A57B1CEABF00000000000000000000000000002940603BD7A57B1CEABF000000000000000000000000000000000000000000000000000000000000F03F0C00000016000000070000C30C00000017000000FDFFFFFF0C000000120000000000000054000000200000000200000000
310
000000000000007093142FCDD0F2BF000000000000000000000000000029407093142FCDD0F2BF000000000000000000000000000000000000000000000000000000000000F03F0C00000016000000070000C30C00000017000000FDFFFFFF0C00000012000000000000005400000020000000020000000000000000000000
310
0000000000000000000000000000000000000000000000007093142FCDD0F2BF000000000000000000000000000000000000000000000000000000000000F03F0C00000016000000070000C30C00000017000000FDFFFFFF0C00000012000000000000005400000020000000020000000000000000000440C09F0ADBB92EDD
310
BF000000000000000000000000000004407093142FCDD0F2BF000000000000000000000000000000000000000000000000000000000000F03F0C00000016000000070000C30C00000017000000FDFFFFFF0C00000012000000000000005400000020000000020000000000000000001440C09F0ADBB92EDDBF000000000000
310
000000000000000014407093142FCDD0F2BF000000000000000000000000000000000000000000000000000000000000F03F0C00000016000000070000C30C00000017000000FDFFFFFF0C00000012000000000000005400000020000000020000000000000000001E40C09F0ADBB92EDDBF00000000000000000000000000
310
001E407093142FCDD0F2BF000000000000000000000000000000000000000000000000000000000000F03F0C00000016000000070000C30C00000017000000FDFFFFFF0C00000012000000000000005400000020000000020000000000000000002440C09F0ADBB92EDDBF000000000000000000000000000024407093142F
310
CDD0F2BF000000000000000000000000000000000000000000000000000000000000F03F0C00000016000000070000C30C00000017000000FDFFFFFF0C000000120000000000000054000000200000000200000000000000000029400000000000000000000000000000000000000000000029407093142FCDD0F2BF000000
310
000000000000000000000000000000000000000000000000000000F03F0C00000016000000080000C30C00000017000000000000000C00000012000000000000005400000020000000020000000000000000000000000000000000000000000000000000000000000000000000000000000000000000000000000000000000
310
0000000000000000000000000000000000000000F03F080000001F000000
100
AcDbBlockReference
  2
*T5
 10
111.6450980161844
 20
20.50261019851033
 30
0.0
100
AcDbTable
342
FE
343
30
 11
1.0
 21
0.0
 31
0.0
 90
       22
 91
        3
 92
        5
 93
        0
 94
        0
 95
        0
 96
        0
141
0.4559769286229273
141
0.36
141
0.36
142
2.5
142
2.5
142
2.5
142
2.5
142
2.5
171
     1
172
     0
173
     0
174
     0
175
     5
176
     1
 91
   262144
178
     0
145
0.0
 92
        0
301
CELL_VALUE
 93
        6
 90
        4
  1
Zagolovok
 94
        0
300

302
Zagolovok
304
ACVALUE_END
171
     1
172
     0
173
     1
174
     0
175
     1
176
     1
 91
        0
178
     0
145
0.0
 92
        0
301
CELL_VALUE
 93
        7
 90
        0
 94
        0
300

302

304
ACVALUE_END
171
     1
172
     0
173
     1
174
     0
175
     1
176
     1
 91
        0
178
     0
145
0.0
 92
        0
301
CELL_VALUE
 93
        7
 90
        0
 94
        0
300

302

304
ACVALUE_END
171
     1
172
     0
173
     1
174
     0
175
     1
176
     1
 91
        0
178
     0
145
0.0
 92
        0
301
CELL_VALUE
 93
        7
 90
        0
 94
        0
300

302

304
ACVALUE_END
171
     1
172
     0
173
     1
174
     0
175
     1
176
     1
 91
        0
178
     0
145
0.0
 92
        0
301
CELL_VALUE
 93
        7
 90
        0
 94
        0
300

302

304
ACVALUE_END
171
     1
172
     0
173
     0
174
     0
175
     1
176
     1
 91
   262144
178
     0
145
0.0
 92
        0
301
CELL_VALUE
 93
        6
 90
        4
  1
A
 94
        0
300

302
A
304
ACVALUE_END
171
     1
172
     0
173
     0
174
     0
175
     1
176
     1
 91
   262144
178
     0
145
0.0
 92
        0
301
CELL_VALUE
 93
        6
 90
        4
  1
B
 94
        0
300

302
B
304
ACVALUE_END
171
     1
172
     0
173
     0
174
     0
175
     1
176
     1
 91
   262144
178
     0
145
0.0
 92
        0
301
CELL_VALUE
 93
        6
 90
        4
  1
C
 94
        0
300

302
C
304
ACVALUE_END
171
     1
172
     0
173
     0
174
     0
175
     1
176
     1
 91
   262144
178
     0
145
0.0
 92
        0
301
CELL_VALUE
 93
        6
 90
        4
  1
D
 94
        0
300

302
D
304
ACVALUE_END
171
     1
172
     0
173
     0
174
     0
175
     1
176
     1
 91
   262144
178
     0
145
0.0
 92
        0
301
CELL_VALUE
 93
        6
 90
        4
  1
E
 94
        0
300

302
E
304
ACVALUE_END
171
     1
172
     0
173
     0
174
     0
175
     1
176
     1
 91
   262145
178
     0
145
0.0
170
     3
 92
        0
301
CELL_VALUE
 93
        5
 90
        1
 94
        0
300

302

304
ACVALUE_END
171
     1
172
     0
173
     0
174
     0
175
     1
176
     1
 91
   262145
178
     0
145
0.0
170
     3
 92
        0
301
CELL_VALUE
 93
        5
 90
        1
 94
        0
300

302

304
ACVALUE_END
171
     1
172
     0
173
     0
174
     0
175
     1
176
     1
 91
   262145
178
     0
145
0.0
170
     3
 92
        0
301
CELL_VALUE
 93
        5
 90
        1
 94
        0
300

302

304
ACVALUE_END
171
     1
172
     0
173
     0
174
     0
175
     1
176
     1
 91
   262145
178
     0
145
0.0
170
     3
 92
        0
301
CELL_VALUE
 93
        5
 90
        1
 94
        0
300

302

304
ACVALUE_END
171
     1
172
     0
173
     0
174
     0
175
     1
176
     1
 91
   262145
178
     0
145
0.0
170
     3
 92
        0
301
CELL_VALUE
 93
        5
 90
        1
 94
        0
300

302

304
ACVALUE_END
  0
ACAD_TABLE
  5
62C
330
26
100
AcDbEntity
  8
0
 92
     2824
310
080B000046000000880000001D000000000000000000F03F0000000000000000000000000000000011512672A5485F400000000000000000000000000000F03F0000000000000000E93CDD0FAB80344000000000000000000000000000000000000000000000F03F0000000000000000000000000000000000000000000000
310
000000000000000000000000000000F03F0C00000016000000070000C30C00000017000000FDFFFFFF0C0000001200000000000000D800000026000000AA3469D2A4C9154031AA4757663ED4BF000000000000000000000000000000000000000000000000000000000000F03F000000000000F03F00000000000000000000
310
0000000000005A00610067006F006C006F0076006F006B0000000900000001000000000000000000D03F000000000000F03F0000000000000000000000000000F03F000000000000000000000000000000000000000000000000000000000100000012000000540069006D006500730020004E0065007700200052006F006D
310
0061006E00000000000000000000000C00000016000000070000C30C00000017000000FDFFFFFF0C0000001200000000000000B8000000260000000AD7A3703D0AF33F62C0C2F7333BE7BF000000000000000000000000000000000000000000000000000000000000F03F000000000000F03F000000000000000000000000
310
000000004100000001000000010000000AD7A3703D0AC73F000000000000F03F0000000000000000000000000000F03F000000000000000000000000000000000000000000000000000000000100000000000000000000007400780074002E007300680078000000000000000C00000016000000070000C30C000000170000
310
00FDFFFFFF0C0000001200000000000000B800000026000000A5EB51B81E850D4062C0C2F7333BE7BF000000000000000000000000000000000000000000000000000000000000F03F000000000000F03F000000000000000000000000000000004200000001000000010000000AD7A3703D0AC73F000000000000F03F0000
310
000000000000000000000000F03F000000000000000000000000000000000000000000000000000000000100000000000000000000007400780074002E007300680078000000000000000C00000016000000070000C30C00000017000000FDFFFFFF0C0000001200000000000000B800000026000000B3F5285C8FC2184062
310
C0C2F7333BE7BF000000000000000000000000000000000000000000000000000000000000F03F000000000000F03F000000000000000000000000000000004300000001000000010000000AD7A3703D0AC73F000000000000F03F0000000000000000000000000000F03F0000000000000000000000000000000000000000
310
00000000000000000100000000000000000000007400780074002E007300680078000000000000000C00000016000000070000C30C00000017000000FDFFFFFF0C0000001200000000000000B800000026000000DA7A14AE4761214062C0C2F7333BE7BF000000000000000000000000000000000000000000000000000000
310
000000F03F000000000000F03F000000000000000000000000000000004400000001000000010000000AD7A3703D0AC73F000000000000F03F0000000000000000000000000000F03F000000000000000000000000000000000000000000000000000000000100000000000000000000007400780074002E00730068007800
310
000000008D3F0C00000016000000070000C30C00000017000000FDFFFFFF0C0000001200000000000000B800000026000000DA7A14AE4761264062C0C2F7333BE7BF000000000000000000000000000000000000000000000000000000000000F03F000000000000F03F000000000000000000000000000000004500000001
310
000000010000000AD7A3703D0AC73F000000000000F03F0000000000000000000000000000F03F000000000000000000000000000000000000000000000000000000000100000000000000000000007400780074002E00730068007800000000008D3F0C00000016000000070000C30C00000017000000FDFFFFFF0C000000
310
1200000000000000540000002000000002000000000000000000000000000000000000000000000000000000F8FFFFFFFFFF28400000000000000000000000000000000000000000000000000000000000000000000000000000F03F0C00000016000000070000C30C00000017000000FDFFFFFF0C00000012000000000000
310
005400000020000000020000000000000000000000C09F0ADBB92EDDBF0000000000000000F8FFFFFFFFFF2840C09F0ADBB92EDDBF000000000000000000000000000000000000000000000000000000000000F03F0C00000016000000070000C30C00000017000000FDFFFFFF0C0000001200000000000000540000002000
310
0000020000000000000000000000603BD7A57B1CEABF0000000000000000F8FFFFFFFFFF2840603BD7A57B1CEABF000000000000000000000000000000000000000000000000000000000000F03F0C00000016000000070000C30C00000017000000FDFFFFFF0C000000120000000000000054000000200000000200000000
310
000000000000007093142FCDD0F2BF0000000000000000F8FFFFFFFFFF28407093142FCDD0F2BF000000000000000000000000000000000000000000000000000000000000F03F0C00000016000000070000C30C00000017000000FDFFFFFF0C00000012000000000000005400000020000000020000000000000000000000
310
0000000000000000000000000000000000000000000000007093142FCDD0F2BF000000000000000000000000000000000000000000000000000000000000F03F0C00000016000000070000C30C00000017000000FDFFFFFF0C00000012000000000000005400000020000000020000000000000000000440C09F0ADBB92EDD
310
BF000000000000000000000000000004407093142FCDD0F2BF000000000000000000000000000000000000000000000000000000000000F03F0C00000016000000070000C30C00000017000000FDFFFFFF0C0000001200000000000000540000002000000002000000F0FFFFFFFFFF1340C09F0ADBB92EDDBF000000000000
310
0000F0FFFFFFFFFF13407093142FCDD0F2BF000000000000000000000000000000000000000000000000000000000000F03F0C00000016000000070000C30C00000017000000FDFFFFFF0C0000001200000000000000540000002000000002000000F0FFFFFFFFFF1D40C09F0ADBB92EDDBF0000000000000000F0FFFFFFFF
310
FF1D407093142FCDD0F2BF000000000000000000000000000000000000000000000000000000000000F03F0C00000016000000070000C30C00000017000000FDFFFFFF0C0000001200000000000000540000002000000002000000F8FFFFFFFFFF2340C09F0ADBB92EDDBF0000000000000000F8FFFFFFFFFF23407093142F
310
CDD0F2BF000000000000000000000000000000000000000000000000000000000000F03F0C00000016000000070000C30C00000017000000FDFFFFFF0C0000001200000000000000540000002000000002000000F8FFFFFFFFFF284000000000000000000000000000000000F8FFFFFFFFFF28407093142FCDD0F2BF000000
310
000000000000000000000000000000000000000000000000000000F03F0C00000016000000080000C30C00000017000000000000000C00000012000000000000005400000020000000020000000000000000000000000000000000000000000000000000000000000000000000000000000000000000000000000000000000
310
0000000000000000000000000000000000000000F03F080000001F000000
100
AcDbBlockReference
  2
*T6
 10
125.1350980161844
 20
20.50261019851033
 30
0.0
100
AcDbTable
342
FE
343
31
 11
1.0
 21
0.0
 31
0.0
 90
       22
 91
        3
 92
        5
 93
        0
 94
        0
 95
        0
 96
        0
141
0.4559769286229273
141
0.36
141
0.36
142
2.5
142
2.5
142
2.5
142
2.5
142
2.5
171
     1
172
     0
173
     0
174
     0
175
     5
176
     1
 91
   262144
178
     0
145
0.0
 92
        0
301
CELL_VALUE
 93
        6
 90
        4
  1
Zagolovok
 94
        0
300

302
Zagolovok
304
ACVALUE_END
171
     1
172
     0
173
     1
174
     0
175
     1
176
     1
 91
        0
178
     0
145
0.0
 92
        0
301
CELL_VALUE
 93
        7
 90
        0
 94
        0
300

302

304
ACVALUE_END
171
     1
172
     0
173
     1
174
     0
175
     1
176
     1
 91
        0
178
     0
145
0.0
 92
        0
301
CELL_VALUE
 93
        7
 90
        0
 94
        0
300

302

304
ACVALUE_END
171
     1
172
     0
173
     1
174
     0
175
     1
176
     1
 91
        0
178
     0
145
0.0
 92
        0
301
CELL_VALUE
 93
        7
 90
        0
 94
        0
300

302

304
ACVALUE_END
171
     1
172
     0
173
     1
174
     0
175
     1
176
     1
 91
        0
178
     0
145
0.0
 92
        0
301
CELL_VALUE
 93
        7
 90
        0
 94
        0
300

302

304
ACVALUE_END
171
     1
172
     0
173
     0
174
     0
175
     1
176
     1
 91
   262144
178
     0
145
0.0
 92
        0
301
CELL_VALUE
 93
        6
 90
        4
  1
A
 94
        0
300

302
A
304
ACVALUE_END
171
     1
172
     0
173
     0
174
     0
175
     1
176
     1
 91
   262144
178
     0
145
0.0
 92
        0
301
CELL_VALUE
 93
        6
 90
        4
  1
B
 94
        0
300

302
B
304
ACVALUE_END
171
     1
172
     0
173
     0
174
     0
175
     1
176
     1
 91
   262144
178
     0
145
0.0
 92
        0
301
CELL_VALUE
 93
        6
 90
        4
  1
C
 94
        0
300

302
C
304
ACVALUE_END
171
     1
172
     0
173
     0
174
     0
175
     1
176
     1
 91
   262144
178
     0
145
0.0
 92
        0
301
CELL_VALUE
 93
        6
 90
        4
  1
D
 94
        0
300

302
D
304
ACVALUE_END
171
     1
172
     0
173
     0
174
     0
175
     1
176
     1
 91
   262144
178
     0
145
0.0
 92
        0
301
CELL_VALUE
 93
        6
 90
        4
  1
E
 94
        0
300

302
E
304
ACVALUE_END
171
     1
172
     0
173
     0
174
     0
175
     1
176
     1
 91
   262145
178
     0
145
0.0
170
     3
 92
        0
301
CELL_VALUE
 93
        5
 90
        1
 94
        0
300

302

304
ACVALUE_END
171
     1
172
     0
173
     0
174
     0
175
     1
176
     1
 91
   262145
178
     0
145
0.0
170
     3
 92
        0
301
CELL_VALUE
 93
        5
 90
        1
 94
        0
300

302

304
ACVALUE_END
171
     1
172
     0
173
     0
174
     0
175
     1
176
     1
 91
   262145
178
     0
145
0.0
170
     3
 92
        0
301
CELL_VALUE
 93
        5
 90
        1
 94
        0
300

302

304
ACVALUE_END
171
     1
172
     0
173
     0
174
     0
175
     1
176
     1
 91
   262145
178
     0
145
0.0
170
     3
 92
        0
301
CELL_VALUE
 93
        5
 90
        1
 94
        0
300

302

304
ACVALUE_END
171
     1
172
     0
173
     0
174
     0
175
     1
176
     1
 91
   262145
178
     0
145
0.0
170
     3
 92
        0
301
CELL_VALUE
 93
        5
 90
        1
 94
        0
300

302

304
ACVALUE_END
  0
ACAD_TABLE
  5
69C
330
26
100
AcDbEntity
  8
0
 92
     2824
310
080B000046000000880000001D000000000000000000F03F00000000000000000000000000000000D0098ECD005461400000000000000000000000000000F03F0000000000000000E93CDD0FAB80344000000000000000000000000000000000000000000000F03F0000000000000000000000000000000000000000000000
310
000000000000000000000000000000F03F0C00000016000000070000C30C00000017000000FDFFFFFF0C0000001200000000000000D8000000260000009A3469D2A4C9154031AA4757663ED4BF000000000000000000000000000000000000000000000000000000000000F03F000000000000F03F00000000000000000000
310
0000000000005A00610067006F006C006F0076006F006B0000000900000001000000000000000000D03F000000000000F03F0000000000000000000000000000F03F000000000000000000000000000000000000000000000000000000000100000012000000540069006D006500730020004E0065007700200052006F006D
310
0061006E00000000000000000000000C00000016000000070000C30C00000017000000FDFFFFFF0C0000001200000000000000B8000000260000000AD7A3703D0AF33F62C0C2F7333BE7BF000000000000000000000000000000000000000000000000000000000000F03F000000000000F03F000000000000000000000000
310
000000004100000001000000010000000AD7A3703D0AC73F000000000000F03F0000000000000000000000000000F03F000000000000000000000000000000000000000000000000000000000100000000000000000000007400780074002E00730068007800000000008D3F0C00000016000000070000C30C000000170000
310
00FDFFFFFF0C0000001200000000000000B80000002600000085EB51B81E850D4062C0C2F7333BE7BF000000000000000000000000000000000000000000000000000000000000F03F000000000000F03F000000000000000000000000000000004200000001000000010000000AD7A3703D0AC73F000000000000F03F0000
310
000000000000000000000000F03F000000000000000000000000000000000000000000000000000000000100000000000000000000007400780074002E00730068007800000000008D3F0C00000016000000070000C30C00000017000000FDFFFFFF0C0000001200000000000000B800000026000000C3F5285C8FC2184062
310
C0C2F7333BE7BF000000000000000000000000000000000000000000000000000000000000F03F000000000000F03F000000000000000000000000000000004300000001000000010000000AD7A3703D0AC73F000000000000F03F0000000000000000000000000000F03F0000000000000000000000000000000000000000
310
00000000000000000100000000000000000000007400780074002E007300680078000000000000000C00000016000000070000C30C00000017000000FDFFFFFF0C0000001200000000000000B800000026000000E27A14AE4761214062C0C2F7333BE7BF000000000000000000000000000000000000000000000000000000
310
000000F03F000000000000F03F000000000000000000000000000000004400000001000000010000000AD7A3703D0AC73F000000000000F03F0000000000000000000000000000F03F000000000000000000000000000000000000000000000000000000000100000000000000000000007400780074002E00730068007800
310
0000000000000C00000016000000070000C30C00000017000000FDFFFFFF0C0000001200000000000000B800000026000000E27A14AE4761264062C0C2F7333BE7BF000000000000000000000000000000000000000000000000000000000000F03F000000000000F03F000000000000000000000000000000004500000001
310
000000010000000AD7A3703D0AC73F000000000000F03F0000000000000000000000000000F03F000000000000000000000000000000000000000000000000000000000100000000000000000000007400780074002E007300680078000000000000000C00000016000000070000C30C00000017000000FDFFFFFF0C000000
310
120000000000000054000000200000000200000000000000000000000000000000000000000000000000000000000000000029400000000000000000000000000000000000000000000000000000000000000000000000000000F03F0C00000016000000070000C30C00000017000000FDFFFFFF0C00000012000000000000
310
005400000020000000020000000000000000000000C09F0ADBB92EDDBF00000000000000000000000000002940C09F0ADBB92EDDBF000000000000000000000000000000000000000000000000000000000000F03F0C00000016000000070000C30C00000017000000FDFFFFFF0C0000001200000000000000540000002000
310
0000020000000000000000000000603BD7A57B1CEABF00000000000000000000000000002940603BD7A57B1CEABF000000000000000000000000000000000000000000000000000000000000F03F0C00000016000000070000C30C00000017000000FDFFFFFF0C000000120000000000000054000000200000000200000000
310
000000000000007093142FCDD0F2BF000000000000000000000000000029407093142FCDD0F2BF000000000000000000000000000000000000000000000000000000000000F03F0C00000016000000070000C30C00000017000000FDFFFFFF0C00000012000000000000005400000020000000020000000000000000000000
310
0000000000000000000000000000000000000000000000007093142FCDD0F2BF000000000000000000000000000000000000000000000000000000000000F03F0C00000016000000070000C30C00000017000000FDFFFFFF0C00000012000000000000005400000020000000020000000000000000000440C09F0ADBB92EDD
310
BF000000000000000000000000000004407093142FCDD0F2BF000000000000000000000000000000000000000000000000000000000000F03F0C00000016000000070000C30C00000017000000FDFFFFFF0C00000012000000000000005400000020000000020000000000000000001440C09F0ADBB92EDDBF000000000000
310
000000000000000014407093142FCDD0F2BF000000000000000000000000000000000000000000000000000000000000F03F0C00000016000000070000C30C00000017000000FDFFFFFF0C00000012000000000000005400000020000000020000000000000000001E40C09F0ADBB92EDDBF00000000000000000000000000
310
001E407093142FCDD0F2BF000000000000000000000000000000000000000000000000000000000000F03F0C00000016000000070000C30C00000017000000FDFFFFFF0C00000012000000000000005400000020000000020000000000000000002440C09F0ADBB92EDDBF000000000000000000000000000024407093142F
310
CDD0F2BF000000000000000000000000000000000000000000000000000000000000F03F0C00000016000000070000C30C00000017000000FDFFFFFF0C000000120000000000000054000000200000000200000000000000000029400000000000000000000000000000000000000000000029407093142FCDD0F2BF000000
310
000000000000000000000000000000000000000000000000000000F03F0C00000016000000080000C30C00000017000000000000000C00000012000000000000005400000020000000020000000000000000000000000000000000000000000000000000000000000000000000000000000000000000000000000000000000
310
0000000000000000000000000000000000000000F03F080000001F000000
100
AcDbBlockReference
  2
*T7
 10
138.6250980161844
 20
20.50261019851033
 30
0.0
100
AcDbTable
342
FE
343
32
 11
1.0
 21
0.0
 31
0.0
 90
       22
 91
        3
 92
        5
 93
        0
 94
        0
 95
        0
 96
        0
141
0.4559769286229273
141
0.36
141
0.36
142
2.5
142
2.5
142
2.5
142
2.5
142
2.5
171
     1
172
     0
173
     0
174
     0
175
     5
176
     1
 91
   262144
178
     0
145
0.0
 92
        0
301
CELL_VALUE
 93
        6
 90
        4
  1
Zagolovok
 94
        0
300

302
Zagolovok
304
ACVALUE_END
171
     1
172
     0
173
     1
174
     0
175
     1
176
     1
 91
        0
178
     0
145
0.0
 92
        0
301
CELL_VALUE
 93
        7
 90
        0
 94
        0
300

302

304
ACVALUE_END
171
     1
172
     0
173
     1
174
     0
175
     1
176
     1
 91
        0
178
     0
145
0.0
 92
        0
301
CELL_VALUE
 93
        7
 90
        0
 94
        0
300

302

304
ACVALUE_END
171
     1
172
     0
173
     1
174
     0
175
     1
176
     1
 91
        0
178
     0
145
0.0
 92
        0
301
CELL_VALUE
 93
        7
 90
        0
 94
        0
300

302

304
ACVALUE_END
171
     1
172
     0
173
     1
174
     0
175
     1
176
     1
 91
        0
178
     0
145
0.0
 92
        0
301
CELL_VALUE
 93
        7
 90
        0
 94
        0
300

302

304
ACVALUE_END
171
     1
172
     0
173
     0
174
     0
175
     1
176
     1
 91
   262144
178
     0
145
0.0
 92
        0
301
CELL_VALUE
 93
        6
 90
        4
  1
A
 94
        0
300

302
A
304
ACVALUE_END
171
     1
172
     0
173
     0
174
     0
175
     1
176
     1
 91
   262144
178
     0
145
0.0
 92
        0
301
CELL_VALUE
 93
        6
 90
        4
  1
B
 94
        0
300

302
B
304
ACVALUE_END
171
     1
172
     0
173
     0
174
     0
175
     1
176
     1
 91
   262144
178
     0
145
0.0
 92
        0
301
CELL_VALUE
 93
        6
 90
        4
  1
C
 94
        0
300

302
C
304
ACVALUE_END
171
     1
172
     0
173
     0
174
     0
175
     1
176
     1
 91
   262144
178
     0
145
0.0
 92
        0
301
CELL_VALUE
 93
        6
 90
        4
  1
D
 94
        0
300

302
D
304
ACVALUE_END
171
     1
172
     0
173
     0
174
     0
175
     1
176
     1
 91
   262144
178
     0
145
0.0
 92
        0
301
CELL_VALUE
 93
        6
 90
        4
  1
E
 94
        0
300

302
E
304
ACVALUE_END
171
     1
172
     0
173
     0
174
     0
175
     1
176
     1
 91
   262145
178
     0
145
0.0
170
     3
 92
        0
301
CELL_VALUE
 93
        5
 90
        1
 94
        0
300

302

304
ACVALUE_END
171
     1
172
     0
173
     0
174
     0
175
     1
176
     1
 91
   262145
178
     0
145
0.0
170
     3
 92
        0
301
CELL_VALUE
 93
        5
 90
        1
 94
        0
300

302

304
ACVALUE_END
171
     1
172
     0
173
     0
174
     0
175
     1
176
     1
 91
   262145
178
     0
145
0.0
170
     3
 92
        0
301
CELL_VALUE
 93
        5
 90
        1
 94
        0
300

302

304
ACVALUE_END
171
     1
172
     0
173
     0
174
     0
175
     1
176
     1
 91
   262145
178
     0
145
0.0
170
     3
 92
        0
301
CELL_VALUE
 93
        5
 90
        1
 94
        0
300

302

304
ACVALUE_END
171
     1
172
     0
173
     0
174
     0
175
     1
176
     1
 91
   262145
178
     0
145
0.0
170
     3
 92
        0
301
CELL_VALUE
 93
        5
 90
        1
 94
        0
300

302

304
ACVALUE_END
0
ENDSEC
0
SECTION
2
OBJECTS
0
DICTIONARY
5
69D
330
0
100
AcDbDictionary
281
1
3
ACAD_COLOR
350
69E
3
ACAD_GROUP
350
69F
3
ACAD_LAYOUT
350
6A0
3
ACAD_MATERIAL
350
6A1
3
ACAD_MLINESTYLE
350
6A2
3
ACAD_PLOTSETTINGS
350
6A3
3
ACAD_PLOTSTYLENAME
350
6A4
3
ACAD_TABLESTYLE
350
6A5
3
ACAD_VISUALSTYLE
350
6A6
3
AcDbVariableDictionary
350
6A7
0
DICTIONARY
5
69E
102
{ACAD_REACTORS
330
69D
102
}
330
69D
100
AcDbDictionary
281
1
0
DICTIONARY
5
69F
102
{ACAD_REACTORS
330
69D
102
}
330
69D
100
AcDbDictionary
281
1
0
DICTIONARY
5
6A0
102
{ACAD_REACTORS
330
69D
102
}
330
69D
100
AcDbDictionary
281
1
3
Layout1
350
29
3
Layout2
350
2B
3
Model
350
27
0
DICTIONARY
5
6A1
102
{ACAD_REACTORS
330
69D
102
}
330
69D
100
AcDbDictionary
281
1
3
ByBlock
350
6A8
3
ByLayer
350
6A9
3
Global
350
6AA
0
DICTIONARY
5
6A2
102
{ACAD_REACTORS
330
69D
102
}
330
69D
100
AcDbDictionary
281
1
3
Standard
350
6AB
0
DICTIONARY
5
6A3
102
{ACAD_REACTORS
330
69D
102
}
330
69D
100
AcDbDictionary
281
1
0
ACDBDICTIONARYWDFLT
5
6A4
102
{ACAD_REACTORS
330
69D
102
}
330
69D
100
AcDbDictionary
281
1
3
Normal
350
F
100
AcDbDictionaryWithDefault
340
F
0
DICTIONARY
5
6A5
102
{ACAD_REACTORS
330
69D
102
}
330
69D
100
AcDbDictionary
281
1
3
aits
350
FD
3
Standard
350
FE
3
vebts
350
FF
0
DICTIONARY
5
6A6
102
{ACAD_REACTORS
330
69D
102
}
330
69D
100
AcDbDictionary
281
1
3
2dWireframe
350
6AC
3
3D Hidden
350
6AD
3
3dWireframe
350
6AE
3
Basic
350
6AF
3
Brighten
350
6B0
3
ColorChange
350
6B1
3
Conceptual
350
6B2
3
Dim
350
6B3
3
Facepattern
350
6B4
3
Flat
350
6B5
3
FlatWithEdges
350
6B6
3
Gouraud
350
6B7
3
GouraudWithEdges
350
6B8
3
Linepattern
350
6B9
3
Realistic
350
6BA
3
Thicken
350
6BB
0
DICTIONARY
5
6A7
102
{ACAD_REACTORS
330
69D
102
}
330
69D
100
AcDbDictionary
281
1
3
CTABLESTYLE
350
6BC
3
DIMASSOC
350
6BD
3
HIDETEXT
350
6BE
0
LAYOUT
5
29
102
{ACAD_REACTORS
330
6A0
102
}
330
6A0
100
AcDbPlotSettings
1

2
None
4

6

40
0.0
41
0.0
42
0.0
43
0.0
44
0.0
45
0.0
46
0.0
47
0.0
48
0.0
49
0.0
140
0.0
141
0.0
142
1.0
143
1.0
70
688
72
0
73
0
74
5
7

75
16
147
1.0
76
0
77
2
78
300
148
0.0
149
0.0
100
AcDbLayout
1
Layout1
70
1
71
1
10
0.0
20
0.0
11
12.0
21
9.0
12
0.0
22
0.0
32
0.0
14
0.0
24
0.0
34
0.0
15
0.0
25
0.0
35
0.0
146
0.0
13
0.0
23
0.0
33
0.0
16
1.0
26
0.0
36
0.0
17
0.0
27
1.0
37
0.0
76
0
330
28
0
LAYOUT
5
2B
102
{ACAD_REACTORS
330
6A0
102
}
330
6A0
100
AcDbPlotSettings
1

2
None
4

6

40
0.0
41
0.0
42
0.0
43
0.0
44
0.0
45
0.0
46
0.0
47
0.0
48
0.0
49
0.0
140
0.0
141
0.0
142
1.0
143
1.0
70
688
72
0
73
0
74
5
7

75
16
147
1.0
76
0
77
2
78
300
148
0.0
149
0.0
100
AcDbLayout
1
Layout2
70
1
71
2
10
0.0
20
0.0
11
12.0
21
9.0
12
0.0
22
0.0
32
0.0
14
0.0
24
0.0
34
0.0
15
0.0
25
0.0
35
0.0
146
0.0
13
0.0
23
0.0
33
0.0
16
1.0
26
0.0
36
0.0
17
0.0
27
1.0
37
0.0
76
0
330
2A
0
LAYOUT
5
27
102
{ACAD_REACTORS
330
6A0
102
}
330
6A0
100
AcDbPlotSettings
1

2
none_device
4
ANSI_A_(8.50_x_11.00_Inches)
6

40
6.349999904632568
41
19.04999923706055
42
6.350006103515625
43
19.04998779296875
44
215.8999938964844
45
279.3999938964844
46
0.0
47
0.0
48
0.0
49
0.0
140
0.0
141
0.0
142
1.0
143
2.584895464708373
70
11952
72
0
73
1
74
0
7

75
0
147
0.3868628397755418
76
0
77
2
78
300
148
0.0
149
0.0
100
AcDbLayout
1
Model
70
1
71
0
10
0.0
20
0.0
11
12.0
21
9.0
12
0.0
22
0.0
32
0.0
14
0.0
24
0.0
34
0.0
15
0.0
25
0.0
35
0.0
146
0.0
13
0.0
23
0.0
33
0.0
16
1.0
26
0.0
36
0.0
17
0.0
27
1.0
37
0.0
76
0
330
26
331
94
0
MATERIAL
5
6A8
102
{ACAD_REACTORS
330
6A1
102
}
330
6A1
100
AcDbMaterial
1
ByBlock
0
MATERIAL
5
6A9
102
{ACAD_REACTORS
330
6A1
102
}
330
6A1
100
AcDbMaterial
1
ByLayer
0
MATERIAL
5
6AA
102
{ACAD_REACTORS
330
6A1
102
}
330
6A1
100
AcDbMaterial
1
Global
0
MLINESTYLE
5
6AB
102
{ACAD_REACTORS
330
6A2
102
}
330
6A2
100
AcDbMlineStyle
2
STANDARD
70
0
3

62
256
51
90.0
52
90.0
71
2
49
0.5
62
256
6
BYLAYER
49
-0.5
62
256
6
BYLAYER
0
ACDBPLACEHOLDER
5
F
102
{ACAD_REACTORS
330
6A4
102
}
330
6A4
0
TABLESTYLE
5
FD
102
{ACAD_REACTORS
330
6A5
102
}
330
6A5
100
AcDbTableStyle
3
aits
70
0
71
0
40
0.06
41
0.06
280
0
281
0
7
newtext
140
18.0
170
2
62
0
63
7
283
0
90
512
91
0
1

274
-2
284
1
64
0
275
-2
285
1
65
0
276
-2
286
1
66
0
277
-2
287
1
67
0
278
-2
288
1
68
0
279
-2
289
1
69
0
7
newtext
140
40.0
170
5
62
0
63
7
283
0
90
512
91
0
1

274
-2
284
1
64
0
275
-2
285
1
65
0
276
-2
286
1
66
0
277
-2
287
1
67
0
278
-2
288
1
68
0
279
-2
289
1
69
0
7
newtext
140
28.0
170
5
62
0
63
7
283
0
90
512
91
0
1

274
-2
284
1
64
0
275
-2
285
1
65
0
276
-2
286
1
66
0
277
-2
287
1
67
0
278
-2
288
1
68
0
279
-2
289
1
69
0
0
TABLESTYLE
5
FE
102
{ACAD_REACTORS
330
6A5
102
}
330
6A5
100
AcDbTableStyle
3
Standard
70
0
71
0
40
0.06
41
0.06
280
0
281
0
7
newtext
140
0.18
170
2
62
0
63
7
283
0
90
512
91
0
1

274
-2
284
1
64
0
275
-2
285
1
65
0
276
-2
286
1
66
0
277
-2
287
1
67
0
278
-2
288
1
68
0
279
-2
289
1
69
0
7
newtext
140
0.25
170
5
62
0
63
7
283
0
90
512
91
0
1

274
-2
284
1
64
0
275
-2
285
1
65
0
276
-2
286
1
66
0
277
-2
287
1
67
0
278
-2
288
1
68
0
279
-2
289
1
69
0
7
Standard
140
0.18
170
5
62
0
63
7
283
0
90
512
91
0
1

274
-2
284
1
64
0
275
-2
285
1
65
0
276
-2
286
1
66
0
277
-2
287
1
67
0
278
-2
288
1
68
0
279
-2
289
1
69
0
0
TABLESTYLE
5
FF
102
{ACAD_REACTORS
330
6A5
102
}
330
6A5
100
AcDbTableStyle
3
vebts
70
0
71
0
40
0.06
41
0.06
280
0
281
0
7
Standard
140
1.8
170
2
62
0
63
7
283
0
90
512
91
0
1

274
-2
284
1
64
0
275
-2
285
1
65
0
276
-2
286
1
66
0
277
-2
287
1
67
0
278
-2
288
1
68
0
279
-2
289
1
69
0
7
Standard
140
4.0
170
5
62
0
63
7
283
0
90
512
91
0
1

274
-2
284
1
64
0
275
-2
285
1
65
0
276
-2
286
1
66
0
277
-2
287
1
67
0
278
-2
288
1
68
0
279
-2
289
1
69
0
7
newtext
140
2.8
170
5
62
0
63
7
283
0
90
512
91
0
1

274
-2
284
1
64
0
275
-2
285
1
65
0
276
-2
286
1
66
0
277
-2
287
1
67
0
278
-2
288
1
68
0
279
-2
289
1
69
0
0
VISUALSTYLE
5
6AC
102
{ACAD_REACTORS
330
6A6
102
}
330
6A6
100
AcDbVisualStyle
2
2dWireframe
70
4
71
0
72
2
73
1
90
0
40
-0.6
41
-30.0
62
5
63
7
421
16777215
74
1
91
4
64
7
65
257
75
1
175
1
42
1.0
92
0
66
257
43
1.0
76
1
77
6
78
2
67
7
79
5
170
0
171
0
290
0
174
0
93
1
44
0.0
173
0
291
0
45
0.0
0
VISUALSTYLE
5
6AD
102
{ACAD_REACTORS
330
6A6
102
}
330
6A6
100
AcDbVisualStyle
2
3D Hidden
70
6
71
1
72
2
73
2
90
0
40
-0.6
41
-30.0
62
5
63
7
421
16777215
74
2
91
2
64
7
65
257
75
2
175
1
42
40.0
92
0
66
257
43
1.0
76
1
77
6
78
2
67
7
79
3
170
0
171
0
290
0
174
0
93
1
44
0.0
173
0
291
0
45
0.0
0
VISUALSTYLE
5
6AE
102
{ACAD_REACTORS
330
6A6
102
}
330
6A6
100
AcDbVisualStyle
2
3dWireframe
70
5
71
0
72
2
73
1
90
0
40
-0.6
41
-30.0
62
5
63
7
421
16777215
74
1
91
4
64
7
65
257
75
1
175
1
42
1.0
92
0
66
257
43
1.0
76
1
77
6
78
2
67
7
79
5
170
0
171
0
290
0
174
0
93
1
44
0.0
173
0
291
0
45
0.0
0
VISUALSTYLE
5
6AF
102
{ACAD_REACTORS
330
6A6
102
}
330
6A6
100
AcDbVisualStyle
2
Basic
70
7
71
1
72
0
73
1
90
0
40
-0.6
41
-30.0
62
5
63
7
421
16777215
74
0
91
4
64
7
65
257
75
1
175
1
42
1.0
92
8
66
7
43
1.0
76
1
77
6
78
2
67
7
79
5
170
0
171
0
290
0
174
0
93
1
44
0.0
173
0
291
1
45
0.0
0
VISUALSTYLE
5
6B0
102
{ACAD_REACTORS
330
6A6
102
}
330
6A6
100
AcDbVisualStyle
2
Brighten
70
12
71
2
72
2
73
1
90
0
40
-0.6
41
-30.0
62
5
63
7
421
16777215
74
1
91
4
64
7
65
257
75
1
175
1
42
1.0
92
8
66
7
43
1.0
76
1
77
6
78
2
67
7
79
5
170
0
171
0
290
0
174
0
93
1
44
50.0
173
0
291
1
45
0.0
0
VISUALSTYLE
5
6B1
102
{ACAD_REACTORS
330
6A6
102
}
330
6A6
100
AcDbVisualStyle
2
ColorChange
70
16
71
2
72
2
73
3
90
0
40
-0.6
41
-30.0
62
5
63
8
421
8421504
74
1
91
4
64
7
65
257
75
1
175
1
42
1.0
92
8
66
8
424
8421504
43
1.0
76
1
77
6
78
2
67
7
79
5
170
0
171
0
290
0
174
0
93
1
44
0.0
173
0
291
1
45
0.0
0
VISUALSTYLE
5
6B2
102
{ACAD_REACTORS
330
6A6
102
}
330
6A6
100
AcDbVisualStyle
2
Conceptual
70
9
71
3
72
2
73
1
90
0
40
-0.6
41
-30.0
62
5
63
7
421
16777215
74
2
91
2
64
7
65
257
75
1
175
1
42
40.0
92
8
66
7
43
1.0
76
1
77
6
78
2
67
7
79
3
170
0
171
0
290
0
174
0
93
1
44
0.0
173
0
291
0
45
0.0
0
VISUALSTYLE
5
6B3
102
{ACAD_REACTORS
330
6A6
102
}
330
6A6
100
AcDbVisualStyle
2
Dim
70
11
71
2
72
2
73
1
90
0
40
-0.6
41
-30.0
62
5
63
7
421
16777215
74
1
91
4
64
7
65
257
75
1
175
1
42
1.0
92
8
66
7
43
1.0
76
1
77
6
78
2
67
7
79
5
170
0
171
0
290
0
174
0
93
1
44
-50.0
173
0
291
1
45
0.0
0
VISUALSTYLE
5
6B4
102
{ACAD_REACTORS
330
6A6
102
}
330
6A6
100
AcDbVisualStyle
2
Facepattern
70
15
71
2
72
2
73
1
90
0
40
-0.6
41
-30.0
62
5
63
7
421
16777215
74
1
91
4
64
7
65
257
75
1
175
1
42
1.0
92
8
66
7
43
1.0
76
1
77
6
78
2
67
7
79
5
170
0
171
0
290
0
174
0
93
1
44
0.0
173
0
291
1
45
0.0
0
VISUALSTYLE
5
6B5
102
{ACAD_REACTORS
330
6A6
102
}
330
6A6
100
AcDbVisualStyle
2
Flat
70
0
71
2
72
1
73
1
90
2
40
-0.6
41
30.0
62
5
63
7
421
16777215
74
0
91
4
64
7
65
257
75
1
175
1
42
1.0
92
8
66
7
43
1.0
76
1
77
6
78
2
67
7
79
5
170
0
171
0
290
0
174
0
93
1
44
0.0
173
0
291
1
45
0.0
0
VISUALSTYLE
5
6B6
102
{ACAD_REACTORS
330
6A6
102
}
330
6A6
100
AcDbVisualStyle
2
FlatWithEdges
70
1
71
2
72
1
73
1
90
2
40
-0.6
41
30.0
62
5
63
7
421
16777215
74
1
91
4
64
7
65
257
75
1
175
1
42
1.0
92
0
66
257
43
1.0
76
1
77
6
78
2
67
7
79
5
170
0
171
0
290
0
174
0
93
1
44
0.0
173
0
291
1
45
0.0
0
VISUALSTYLE
5
6B7
102
{ACAD_REACTORS
330
6A6
102
}
330
6A6
100
AcDbVisualStyle
2
Gouraud
70
2
71
2
72
2
73
1
90
2
40
-0.6
41
30.0
62
5
63
7
421
16777215
74
0
91
4
64
7
65
257
75
1
175
1
42
1.0
92
0
66
7
43
1.0
76
1
77
6
78
2
67
7
79
5
170
0
171
0
290
0
174
0
93
1
44
0.0
173
0
291
1
45
0.0
0
VISUALSTYLE
5
6B8
102
{ACAD_REACTORS
330
6A6
102
}
330
6A6
100
AcDbVisualStyle
2
GouraudWithEdges
70
3
71
2
72
2
73
1
90
2
40
-0.6
41
30.0
62
5
63
7
421
16777215
74
1
91
4
64
7
65
257
75
1
175
1
42
1.0
92
0
66
257
43
1.0
76
1
77
6
78
2
67
7
79
5
170
0
171
0
290
0
174
0
93
1
44
0.0
173
0
291
1
45
0.0
0
VISUALSTYLE
5
6B9
102
{ACAD_REACTORS
330
6A6
102
}
330
6A6
100
AcDbVisualStyle
2
Linepattern
70
14
71
2
72
2
73
1
90
0
40
-0.6
41
-30.0
62
5
63
7
421
16777215
74
1
91
4
64
7
65
257
75
7
175
7
42
1.0
92
8
66
7
43
1.0
76
1
77
6
78
2
67
7
79
5
170
0
171
0
290
0
174
0
93
1
44
0.0
173
0
291
1
45
0.0
0
VISUALSTYLE
5
6BA
102
{ACAD_REACTORS
330
6A6
102
}
330
6A6
100
AcDbVisualStyle
2
Realistic
70
8
71
2
72
2
73
1
90
0
40
-0.6
41
-30.0
62
5
63
7
421
16777215
74
1
91
0
64
7
65
257
75
1
175
1
42
1.0
92
8
66
8
424
7895160
43
1.0
76
1
77
6
78
2
67
7
79
5
170
0
171
0
290
0
174
0
93
13
44
0.0
173
0
291
0
45
0.0
0
VISUALSTYLE
5
6BB
102
{ACAD_REACTORS
330
6A6
102
}
330
6A6
100
AcDbVisualStyle
2
Thicken
70
13
71
2
72
2
73
1
90
0
40
-0.6
41
-30.0
62
5
63
7
421
16777215
74
1
91
4
64
7
65
257
75
1
175
1
42
1.0
92
12
66
7
43
1.0
76
1
77
6
78
2
67
7
79
5
170
0
171
0
290
0
174
0
93
1
44
0.0
173
0
291
1
45
0.0
0
DICTIONARYVAR
5
6BC
102
{ACAD_REACTORS
330
6A7
102
}
330
6A7
100
DictionaryVariables
280
0
1
STANDARD
0
DICTIONARYVAR
5
6BD
102
{ACAD_REACTORS
330
6A7
102
}
330
6A7
100
DictionaryVariables
280
0
1
2
0
DICTIONARYVAR
5
6BE
102
{ACAD_REACTORS
330
6A7
102
}
330
6A7
100
DictionaryVariables
280
0
1
1
0
XRECORD
5
6C0
330
0
100
AcDbXrecord
280
1
102
ACAD_ROUNDTRIP_2008_TABLE_ENTITY
360
EB
70
1
90
3
90
1
40
0.9900000000
90
2
90
0
90
1
10
0.0000000000
20
0.0000000000
30
0.0000000000
40
2.0485843590
330
54C
330
5BC
330
62C
330
69C
361
EB
0
ENDSEC
0
EOF
