0
POLYLINE
5
1
8
0
66
1
10
0.0
20
0.0
30
0.0
70
64
71
8
72
6
0
VERTEX
5
2
8
0
10
0.0
20
0.0
30
0.0
0
VERTEX
5
3
8
0
10
10.0
20
0.0
30
0.0
0
VERTEX
5
4
8
0
10
10.0
20
10.0
30
0.0
0
VERTEX
5
5
8
0
10
0.0
20
10.0
30
0.0
0
VERTEX
5
6
8
0
10
5.0
20
5.0
30
10.0
0
VERTEX
5
7
8
0
10
0.0
20
0.0
30
10.0
0
VERTEX
5
8
8
0
10
10.0
20
0.0
30
10.0
0
VERTEX
5
9
8
0
10
10.0
20
10.0
30
10.0
0
VERTEX
5
10
8
0
10
0.0
20
10.0
30
10.0
0
VERTEX
5
11
8
0
70
192
71
1
72
2
73
3
0
VERTEX
5
12
8
0
70
192
71
1
72
3
73
4
0
VERTEX
5
13
8
0
70
192
71
1
72
4
73
2
0
VERTEX
5
14
8
0
70
192
71
5
72
6
73
7
0
VERTEX
5
15
8
0
70
192
71
6
72
8
73
7
0
VERTEX
5
16
8
0
70
192
71
5
72
8
73
9
0
SEQEND
5
17